<svg id="Grupo_137467" data-name="Grupo 137467" xmlns="http://www.w3.org/2000/svg" xmlns:xlink="http://www.w3.org/1999/xlink" width="401.63" height="200.43" viewBox="0 0 401.63 200.43">
  <defs>
    <clipPath id="clip-path">
      <rect id="Rectángulo_43892" data-name="Rectángulo 43892" width="401.63" height="200.43" fill="none"/>
    </clipPath>
    <clipPath id="clip-path-2">
      <rect id="Rectángulo_43891" data-name="Rectángulo 43891" width="401.63" height="200.431" fill="none"/>
    </clipPath>
    <clipPath id="clip-path-3">
      <rect id="Rectángulo_43880" data-name="Rectángulo 43880" width="51.43" height="100.353" fill="none"/>
    </clipPath>
    <clipPath id="clip-path-4">
      <rect id="Rectángulo_43881" data-name="Rectángulo 43881" width="20.44" height="100.346" fill="none"/>
    </clipPath>
    <clipPath id="clip-path-5">
      <rect id="Rectángulo_43882" data-name="Rectángulo 43882" width="37.249" height="52.852" fill="none"/>
    </clipPath>
    <clipPath id="clip-path-6">
      <rect id="Rectángulo_43885" data-name="Rectángulo 43885" width="26.107" height="72.34" fill="none"/>
    </clipPath>
    <clipPath id="clip-path-7">
      <rect id="Rectángulo_43886" data-name="Rectángulo 43886" width="20.949" height="84.306" fill="none"/>
    </clipPath>
    <clipPath id="clip-path-8">
      <rect id="Rectángulo_43887" data-name="Rectángulo 43887" width="16.594" height="1.093" fill="none"/>
    </clipPath>
    <clipPath id="clip-path-9">
      <rect id="Rectángulo_43888" data-name="Rectángulo 43888" width="15.891" height="8.561" fill="none"/>
    </clipPath>
  </defs>
  <g id="Grupo_137466" data-name="Grupo 137466" clip-path="url(#clip-path)">
    <g id="Grupo_137465" data-name="Grupo 137465" transform="translate(0 -0.001)">
      <g id="Grupo_137464" data-name="Grupo 137464" clip-path="url(#clip-path-2)">
        <path id="Trazado_198954" data-name="Trazado 198954" d="M14.7,199.351c.087-1.537-34.207-51.208,1.678-99.549S94.221,77.511,102.829,43.5C113.591.973,167.113-10.99,193.552,10.327c35.01,28.229,88.809-9.285,137.735,9.506,80.322,30.85,23.4,91.531,41.528,100.341s40.169,27.612,16.413,78.655Z" transform="translate(0 0.005)" fill="#eef5ff"/>
        <path id="Trazado_198955" data-name="Trazado 198955" d="M946.509,418.1c-5.666-8.377-20.261-.151-20.261-.151s-5.043,19.787-7.989,21.227,1.008-17.759,1.008-17.759c-6.162,1.467-18.855,13.987-18.855,13.987s7.424,18.524,4.214,19.195-5.736-16.738-5.736-16.738c-5.178,3.71-8.258,12.289-8.258,12.289-2.975,13.274,14.223,16.409,14.223,16.409a32.444,32.444,0,0,1,.966,15.363h0a23.531,23.531,0,0,0-.557,4.37l1.574-.539c-.016-.466-.014-.922.008-1.368a.01.01,0,0,1,0-.008c0-.006,0-.013,0-.019.024-.28.061-.679.109-1.167v0s0,0,0,0c.158-1.106.245-1.912.278-2.485a.019.019,0,0,0,0-.005c.428-3.448,1.184-8.008,2.291-9.29a3.224,3.224,0,0,1-.584-.606l.584.606c4.671,4.849,18.468,1.195,25.444-2.916s2.98-5.106-2.238-7.156-13.372,1.757-16.335,1.267.231-3.089,5.365-4.419,9.35,2.815,17.694.816,9.291-19.308,9.291-19.308c-4.986,3.644-16.045,3.994-17.089,2.2s13.836-6.677,15.947-8.045,4.568-7.37-1.1-15.748" transform="translate(-770.283 -358.483)" fill="#dfebfd"/>
        <path id="Trazado_198956" data-name="Trazado 198956" d="M2072.464,1170.363c5.477-5.892-3.514-15.728-3.514-15.728s-16.238-.361-17.882-2.387,13.943-2.4,13.943-2.4c-2.241-4.512-14.218-12.1-14.218-12.1s-13.025,9.073-14.12,6.705,11.943-7.445,11.943-7.445c-3.8-3.348-11-4.2-11-4.2-10.82.073-10.167,13.963-10.167,13.963a25.809,25.809,0,0,1-11.732,3.5h0a18.712,18.712,0,0,0-3.487.352l.7,1.123c.358-.1.712-.176,1.061-.239a.008.008,0,0,1,.006,0l.015,0c.221-.031.537-.075.924-.124h0c.885-.076,1.526-.153,1.975-.23h0c2.749-.286,6.418-.518,7.61.111a2.563,2.563,0,0,1,.365-.561l-.365.561c-2.92,4.489,2.384,14.526,6.82,19.2s4.491,1.394,5.145-3.016-3.758-10.048-3.91-12.431,2.436-.375,4.386,3.366-.506,7.75,2.539,13.858,16.628,3.74,16.628,3.74c-3.717-3.211-5.971-11.718-4.769-12.848s7.654,9.525,9.093,10.916,6.53,2.219,12.007-3.673" transform="translate(-1740.995 -980.112)" fill="#dfebfd"/>
        <path id="Trazado_198957" data-name="Trazado 198957" d="M564.352,577.828c3.238-6.164,13.852-1.648,13.852-1.648s4.959,13.155,7.085,13.915-2.044-12.075-2.044-12.075c4.328.534,13.968,8.133,13.968,8.133s-3.667,13.241-1.42,13.455,2.649-11.89,2.649-11.89c3.826,2.143,6.587,7.779,6.587,7.779,3.048,8.856-8.481,12.312-8.481,12.312a22.334,22.334,0,0,0,.511,10.585h0a16.2,16.2,0,0,1,.714,2.948l-1.118-.249q-.037-.48-.11-.935a.007.007,0,0,0,0-.006l0-.013c-.038-.19-.093-.46-.164-.79h0s0,0,0,0c-.192-.745-.313-1.29-.38-1.679a.016.016,0,0,1,0,0c-.556-2.326-1.421-5.389-2.276-6.182a2.217,2.217,0,0,0,.353-.459l-.353.459c-2.827,3.674-12.546,2.226-17.632-.055s-2.428-3.267.985-5.067,9.284.182,11.273-.379-.394-2.1-4.008-2.614-6.182,2.639-12.044,1.907-7.83-12.5-7.83-12.5c3.689,2.113,11.283,1.51,11.861.2s-9.976-3.513-11.525-4.289-3.688-4.695-.45-10.859" transform="translate(-486.821 -497.134)" fill="#d7e8fd"/>
        <g id="Grupo_137445" data-name="Grupo 137445" transform="translate(248.772 97.836)" opacity="0.5">
          <g id="Grupo_137444" data-name="Grupo 137444">
            <g id="Grupo_137443" data-name="Grupo 137443" clip-path="url(#clip-path-3)">
              <path id="Trazado_198958" data-name="Trazado 198958" d="M1888.57,826.178l-22.59-.007-11.95,0a8.459,8.459,0,0,1-8.429-8.438l.026-83.475a8.454,8.454,0,0,1,8.434-8.43l10.6,0,23.943.007a8.456,8.456,0,0,1,8.429,8.436l-.024,83.475a8.46,8.46,0,0,1-8.436,8.432" transform="translate(-1845.601 -725.825)" fill="#c0d8fb"/>
            </g>
          </g>
        </g>
        <path id="Trazado_198959" data-name="Trazado 198959" d="M1905.965,1076.776l-.6-4.394-.6-4.395a4.131,4.131,0,0,0-4.635-3.522c-.124.017-.245.041-.365.069a4.083,4.083,0,0,0,.708-1.946,4.114,4.114,0,0,0,7.8-2.539l-1.032-4.312-1.032-4.314a4.117,4.117,0,1,0-8.007,1.916l1.555,6.5a4.073,4.073,0,0,0-3.247-1.749,11.275,11.275,0,0,0-.855-8.682l-6.837-5.651a4.115,4.115,0,0,0-5.61,6,4.073,4.073,0,0,0-1.1.141l-4.279,1.171-4.277,1.17a4.124,4.124,0,0,0-2.909,3l-.449-1.076-1.709-4.091a4.116,4.116,0,0,0-7.6,3.173l1.709,4.091,1.1,2.622a4.126,4.126,0,0,0-2.6,3.615l-.224,4.428h0l-.224,4.43a4.1,4.1,0,0,0,5.293,4.145,4.152,4.152,0,0,0-.327,2.782,4.086,4.086,0,0,0-1.745,1.982l-1.694,4.1-1.694,4.1a14.9,14.9,0,0,1,8.109,6.011,4.128,4.128,0,0,0,5.771-.766l2.7-3.521,2.7-3.522a2.687,2.687,0,0,1,3.477-2.269l.706-.487-.978,1.278-2.7,3.521a4.117,4.117,0,0,0,6.537,5l2.7-3.521,2.7-3.522c.035-.045.063-.093.1-.14a4.1,4.1,0,0,0,.789.928l-.96,1.254a4.116,4.116,0,1,0,6.537,5l5.391-7.043a4.1,4.1,0,0,0-1.75-6.324c.05-.005.1-.006.15-.013a4.128,4.128,0,0,0,3.522-4.635m-37.1-3.928.077-1.511a3.949,3.949,0,0,0,1.533,1.488l-1.886,1.3a4.079,4.079,0,0,0,.276-1.278m27.74-3.747.806,5.909a4.127,4.127,0,0,0-4.274-2.265,4.074,4.074,0,0,0,1.121-1l2.314-3.023c.005.127.015.255.032.383m-9.363-15.962,1.037.857-1.068.736a4.068,4.068,0,0,0,.03-1.594m.9,13.054a4.114,4.114,0,0,0-.729-1.747,4.072,4.072,0,0,0,.886-.458l3.244-2.237Zm2.692,7.7a4.145,4.145,0,0,0-3.1-.936l.088-1.109a2.114,2.114,0,1,1,3.016,2.044m-8.293-15.58a4.128,4.128,0,0,0,.031,4.62c.018.026.039.049.057.075a.9.9,0,1,1-.683-1.362,4.1,4.1,0,0,0-1.573-2.728l-.012-.008Zm-4.1,9.9,1.588-2.074c-.022.128-.04.258-.051.39l-.3,3.808a4.123,4.123,0,0,0-2.091-1.007Zm-7.433,17.4.466-1.128a4.083,4.083,0,0,0,.2-2.5c.094-.054.188-.109.279-.172l7.3-5.036c.047-.032.089-.069.134-.1a4.11,4.11,0,0,0,.464,1.126l-1.3.9a6.221,6.221,0,0,1-5.34,4.042Zm19.369-5.075.228.952a4.074,4.074,0,0,0-1.14-.323Zm8.7.961-.317-1.326-.06-.252a1.044,1.044,0,1,1,.378,1.579m-24.935-21.208-2.234,2.918-2.7,3.521c-.012.016-.022.033-.034.05l.141-2.792c0-.072,0-.142,0-.213.127-.039.253-.083.377-.136a2.822,2.822,0,0,1,4.445-3.349" transform="translate(-1609.433 -902.254)" fill="#afcdfb"/>
        <g id="Grupo_137448" data-name="Grupo 137448" transform="translate(248.772 97.836)" opacity="0.5">
          <g id="Grupo_137447" data-name="Grupo 137447">
            <g id="Grupo_137446" data-name="Grupo 137446" clip-path="url(#clip-path-4)">
              <path id="Trazado_198960" data-name="Trazado 198960" d="M1865.979,826.172l-11.95,0a8.459,8.459,0,0,1-8.429-8.438l.026-83.475a8.453,8.453,0,0,1,8.434-8.429l10.6,0a10.332,10.332,0,0,1,1.383,5.214l-.028,94.285q0,.426-.034.842" transform="translate(-1845.6 -725.826)" fill="#afcdfb"/>
            </g>
          </g>
        </g>
        <path id="Trazado_198961" data-name="Trazado 198961" d="M1889.694,683.486l-32.084-.01-18.209-.007a1.642,1.642,0,0,1-1.639-1.64l0-7.861a1.644,1.644,0,0,1,1.64-1.639l18.184.005h0l32.106.009a1.644,1.644,0,0,1,1.639,1.64l0,7.861a1.645,1.645,0,0,1-1.641,1.641" transform="translate(-1590.047 -581.704)" fill="#f99746"/>
        <path id="Trazado_198962" data-name="Trazado 198962" d="M1857.61,683.475l-18.209-.007a1.642,1.642,0,0,1-1.639-1.64l0-7.861a1.644,1.644,0,0,1,1.64-1.639l18.184.005h0a1.644,1.644,0,0,1,1.635,1.64l0,7.861a1.645,1.645,0,0,1-1.615,1.64" transform="translate(-1590.047 -581.703)" fill="#ef7e29"/>
        <path id="Trazado_198963" data-name="Trazado 198963" d="M789.376,659.005v54.222a6.068,6.068,0,0,1-6.05,6.05H751.1a5.981,5.981,0,0,1-2.428-.512,6.071,6.071,0,0,1-3.622-5.538V659.005a6.068,6.068,0,0,1,6.05-6.05h32.229a6.067,6.067,0,0,1,6.05,6.05" transform="translate(-644.621 -564.941)" fill="#fcecdb"/>
        <path id="Trazado_198964" data-name="Trazado 198964" d="M940.579,722.364a6.586,6.586,0,1,1,8.481-3.85,6.585,6.585,0,0,1-8.481,3.85" transform="translate(-810.1 -613.96)" fill="#f7e0cb"/>
        <path id="Trazado_198965" data-name="Trazado 198965" d="M951.77,718.513l-12.331-4.63a6.586,6.586,0,1,1,12.331,4.63" transform="translate(-812.81 -613.959)" fill="#efcbab"/>
        <path id="Trazado_198966" data-name="Trazado 198966" d="M787.347,721.309a6.586,6.586,0,1,1,9.267-.937,6.586,6.586,0,0,1-9.267.937" transform="translate(-679.124 -613.969)" fill="#f7e0cb"/>
        <path id="Trazado_198967" data-name="Trazado 198967" d="M806.143,720.373l-10.2-8.33a6.586,6.586,0,1,1,10.2,8.33" transform="translate(-688.653 -613.97)" fill="#efcbab"/>
        <path id="Trazado_198968" data-name="Trazado 198968" d="M940.579,1020.418a6.586,6.586,0,1,1,8.481-3.85,6.585,6.585,0,0,1-8.481,3.85" transform="translate(-810.1 -871.839)" fill="#f7e0cb"/>
        <path id="Trazado_198969" data-name="Trazado 198969" d="M951.77,1019.888l-12.331-4.63a6.586,6.586,0,1,1,12.331,4.63" transform="translate(-812.81 -874.712)" fill="#efcbab"/>
        <path id="Trazado_198970" data-name="Trazado 198970" d="M787.347,1019.364a6.586,6.586,0,1,1,9.267-.937,6.585,6.585,0,0,1-9.267.937" transform="translate(-679.124 -871.849)" fill="#f7e0cb"/>
        <path id="Trazado_198971" data-name="Trazado 198971" d="M806.143,1021.747l-10.2-8.33a6.586,6.586,0,1,1,10.2,8.33" transform="translate(-688.653 -874.721)" fill="#efcbab"/>
        <path id="Trazado_198972" data-name="Trazado 198972" d="M945.717,876.728a6.586,6.586,0,1,1,3.131-8.772,6.585,6.585,0,0,1-3.131,8.772" transform="translate(-810.102 -747.703)" fill="#f7e0cb"/>
        <path id="Trazado_198973" data-name="Trazado 198973" d="M948.848,867.956l-11.9,5.641a6.586,6.586,0,1,1,11.9-5.641" transform="translate(-810.102 -747.703)" fill="#efcbab"/>
        <path id="Trazado_198974" data-name="Trazado 198974" d="M785.39,868.326a6.586,6.586,0,1,1,3.667,8.562,6.585,6.585,0,0,1-3.667-8.562" transform="translate(-679.116 -747.7)" fill="#f7e0cb"/>
        <path id="Trazado_198975" data-name="Trazado 198975" d="M815.632,879.927l4.895-12.229a6.586,6.586,0,0,1-4.895,12.229" transform="translate(-705.691 -750.739)" fill="#efcbab"/>
        <g id="Grupo_137451" data-name="Grupo 137451" transform="translate(107.507 101.485)" opacity="0.5">
          <g id="Grupo_137450" data-name="Grupo 137450">
            <g id="Grupo_137449" data-name="Grupo 137449" clip-path="url(#clip-path-5)">
              <path id="Trazado_198976" data-name="Trazado 198976" d="M834.824,752.894v47.184a5.62,5.62,0,0,1-5.536,5.668H799.8a5.365,5.365,0,0,1-2.222-.48v-45.84a6.587,6.587,0,0,1,2.029-4.765,6.408,6.408,0,0,1,1.558-1.1,6.2,6.2,0,0,1,2.792-.664Z" transform="translate(-797.575 -752.894)" fill="#efcbab"/>
            </g>
          </g>
        </g>
        <path id="Trazado_198977" data-name="Trazado 198977" d="M805.385,815.427V761.2a6.068,6.068,0,0,1,6.05-6.05h32.229a6.068,6.068,0,0,1,6.05,6.05v54.222a6.068,6.068,0,0,1-6.05,6.051H811.435a6.068,6.068,0,0,1-6.05-6.051" transform="translate(-696.826 -653.365)" fill="#fcecdb"/>
        <path id="Trazado_198978" data-name="Trazado 198978" d="M1000.917,824.566a6.586,6.586,0,1,1,8.481-3.85,6.585,6.585,0,0,1-8.481,3.85" transform="translate(-862.305 -702.386)" fill="#f7e0cb"/>
        <path id="Trazado_198979" data-name="Trazado 198979" d="M1012.107,820.715l-12.331-4.63a6.586,6.586,0,0,1,12.331,4.63" transform="translate(-865.014 -702.386)" fill="#efcbab"/>
        <path id="Trazado_198980" data-name="Trazado 198980" d="M847.684,823.512a6.586,6.586,0,1,1,9.267-.937,6.585,6.585,0,0,1-9.267.937" transform="translate(-731.328 -702.396)" fill="#f7e0cb"/>
        <path id="Trazado_198981" data-name="Trazado 198981" d="M866.479,822.575l-10.2-8.33a6.586,6.586,0,1,1,10.2,8.33" transform="translate(-740.856 -702.396)" fill="#efcbab"/>
        <path id="Trazado_198982" data-name="Trazado 198982" d="M1000.917,1122.62a6.586,6.586,0,1,1,8.481-3.85,6.585,6.585,0,0,1-8.481,3.85" transform="translate(-862.305 -960.265)" fill="#f7e0cb"/>
        <path id="Trazado_198983" data-name="Trazado 198983" d="M1012.107,1122.09l-12.331-4.63a6.586,6.586,0,1,1,12.331,4.63" transform="translate(-865.014 -963.138)" fill="#efcbab"/>
        <path id="Trazado_198984" data-name="Trazado 198984" d="M847.684,1121.566a6.586,6.586,0,1,1,9.267-.937,6.585,6.585,0,0,1-9.267.937" transform="translate(-731.328 -960.275)" fill="#f7e0cb"/>
        <path id="Trazado_198985" data-name="Trazado 198985" d="M866.479,1123.949l-10.2-8.33a6.586,6.586,0,0,1,10.2,8.33" transform="translate(-740.856 -963.148)" fill="#efcbab"/>
        <path id="Trazado_198986" data-name="Trazado 198986" d="M1006.054,978.93a6.586,6.586,0,1,1,3.131-8.772,6.585,6.585,0,0,1-3.131,8.772" transform="translate(-862.306 -836.13)" fill="#f7e0cb"/>
        <path id="Trazado_198987" data-name="Trazado 198987" d="M1009.185,970.158l-11.9,5.641a6.586,6.586,0,0,1,11.9-5.641" transform="translate(-862.306 -836.13)" fill="#efcbab"/>
        <path id="Trazado_198988" data-name="Trazado 198988" d="M845.727,970.529a6.586,6.586,0,1,1,3.667,8.562,6.585,6.585,0,0,1-3.667-8.562" transform="translate(-731.321 -836.127)" fill="#f7e0cb"/>
        <path id="Trazado_198989" data-name="Trazado 198989" d="M875.97,982.129l4.894-12.229a6.586,6.586,0,0,1-4.894,12.229" transform="translate(-757.896 -839.165)" fill="#efcbab"/>
        <rect id="Rectángulo_43883" data-name="Rectángulo 43883" width="50.618" height="75.542" transform="translate(97.282 123.417)" fill="#ef7e29"/>
        <rect id="Rectángulo_43884" data-name="Rectángulo 43884" width="50.619" height="75.542" transform="translate(104.333 123.417)" fill="#f99746"/>
        <path id="Trazado_198990" data-name="Trazado 198990" d="M728.77,920l-2.426,3.773h-4.625v-8.156h7.05Z" transform="translate(-624.437 -792.194)" fill="#d8661a"/>
        <path id="Trazado_198991" data-name="Trazado 198991" d="M696.693,921.563h-7.05l4.324-5.951h7.05Z" transform="translate(-596.684 -792.194)" fill="#f99746"/>
        <g id="Grupo_137454" data-name="Grupo 137454" transform="translate(104.333 126.86)" opacity="0.5">
          <g id="Grupo_137453" data-name="Grupo 137453">
            <g id="Grupo_137452" data-name="Grupo 137452" clip-path="url(#clip-path-6)">
              <path id="Trazado_198992" data-name="Trazado 198992" d="M800.135,1013.489H774.028v-72.34l26.107,2.509Z" transform="translate(-774.028 -941.149)" fill="#efcbab"/>
            </g>
          </g>
        </g>
        <path id="Trazado_198993" data-name="Trazado 198993" d="M824.647,921.56l-4.107,2.2H776.468l-2.44-3.773v-4.384Z" transform="translate(-669.695 -792.192)" fill="#ef7e29"/>
        <path id="Trazado_198994" data-name="Trazado 198994" d="M828.219,921.563H777.6l-3.576-5.951h50.618Z" transform="translate(-669.692 -792.194)" fill="#f99746"/>
        <path id="Trazado_198995" data-name="Trazado 198995" d="M2340.171,883.408a1.063,1.063,0,0,0-.268-.5,2.867,2.867,0,0,1-.321-.892c-.013-.4-.462-.557-.645-.224a.814.814,0,0,0-.1.372,10.262,10.262,0,0,0-3.516-.736s-1.307-.144-.46.963c.566.74,1.056.745,1.871,1.776a3.062,3.062,0,0,0,2.97,1.328l1.088.13.707-1.735Z" transform="translate(-2019.896 -762.61)" fill="#f9c29d"/>
        <path id="Trazado_198996" data-name="Trazado 198996" d="M2405.925,809.413s-1.072,11.8-16.335,16.778c-4.121,1.345-19.534-2.785-19.534-2.785s.087-2.03,1.339-2.54c0,0,14.44-.887,15.655-.291,1.078.529,10.3-8.964,13.278-10.494a7.816,7.816,0,0,1,5.6-.669" transform="translate(-2050.592 -700.101)" fill="#8ad4d6"/>
        <path id="Trazado_198997" data-name="Trazado 198997" d="M2733.447,1408.174s1.827,1.667,1.47,2.852-2.005,1.975-2.228,3.423-1.114,2.238-1.916,2.238h-3.824s-.591-1.019.835-1.326,1.964-2.009,1.875-3.588a27.836,27.836,0,0,1,.134-3.686l3.03-.7Z" transform="translate(-2359.273 -1217.68)" fill="#644bb5"/>
        <path id="Trazado_198998" data-name="Trazado 198998" d="M2592.3,1073.01c-.334.988-4.012,2.435-4.012,2.435s-2-3.158-8.422-14.48c-.552-.975-1.129-2.045-1.724-3.185-6.3-12.106-14.452-32.224-14.452-32.224l15.575-4.343s.735,6.252.868,9.412a39.042,39.042,0,0,0,2.575,9.659,22.825,22.825,0,0,0,2.839,5.544c4.3,5.329,6.752,27.182,6.752,27.182" transform="translate(-2218.124 -883.561)" fill="#7e5ee3"/>
        <path id="Trazado_198999" data-name="Trazado 198999" d="M2582.7,1040.284c-.979,4.965-2.776,13.28-4.566,17.5-6.3-12.106-14.452-32.224-14.452-32.224l15.575-4.343s.734,6.252.868,9.411a39.05,39.05,0,0,0,2.574,9.659" transform="translate(-2218.123 -883.562)" fill="#644bb5"/>
        <path id="Trazado_199000" data-name="Trazado 199000" d="M2540.708,1435.809s.328,3.795-.474,4.189l-10.265-.021s0-1.185,1.649-1.448,4.545-1.229,5.035-3.379,4.055.658,4.055.658" transform="translate(-2188.95 -1241.003)" fill="#644bb5"/>
        <path id="Trazado_199001" data-name="Trazado 199001" d="M2545.347,1041.661s.542,6.651,1.178,14.647c.865,10.861,1.905,24.2,2.008,26.729.178,4.389.892,11.409.892,11.409s1.693,1.668,5.08.965a113.279,113.279,0,0,0,3.881-20.624c.014-.174.027-.349.04-.524.8-10.794,2.049-33.523,2.049-33.523Z" transform="translate(-2202.255 -900.456)" fill="#7e5ee3"/>
        <path id="Trazado_199002" data-name="Trazado 199002" d="M2591.183,723.289s-9.542,2.908-8.419,1.482c-.147-.852-.572-3.137-.637-3.763a20.462,20.462,0,0,1-.18-2.266l2.839-2.233,2.693-2.137a10.85,10.85,0,0,0,3.7,8.918" transform="translate(-2233.922 -618.079)" fill="#ffb27d"/>
        <path id="Trazado_199003" data-name="Trazado 199003" d="M2559.793,817.336c-7.742,5.228-23.388,3.735-23.505,3.634-.26-3.327-.408-8.813-.49-13.891-.1-6.308-.1-11.983-.094-12.1,0,0,.005-.191.013-.514.025-1.025.088-3.375.155-5.126.012-.328.024-.632.037-.905,0-.015,0-.029,0-.045a38.237,38.237,0,0,1,1.206-5.337,60.4,60.4,0,0,1,3.485-9.938c.556-1.034,2.423-4.027,2.423-4.027a5.351,5.351,0,0,0,3.66-.807c1.522-.734,3.162-1.527,3.426-1.326,1.992,1.456,3.338,4.728,4.056,8.909.409,2.407,6.008,41.217,5.626,41.476" transform="translate(-2193.909 -663.544)" fill="#a6e8f0"/>
        <path id="Trazado_199004" data-name="Trazado 199004" d="M2587.529,730.387a9.754,9.754,0,0,1-5.4,4.338,20.492,20.492,0,0,1-.179-2.266l2.839-2.233Z" transform="translate(-2233.922 -631.797)" fill="#ed985f"/>
        <path id="Trazado_199005" data-name="Trazado 199005" d="M2563.55,672.658s7.021,1.148,7.68-3.168,2.009-7.075-2.446-7.99-5.579.6-6.155,1.99-.888,8.758.921,9.168" transform="translate(-2216.819 -572.094)" fill="#ffb27d"/>
        <path id="Trazado_199006" data-name="Trazado 199006" d="M2559.217,644.154c.064-.073.211-.132.538-.15a1.327,1.327,0,0,0-.611-.172,1.646,1.646,0,0,0-1.093-1.456.981.981,0,0,1,.476.708c-.907-.931-2.85-1.609-8.23-1.185-7.091.56-4.754,5.1-3.836,5.641s3.229-.943,4.939-.807,2.036,2.607,2.616,2.946.352-.261,1.137-.615.86.946.633,1.792.852,1.961.852,1.961l1.09-1.174c1.09-1.174,2.117-6.146,1.622-7.206l-.132-.284" transform="translate(-2202.255 -555.264)" fill="#2c3a64"/>
        <path id="Trazado_199007" data-name="Trazado 199007" d="M2535.8,885.568c-.1-6.308-.1-11.983-.094-12.1,0,0,.005-.191.013-.514,6.071-7.513,13.891-15.315,13.891-15.315s1.695,22.038-13.809,27.932" transform="translate(-2193.91 -742.033)" fill="#8ad4d6"/>
        <path id="Trazado_199008" data-name="Trazado 199008" d="M2545.121,848.12c-.083.135-2.006,11.485-6.939,11.611a3.9,3.9,0,0,1-1.224-.139c.011-.328.024-.632.037-.905,0-.015,0-.029,0-.045a38.237,38.237,0,0,1,1.206-5.337c2.017-.414,4.379-2.265,6.917-5.185" transform="translate(-2194.997 -733.8)" fill="#8ad4d6"/>
        <path id="Trazado_199009" data-name="Trazado 199009" d="M2579.165,755s-.585-1.7-1.062-1.893a13.015,13.015,0,0,0-8.84,8.856s2.58-4.5,9.9-6.963" transform="translate(-2222.946 -651.598)" fill="#6bb7bf"/>
        <path id="Trazado_199010" data-name="Trazado 199010" d="M2334.973,797.331l-13.2,1.836-6.982.971a4.99,4.99,0,0,1-5.612-4.244l-6.784-48.777a4.987,4.987,0,0,1,4.241-5.612l6.192-.861,13.99-1.946a4.989,4.989,0,0,1,5.613,4.242l6.785,48.777a4.991,4.991,0,0,1-4.242,5.614" transform="translate(-1992.009 -639.086)" fill="#f0b371"/>
        <path id="Trazado_199011" data-name="Trazado 199011" d="M2367.345,951.329l-.708-2.518-.708-2.519a2.437,2.437,0,0,0-3-1.681c-.071.02-.14.044-.208.07a2.4,2.4,0,0,0,.255-1.194,2.427,2.427,0,0,0,4.35-2.119l-.954-2.436-.955-2.437a2.429,2.429,0,1,0-4.522,1.772l1.438,3.67a2.4,2.4,0,0,0-2.04-.757,6.653,6.653,0,0,0-1.207-5l-4.455-2.745a2.428,2.428,0,0,0-2.789,3.963,2.4,2.4,0,0,0-.629.172l-2.4,1.032-2.4,1.032a2.432,2.432,0,0,0-1.456,1.99l-.35-.592-1.332-2.252a2.429,2.429,0,1,0-4.18,2.473l1.332,2.251.854,1.443a2.434,2.434,0,0,0-1.225,2.324l.23,2.606.23,2.607a2.42,2.42,0,0,0,3.43,1.991,2.447,2.447,0,0,0,.036,1.652,2.41,2.41,0,0,0-.858,1.3l-.656,2.532-.656,2.533a8.794,8.794,0,0,1,5.228,2.852,2.435,2.435,0,0,0,3.31-.918l1.288-2.277,1.289-2.278a1.585,1.585,0,0,1,1.846-1.609l.373-.342-.468.826-1.288,2.277a2.429,2.429,0,0,0,4.228,2.392l1.288-2.277,1.289-2.278c.017-.029.03-.06.045-.089a2.431,2.431,0,0,0,.537.478l-.459.811a2.429,2.429,0,0,0,4.228,2.392l2.576-4.555a2.42,2.42,0,0,0-1.538-3.552c.029-.007.058-.012.087-.02a2.435,2.435,0,0,0,1.68-3m-22,.726-.079-.889a2.4,2.4,0,0,0,.7.6,2.428,2.428,0,0,0,.319.148l-1,.913a2.406,2.406,0,0,0,.058-.769m15.9-4.449.952,3.387a2.435,2.435,0,0,0-2.682-.975,2.407,2.407,0,0,0,.573-.677l1.106-1.955c.013.074.029.147.05.221m-6.771-8.564.676.417-.564.517a2.4,2.4,0,0,0-.112-.934m1.586,7.555a.654.654,0,0,1-.088-1.3l1.713-1.572Zm2.2,4.282a2.445,2.445,0,0,0-1.889-.294l-.039-.655a1.247,1.247,0,1,1,1.928.949m-6.115-8.428a2.435,2.435,0,0,0,.394,2.7c.013.014.027.026.04.039a.533.533,0,1,1-.51-.74,2.421,2.421,0,0,0-1.141-1.465l-.008,0Zm-1.588,6.117.759-1.341c0,.077,0,.154,0,.232l.134,2.25a2.43,2.43,0,0,0-1.3-.418Zm-2.926,10.772.18-.7a2.408,2.408,0,0,0-.088-1.479c.051-.039.1-.079.149-.123l3.856-3.537c.025-.023.046-.048.07-.071a2.418,2.418,0,0,0,.363.62l-.687.63a3.67,3.67,0,0,1-2.791,2.8Zm10.9-4.543.211.538a2.415,2.415,0,0,0-.693-.1Zm5.159-.147-.293-.749-.056-.143a.616.616,0,1,1,.349.892m-16.3-10.361-1.067,1.887-1.288,2.277c-.006.01-.01.021-.016.032l-.145-1.643c0-.042-.011-.083-.017-.124.071-.033.141-.069.21-.11a1.665,1.665,0,0,1,2.324-2.319" transform="translate(-2023.51 -807.302)" fill="#eb9342"/>
        <path id="Trazado_199012" data-name="Trazado 199012" d="M2320.613,709.456l-18.748,2.608-10.64,1.479a.968.968,0,0,1-1.091-.825l-.639-4.593a.97.97,0,0,1,.825-1.091l10.625-1.478h0l18.76-2.61a.97.97,0,0,1,1.091.825l.639,4.593a.97.97,0,0,1-.825,1.092" transform="translate(-1980.882 -608.185)" fill="#a6e8f0"/>
        <path id="Trazado_199013" data-name="Trazado 199013" d="M2389.5,953.219a1.065,1.065,0,0,0-.4-.411,2.878,2.878,0,0,1-.555-.77c-.123-.381-.6-.408-.681-.037a.815.815,0,0,0,.01.384,10.258,10.258,0,0,0-3.583.261s-1.3.221-.177,1.053c.748.556,1.22.426,2.288,1.192a3.063,3.063,0,0,0,3.221.459l1.082-.175.2-1.863Z" transform="translate(-2062.366 -823.45)" fill="#f9c29d"/>
        <path id="Trazado_199014" data-name="Trazado 199014" d="M2456.267,809.172s2.218,11.636-11.083,20.628c-3.591,2.428-19.546,2.7-19.546,2.7s-.475-1.976.588-2.81c0,0,13.637-4.829,14.97-4.591,1.182.211,7.432-11.454,9.875-13.744a7.816,7.816,0,0,1,5.2-2.185" transform="translate(-2098.59 -700.101)" fill="#a6e8f0"/>
        <path id="Trazado_199015" data-name="Trazado 199015" d="M473.811,934.416a3.948,3.948,0,0,0-7.118-.943,3.574,3.574,0,0,0-.533,1.795c-.1,3.775,7.349,18.387,8.337,19.68,1.8,2.353,12.659,8.012,12.659,8.012l2.308-.336a17.1,17.1,0,0,1-2.656-2.169c-2.79-2.786-6.858-7.314-7.6-7.942-1.279-1.077-3.491-11.984-5.395-18.1" transform="translate(-403.325 -806.045)" fill="#ed985f"/>
        <path id="Trazado_199016" data-name="Trazado 199016" d="M648.267,1213.934H598.644a5.553,5.553,0,0,1-5.537-5.537V1178.9a5.554,5.554,0,0,1,5.537-5.537h49.623a5.553,5.553,0,0,1,5.537,5.537V1208.4a5.553,5.553,0,0,1-5.537,5.537" transform="translate(-513.161 -1015.204)" fill="#fcecdb"/>
        <path id="Trazado_199017" data-name="Trazado 199017" d="M656.631,1218a6.027,6.027,0,1,1-3.524-7.761,6.027,6.027,0,0,1,3.524,7.761" transform="translate(-558.024 -1046.773)" fill="#f7e0cb"/>
        <path id="Trazado_199018" data-name="Trazado 199018" d="M653.107,1210.238l-4.237,11.285a6.027,6.027,0,0,1,4.237-11.285" transform="translate(-558.024 -1046.773)" fill="#efcbab"/>
        <path id="Trazado_199019" data-name="Trazado 199019" d="M655.666,1358.251a6.027,6.027,0,1,1-.857-8.48,6.026,6.026,0,0,1,.857,8.48" transform="translate(-558.033 -1166.657)" fill="#f7e0cb"/>
        <path id="Trazado_199020" data-name="Trazado 199020" d="M654.808,1349.771l-7.623,9.338a6.027,6.027,0,1,1,7.623-9.338" transform="translate(-558.033 -1166.657)" fill="#efcbab"/>
        <path id="Trazado_199021" data-name="Trazado 199021" d="M929.4,1218a6.027,6.027,0,1,1-3.524-7.761A6.027,6.027,0,0,1,929.4,1218" transform="translate(-794.026 -1046.773)" fill="#f7e0cb"/>
        <path id="Trazado_199022" data-name="Trazado 199022" d="M925.886,1210.238l-4.237,11.285a6.027,6.027,0,0,1,4.237-11.285" transform="translate(-794.035 -1046.773)" fill="#efcbab"/>
        <path id="Trazado_199023" data-name="Trazado 199023" d="M928.435,1358.248a6.023,6.023,0,0,1-8.21,1.063c-.092-.064-.181-.134-.27-.206a6.027,6.027,0,1,1,7.623-9.337c.088.072.173.145.256.221a6.027,6.027,0,0,1,.6,8.259" transform="translate(-794.035 -1166.654)" fill="#f7e0cb"/>
        <path id="Trazado_199024" data-name="Trazado 199024" d="M927.833,1349.99l-7.609,9.322c-.092-.064-.181-.134-.27-.206a6.027,6.027,0,1,1,7.623-9.338c.088.072.173.145.256.221" transform="translate(-794.034 -1166.655)" fill="#efcbab"/>
        <path id="Trazado_199025" data-name="Trazado 199025" d="M797.9,1213.3a6.027,6.027,0,1,1-8.028-2.865,6.027,6.027,0,0,1,8.028,2.865" transform="translate(-680.422 -1046.775)" fill="#f7e0cb"/>
        <path id="Trazado_199026" data-name="Trazado 199026" d="M789.872,1214.171l5.163,10.893a6.027,6.027,0,1,1-5.163-10.893" transform="translate(-680.421 -1050.51)" fill="#efcbab"/>
        <path id="Trazado_199027" data-name="Trazado 199027" d="M790.211,1360.025a6.027,6.027,0,1,1,7.835-3.356,6.027,6.027,0,0,1-7.835,3.356" transform="translate(-680.419 -1166.646)" fill="#f7e0cb"/>
        <path id="Trazado_199028" data-name="Trazado 199028" d="M800.827,1356.668l-11.191-4.479a6.027,6.027,0,1,1,11.191,4.479" transform="translate(-683.199 -1166.646)" fill="#efcbab"/>
        <path id="Trazado_199029" data-name="Trazado 199029" d="M500.138,814.923a36.957,36.957,0,0,0-5.538,2.708c-2.5,2.772-1.786,6.389-.356,6.424.917.022.739,1.547.739,1.547l10.216-4.322s-1.23-7.173-5.061-6.357" transform="translate(-426.501 -705.021)" fill="#7e5ee3"/>
        <path id="Trazado_199030" data-name="Trazado 199030" d="M464.163,793.944s.365-3.98-4.082-3.98a5.224,5.224,0,0,1,2.044,1.1,5.258,5.258,0,0,0-5.922.893c-3.086,2.558-1.169,8.975-2.107,10.193s-4.593,1.462-4.147,5.4,11.6,8.873,10.883,12.132c0,0,4.371-6.425,1.245-9.357a5.791,5.791,0,0,1,1.678,3.141s.413-3.33-1.706-4.4c-1.875-.943-3.411-4.39-3.249-5.006s5.361-10.119,5.361-10.119" transform="translate(-389.267 -683.483)" fill="#7e5ee3"/>
        <path id="Trazado_199031" data-name="Trazado 199031" d="M301.355,1099.781l-2.211-.325a26.136,26.136,0,0,1-8.54-16.929,23.673,23.673,0,0,0-1.764-6.365c-.79-1.28-2.143-3.7-3.63-6.416-2.68-4.891-5.8-10.74-6.871-12.6-3.41-5.938-1.766-9.931-1.766-9.931s9.514-.94,12.121-3.221l.939,1.447s2.061,9.126,1.964,9.168l.309.948a158.678,158.678,0,0,1,4.518,16.408c.573,2.876.726,8.574.882,9.685.921,6.55,4.05,18.135,4.05,18.135" transform="translate(-238.95 -903.268)" fill="#7e5ee3"/>
        <path id="Trazado_199032" data-name="Trazado 199032" d="M437.853,1445.7H428.63a5.064,5.064,0,0,1,.261-2.472c.462-1.024,1.12-1.056.084-2.66.586.6,2.47.853,3.8.674a11.294,11.294,0,0,0,1.6,2.434c.6.433,3.29.279,3.476,2.024" transform="translate(-370.81 -1246.394)" fill="#644bb5"/>
        <path id="Trazado_199033" data-name="Trazado 199033" d="M285.21,1066.013c-2.68-4.891-5.8-10.74-6.871-12.6-3.41-5.938-1.766-9.931-1.766-9.931a25.176,25.176,0,0,0,7.219-3.8s2.131,18.565,1.419,26.337" transform="translate(-238.95 -899.536)" fill="#644bb5"/>
        <path id="Trazado_199034" data-name="Trazado 199034" d="M196.279,1035.542l.031-1.725c-3.437.434-11.851-4.107-11.851-4.107s-3.6,2.392-4.088,9.221c-.24,3.333-1.76,17.431-1.928,21.641a23.631,23.631,0,0,1-2.1,6.264c-5.244,9.758-2.5,23.017-2.5,23.017l1.218-.31s4.435-13.745,7.333-19.69c.492-1.009,3.551-5.818,4.684-8.523a164.032,164.032,0,0,0,5.7-17.088c.1.019,3.5-8.7,3.5-8.7" transform="translate(-149.792 -890.913)" fill="#7e5ee3"/>
        <path id="Trazado_199035" data-name="Trazado 199035" d="M473.991,902.571c-5.619-1.289-2.029-9.185-1.7-9.046.778-.159,2.488-1.526,4.018-4.2l.207.179,3.451,3.025s-.8,1.177-1.469,2.329a5.267,5.267,0,0,0-.9,2.1c.278.219-2.105,5.955-3.6,5.61" transform="translate(-407.391 -769.455)" fill="#ffb27d"/>
        <path id="Trazado_199036" data-name="Trazado 199036" d="M490.8,944.054a28.3,28.3,0,0,1,1.515,3.638c.527,1.689,1.846,7.059,1.846,7.059s-2.72,3.1-6.5,2.923c0,0-2.034-3.184-1.317-6.06s4.46-7.56,4.46-7.56" transform="translate(-420.656 -816.803)" fill="#8ad4d6"/>
        <path id="Trazado_199037" data-name="Trazado 199037" d="M515.834,893.692s-.8,1.175-1.469,2.329c-2.145-1.323-2.148-3.979-1.982-5.355Z" transform="translate(-443.263 -770.611)" fill="#ed985f"/>
        <path id="Trazado_199038" data-name="Trazado 199038" d="M515.013,855.614s-5.209-2.9-3.354-6.115,2.432-5.757,5.837-4.042,3.337,3.311,2.979,4.536-4.059,6.293-5.462,5.621" transform="translate(-442.345 -731.018)" fill="#ffb27d"/>
        <path id="Trazado_199039" data-name="Trazado 199039" d="M517.839,845.319c-.239-1.428-.964-1.565-1.47-1.469a4.166,4.166,0,0,0-5.067-1.94,7.093,7.093,0,0,1-4.106,2.466s.6,1.125,3.1,1.821a4.257,4.257,0,0,0,2.457-.2,13.9,13.9,0,0,1-3.535,1.332c3.282.3,6.405-2.7,6.729-3.021a4.671,4.671,0,0,1,.258,2.15c-.216.967-1.075,2.719-.55,2.946,0,0,2.547-1.948,2.189-4.09" transform="translate(-438.83 -728.22)" fill="#7e5ee3"/>
        <path id="Trazado_199040" data-name="Trazado 199040" d="M173.331,1445.277h-9.223a5.064,5.064,0,0,1,.261-2.472c.462-1.024,1.185-1.489,1.012-2.727a3.321,3.321,0,0,0,2.875,1.1,10.12,10.12,0,0,0,1.6,2.075c.6.433,3.29.279,3.476,2.024" transform="translate(-141.944 -1245.967)" fill="#644bb5"/>
        <path id="Trazado_199041" data-name="Trazado 199041" d="M241.312,928.4a22.427,22.427,0,0,1-4.556.826,30.744,30.744,0,0,0-6.241.969,8.329,8.329,0,0,0-1.75.955h0a.509.509,0,0,0-.051.039,5.6,5.6,0,0,0-.723.624,3.952,3.952,0,0,0-.846,1.256c-.481,1.188.156,4.483.564,6.284a1.636,1.636,0,0,1-.838,1.815q-1.383.715-2.719,1.32l-.14.063c.008-.183.011-.365.011-.543a16.756,16.756,0,0,0-.156-2.276,9.535,9.535,0,0,1-1.816,3.651c-12.378,4.967-21.025,2.808-20.884.334.488-8.591,6.281-15.9,6.281-15.9,10.8-12.564,32.659-15.871,32.659-15.871s1.047-.126,2.309,1.392c1.817,2.186,1.907,2.756,1.907,2.756s.48,11.083-3.012,12.3" transform="translate(-174.051 -789.021)" fill="#a6e8f0"/>
        <path id="Trazado_199042" data-name="Trazado 199042" d="M424.8,956.26a30.783,30.783,0,0,0-6.241.969,25.575,25.575,0,0,1,3.244-14.035s2.466,10.035,3,13.066" transform="translate(-362.097 -816.059)" fill="#8ad4d6"/>
        <path id="Trazado_199043" data-name="Trazado 199043" d="M441.777,931.7s-6.078.6-6.566,4.55,5.827,20.036,6.732,21.493c1.646,2.652,11.341,11.742,11.341,11.742l1.787-1.083s-6.877-11.641-7.941-12.731c-1.672-1.71-3.295-22.6-5.353-23.971" transform="translate(-376.525 -806.111)" fill="#ffb27d"/>
        <path id="Trazado_199044" data-name="Trazado 199044" d="M440.786,935.649s.624-10.183-7.17-7.721,1.21,19.978,1.21,19.978,4.575-.226,6.2-4.217Z" transform="translate(-372.42 -802.518)" fill="#a6e8f0"/>
        <path id="Trazado_199045" data-name="Trazado 199045" d="M373.32,1066.874a1.637,1.637,0,0,1-.838,1.816q-1.383.715-2.719,1.32c-.047-.152-.09-.311-.129-.48a8.358,8.358,0,0,1-.156-2.276c.206-3.8,2.8-6.682,4.123-7.919a3.952,3.952,0,0,0-.846,1.256c-.481,1.188.156,4.483.564,6.284" transform="translate(-319.662 -916.544)" fill="#8ad4d6"/>
        <path id="Trazado_199046" data-name="Trazado 199046" d="M490.067,904.484s.952-1.2,1.595-1.164c0,0,2.6,3.641,2.622,5.312,0,0-3.244-4.317-4.217-4.148" transform="translate(-424.01 -781.559)" fill="#8ad4d6"/>
        <path id="Trazado_199047" data-name="Trazado 199047" d="M627.106,1162.413s-1.383.025-1.682-.018a8.866,8.866,0,0,0-1.078-.183,4.592,4.592,0,0,0-1.107.186.828.828,0,0,1-.165.016h-2.294a1.371,1.371,0,0,1-.482-.515c-.109-.175-.123-.593-.371-.731-1.389-.775,2.308-.336,2.308-.336a14.287,14.287,0,0,1,2.535.118,25.3,25.3,0,0,1,2.336,1.464" transform="translate(-536.096 -1004.253)" fill="#ed985f"/>
        <path id="Trazado_199048" data-name="Trazado 199048" d="M628.027,1167.2a10.678,10.678,0,0,1,1.791.667l.4.255s.234-.261-.134-.551a1.77,1.77,0,0,1-.748-1.113c-.017-.513-1.607-.065-1.312.742" transform="translate(-543.343 -1009.041)" fill="#ed985f"/>
        <path id="Trazado_199049" data-name="Trazado 199049" d="M569.485,1203.558a5.645,5.645,0,0,0,1.772,1.083c.765.189,1.635,2.38,1.774,2.694s-.731-.139-1.078-.673-.586-.742-.687-.626a4.088,4.088,0,0,0,.641,2.389c.58.812.928,1.531.51,1.484s-2.9-.649-3.409-2.157-.136-1.561-1.309-3.111,1.787-1.083,1.787-1.083" transform="translate(-490.939 -1041.27)" fill="#ffb27d"/>
        <path id="Trazado_199050" data-name="Trazado 199050" d="M1323.326,643.362c-.01-.269-.218-3.164-4.628-3.315,0,0,2.169.259,2.543,1.212,0,0-1.477-1.178-2.679-.8s-1.909,2.486-1.916,3.179.661,2.927,1.424,3.117a2.329,2.329,0,0,0,.924,0,10.39,10.39,0,0,0-.592,1.057c-1.76,3.613.055,7.143,1.545,6.753.955-.25,1.226,1.38,1.226,1.38l9.283-7.515s-3.409-7.055-7.13-5.07" transform="translate(-1139.172 -553.773)" fill="#2c3a64"/>
        <path id="Trazado_199051" data-name="Trazado 199051" d="M1394.285,839.325a13.382,13.382,0,0,1-1.112,2.086,5.677,5.677,0,0,1-1.987,1.957c-.613-.3-1.719-.732-2.187-1.02-1.7-1.036-4.113-3.972-6.087-7.12-.3-.48-.592-.965-.869-1.449a2.257,2.257,0,0,1-.15-.268,17.771,17.771,0,0,1-1.6-3.639l3.588-7.667c.013.013,1.115.664,2.086,3.457,1.445,4.156,3.789,10.057,5.416,11.863a12.384,12.384,0,0,0,2.836,1.733h0c.029.043.051.066.066.066" transform="translate(-1194.242 -711.377)" fill="#a6e8f0"/>
        <path id="Trazado_199052" data-name="Trazado 199052" d="M1409.976,924.193a5.678,5.678,0,0,1-1.987,1.957c-.613-.3-1.719-.732-2.187-1.02-1.7-1.036-4.113-3.972-6.087-7.12.074-.99,5.254,4.093,5.912,5.014.5.695,3.06,1.04,4.35,1.169" transform="translate(-1211.045 -794.16)" fill="#8ad4d6"/>
        <path id="Trazado_199053" data-name="Trazado 199053" d="M1461.486,1391.188l-.724,6.695a2.429,2.429,0,0,1-2.668,2.148l-6.695-.723a2.431,2.431,0,0,1-2.148-2.669l.723-6.695a2.43,2.43,0,0,1,2.349-2.161,2.391,2.391,0,0,1,.32.013l6.694.723a2.431,2.431,0,0,1,2.149,2.669" transform="translate(-1253.892 -1200.72)" fill="#7e5ee3"/>
        <path id="Trazado_199054" data-name="Trazado 199054" d="M1457.718,1391c-4.738.263-5.705,8.376-6.318,8.31a2.43,2.43,0,0,1-2.148-2.669l.723-6.695a2.43,2.43,0,0,1,2.349-2.161c4.173,1.522,7.775,3.082,5.395,3.215" transform="translate(-1253.892 -1200.725)" fill="#644bb5"/>
        <path id="Trazado_199055" data-name="Trazado 199055" d="M1464.075,785.738l-9.023,50.868-5.091,28.7a3.2,3.2,0,0,1-3.491,2.619l-8.22-.887-1.856-.2a4.438,4.438,0,0,1-3.955-4.621l1.32-27.907,2.439-51.578,17.185,1.856Z" transform="translate(-1239.353 -677.222)" fill="#f7e0cb"/>
        <g id="Grupo_137457" data-name="Grupo 137457" transform="translate(193.08 105.506)" opacity="0.5">
          <g id="Grupo_137456" data-name="Grupo 137456">
            <g id="Grupo_137455" data-name="Grupo 137455" clip-path="url(#clip-path-7)">
              <path id="Trazado_199056" data-name="Trazado 199056" d="M1453.384,784.583l-8.761,50.053L1439.29,865.1a3.421,3.421,0,0,1-1.04,1.929l-1.856-.2a4.437,4.437,0,0,1-3.955-4.621l1.32-27.907,2.438-51.578Z" transform="translate(-1432.434 -782.727)" fill="#efcbab"/>
            </g>
          </g>
        </g>
        <path id="Trazado_199057" data-name="Trazado 199057" d="M1488.608,759.961l-.375,3.474-10.692-1.154-17.185-1.856.375-3.474,17.294,1.867Z" transform="translate(-1263.512 -654.92)" fill="#e58435"/>
        <path id="Trazado_199058" data-name="Trazado 199058" d="M1454.846,1167.679l-5.124,28.882a3,3,0,0,1-3.27,2.455l-7.741-.836-3.227-.349A3.682,3.682,0,0,1,1432.2,1194l1.353-28.615,11.018,1.19Z" transform="translate(-1239.148 -1008.296)" fill="#f1a34f"/>
        <path id="Trazado_199059" data-name="Trazado 199059" d="M1444.571,1166.57l-5.381,30.341a3.66,3.66,0,0,1-.479,1.27l-3.227-.349A3.683,3.683,0,0,1,1432.2,1194l1.353-28.615Z" transform="translate(-1239.148 -1008.296)" fill="#eb9342"/>
        <path id="Trazado_199060" data-name="Trazado 199060" d="M1478.026,758.819l-.484,3.463-17.185-1.856.375-3.474Z" transform="translate(-1263.512 -654.92)" fill="#ce732e"/>
        <path id="Trazado_199061" data-name="Trazado 199061" d="M1286.117,1060.907l-1.972.734s-8.564-11.878-9.619-22.329c-.188-1.866.2-5.821.052-6.666-.068-.395-.151-.869-.246-1.413-.278-1.6-.662-3.778-1.1-6.264-1.008-5.72-2.313-13.031-3.328-18.407l.531-.171,5.749-1.855,1.188-3.773,4.28-1.127s.956,1.871,1.811,10.707c.158,1.159.3,2.437.409,3.823a75.681,75.681,0,0,1-.407,15.478,93.1,93.1,0,0,0-.916,9.442c.431,8.543,3.567,21.82,3.567,21.82" transform="translate(-1098.732 -864.894)" fill="#7e5ee3"/>
        <path id="Trazado_199062" data-name="Trazado 199062" d="M1283.872,1014.168l-9.3,18.479c-.068-.395-.151-.869-.246-1.414-.279-1.6-.662-3.778-1.1-6.264-1.008-5.72-2.313-13.032-3.328-18.407l.531-.171,5.749-1.854,1.188-3.773,4.28-1.127s.956,1.871,1.811,10.707c.158,1.159.3,2.437.409,3.823" transform="translate(-1098.731 -864.894)" fill="#644bb5"/>
        <path id="Trazado_199063" data-name="Trazado 199063" d="M1224.639,988.212l-.215-1.845c-3.605.957-13.237-2.676-13.237-2.676s-3.492,3.07-3.034,10.429c.224,3.592.633,18.854,1.06,23.37.154,1.637-.908,5.849-1.335,6.986-4.191,11.167.646,24.92.646,24.92l1.255-.506s7.94-28.787,8.759-31.836A176.638,176.638,0,0,0,1222.16,998c.114.005,2.479-9.786,2.479-9.786" transform="translate(-1043.587 -851.097)" fill="#7e5ee3"/>
        <path id="Trazado_199064" data-name="Trazado 199064" d="M1332.357,766.032c-6.2.34-4.836-8.9-4.458-8.852.758-.4,2.12-2.32,2.907-5.538l.267.124,4.472,2.1s-.475,1.455-.826,2.848a5.671,5.671,0,0,0-.306,2.437c.353.143.563.233.563.233a.012.012,0,0,0,0,0c.045.114-.969,6.55-2.622,6.641" transform="translate(-1148.57 -650.326)" fill="#ffb27d"/>
        <path id="Trazado_199065" data-name="Trazado 199065" d="M1358.441,754.671s-.476,1.454-.826,2.848c-2.614-.729-3.408-3.477-3.647-4.95Z" transform="translate(-1171.464 -651.128)" fill="#ed985f"/>
        <path id="Trazado_199066" data-name="Trazado 199066" d="M1356.615,706.578s-6.254-1.447-5.293-5.328.8-6.681,4.835-5.921,4.44,2.432,4.434,3.806-2.325,7.72-3.976,7.444" transform="translate(-1169.088 -601.496)" fill="#ffb27d"/>
        <path id="Trazado_199067" data-name="Trazado 199067" d="M1350.852,692.392c-.672-1.407-1.464-1.331-1.958-1.082a4.486,4.486,0,0,0-5.821-.5,7.637,7.637,0,0,1-3.514,3.775s.961.984,3.745.962a4.585,4.585,0,0,0,2.484-.935,14.976,14.976,0,0,1-3.261,2.432c3.486-.667,5.823-4.7,6.063-5.131a5.028,5.028,0,0,1,.908,2.148c.065,1.065-.3,3.134.308,3.212,0,0,2.055-2.774,1.046-4.883" transform="translate(-1158.997 -596.956)" fill="#2c3a64"/>
        <path id="Trazado_199068" data-name="Trazado 199068" d="M1213.67,1442.822h-9.931a5.452,5.452,0,0,1,.281-2.662c.5-1.1,1.276-1.6,1.089-2.936a3.576,3.576,0,0,0,3.1,1.184,10.9,10.9,0,0,0,1.723,2.234c.649.466,3.543.3,3.743,2.18" transform="translate(-1041.438 -1243.497)" fill="#644bb5"/>
        <path id="Trazado_199069" data-name="Trazado 199069" d="M1371.539,1445.68h-9.931a4.127,4.127,0,0,1,.281-2.662,1.914,1.914,0,0,0-.071-2.286,3.862,3.862,0,0,0,1.673.315,3.5,3.5,0,0,0,1.477-.52,35.7,35.7,0,0,0,2.83,2.973c.649.466,3.543.3,3.743,2.18" transform="translate(-1177.983 -1246.356)" fill="#644bb5"/>
        <path id="Trazado_199070" data-name="Trazado 199070" d="M1230.86,795.724l-1.628,21.869-1,13.391c-1.532.476-2.99.849-4.373,1.134a16.33,16.33,0,0,0-.454-2.465,7.134,7.134,0,0,1-1.3,2.785c-12.717,2.037-18.679-3.51-18.679-3.51a145.972,145.972,0,0,1,5.2-23.17c.534-1.732,1.086-3.394,1.645-4.927a67.376,67.376,0,0,1,2.765-6.717c1.3-2.682,7.134-2.514,7.134-2.514a14.267,14.267,0,0,0,4.209,6.57c1.645-.966,2.87-4.363,2.87-4.363Z" transform="translate(-1041.22 -684.897)" fill="#a6e8f0"/>
        <path id="Trazado_199071" data-name="Trazado 199071" d="M1428.108,984.373a9.639,9.639,0,0,1-2.868-.347s2.395-.034,1.886-.791a12.991,12.991,0,0,0-2.612-.033,4.629,4.629,0,0,0-1.823.782c-.963-.127-1.839-.314-2.122-.375a.461.461,0,0,1-.1-.03l-.851,2.477s.179.045.492.1a33.36,33.36,0,0,1,3.954,1.209,3.956,3.956,0,0,0,4.447-.955,2.481,2.481,0,0,0,.788-1.56c-.027-.5-.687-.477-1.188-.48" transform="translate(-1228.262 -850.64)" fill="#ffb27d"/>
        <path id="Trazado_199072" data-name="Trazado 199072" d="M1328.967,786.067s-1.058.071-1.285.748c0,0,1.381,5.557,4.208,6.569Z" transform="translate(-1148.721 -680.111)" fill="#6bb7bf"/>
        <path id="Trazado_199073" data-name="Trazado 199073" d="M1358.9,807.952s2.638-4.389,2.628-5.047c0,0,1.09.424,1.022,1.1,0,0-2.275,3.644-3.65,3.948" transform="translate(-1175.73 -694.679)" fill="#6bb7bf"/>
        <path id="Trazado_199074" data-name="Trazado 199074" d="M1305.172,825.681c.076.263,9.6,15.464,9.8,18.491s-4,1.316-4.069.921-5.735-19.412-5.735-19.412" transform="translate(-1129.246 -714.385)" fill="#8ad4d6"/>
        <path id="Trazado_199075" data-name="Trazado 199075" d="M1296.205,860.742l-1,13.391c-13.62-3.923-14.369-32.664-14.369-32.664l8.418,15.2,6.874,3.973s.026.036.074.1" transform="translate(-1108.193 -728.045)" fill="#8ad4d6"/>
        <path id="Trazado_199076" data-name="Trazado 199076" d="M1361.924,955.35l-.522,1.91s-.657-.12-1.7-.313c-.313-.061-.492-.105-.492-.105-.836-.163-1.835-.387-2.924-.626h-.016c-1.865-.448-3.953-.985-5.714-1.582-.158-.055-.313-.111-.465-.166-1.041-.384.971-5.668,1.882-5.011.241.175.5.355.771.541,1.51,1.025,3.431,2.168,5.138,3.13.836.478,1.627.911,2.283,1.269,1.059.582,1.761.956,1.761.956" transform="translate(-1167.856 -821.427)" fill="#ffb27d"/>
        <path id="Trazado_199077" data-name="Trazado 199077" d="M1284.092,818.5a6.153,6.153,0,0,1-3.268,5.363c-3.9-1.409-5.993-7.232-7.605-11.231-.224-.551-.433-1.1-.641-1.641a40.755,40.755,0,0,1-1.7-5.671,16.11,16.11,0,0,1-.4-2.7,6.528,6.528,0,0,1-.015-.761c.029-4.327,3.089-4.775,3.491-4.282a13.6,13.6,0,0,1,1.6,2.82c.85,1.924,1.745,4.417,2.581,6.894.463,1.358.911,2.716,1.358,3.969.254.761.508,1.477.746,2.133a20.635,20.635,0,0,0,1.253,2.91,7.226,7.226,0,0,0,1.836,1.657c.241.175.5.355.771.541" transform="translate(-1099.205 -689.93)" fill="#a6e8f0"/>
        <path id="Trazado_199078" data-name="Trazado 199078" d="M1484.113,948.91c0,.016-.01.024-.02.024l.012-.028c.012-.024.015-.024.008,0" transform="translate(-1284.049 -820.985)" fill="#a6e8f0"/>
        <path id="Trazado_199079" data-name="Trazado 199079" d="M642.688,1428.081a3.478,3.478,0,0,1-3.466,3.466H622.855a3.466,3.466,0,0,1,0-6.931h16.367a3.476,3.476,0,0,1,3.466,3.465" transform="translate(-535.901 -1232.589)" fill="#7e5ee3"/>
        <path id="Trazado_199080" data-name="Trazado 199080" d="M634.246,1428.081a3.476,3.476,0,0,1-3.465,3.466h-7.925a3.466,3.466,0,0,1,0-6.931h7.925a3.475,3.475,0,0,1,3.465,3.465" transform="translate(-535.902 -1232.589)" fill="#699ff0"/>
        <g id="Grupo_137460" data-name="Grupo 137460" transform="translate(87.495 192.796)" opacity="0.4">
          <g id="Grupo_137459" data-name="Grupo 137459">
            <g id="Grupo_137458" data-name="Grupo 137458" clip-path="url(#clip-path-8)">
              <path id="Trazado_199081" data-name="Trazado 199081" d="M665.216,1431.411H649.6a.493.493,0,0,1-.491-.491v-.111a.493.493,0,0,1,.491-.491h15.612a.493.493,0,0,1,.491.491v.111a.493.493,0,0,1-.491.491" transform="translate(-649.113 -1430.318)" fill="#e9f3fe"/>
            </g>
          </g>
        </g>
        <path id="Trazado_199082" data-name="Trazado 199082" d="M544.391,1364.495a3.687,3.687,0,0,1-1.639,4.932l-15.513,7.774a3.674,3.674,0,0,1-3.292-6.57l15.513-7.774a3.685,3.685,0,0,1,4.931,1.638" transform="translate(-451.571 -1178.82)" fill="#ef7e29"/>
        <path id="Trazado_199083" data-name="Trazado 199083" d="M536.39,1394.244a3.685,3.685,0,0,1-1.638,4.931l-7.512,3.764a3.674,3.674,0,0,1-3.292-6.57l7.512-3.764a3.684,3.684,0,0,1,4.93,1.638" transform="translate(-451.572 -1204.558)" fill="#f99746"/>
        <g id="Grupo_137463" data-name="Grupo 137463" transform="translate(73.433 184.579)" opacity="0.5">
          <g id="Grupo_137462" data-name="Grupo 137462">
            <g id="Grupo_137461" data-name="Grupo 137461" clip-path="url(#clip-path-9)">
              <path id="Trazado_199084" data-name="Trazado 199084" d="M560.39,1370.453l-14.8,7.416a.522.522,0,0,1-.7-.232l-.053-.1a.522.522,0,0,1,.232-.7l14.8-7.415a.522.522,0,0,1,.7.232l.053.1a.522.522,0,0,1-.232.7" transform="translate(-544.787 -1369.362)" fill="#ffe2cc"/>
            </g>
          </g>
        </g>
        <path id="Trazado_199085" data-name="Trazado 199085" d="M1963.9,791.05a1.058,1.058,0,0,1,.189,1.133.007.007,0,0,1,0,.006,7.041,7.041,0,0,1-2.225,2.441c-.134.108-.253.207-.357.3-.027.024-.055.048-.08.072l-.061.056c-.978.9-.61,1.108-2.367,2.937-2,2.084-3.383,2.122-3.775,1.932-.332-.162.343-1.267,1.09-2.51.036-.06.072-.121.109-.181.1-.165.2-.333.3-.5.876-1.5.651-2.2.443-4.423-.169-1.809-2.813-10.1-2.813-10.1l3.839-.661s1.156,6.605,2.43,7.623c.681.542,1.444.549,2.1.951q.069.042.136.086a5.04,5.04,0,0,1,1.05.844" transform="translate(-1690.915 -676.199)" fill="#ffb27d"/>
        <path id="Trazado_199086" data-name="Trazado 199086" d="M1968.953,846.083a1.058,1.058,0,0,1,.189,1.133.007.007,0,0,1,0,.006,8.152,8.152,0,0,1-2.228,2.433c-.133.11-.249.211-.353.305-.028.024-.055.048-.081.072l-.061.056c-.978.9-.61,1.108-2.367,2.937-2,2.084-3.383,2.122-3.775,1.932-.332-.162.343-1.267,1.09-2.51a8.54,8.54,0,0,0,3.571-2.631c1.206-1.539,2.011-3.517,2.832-4.663q.069.042.136.086a5.038,5.038,0,0,1,1.051.844" transform="translate(-1695.969 -731.233)" fill="#644bb5"/>
        <path id="Trazado_199087" data-name="Trazado 199087" d="M1721.6,781.152c-.237,1.185-1.926.987-3.814.526s-1.439.087-4.125-.21-3.5-1.3-3.582-1.7c-.073-.354,1.254-.479,2.677-.643.179-.02.359-.042.539-.065,1.607-.2,2.784-1.239,4.244-2.091,1.383-.807,3.446-4.094,3.446-4.094l3.683.292s-1.933,2.936-2.68,4.212a4.452,4.452,0,0,0-.362,2.51,4.738,4.738,0,0,1-.028,1.26" transform="translate(-1479.573 -668.7)" fill="#ffb27d"/>
        <path id="Trazado_199088" data-name="Trazado 199088" d="M1717.787,821.789c-1.887-.461-1.439.087-4.125-.21s-3.5-1.3-3.582-1.7c-.073-.354,1.254-.479,2.677-.643l.013.028a7.573,7.573,0,0,0,3.847,1.2c1.822.044,3.752-.478,5.011-.458a4.738,4.738,0,0,1-.028,1.26c-.237,1.185-1.926.987-3.814.526" transform="translate(-1479.573 -708.81)" fill="#644bb5"/>
        <path id="Trazado_199089" data-name="Trazado 199089" d="M1900.289,621.624l3.443,9.266,4.5,12.1a7.282,7.282,0,0,0,2.388-.218,10.354,10.354,0,0,0,2.31-1.124s-1.248-12.99-3.577-20.447a13.286,13.286,0,0,0-2-4.334c-3.61-4.266-7.057,4.759-7.057,4.759" transform="translate(-1644.145 -532.724)" fill="#644bb5"/>
        <path id="Trazado_199090" data-name="Trazado 199090" d="M1795.56,538.476c2.256-.728,8.69.207,15.153,1.472l1.353-2.232,13.96-1.09s4.607,10.216,2.085,16.726a2.361,2.361,0,0,1-2.363,1.591h-.2s-8.309,0-11.007,0c-6.943,0-14.693-4.773-15.7-4.973-1.641-.328-2.3,2.954-3.939,6.4s-15.426,15.262-15.426,15.262a12.132,12.132,0,0,1-2.994-.307,2.95,2.95,0,0,1-1.286-.811s15.275-30.391,20.362-32.032" transform="translate(-1535.916 -464.292)" fill="#7e5ee3"/>
        <path id="Trazado_199091" data-name="Trazado 199091" d="M2001.9,256.135c4.4,3.58,15.011,9.786,15.069,9.759,0,0,3.4,2.036,5.717,1.037,3.864-1.665,6.832-7.494,1.486-13.942-2.666-3.216-4.876-4.276-4.357-8.551.562-4.633-1.529-10.457-6.862-10.7a14.719,14.719,0,0,0-5.073.224c-4.911,1.541-13.124,19.8-5.98,22.176" transform="translate(-1729.643 -202.121)" fill="#644bb5"/>
        <path id="Trazado_199092" data-name="Trazado 199092" d="M2053.509,385.724c-.287.794-7.835,1.5-12.13,1.216a5.889,5.889,0,0,1-2.772-.6c-1.532-1.331-1.379,1.6-1.589-12.406-.1-6.83,5.8-12.912,5.8-12.912s.471,2.918,6.319-.555c.208-.122,2.511,3.289,4.728,7.488,2.442,4.639-.057,16.953-.351,17.768" transform="translate(-1762.443 -311.876)" fill="#a6e8f0"/>
        <path id="Trazado_199093" data-name="Trazado 199093" d="M1925.835,666.06l4.5,12.1a7.281,7.281,0,0,0,2.388-.218,10.354,10.354,0,0,0,2.31-1.124s-1.248-12.99-3.577-20.447Z" transform="translate(-1666.248 -567.895)" fill="#7e5ee3"/>
        <path id="Trazado_199094" data-name="Trazado 199094" d="M1972.047,364.6s-5.339,1.31-6.724,3.611c-1.687,2.8-10.1,15.439-10.1,15.439s8.291,2.933,9.7,1.52,4.917-13.111,4.917-13.111Z" transform="translate(-1691.677 -315.451)" fill="#a6e8f0"/>
        <path id="Trazado_199095" data-name="Trazado 199095" d="M2082.175,329.587a14.511,14.511,0,0,1-3.75,2.587c-.625.228-1.662.478-1.662.478s-.833-.843-.845-.854c-.74-.691,0-.891-.108-2.2-.006-.062-.01-.125-.018-.189a23.567,23.567,0,0,0-.6-3.167.013.013,0,0,1,0,0l5.167-1.477-.166.285c.318,2.682,1.281,4.46,1.983,4.539" transform="translate(-1795.472 -280.987)" fill="#ffb27d"/>
        <path id="Trazado_199096" data-name="Trazado 199096" d="M2080.358,324.763a5.773,5.773,0,0,1-4.655,3.951,24.55,24.55,0,0,0-.51-2.469.013.013,0,0,1,0,0Z" transform="translate(-1795.472 -280.987)" fill="#ed975d"/>
        <path id="Trazado_199097" data-name="Trazado 199097" d="M2049.586,270.263s6.964-.463,6.609-4.8.3-7.31-4.157-7.2-5.189,1.836-5.422,3.311,1.149,8.691,2.97,8.682" transform="translate(-1770.726 -223.453)" fill="#ffb27d"/>
        <path id="Trazado_199098" data-name="Trazado 199098" d="M2059.527,251.711s1.73,5.077,5.839,5.668c3,.431,4.188-.38,4.188-.38a11.762,11.762,0,0,1-2.58-4.035,2.117,2.117,0,0,0-1.659-1.363c-2.134-.329-4.887-1.742-5.788.11" transform="translate(-1781.92 -216.973)" fill="#644bb5"/>
        <path id="Trazado_199099" data-name="Trazado 199099" d="M2046.636,258.369a4.6,4.6,0,0,0-2.111,2.359,8.864,8.864,0,0,0-.524,4.426s-2-4.633-.552-6.721c1.537-2.214,3.188-.064,3.188-.064" transform="translate(-1767.553 -222.732)" fill="#644bb5"/>
        <path id="Trazado_199100" data-name="Trazado 199100" d="M2073.258,360.654s.426,2.571.953,3.051a3.736,3.736,0,0,1-1.969-2.22s.467-.773,1.016-.831" transform="translate(-1792.921 -312.04)" fill="#6bb7bf"/>
        <path id="Trazado_199101" data-name="Trazado 199101" d="M2020.77,425.465s-3.889,4.665-3.41,6.355,3.172,1.69,3.172,1.69a18.663,18.663,0,0,1,0-5.473c.5-1.873.819-2.682.238-2.572" transform="translate(-1745.401 -368.107)" fill="#8ad4d6"/>
        <path id="Trazado_199102" data-name="Trazado 199102" d="M2127,456.191s3-2.131,2.927-4.114,0-5.624.528-5.114,2.187,4.6,2.027,5.756-1.453,4.6-2.138,4.745-3.343-1.273-3.343-1.273" transform="translate(-1840.299 -386.674)" fill="#8ad4d6"/>
        <path id="Trazado_199103" data-name="Trazado 199103" d="M2045.239,559.791s4.216,13.181,14.912,14.748c0,0,3.8-3.722,3.461-12.146s-18.373-2.6-18.373-2.6" transform="translate(-1769.557 -482.639)" fill="#a6e8f0"/>
        <path id="Trazado_199104" data-name="Trazado 199104" d="M1665.456,382.024l-2.044,5.632a2.809,2.809,0,0,1-3.6,1.682l-53.883-19.555a41.884,41.884,0,0,1-7.145-3.387l-7.285-4.339-9.44-5.623a30.125,30.125,0,0,0-5.149-2.441l-12.063-4.378a.861.861,0,0,1,.588-1.619l9.854,3.576a54.994,54.994,0,0,0,10.044,2.6l8.529,1.368,8.853,1.419a36.726,36.726,0,0,1,6.715,1.741l54.34,19.721a2.808,2.808,0,0,1,1.682,3.6" transform="translate(-1353.43 -301.044)" fill="#8cbcfa"/>
        <path id="Trazado_199105" data-name="Trazado 199105" d="M1840.139,430.807l-2.044,5.632a2.809,2.809,0,0,1-3.6,1.682l-53.883-19.555a41.884,41.884,0,0,1-7.145-3.387l-7.285-4.339a9.075,9.075,0,0,1,2.364-6.513l8.853,1.419a36.726,36.726,0,0,1,6.715,1.741l54.34,19.721a2.808,2.808,0,0,1,1.682,3.6" transform="translate(-1528.112 -349.827)" fill="#d7e8fd"/>
        <path id="Trazado_199106" data-name="Trazado 199106" d="M2241.214,564.088l-2.044,5.632a2.808,2.808,0,0,1-3.6,1.682l-5.834-2.117,3.96-10.912,5.834,2.117a2.809,2.809,0,0,1,1.682,3.6" transform="translate(-1929.188 -483.108)" fill="#f99746"/>
        <rect id="Rectángulo_43889" data-name="Rectángulo 43889" width="4.163" height="15.753" transform="translate(261.349 67.945) rotate(-70.054)" fill="#8fadef"/>
        <path id="Trazado_199107" data-name="Trazado 199107" d="M1571.27,350.113l-.588,1.619-5.832-2.117a.861.861,0,0,1,.588-1.619Z" transform="translate(-1353.43 -301.044)" fill="#7e5ee3"/>
        <path id="Trazado_199108" data-name="Trazado 199108" d="M1858.955,492.033s-.159-2.332.723-2.241c1.082.113,2.231,2.678,1.7,3.174s-2.415-.359-2.426-.934" transform="translate(-1608.373 -423.769)" fill="#ffb27d"/>
        <path id="Trazado_199109" data-name="Trazado 199109" d="M2126.905,360.495s5.525.362,6.907,2.517,5.818,14.431,5.1,18.188-10.768,10.077-10.768,10.077l-1.068-2.3s5.879-9.686,5.324-11.028c-2.049-4.955-5.494-17.454-5.494-17.454" transform="translate(-1840.216 -311.903)" fill="#a6e8f0"/>
        <path id="Trazado_199110" data-name="Trazado 199110" d="M2095.952,570.752l-1.316-.788a3.4,3.4,0,0,0-1.3-.257c-.481.069-1.622-.133-1.658.053s1.177.984,1.177.984l.044-.009c-.682,1.045-3.274,1.281-3.461,1.675-.228.477.887.925,1.492,1.184a3.525,3.525,0,0,0,3.044-.182c.653-.5,1.726-1.149,1.726-1.149Z" transform="translate(-1807.776 -492.891)" fill="#ffb27d"/>
        <path id="Trazado_199111" data-name="Trazado 199111" d="M2091.177,351.713s-3.059,3.848-4.325,4.256a8.7,8.7,0,0,0,6.133-3s-.848-1.243-1.808-1.256" transform="translate(-1805.561 -304.304)" fill="#6bb7bf"/>
        <path id="Trazado_199112" data-name="Trazado 199112" d="M1713.623,1069.468V1106.6a6.685,6.685,0,0,1-6.685,6.687h-17.865a6.686,6.686,0,0,1-6.687-6.687v-37.136a6.685,6.685,0,0,1,6.687-6.688,1.719,1.719,0,0,0,1.725-1.724v-3.5a1.271,1.271,0,0,1,.084-.463,1.325,1.325,0,0,1,1.242-.866h11.936a1.154,1.154,0,0,1,1.155,1.155v3.674a1.723,1.723,0,0,0,1.724,1.724,6.685,6.685,0,0,1,6.685,6.688" transform="translate(-1455.614 -913.855)" fill="#5a98e2"/>
        <path id="Trazado_199113" data-name="Trazado 199113" d="M1751.835,1069.468V1106.6a6.685,6.685,0,0,1-6.685,6.687h-11.912a6.686,6.686,0,0,1-6.687-6.687v-37.136a6.685,6.685,0,0,1,6.687-6.688,1.719,1.719,0,0,0,1.725-1.724v-3.5a1.3,1.3,0,0,1,.083-.463,1.325,1.325,0,0,1,1.242-.866h5.982a1.154,1.154,0,0,1,1.155,1.155v3.674a1.723,1.723,0,0,0,1.724,1.724,6.685,6.685,0,0,1,6.685,6.688" transform="translate(-1493.826 -913.855)" fill="#7babef"/>
        <path id="Trazado_199114" data-name="Trazado 199114" d="M1751.842,1054.408h-16.425v-3.133a2.438,2.438,0,0,1,2.438-2.438H1749.4a2.438,2.438,0,0,1,2.438,2.438Z" transform="translate(-1501.497 -907.462)" fill="#f99746"/>
        <rect id="Rectángulo_43890" data-name="Rectángulo 43890" width="31.237" height="13.662" transform="translate(226.772 161.442)" fill="#7e5ee3"/>
        <path id="Trazado_199115" data-name="Trazado 199115" d="M1871.882,1379.678a4.609,4.609,0,0,1-4.217,4.586l-51.056,4.337a4.6,4.6,0,0,1-4.47-2.455h0a4.607,4.607,0,0,1-.354-3.37c.016-.061.033-.12.054-.177a4.4,4.4,0,0,1,.366-.842,4.606,4.606,0,0,1,3.627-2.334l51.056-4.337a4.6,4.6,0,0,1,4.894,3.63,4.34,4.34,0,0,1,.085.567c.01.132.017.264.017.394" transform="translate(-1567.422 -1189.721)" fill="#eac3a2"/>
        <path id="Trazado_199116" data-name="Trazado 199116" d="M1781.529,1432.066a1.784,1.784,0,0,1-.786,1.475,1.758,1.758,0,0,1-.843.3l-.944.08h0l-3.762.319a1.78,1.78,0,0,1-1.737-.965,1.73,1.73,0,0,1-.187-.658,1.781,1.781,0,0,1,1.624-1.924l3.675-.312.087-.007.944-.08c.054-.005.106-.007.158-.007a1.78,1.78,0,0,1,1.766,1.63,1.509,1.509,0,0,1,.007.153" transform="translate(-1534.24 -1237.493)" fill="#eac3a2"/>
        <path id="Trazado_199117" data-name="Trazado 199117" d="M1872.657,1378.716a4.6,4.6,0,0,1-4.045,3.351l-51.056,4.339a4.6,4.6,0,0,1-4.9-3.63c-.012-.056-.024-.113-.033-.17l.087-.007a4.37,4.37,0,0,1,.366-.842,4.606,4.606,0,0,1,3.627-2.334l51.056-4.337a4.6,4.6,0,0,1,4.894,3.63" transform="translate(-1568.301 -1189.72)" fill="#f9ddbf"/>
        <path id="Trazado_199118" data-name="Trazado 199118" d="M1779.951,1426.249a1.785,1.785,0,0,1-1.4,1.737,2.03,2.03,0,0,1-.231.035l-4.708.4c-.054.005-.106.007-.158.007a1.728,1.728,0,0,1-.187-.658,1.781,1.781,0,0,1,1.624-1.924l3.675-.312.087-.007a4.373,4.373,0,0,1,.366-.842,1.786,1.786,0,0,1,.736.755,1.732,1.732,0,0,1,.187.658,1.514,1.514,0,0,1,.007.153" transform="translate(-1534.241 -1232.648)" fill="#f9ddbf"/>
        <path id="Trazado_199119" data-name="Trazado 199119" d="M2243.215,1361.961a5.377,5.377,0,0,1-4.9,5.427l-16.939,1.44-.179-10.738.059-.005,16.151-1.373a5.372,5.372,0,0,1,5.5,3.538,5.236,5.236,0,0,1,.295,1.347c.01.121.016.243.019.364" transform="translate(-1921.796 -1173.821)" fill="#644bb5"/>
        <path id="Trazado_199120" data-name="Trazado 199120" d="M2243.278,1360.25a5.369,5.369,0,0,1-4.588,3.547l-16.939,1.44-.12-7.153,16.151-1.373a5.372,5.372,0,0,1,5.5,3.538" transform="translate(-1922.173 -1173.821)" fill="#7e5ee3"/>
        <path id="Trazado_199121" data-name="Trazado 199121" d="M2198,1354.877l-1.1-12.992a2.641,2.641,0,0,1,2.408-2.854l.348-.03a2.641,2.641,0,0,1,2.855,2.407l1.1,12.992a2.641,2.641,0,0,1-2.407,2.855l-.348.03a2.64,2.64,0,0,1-2.854-2.408" transform="translate(-1900.764 -1158.505)" fill="#f99746"/>
        <path id="Trazado_199122" data-name="Trazado 199122" d="M450.308,1476.658H57.454a.555.555,0,0,1-.553-.553v-.5a.555.555,0,0,1,.553-.553H450.308a.555.555,0,0,1,.553.553v.5a.555.555,0,0,1-.553.553" transform="translate(-49.231 -1276.227)" fill="#2e3552"/>
      </g>
    </g>
  </g>
</svg>
