<svg id="Grupo_137470" data-name="Grupo 137470" xmlns="http://www.w3.org/2000/svg" xmlns:xlink="http://www.w3.org/1999/xlink" width="190" height="177.059" viewBox="0 0 190 177.059">
  <defs>
    <clipPath id="clip-path">
      <rect id="Rectángulo_43916" data-name="Rectángulo 43916" width="190" height="177.059" fill="none"/>
    </clipPath>
  </defs>
  <rect id="Rectángulo_43893" data-name="Rectángulo 43893" width="190" height="21.153" transform="translate(0 155.905)" fill="#abdeda"/>
  <g id="Grupo_137469" data-name="Grupo 137469">
    <g id="Grupo_137468" data-name="Grupo 137468" clip-path="url(#clip-path)">
      <path id="Trazado_199123" data-name="Trazado 199123" d="M206.944,125.474H92.227a4.186,4.186,0,0,1-4.186-4.186V4.187A4.186,4.186,0,0,1,92.227,0H206.944a4.186,4.186,0,0,1,4.186,4.186v117.1a4.186,4.186,0,0,1-4.186,4.186" transform="translate(-54.585 -0.001)" fill="#d9f5f9"/>
      <path id="Trazado_199124" data-name="Trazado 199124" d="M161.069,67.883h-46.3a1.148,1.148,0,0,1-1.145-1.145V62.761a1.149,1.149,0,0,1,1.145-1.146h46.3a1.149,1.149,0,0,1,1.145,1.146v3.977a1.148,1.148,0,0,1-1.145,1.145" transform="translate(-70.446 -38.201)" fill="#abdeda"/>
      <path id="Trazado_199125" data-name="Trazado 199125" d="M305.95,67.883h-46.3a1.149,1.149,0,0,1-1.146-1.145V62.761a1.149,1.149,0,0,1,1.146-1.146h46.3a1.149,1.149,0,0,1,1.145,1.146v3.977a1.148,1.148,0,0,1-1.145,1.145" transform="translate(-160.272 -38.201)" fill="#abdeda"/>
      <path id="Trazado_199126" data-name="Trazado 199126" d="M161.069,136.092h-46.3a1.149,1.149,0,0,1-1.145-1.145V130.97a1.149,1.149,0,0,1,1.145-1.146h46.3a1.149,1.149,0,0,1,1.145,1.146v3.977a1.149,1.149,0,0,1-1.145,1.145" transform="translate(-70.446 -80.491)" fill="#abdeda"/>
      <path id="Trazado_199127" data-name="Trazado 199127" d="M305.95,136.092h-46.3a1.149,1.149,0,0,1-1.146-1.145V130.97a1.149,1.149,0,0,1,1.146-1.146h46.3a1.149,1.149,0,0,1,1.145,1.146v3.977a1.149,1.149,0,0,1-1.145,1.145" transform="translate(-160.272 -80.491)" fill="#abdeda"/>
      <path id="Trazado_199128" data-name="Trazado 199128" d="M161.069,204.3h-46.3a1.149,1.149,0,0,1-1.145-1.145V199.18a1.149,1.149,0,0,1,1.145-1.146h46.3a1.149,1.149,0,0,1,1.145,1.146v3.977a1.149,1.149,0,0,1-1.145,1.145" transform="translate(-70.446 -122.781)" fill="#abdeda"/>
      <path id="Trazado_199129" data-name="Trazado 199129" d="M305.95,204.3h-46.3a1.149,1.149,0,0,1-1.146-1.145V199.18a1.149,1.149,0,0,1,1.146-1.146h46.3a1.149,1.149,0,0,1,1.145,1.146v3.977a1.149,1.149,0,0,1-1.145,1.145" transform="translate(-160.272 -122.781)" fill="#abdeda"/>
      <path id="Trazado_199130" data-name="Trazado 199130" d="M161.069,61.132h-46.3a1.149,1.149,0,0,1-1.145-1.145V56.01a1.149,1.149,0,0,1,1.145-1.146h46.3a1.149,1.149,0,0,1,1.145,1.146v3.977a1.149,1.149,0,0,1-1.145,1.145" transform="translate(-70.446 -34.016)" fill="#a6e8f0"/>
      <path id="Trazado_199131" data-name="Trazado 199131" d="M161.892,55.789l-.774,3.7a1.445,1.445,0,0,1-1.34,1.114H116.059a1.445,1.445,0,0,1-1.34-1.114l-.774-3.7a1.139,1.139,0,0,0-.323.794V60.56a1.149,1.149,0,0,0,1.146,1.146h46.3a1.149,1.149,0,0,0,1.145-1.146V56.583a1.141,1.141,0,0,0-.323-.794" transform="translate(-70.446 -34.589)" fill="#00bcd4"/>
      <path id="Trazado_199132" data-name="Trazado 199132" d="M305.95,61.132h-46.3a1.149,1.149,0,0,1-1.146-1.145V56.01a1.149,1.149,0,0,1,1.146-1.146h46.3A1.149,1.149,0,0,1,307.1,56.01v3.977a1.149,1.149,0,0,1-1.145,1.145" transform="translate(-160.272 -34.016)" fill="#a6e8f0"/>
      <path id="Trazado_199133" data-name="Trazado 199133" d="M306.773,55.789l-.775,3.7a1.445,1.445,0,0,1-1.339,1.114H260.94a1.445,1.445,0,0,1-1.34-1.114l-.774-3.7a1.139,1.139,0,0,0-.323.794V60.56a1.149,1.149,0,0,0,1.146,1.146h46.3A1.149,1.149,0,0,0,307.1,60.56V56.583a1.142,1.142,0,0,0-.323-.794" transform="translate(-160.272 -34.589)" fill="#00bcd4"/>
      <path id="Trazado_199134" data-name="Trazado 199134" d="M161.069,129.341h-46.3a1.149,1.149,0,0,1-1.145-1.145v-3.977a1.149,1.149,0,0,1,1.145-1.146h46.3a1.149,1.149,0,0,1,1.145,1.146V128.2a1.149,1.149,0,0,1-1.145,1.145" transform="translate(-70.446 -76.305)" fill="#a6e8f0"/>
      <path id="Trazado_199135" data-name="Trazado 199135" d="M161.892,124l-.774,3.7a1.445,1.445,0,0,1-1.34,1.113H116.059a1.444,1.444,0,0,1-1.34-1.113l-.774-3.7a1.139,1.139,0,0,0-.323.794v3.977a1.149,1.149,0,0,0,1.146,1.145h46.3a1.149,1.149,0,0,0,1.145-1.145v-3.977a1.141,1.141,0,0,0-.323-.794" transform="translate(-70.446 -76.879)" fill="#00bcd4"/>
      <path id="Trazado_199136" data-name="Trazado 199136" d="M305.95,129.341h-46.3A1.149,1.149,0,0,1,258.5,128.2v-3.977a1.149,1.149,0,0,1,1.146-1.146h46.3a1.149,1.149,0,0,1,1.145,1.146V128.2a1.149,1.149,0,0,1-1.145,1.145" transform="translate(-160.272 -76.305)" fill="#a6e8f0"/>
      <path id="Trazado_199137" data-name="Trazado 199137" d="M306.773,124l-.775,3.7a1.444,1.444,0,0,1-1.339,1.113H260.94a1.445,1.445,0,0,1-1.34-1.113l-.774-3.7a1.139,1.139,0,0,0-.323.794v3.977a1.149,1.149,0,0,0,1.146,1.145h46.3a1.149,1.149,0,0,0,1.146-1.145v-3.977a1.142,1.142,0,0,0-.323-.794" transform="translate(-160.272 -76.879)" fill="#00bcd4"/>
      <path id="Trazado_199138" data-name="Trazado 199138" d="M362.45,91.006v-.4a.748.748,0,0,0-.673-.8h-1.885a.748.748,0,0,0-.673.8v.4a3.839,3.839,0,0,1-.684,2.454,2.114,2.114,0,0,0-.743,1.368v6.3a1.25,1.25,0,0,0,1.246,1.246h3.592a1.25,1.25,0,0,0,1.246-1.246v-6.3c0-.571-.426-.939-.743-1.368a4.075,4.075,0,0,1-.684-2.454" transform="translate(-221.832 -55.68)" fill="#fdbb4c"/>
      <path id="Trazado_199139" data-name="Trazado 199139" d="M364.3,90.038h-3.5a.238.238,0,0,1-.238-.238V88.583a.238.238,0,0,1,.238-.238h3.5a.238.238,0,0,1,.237.238V89.8a.238.238,0,0,1-.237.238" transform="translate(-223.553 -54.774)" fill="#ad8134"/>
      <path id="Trazado_199140" data-name="Trazado 199140" d="M363.036,108.338H361.3a1.36,1.36,0,0,1-1.356-1.355V102.4a1.36,1.36,0,0,1,1.356-1.355h1.739a1.359,1.359,0,0,1,1.355,1.355v4.586a1.359,1.359,0,0,1-1.355,1.355" transform="translate(-223.163 -62.645)" fill="#fff"/>
      <path id="Trazado_199141" data-name="Trazado 199141" d="M363.232,104.389l-1.176,3.934a.26.26,0,0,0,.212.327h2.407a.26.26,0,0,0,.212-.327l-1.176-3.934c-.1-.344-.377-.344-.479,0" transform="translate(-224.469 -64.561)" fill="#ad8134"/>
      <path id="Trazado_199142" data-name="Trazado 199142" d="M336.889,91.006v-.4a.748.748,0,0,0-.673-.8h-1.885a.748.748,0,0,0-.673.8v.4a3.839,3.839,0,0,1-.684,2.454,2.115,2.115,0,0,0-.743,1.368v6.3a1.25,1.25,0,0,0,1.246,1.246h3.592a1.25,1.25,0,0,0,1.246-1.246v-6.3c0-.571-.426-.939-.743-1.368a4.075,4.075,0,0,1-.684-2.454" transform="translate(-205.984 -55.68)" fill="#fdbb4c"/>
      <path id="Trazado_199143" data-name="Trazado 199143" d="M338.744,90.038h-3.5a.238.238,0,0,1-.238-.238V88.583a.238.238,0,0,1,.238-.238h3.5a.238.238,0,0,1,.237.238V89.8a.238.238,0,0,1-.237.238" transform="translate(-207.706 -54.774)" fill="#ad8134"/>
      <path id="Trazado_199144" data-name="Trazado 199144" d="M337.475,108.338h-1.739a1.359,1.359,0,0,1-1.355-1.355V102.4a1.359,1.359,0,0,1,1.355-1.355h1.739a1.359,1.359,0,0,1,1.355,1.355v4.586a1.359,1.359,0,0,1-1.355,1.355" transform="translate(-207.316 -62.645)" fill="#fff"/>
      <path id="Trazado_199145" data-name="Trazado 199145" d="M337.672,104.389l-1.176,3.934a.26.26,0,0,0,.212.327h2.407a.26.26,0,0,0,.212-.327l-1.176-3.934c-.1-.344-.377-.344-.479,0" transform="translate(-208.621 -64.561)" fill="#ad8134"/>
      <path id="Trazado_199146" data-name="Trazado 199146" d="M154.571,159.4V159a.748.748,0,0,0-.673-.8h-1.885a.748.748,0,0,0-.673.8v.4a3.839,3.839,0,0,1-.684,2.454,2.115,2.115,0,0,0-.743,1.368v6.3a1.25,1.25,0,0,0,1.246,1.246h3.592A1.25,1.25,0,0,0,156,169.526v-6.3c0-.571-.426-.939-.743-1.368a4.074,4.074,0,0,1-.684-2.454" transform="translate(-92.947 -98.084)" fill="#fdbb4c"/>
      <path id="Trazado_199147" data-name="Trazado 199147" d="M156.427,158.43h-3.5a.238.238,0,0,1-.238-.238v-1.218a.238.238,0,0,1,.238-.238h3.5a.238.238,0,0,1,.238.238v1.218a.238.238,0,0,1-.238.238" transform="translate(-94.67 -97.177)" fill="#ad8134"/>
      <path id="Trazado_199148" data-name="Trazado 199148" d="M155.158,176.731h-1.739a1.359,1.359,0,0,1-1.355-1.355v-4.586a1.359,1.359,0,0,1,1.355-1.355h1.739a1.359,1.359,0,0,1,1.355,1.355v4.586a1.359,1.359,0,0,1-1.355,1.355" transform="translate(-94.28 -105.049)" fill="#fff"/>
      <path id="Trazado_199149" data-name="Trazado 199149" d="M155.355,172.781l-1.176,3.934a.26.26,0,0,0,.212.327H156.8a.26.26,0,0,0,.212-.327l-1.176-3.934c-.1-.344-.377-.344-.479,0" transform="translate(-95.585 -106.964)" fill="#ad8134"/>
      <path id="Trazado_199150" data-name="Trazado 199150" d="M127.356,95.893v-.4a.8.8,0,0,0-.8-.8H124.31a.8.8,0,0,0-.8.8v.4a.8.8,0,0,1-.375.666,1.638,1.638,0,0,0-.743,1.368v6.3a1.249,1.249,0,0,0,1.246,1.246h3.592a1.249,1.249,0,0,0,1.246-1.246v-6.3a1.638,1.638,0,0,0-.743-1.368.8.8,0,0,1-.375-.666" transform="translate(-75.882 -58.71)" fill="#fff"/>
      <path id="Trazado_199151" data-name="Trazado 199151" d="M128.712,93.623h-4.018a.254.254,0,0,1-.254-.253V92.183a.254.254,0,0,1,.254-.253h4.018a.253.253,0,0,1,.253.253V93.37a.253.253,0,0,1-.253.253" transform="translate(-77.153 -56.997)" fill="#ad8134"/>
      <rect id="Rectángulo_43894" data-name="Rectángulo 43894" width="6.083" height="4.591" transform="translate(46.508 39.599)" fill="#fdbb4c"/>
      <path id="Trazado_199152" data-name="Trazado 199152" d="M129.4,107.683a1.572,1.572,0,1,1-1.572-1.572,1.573,1.573,0,0,1,1.572,1.572" transform="translate(-78.28 -65.789)" fill="#fff"/>
      <rect id="Rectángulo_43895" data-name="Rectángulo 43895" width="13.453" height="5.925" transform="translate(69.173 40.843)" fill="#fff"/>
      <path id="Trazado_199153" data-name="Trazado 199153" d="M185.4,107.481h-3.367v5.925h9.292Z" transform="translate(-112.861 -66.638)" fill="#fdbb4c"/>
      <path id="Trazado_199154" data-name="Trazado 199154" d="M197.39,107.481h-1.522l5.925,5.925h1.522Z" transform="translate(-121.438 -66.638)" fill="#fdbb4c"/>
      <path id="Trazado_199155" data-name="Trazado 199155" d="M209.394,110.889l-3.407-3.407h-1.522l4.929,4.929Z" transform="translate(-126.769 -66.638)" fill="#fdbb4c"/>
      <path id="Trazado_199156" data-name="Trazado 199156" d="M169.416,93.841h-2.428a.349.349,0,0,0-.349.349V104.6a.349.349,0,0,0,.349.349h2.428a.349.349,0,0,0,.349-.349V94.19a.349.349,0,0,0-.349-.349" transform="translate(-103.316 -58.181)" fill="#eb7676"/>
      <path id="Trazado_199157" data-name="Trazado 199157" d="M169.112,90.627h-3.145a.4.4,0,0,0-.4.4v.956a.4.4,0,0,0,.4.4h3.145a.4.4,0,0,0,.4-.4v-.956a.4.4,0,0,0-.4-.4" transform="translate(-102.655 -56.189)" fill="#8a4545"/>
      <rect id="Rectángulo_43896" data-name="Rectángulo 43896" width="3.126" height="1.615" transform="translate(63.322 38.093)" fill="#c76464"/>
      <path id="Trazado_199158" data-name="Trazado 199158" d="M166.639,117.56a.349.349,0,0,0,.349.349h2.428a.349.349,0,0,0,.349-.349v-2.816h-3.126Z" transform="translate(-103.316 -71.141)" fill="#c76464"/>
      <rect id="Rectángulo_43897" data-name="Rectángulo 43897" width="3.126" height="0.624" transform="translate(63.322 41.214)" fill="#c76464"/>
      <path id="Trazado_199159" data-name="Trazado 199159" d="M169.988,100.4a1.209,1.209,0,1,1-1.208-1.208,1.208,1.208,0,0,1,1.208,1.208" transform="translate(-103.894 -61.498)" fill="#fff"/>
      <path id="Trazado_199160" data-name="Trazado 199160" d="M152.692,93.841h-2.428a.349.349,0,0,0-.349.349V104.6a.349.349,0,0,0,.349.349h2.428a.349.349,0,0,0,.349-.349V94.19a.349.349,0,0,0-.349-.349" transform="translate(-92.947 -58.181)" fill="#5ae4ff"/>
      <path id="Trazado_199161" data-name="Trazado 199161" d="M152.388,90.627h-3.145a.4.4,0,0,0-.4.4v.956a.4.4,0,0,0,.4.4h3.145a.4.4,0,0,0,.4-.4v-.956a.4.4,0,0,0-.4-.4" transform="translate(-92.286 -56.189)" fill="#3b94a6"/>
      <rect id="Rectángulo_43898" data-name="Rectángulo 43898" width="3.126" height="1.615" transform="translate(56.968 38.093)" fill="#4dc4db"/>
      <path id="Trazado_199162" data-name="Trazado 199162" d="M149.915,117.56a.349.349,0,0,0,.349.349h2.428a.349.349,0,0,0,.349-.349v-2.816h-3.126Z" transform="translate(-92.947 -71.141)" fill="#fff"/>
      <rect id="Rectángulo_43899" data-name="Rectángulo 43899" width="3.126" height="0.624" transform="translate(56.968 41.214)" fill="#4dc4db"/>
      <path id="Trazado_199163" data-name="Trazado 199163" d="M153.264,100.4a1.209,1.209,0,1,1-1.209-1.208,1.208,1.208,0,0,1,1.209,1.208" transform="translate(-93.525 -61.498)" fill="#fff"/>
      <path id="Trazado_199164" data-name="Trazado 199164" d="M181.1,162.051h-2.428a.349.349,0,0,0-.349.349v10.41a.349.349,0,0,0,.349.349H181.1a.349.349,0,0,0,.349-.349V162.4a.349.349,0,0,0-.349-.349" transform="translate(-110.56 -100.472)" fill="#5ae4ff"/>
      <path id="Trazado_199165" data-name="Trazado 199165" d="M180.8,158.837h-3.144a.4.4,0,0,0-.4.4v.956a.4.4,0,0,0,.4.4H180.8a.4.4,0,0,0,.4-.4v-.956a.4.4,0,0,0-.4-.4" transform="translate(-109.899 -98.479)" fill="#3b94a6"/>
      <rect id="Rectángulo_43900" data-name="Rectángulo 43900" width="3.126" height="1.615" transform="translate(67.762 64.013)" fill="#4dc4db"/>
      <path id="Trazado_199166" data-name="Trazado 199166" d="M178.322,185.77a.349.349,0,0,0,.349.349H181.1a.349.349,0,0,0,.349-.349v-2.816h-3.126Z" transform="translate(-110.56 -113.431)" fill="#fff"/>
      <rect id="Rectángulo_43901" data-name="Rectángulo 43901" width="3.126" height="0.624" transform="translate(67.762 67.134)" fill="#4dc4db"/>
      <path id="Trazado_199167" data-name="Trazado 199167" d="M181.672,168.608a1.209,1.209,0,1,1-1.208-1.208,1.208,1.208,0,0,1,1.208,1.208" transform="translate(-111.138 -103.788)" fill="#fff"/>
      <path id="Trazado_199168" data-name="Trazado 199168" d="M161.069,197.551h-46.3a1.149,1.149,0,0,1-1.145-1.145v-3.977a1.149,1.149,0,0,1,1.145-1.146h46.3a1.149,1.149,0,0,1,1.145,1.146v3.977a1.149,1.149,0,0,1-1.145,1.145" transform="translate(-70.446 -118.595)" fill="#a6e8f0"/>
      <path id="Trazado_199169" data-name="Trazado 199169" d="M161.892,192.209l-.774,3.7a1.445,1.445,0,0,1-1.34,1.113H116.059a1.444,1.444,0,0,1-1.34-1.113l-.774-3.7a1.139,1.139,0,0,0-.323.794v3.977a1.149,1.149,0,0,0,1.146,1.145h46.3a1.149,1.149,0,0,0,1.145-1.145V193a1.141,1.141,0,0,0-.323-.794" transform="translate(-70.446 -119.17)" fill="#00bcd4"/>
      <path id="Trazado_199170" data-name="Trazado 199170" d="M305.95,197.551h-46.3a1.149,1.149,0,0,1-1.146-1.145v-3.977a1.149,1.149,0,0,1,1.146-1.146h46.3a1.149,1.149,0,0,1,1.145,1.146v3.977a1.149,1.149,0,0,1-1.145,1.145" transform="translate(-160.272 -118.595)" fill="#a6e8f0"/>
      <path id="Trazado_199171" data-name="Trazado 199171" d="M306.773,192.209,306,195.9a1.444,1.444,0,0,1-1.339,1.113H260.94a1.445,1.445,0,0,1-1.34-1.113l-.774-3.7a1.139,1.139,0,0,0-.323.794v3.977a1.149,1.149,0,0,0,1.146,1.145h46.3a1.149,1.149,0,0,0,1.146-1.145V193a1.142,1.142,0,0,0-.323-.794" transform="translate(-160.272 -119.17)" fill="#00bcd4"/>
      <rect id="Rectángulo_43902" data-name="Rectángulo 43902" width="13.453" height="5.925" transform="translate(131.645 66.763)" fill="#fdbb4c"/>
      <path id="Trazado_199172" data-name="Trazado 199172" d="M349.8,175.691h-3.367v5.925h9.292Z" transform="translate(-214.789 -108.928)" fill="#fff"/>
      <path id="Trazado_199173" data-name="Trazado 199173" d="M361.79,175.691h-1.522l5.925,5.925h1.521Z" transform="translate(-223.366 -108.928)" fill="#fff"/>
      <path id="Trazado_199174" data-name="Trazado 199174" d="M373.794,179.1l-3.407-3.407h-1.522l4.929,4.929Z" transform="translate(-228.696 -108.928)" fill="#fff"/>
      <path id="Trazado_199175" data-name="Trazado 199175" d="M319.308,175.653H316.6a1.584,1.584,0,0,1-1.579-1.579v-6.468a1.584,1.584,0,0,1,1.579-1.579h2.707a1.584,1.584,0,0,1,1.579,1.579v6.468a1.584,1.584,0,0,1-1.579,1.579" transform="translate(-195.314 -102.937)" fill="#fff"/>
      <rect id="Rectángulo_43903" data-name="Rectángulo 43903" width="5.866" height="4.845" transform="translate(119.708 66.084)" fill="#5ae4ff"/>
      <rect id="Rectángulo_43904" data-name="Rectángulo 43904" width="5.866" height="0.603" transform="translate(119.708 64.431)" fill="#5ae4ff"/>
      <path id="Trazado_199176" data-name="Trazado 199176" d="M320.535,163.714h-2.5a.868.868,0,0,1,0-1.737h2.5a.868.868,0,0,1,0,1.737" transform="translate(-196.646 -100.426)" fill="#00bcd4"/>
      <path id="Trazado_199177" data-name="Trazado 199177" d="M127.161,39.2h-2.707a1.584,1.584,0,0,1-1.579-1.579V31.158a1.584,1.584,0,0,1,1.579-1.579h2.707a1.584,1.584,0,0,1,1.579,1.579v6.467a1.584,1.584,0,0,1-1.579,1.579" transform="translate(-76.183 -18.339)" fill="#fff"/>
      <rect id="Rectángulo_43905" data-name="Rectángulo 43905" width="5.866" height="4.845" transform="translate(46.693 14.233)" fill="#5ae4ff"/>
      <rect id="Rectángulo_43906" data-name="Rectángulo 43906" width="5.866" height="0.603" transform="translate(46.693 12.58)" fill="#5ae4ff"/>
      <path id="Trazado_199178" data-name="Trazado 199178" d="M128.388,27.266h-2.5a.868.868,0,1,1,0-1.737h2.5a.868.868,0,0,1,0,1.737" transform="translate(-77.515 -15.828)" fill="#00bcd4"/>
      <path id="Trazado_199179" data-name="Trazado 199179" d="M295.239,27.684v-.4a.8.8,0,0,0-.8-.8h-2.245a.8.8,0,0,0-.8.8v.4a.8.8,0,0,1-.375.666,1.638,1.638,0,0,0-.743,1.369v6.3a1.249,1.249,0,0,0,1.246,1.246h3.592a1.249,1.249,0,0,0,1.246-1.246v-6.3a1.638,1.638,0,0,0-.743-1.369.8.8,0,0,1-.375-.666" transform="translate(-179.97 -16.421)" fill="#fff"/>
      <path id="Trazado_199180" data-name="Trazado 199180" d="M296.6,25.413h-4.018a.254.254,0,0,1-.254-.253V23.973a.254.254,0,0,1,.254-.253H296.6a.253.253,0,0,1,.253.253V25.16a.253.253,0,0,1-.253.253" transform="translate(-181.241 -14.706)" fill="#8a4545"/>
      <rect id="Rectángulo_43907" data-name="Rectángulo 43907" width="6.083" height="4.591" transform="translate(110.304 13.68)" fill="#eb7676"/>
      <path id="Trazado_199181" data-name="Trazado 199181" d="M297.285,39.473a1.572,1.572,0,1,1-1.572-1.572,1.573,1.573,0,0,1,1.572,1.572" transform="translate(-182.367 -23.499)" fill="#fff"/>
      <path id="Trazado_199182" data-name="Trazado 199182" d="M272.692,22.979v-.4a.748.748,0,0,0-.673-.8h-1.885a.748.748,0,0,0-.673.8v.4a3.839,3.839,0,0,1-.684,2.454,2.115,2.115,0,0,0-.743,1.368v6.3a1.25,1.25,0,0,0,1.246,1.246h3.592a1.25,1.25,0,0,0,1.246-1.246V26.8c0-.571-.426-.939-.743-1.368a4.075,4.075,0,0,1-.684-2.454" transform="translate(-166.182 -13.504)" fill="#5ae4ff"/>
      <path id="Trazado_199183" data-name="Trazado 199183" d="M274.548,22.01h-3.5a.238.238,0,0,1-.238-.238V20.554a.238.238,0,0,1,.238-.237h3.5a.238.238,0,0,1,.238.237v1.218a.238.238,0,0,1-.238.238" transform="translate(-167.905 -12.597)" fill="#3b94a6"/>
      <path id="Trazado_199184" data-name="Trazado 199184" d="M273.279,40.311H271.54a1.359,1.359,0,0,1-1.355-1.355V34.369a1.359,1.359,0,0,1,1.355-1.355h1.739a1.359,1.359,0,0,1,1.355,1.355v4.586a1.359,1.359,0,0,1-1.355,1.355" transform="translate(-167.515 -20.469)" fill="#fff"/>
      <path id="Trazado_199185" data-name="Trazado 199185" d="M273.476,36.362,272.3,40.3a.26.26,0,0,0,.212.327h2.407a.26.26,0,0,0,.212-.327l-1.176-3.934c-.1-.344-.377-.344-.479,0" transform="translate(-168.82 -22.384)" fill="#4dc4db"/>
      <path id="Trazado_199186" data-name="Trazado 199186" d="M214.609,41.421h-2.521a1.787,1.787,0,0,1-1.781-1.781v-4.7a1.787,1.787,0,0,1,1.781-1.781h2.521a1.787,1.787,0,0,1,1.781,1.781v4.7a1.787,1.787,0,0,1-1.781,1.781" transform="translate(-130.39 -20.555)" fill="#fdbb4c"/>
      <rect id="Rectángulo_43908" data-name="Rectángulo 43908" width="6.083" height="3.158" transform="translate(79.917 15.153)" fill="#fff"/>
      <path id="Trazado_199187" data-name="Trazado 199187" d="M223.457,26.618h-1.851a.211.211,0,0,1,0-.423h1.851a.211.211,0,1,1,0,.423" transform="translate(-137.265 -16.241)" fill="#fff"/>
      <path id="Trazado_199188" data-name="Trazado 199188" d="M220.042,27.041h-1.307a.423.423,0,0,1,0-.846h1.307a.423.423,0,1,1,0,.846" transform="translate(-135.353 -16.241)" fill="#fff"/>
      <path id="Trazado_199189" data-name="Trazado 199189" d="M216.639,27.544h0a1.028,1.028,0,0,1-1.025-1.025v-.731a1.025,1.025,0,0,1,2.05,0v.731a1.028,1.028,0,0,1-1.025,1.025" transform="translate(-133.681 -15.353)" fill="#fff"/>
      <path id="Trazado_199190" data-name="Trazado 199190" d="M216.942,30.777h-2.709a.316.316,0,0,1-.315-.315V29.48a.316.316,0,0,1,.315-.315h2.709a.316.316,0,0,1,.315.315v.982a.316.316,0,0,1-.315.315" transform="translate(-132.629 -18.082)" fill="#fff"/>
      <path id="Trazado_199191" data-name="Trazado 199191" d="M216.852,40.262a2.31,2.31,0,1,1-2.31-2.31,2.31,2.31,0,0,1,2.31,2.31" transform="translate(-131.584 -23.53)" fill="#ad8134"/>
      <rect id="Rectángulo_43909" data-name="Rectángulo 43909" width="13.453" height="5.925" transform="translate(56.451 14.941)" fill="#fff"/>
      <path id="Trazado_199192" data-name="Trazado 199192" d="M151.922,39.317h-3.367v5.925h9.292Z" transform="translate(-92.104 -24.377)" fill="#eb7676"/>
      <path id="Trazado_199193" data-name="Trazado 199193" d="M163.912,39.317H162.39l5.925,5.925h1.522Z" transform="translate(-100.682 -24.377)" fill="#eb7676"/>
      <path id="Trazado_199194" data-name="Trazado 199194" d="M175.915,42.725l-3.407-3.407h-1.522l4.929,4.929Z" transform="translate(-106.012 -24.377)" fill="#eb7676"/>
      <rect id="Rectángulo_43910" data-name="Rectángulo 43910" width="13.453" height="5.925" transform="translate(129.847 14.941)" fill="#5ae4ff"/>
      <path id="Trazado_199195" data-name="Trazado 199195" d="M345.07,39.317H341.7v5.925H351Z" transform="translate(-211.856 -24.377)" fill="#fff"/>
      <path id="Trazado_199196" data-name="Trazado 199196" d="M357.06,39.317h-1.522l5.925,5.925h1.521Z" transform="translate(-220.434 -24.377)" fill="#fff"/>
      <path id="Trazado_199197" data-name="Trazado 199197" d="M369.064,42.725l-3.407-3.407h-1.522l4.929,4.929Z" transform="translate(-225.764 -24.377)" fill="#fff"/>
      <rect id="Rectángulo_43911" data-name="Rectángulo 43911" width="13.453" height="5.925" transform="translate(108.967 40.843)" fill="#eb7676"/>
      <path id="Trazado_199198" data-name="Trazado 199198" d="M302.112,107.481h-1.522l5.925,5.925h1.522Z" transform="translate(-186.366 -66.638)" fill="#fff"/>
      <path id="Trazado_199199" data-name="Trazado 199199" d="M314.116,110.889l-3.407-3.407h-1.522l4.929,4.929Z" transform="translate(-191.696 -66.638)" fill="#fff"/>
      <path id="Trazado_199200" data-name="Trazado 199200" d="M194.287,25.677h-2.428a.349.349,0,0,0-.349.349v10.41a.349.349,0,0,0,.349.349h2.428a.349.349,0,0,0,.349-.349V26.026a.349.349,0,0,0-.349-.349" transform="translate(-118.736 -15.92)" fill="#5ae4ff"/>
      <path id="Trazado_199201" data-name="Trazado 199201" d="M193.983,22.463h-3.145a.4.4,0,0,0-.4.4v.956a.4.4,0,0,0,.4.4h3.145a.4.4,0,0,0,.4-.4v-.956a.4.4,0,0,0-.4-.4" transform="translate(-118.075 -13.927)" fill="#3b94a6"/>
      <rect id="Rectángulo_43912" data-name="Rectángulo 43912" width="3.126" height="1.615" transform="translate(72.773 12.19)" fill="#4dc4db"/>
      <path id="Trazado_199202" data-name="Trazado 199202" d="M191.51,49.4a.349.349,0,0,0,.349.349h2.427a.349.349,0,0,0,.35-.349V46.58H191.51Z" transform="translate(-118.736 -28.88)" fill="#4dc4db"/>
      <rect id="Rectángulo_43913" data-name="Rectángulo 43913" width="3.126" height="0.624" transform="translate(72.773 15.312)" fill="#4dc4db"/>
      <path id="Trazado_199203" data-name="Trazado 199203" d="M194.859,32.234a1.209,1.209,0,1,1-1.209-1.208,1.208,1.208,0,0,1,1.209,1.208" transform="translate(-119.314 -19.236)" fill="#fff"/>
      <path id="Trazado_199204" data-name="Trazado 199204" d="M321.014,41.781h-6.839a.456.456,0,0,1-.456-.456V34.218a.456.456,0,0,1,.456-.456h6.839a.456.456,0,0,1,.456.456v7.106a.456.456,0,0,1-.456.456" transform="translate(-194.505 -20.932)" fill="#fff"/>
      <path id="Trazado_199205" data-name="Trazado 199205" d="M313.718,49.833a.457.457,0,0,0,.456.456h6.839a.457.457,0,0,0,.456-.456V47.486h-7.752Z" transform="translate(-194.505 -29.441)" fill="#fdbb4c"/>
      <rect id="Rectángulo_43914" data-name="Rectángulo 43914" width="7.752" height="1.654" transform="translate(119.213 15.049)" fill="#fdbb4c"/>
      <path id="Trazado_199206" data-name="Trazado 199206" d="M125.521,178.2h-6.839a.456.456,0,0,1-.456-.456v-7.106a.456.456,0,0,1,.456-.456h6.839a.457.457,0,0,1,.456.456v7.106a.456.456,0,0,1-.456.456" transform="translate(-73.3 -105.512)" fill="#fff"/>
      <path id="Trazado_199207" data-name="Trazado 199207" d="M118.226,186.253a.457.457,0,0,0,.456.456h6.839a.457.457,0,0,0,.456-.456v-2.347h-7.752Z" transform="translate(-73.3 -114.022)" fill="#c76464"/>
      <rect id="Rectángulo_43915" data-name="Rectángulo 43915" width="7.752" height="1.654" transform="translate(44.926 66.889)" fill="#eb7676"/>
      <path id="Trazado_199208" data-name="Trazado 199208" d="M226.123,195.747a30.829,30.829,0,0,0,9.725-1.767c5.888-17.007,5.231-44.838,5.231-44.838-3.807-3.313-10.155-3.751-10.155-3.751l-4.8-1.329-4.8,1.329s-6.348.438-10.155,3.751c0,0-.657,27.83,5.232,44.838a30.825,30.825,0,0,0,9.724,1.767" transform="translate(-130.91 -89.318)" fill="#fff"/>
      <path id="Trazado_199209" data-name="Trazado 199209" d="M226.864,148.58s-2.445,1.525-2.615,7.415l2.615.793L225.948,159s1.365,3,8.3,6.4v-3.884Z" transform="translate(-139.034 -92.12)" fill="#e8eaef"/>
      <path id="Trazado_199210" data-name="Trazado 199210" d="M257.944,148.58s2.445,1.525,2.615,7.415l-2.615.793.916,2.209s-1.365,3.762-8.3,7.16v-4.644Z" transform="translate(-155.348 -92.12)" fill="#e8eaef"/>
      <path id="Trazado_199211" data-name="Trazado 199211" d="M250,169.045c0,14.421.171,26.112.381,26.112s.381-11.691.381-26.112c0-11.654-.111-21.522-.265-24.88l-.228-.063c-.155,3.3-.268,13.219-.268,24.944" transform="translate(-155 -89.343)" fill="#c1c3c7"/>
      <path id="Trazado_199212" data-name="Trazado 199212" d="M243.315,145.391l-4.8-1.329-4.8,1.329a21.449,21.449,0,0,0-2.582.388,22.165,22.165,0,0,0,7.383,12.932,22.169,22.169,0,0,0,7.383-12.932,21.46,21.46,0,0,0-2.582-.388" transform="translate(-143.301 -89.318)" fill="#00bcd4"/>
      <path id="Trazado_199213" data-name="Trazado 199213" d="M242.576,128.549a10.008,10.008,0,0,0,4.239-.885.729.729,0,0,0,.424-.77l-1.414-9.095-3.249-3.571-3.25,3.571-1.413,9.095a.729.729,0,0,0,.424.77,10.008,10.008,0,0,0,4.239.885" transform="translate(-147.501 -70.822)" fill="#ffd6b5"/>
      <path id="Trazado_199214" data-name="Trazado 199214" d="M246.638,117.8l-3.249-3.571-3.25,3.571-.924,5.944a14.133,14.133,0,0,0,8.634,1.847Z" transform="translate(-148.313 -70.821)" fill="#ebc4a6"/>
      <path id="Trazado_199215" data-name="Trazado 199215" d="M220.124,107.52h0a2.25,2.25,0,0,1-2.243-2.243v-1.836a2.243,2.243,0,0,1,4.486,0v1.836a2.25,2.25,0,0,1-2.243,2.243" transform="translate(-135.086 -62.743)" fill="#ebc4a6"/>
      <path id="Trazado_199216" data-name="Trazado 199216" d="M221.225,108.12h0a1.573,1.573,0,0,1-1.569-1.569v-1.284a1.569,1.569,0,1,1,3.137,0v1.284a1.573,1.573,0,0,1-1.569,1.569" transform="translate(-136.187 -64.293)" fill="#ccaa90"/>
      <path id="Trazado_199217" data-name="Trazado 199217" d="M273.407,107.52h0a2.25,2.25,0,0,1-2.243-2.243v-1.836a2.243,2.243,0,1,1,4.486,0v1.836a2.25,2.25,0,0,1-2.243,2.243" transform="translate(-168.122 -62.743)" fill="#ebc4a6"/>
      <path id="Trazado_199218" data-name="Trazado 199218" d="M274.508,108.12h0a1.573,1.573,0,0,1-1.569-1.569v-1.284a1.569,1.569,0,0,1,3.137,0v1.284a1.573,1.573,0,0,1-1.569,1.569" transform="translate(-169.222 -64.293)" fill="#ccaa90"/>
      <path id="Trazado_199219" data-name="Trazado 199219" d="M233.816,101.784h0a10.061,10.061,0,0,1-10.032-10.032V87.328a10.032,10.032,0,1,1,20.064,0v4.423a10.061,10.061,0,0,1-10.032,10.032" transform="translate(-138.746 -47.924)" fill="#ffd6b5"/>
      <path id="Trazado_199220" data-name="Trazado 199220" d="M270.761,84.24s1.6-.162,1.623,3.727-.3,9.068-1.153,8.536-2.7-8.642-2.7-8.642Z" transform="translate(-166.489 -52.228)" fill="#856e5e"/>
      <path id="Trazado_199221" data-name="Trazado 199221" d="M222.95,76.689s-1.6-.162-1.624,3.727.3,9.068,1.153,8.536,2.7-8.642,2.7-8.642,19.259,5.857,18.686-7.987a5.417,5.417,0,0,1-4.766,1.266c-2.875-.627-14.6-4.467-16.15,3.1" transform="translate(-137.222 -44.677)" fill="#856e5e"/>
      <path id="Trazado_199222" data-name="Trazado 199222" d="M233.783,105.419v-.8a1.448,1.448,0,0,1,2.9,0v.8" transform="translate(-144.945 -63.967)" fill="none" stroke="#856e5e" stroke-linecap="round" stroke-linejoin="round" stroke-width="1"/>
      <path id="Trazado_199223" data-name="Trazado 199223" d="M258.965,105.419v-.8a1.448,1.448,0,0,1,2.9,0v.8" transform="translate(-160.558 -63.967)" fill="none" stroke="#856e5e" stroke-linecap="round" stroke-linejoin="round" stroke-width="1"/>
      <path id="Trazado_199224" data-name="Trazado 199224" d="M246.934,122.563a.713.713,0,0,1,.7.855,4.088,4.088,0,0,1-8,0,.713.713,0,0,1,.7-.855Z" transform="translate(-148.566 -75.989)" fill="#c26161"/>
      <path id="Trazado_199225" data-name="Trazado 199225" d="M246.015,130.386a4.068,4.068,0,0,0,2.555-.9,4.08,4.08,0,0,0-5.11,0,4.068,4.068,0,0,0,2.555.9" transform="translate(-150.945 -79.725)" fill="#eb7676"/>
      <path id="Trazado_199226" data-name="Trazado 199226" d="M240.6,122.562a.714.714,0,0,0-.556.266,1.553,1.553,0,0,0,1.3.715h5.1a1.553,1.553,0,0,0,1.3-.715.714.714,0,0,0-.556-.266Z" transform="translate(-148.826 -75.988)" fill="#fff"/>
      <path id="Trazado_199227" data-name="Trazado 199227" d="M250.117,108.391s.448,2.331,2,2.9c0,0-.242,1.044-2,1.074l1-.992s-1.286-.613-1-2.985" transform="translate(-155.047 -67.202)" fill="#ccaa90"/>
      <path id="Trazado_199228" data-name="Trazado 199228" d="M174.974,157.43a50.2,50.2,0,0,0-8.229,12.564,32.417,32.417,0,0,1-9.416,12.139,23.146,23.146,0,0,0-4.56,4.642s1.149,2.841,8.965,1.88a14.929,14.929,0,0,0,1.833-.811,22.986,22.986,0,0,0,10.125-10.352,33.046,33.046,0,0,0,1.827-4.351s2.579-3.678-.545-15.712" transform="translate(-94.717 -97.607)" fill="#ededed"/>
      <path id="Trazado_199229" data-name="Trazado 199229" d="M152.769,233.4s1.434-1.489,5.785-.325,3.181,2.2,3.181,2.2-7.151,1.447-8.966-1.88" transform="translate(-94.717 -144.231)" fill="#fff"/>
      <path id="Trazado_199230" data-name="Trazado 199230" d="M152.769,233.4s1.434-1.489,5.785-.325,3.181,2.2,3.181,2.2S154.583,236.728,152.769,233.4Z" transform="translate(-94.717 -144.231)" fill="none" stroke="#000" stroke-miterlimit="10" stroke-width="0.769"/>
      <path id="Trazado_199231" data-name="Trazado 199231" d="M342.087,144.754V141.77a15.756,15.756,0,0,1,5.037.507v3.266Z" transform="translate(-212.094 -87.877)" fill="#ebc4a6"/>
      <path id="Trazado_199232" data-name="Trazado 199232" d="M306.264,149.037c.09,4.422-.086,12.523-2.588,12.438-3.438-.117-15.708-9.272-15.708-9.272a22.224,22.224,0,0,0-.261,13.453s13.6,7.115,19.8,4.589c5.716-2.332,6.724-14.642,6.87-20.671a46.878,46.878,0,0,0-8.108-.537" transform="translate(-177.799 -92.38)" fill="#ededed"/>
      <path id="Trazado_199233" data-name="Trazado 199233" d="M356.6,112.96h0a.952.952,0,0,1,.833,1.052l-.884,7.583a.949.949,0,0,1-1.884-.22l.884-7.583a.952.952,0,0,1,1.052-.833" transform="translate(-219.886 -70.031)" fill="#ffd6b5"/>
      <path id="Trazado_199234" data-name="Trazado 199234" d="M350.931,107.372h0a.952.952,0,0,1,.887,1.007L351.333,116a.949.949,0,1,1-1.894-.12l.484-7.619a.952.952,0,0,1,1.007-.887" transform="translate(-216.652 -66.569)" fill="#ffd6b5"/>
      <path id="Trazado_199235" data-name="Trazado 199235" d="M343.728,107.787h0a.952.952,0,0,1,.979.917l.25,7.63a.949.949,0,1,1-1.9.062l-.25-7.63a.951.951,0,0,1,.917-.979" transform="translate(-212.543 -66.828)" fill="#ffd6b5"/>
      <path id="Trazado_199236" data-name="Trazado 199236" d="M336.28,112.3h0a.952.952,0,0,1,1.056.827l.923,7.578a.949.949,0,1,1-1.883.23l-.923-7.578a.952.952,0,0,1,.827-1.056" transform="translate(-207.976 -69.621)" fill="#ffd6b5"/>
      <path id="Trazado_199237" data-name="Trazado 199237" d="M329.122,130.7h0a1.029,1.029,0,0,1,1.368-.484l2.82,1.345a1.026,1.026,0,1,1-.884,1.852l-2.82-1.345a1.029,1.029,0,0,1-.484-1.368" transform="translate(-203.994 -80.671)" fill="#ffd6b5"/>
      <path id="Trazado_199238" data-name="Trazado 199238" d="M341.027,131.976h0a4.464,4.464,0,1,1,4.726-4.185,4.477,4.477,0,0,1-4.726,4.185" transform="translate(-208.837 -76.296)" fill="#ffd6b5"/>
      <path id="Trazado_199239" data-name="Trazado 199239" d="M233.919,143.319s.922,1.28,4.457,3.266a3.315,3.315,0,0,0-1.641,2.671s-4.435-.57-5.6-3.938a5.318,5.318,0,0,1,2.789-2" transform="translate(-143.301 -88.858)" fill="#a6e8f0"/>
      <path id="Trazado_199240" data-name="Trazado 199240" d="M254.457,143.319s-.922,1.28-4.457,3.266a3.315,3.315,0,0,1,1.641,2.671s4.436-.57,5.605-3.938a5.318,5.318,0,0,0-2.789-2" transform="translate(-155 -88.858)" fill="#a6e8f0"/>
      <path id="Trazado_199241" data-name="Trazado 199241" d="M203.284,323.3H67.691a2.226,2.226,0,0,1-2.379-2.347l5.442-56.74a2.494,2.494,0,0,1,2.578-1.985H197.643a2.494,2.494,0,0,1,2.578,1.985l5.441,56.74a2.226,2.226,0,0,1-2.379,2.347" transform="translate(-40.488 -162.582)" fill="#d9f5f9"/>
      <path id="Trazado_199242" data-name="Trazado 199242" d="M208.811,264.215a2.494,2.494,0,0,0-2.578-1.985H81.921a2.494,2.494,0,0,0-2.578,1.985l-.187,1.947,130.4,5.832Z" transform="translate(-49.077 -162.583)" fill="#abdeda"/>
      <path id="Trazado_199243" data-name="Trazado 199243" d="M203.38,250H66.515a2.089,2.089,0,0,1-2.083-2.083v-7.234a2.089,2.089,0,0,1,2.083-2.083H203.38a2.089,2.089,0,0,1,2.083,2.083v7.234A2.089,2.089,0,0,1,203.38,250" transform="translate(-39.948 -147.934)" fill="#a6e8f0"/>
      <path id="Trazado_199244" data-name="Trazado 199244" d="M204.877,240.286l-1.409,6.721a2.627,2.627,0,0,1-2.437,2.025H68.864a2.627,2.627,0,0,1-2.436-2.025l-1.409-6.721a2.074,2.074,0,0,0-.587,1.444v7.234a2.089,2.089,0,0,0,2.084,2.083H203.38a2.089,2.089,0,0,0,2.084-2.083V241.73a2.074,2.074,0,0,0-.587-1.444" transform="translate(-39.948 -148.977)" fill="#00bcd4"/>
      <path id="Trazado_199245" data-name="Trazado 199245" d="M175.766,233.387h0a1.075,1.075,0,0,1-1.326.734l-3.168-.91a1.072,1.072,0,1,1,.592-2.06l3.168.91a1.075,1.075,0,0,1,.734,1.326" transform="translate(-105.708 -143.288)" fill="#ffd6b5"/>
      <path id="Trazado_199246" data-name="Trazado 199246" d="M159.189,233.993h-5.622a1.783,1.783,0,1,1,0-3.567h5.622a1.783,1.783,0,1,1,0,3.567" transform="translate(-94.106 -142.864)" fill="#ffd6b5"/>
      <path id="Trazado_199247" data-name="Trazado 199247" d="M152.672,238.929h0a.891.891,0,0,1-.888-.888v-3.969a.888.888,0,1,1,1.777,0v3.969a.891.891,0,0,1-.888.888" transform="translate(-94.106 -144.573)" fill="#ffd6b5"/>
      <path id="Trazado_199248" data-name="Trazado 199248" d="M159.173,241.081h0a.891.891,0,0,1-.888-.888v-4.185a.888.888,0,0,1,1.777,0v4.185a.891.891,0,0,1-.888.888" transform="translate(-98.137 -145.774)" fill="#ffd6b5"/>
      <path id="Trazado_199249" data-name="Trazado 199249" d="M165.675,241.081h0a.891.891,0,0,1-.888-.888v-4.185a.888.888,0,0,1,1.777,0v4.185a.891.891,0,0,1-.888.888" transform="translate(-102.168 -145.774)" fill="#ffd6b5"/>
      <path id="Trazado_199250" data-name="Trazado 199250" d="M172.176,239.405h0a.891.891,0,0,1-.888-.888v-4.444a.888.888,0,0,1,1.777,0v4.444a.891.891,0,0,1-.888.888" transform="translate(-106.199 -144.574)" fill="#ffd6b5"/>
      <path id="Trazado_199251" data-name="Trazado 199251" d="M238.582,322.231A18.078,18.078,0,1,1,220.5,304.153a18.078,18.078,0,0,1,18.078,18.078" transform="translate(-125.505 -188.575)" fill="#abdeda"/>
      <path id="Trazado_199252" data-name="Trazado 199252" d="M238.582,317.231A18.078,18.078,0,1,1,220.5,299.153a18.078,18.078,0,0,1,18.078,18.078" transform="translate(-125.505 -185.475)" fill="#fff"/>
      <path id="Trazado_199253" data-name="Trazado 199253" d="M241.272,322.789h-7.888V314.9a.879.879,0,0,0-.879-.879h-5.563a.879.879,0,0,0-.879.879v7.888h-7.888a.879.879,0,0,0-.879.879v5.563a.879.879,0,0,0,.879.879h7.888V338a.879.879,0,0,0,.879.879H232.5a.879.879,0,0,0,.879-.879V330.11h7.888a.879.879,0,0,0,.879-.879v-5.563a.879.879,0,0,0-.879-.879" transform="translate(-134.724 -194.694)" fill="#a6e8f0"/>
    </g>
  </g>
</svg>
