<svg xmlns="http://www.w3.org/2000/svg" width="400.485" height="321.501" viewBox="0 0 400.485 321.501">
  <g id="_4999827" data-name="4999827" transform="translate(-40.782 -6.294)">
    <g id="BACKGROUND" transform="translate(41.268 17.513)">
      <g id="Grupo_137479" data-name="Grupo 137479">
        <path id="Trazado_199270" data-name="Trazado 199270" d="M59.676,80.512c8.1-11.47,24.306-24.579,38.781-25.125,21.3-.728,42.422,7.374,62.9,11.743,27.4,5.917,53.528-.182,77.743-13.291C259.5,42.733,282.163,33.993,305.65,32.992c17.661-.819,36.05,4.643,52.163,11.652,15.294,6.645,31.953,15.112,44.334,26.218,6.19,5.553,12.29,11.379,15.476,19.208a136.488,136.488,0,0,1,7.283,26.218c3.277,18.025,3,36.687,2.276,54.894-.182,5.462-.364,11.834-2.549,16.841-3.732,8.466-11.015,16.113-16.75,23.3-7.283,9.1-15.84,19.572-5.644,30.679,5.189,5.735,13.382,8.83,18.935,14.292,3.55,3.459,7.192,7.283,9.65,11.47a19.27,19.27,0,0,1,0,19.663c-3.277,5.371-9.377,10.2-15.112,12.654-10.924,4.734-25.125,6.008-36.778,5.735-15.2-.455-30.223,3.1-45.517,1.548-18.753-2-37.324-4.643-56.077-6.281-18.48-1.639-38.507-1.548-56.9,1.639-12.2,2.094-24.215,5.462-36.6,5.917-16.659.637-32.59,1-49.249-1.183-21.029-2.731-42.331-8.193-62.449-14.474-11.925-3.641-22.03-8.648-23.487-22.121-1.183-11.2-.182-22.121,3.914-32.681,4.006-10.378,8.648-20.3,10.742-31.225,2.549-13.018,3.823-28.858-.91-41.33-4.37-11.561-11.106-22.485-14.474-34.411-4.1-14.474-.182-27.128,5.189-40.6A29.774,29.774,0,0,1,59.676,80.512Z" transform="translate(-41.713 -19.899)" fill="#a6e8f0"/>
        <g id="Grupo_137478" data-name="Grupo 137478">
          <path id="Trazado_199271" data-name="Trazado 199271" d="M54.952,69.945c8.193-12.563,24.761-26.855,39.6-27.4,21.757-.728,43.423,8.193,64.361,13.109,28.039,6.554,54.712,0,79.473-14.292,20.847-12.017,43.969-21.575,68-22.668,18.025-.819,36.96,5.189,53.346,12.927,15.658,7.374,32.681,16.568,45.426,28.858,6.372,6.1,12.654,12.472,15.84,21.12a162.138,162.138,0,0,1,7.556,28.676c3.368,19.754,3.186,40.146,2.458,60.083-.182,5.917-.364,12.927-2.549,18.389-3.823,9.285-11.2,17.57-17.114,25.4-7.465,9.923-16.113,21.393-5.644,33.5,5.371,6.281,13.655,9.65,19.39,15.658,3.55,3.732,7.374,7.92,9.923,12.563,3.55,6.645,3.823,14.93.091,21.484a36.915,36.915,0,0,1-15.385,13.837c-11.106,5.189-25.672,6.554-37.6,6.1-15.567-.546-30.861,3.368-46.518,1.548-19.208-2.185-38.234-5.189-57.443-7.1-18.935-1.821-39.418-1.821-58.171,1.639-12.472,2.276-24.67,5.917-37.415,6.372-17.023.637-33.41,1-50.342-1.366-21.484-3.1-43.332-9.1-63.906-15.931-12.2-4.006-22.576-9.468-24.124-24.306-1.274-12.29-.273-24.215,3.914-35.776,4.1-11.288,8.739-22.212,10.924-34.138,2.549-14.2,3.914-31.5-1.092-45.244-4.552-12.654-11.47-24.579-14.93-37.688-4.188-15.84-.273-29.677,5.189-44.425A34.78,34.78,0,0,1,54.952,69.945Z" transform="translate(-41.268 -18.618)" fill="none" stroke="#7fcbd3" stroke-miterlimit="10" stroke-width="1"/>
          <path id="Trazado_199272" data-name="Trazado 199272" d="M458.534,81.6c-2.731-.091-5.553,1.457-5.735,4.552-.182,3,2.276,4.825,5.1,5.007a5.483,5.483,0,0,0,4.552-2,4.627,4.627,0,0,0-1.548-7.1A7.269,7.269,0,0,0,458.534,81.6Z" transform="translate(-78.164 -24.264)" fill="#00bcd4"/>
          <path id="Trazado_199273" data-name="Trazado 199273" d="M52.034,154.7c-2.731-.091-5.553,1.457-5.735,4.552-.182,3,2.276,4.825,5.1,5.007a5.483,5.483,0,0,0,4.552-2,4.627,4.627,0,0,0-1.548-7.1A11.994,11.994,0,0,0,52.034,154.7Z" transform="translate(-41.718 -30.818)" fill="#00bcd4"/>
          <path id="Trazado_199274" data-name="Trazado 199274" d="M197.534,344.8c-2.731-.091-5.553,1.457-5.735,4.552-.182,3,2.276,4.825,5.1,5.007a5.483,5.483,0,0,0,4.552-2,4.627,4.627,0,0,0-1.548-7.1A7.27,7.27,0,0,0,197.534,344.8Z" transform="translate(-54.763 -47.862)" fill="#00bcd4"/>
          <path id="Trazado_199275" data-name="Trazado 199275" d="M448.334,153.7c-2.731-.091-5.553,1.457-5.735,4.552-.182,3,2.276,4.825,5.1,5.007a5.483,5.483,0,0,0,4.552-2,4.626,4.626,0,0,0-1.548-7.1A12,12,0,0,0,448.334,153.7Z" transform="translate(-77.249 -30.729)" fill="#d5eff7"/>
          <path id="Trazado_199276" data-name="Trazado 199276" d="M87.334,70.9c-2.731-.091-5.553,1.457-5.735,4.552-.182,3,2.276,4.825,5.1,5.007a5.483,5.483,0,0,0,4.552-2,4.627,4.627,0,0,0-1.548-7.1A18.177,18.177,0,0,0,87.334,70.9Z" transform="translate(-44.883 -23.305)" fill="#d5eff7"/>
          <path id="Trazado_199277" data-name="Trazado 199277" d="M424.822,77.1a3.463,3.463,0,0,0-3.823,3c-.182,2,1.457,3.186,3.368,3.368a3.684,3.684,0,0,0,3-1.274,3.058,3.058,0,0,0-1.092-4.734A5.663,5.663,0,0,0,424.822,77.1Z" transform="translate(-75.312 -23.861)" fill="#d5eff7"/>
          <path id="Trazado_199278" data-name="Trazado 199278" d="M205.322,86.4a3.463,3.463,0,0,0-3.823,3c-.182,2,1.457,3.186,3.368,3.368a3.684,3.684,0,0,0,3-1.274,3.058,3.058,0,0,0-1.092-4.734A3.817,3.817,0,0,0,205.322,86.4Z" transform="translate(-55.632 -24.694)" fill="#d5eff7"/>
          <path id="Trazado_199279" data-name="Trazado 199279" d="M251.47,313c-2.549-.091-5.1,1.366-5.371,4.279-.182,2.731,2.094,4.461,4.734,4.643a5.151,5.151,0,0,0,4.188-1.821,4.391,4.391,0,0,0-1.457-6.645A5.4,5.4,0,0,0,251.47,313Z" transform="translate(-59.632 -45.011)" fill="#d5eff7"/>
          <path id="Trazado_199280" data-name="Trazado 199280" d="M339.622,298.7a3.463,3.463,0,0,0-3.823,3c-.182,2,1.457,3.186,3.368,3.368a3.684,3.684,0,0,0,3-1.274,3.058,3.058,0,0,0-1.092-4.734A2.883,2.883,0,0,0,339.622,298.7Z" transform="translate(-67.674 -43.729)" fill="#d5eff7"/>
          <path id="Trazado_199281" data-name="Trazado 199281" d="M59.622,259.9a3.463,3.463,0,0,0-3.823,3c-.182,2,1.457,3.186,3.368,3.368a3.684,3.684,0,0,0,3-1.274,3.058,3.058,0,0,0-1.092-4.734A5.666,5.666,0,0,0,59.622,259.9Z" transform="translate(-42.569 -40.25)" fill="#d5eff7"/>
          <path id="Trazado_199282" data-name="Trazado 199282" d="M261.222,37.7a3.463,3.463,0,0,0-3.823,3c-.182,2,1.457,3.186,3.368,3.368a3.684,3.684,0,0,0,3-1.274,3.058,3.058,0,0,0-1.092-4.734A5.663,5.663,0,0,0,261.222,37.7Z" transform="translate(-60.644 -20.328)" fill="#00bcd4"/>
          <path id="Trazado_199283" data-name="Trazado 199283" d="M73.622,328.7a3.463,3.463,0,0,0-3.823,3c-.182,2,1.457,3.186,3.368,3.368a3.684,3.684,0,0,0,3-1.274,3.058,3.058,0,0,0-1.092-4.734A5.661,5.661,0,0,0,73.622,328.7Z" transform="translate(-43.824 -46.419)" fill="#00bcd4"/>
          <path id="Trazado_199284" data-name="Trazado 199284" d="M476.722,312.2a3.463,3.463,0,0,0-3.823,3c-.182,2,1.457,3.186,3.368,3.368a3.684,3.684,0,0,0,3-1.274,3.058,3.058,0,0,0-1.092-4.734A5.663,5.663,0,0,0,476.722,312.2Z" transform="translate(-79.966 -44.939)" fill="#00bcd4"/>
          <path id="Trazado_199285" data-name="Trazado 199285" d="M468.322,198.4a3.463,3.463,0,0,0-3.823,3c-.182,2,1.457,3.186,3.368,3.368a3.684,3.684,0,0,0,3-1.274,3.058,3.058,0,0,0-1.092-4.734A2.482,2.482,0,0,0,468.322,198.4Z" transform="translate(-79.213 -34.736)" fill="#00bcd4"/>
        </g>
      </g>
    </g>
    <g id="OBJECTS" transform="translate(69.875 6.294)">
      <g id="Grupo_137503" data-name="Grupo 137503">
        <path id="Trazado_199286" data-name="Trazado 199286" d="M163.827,6.755A25,25,0,0,1,170.2,6.39a86.4,86.4,0,0,1,9.65,2c3.459.637,7.1.91,10.56,1.457A22.97,22.97,0,0,0,203.7,8.12c1.274-.637,2.276-2,3.823-1.73,1,.182,1.274,1.457.91,2.367-1.092,2.64-1.821,5.462-3.55,7.738a20.5,20.5,0,0,1,4.1-1.73c.546.455,1.183,1,.819,1.73a26.74,26.74,0,0,1-4.916,8.739c1.183-.546,2.276-1,3.368-1.548.182.091.637.182.819.273.819.91,0,2-.364,2.913-1.366,3-2.913,6.19-5.644,8.1a15.882,15.882,0,0,1-5.553,2.094c-7.1.728-14.019-1.639-20.574-3.914-4.006-1.183-8.011-2.822-12.29-3-2.458,0-5.189.819-6.646,2.913a12.569,12.569,0,0,0-2.185,4.916c-.455,3.368-.182,6.737-1.092,10.014a13.125,13.125,0,0,0-3.55-2.822,3.261,3.261,0,0,0-1-.364c-.819-.728-1.639-1.639-2.822-1.639-1.457-.091-3.186.273-3.823,1.73a17.22,17.22,0,0,0-1.457,5.644q-.819-3.55-1.912-7.1c-.637-3.823-1.73-7.647-1.366-11.561.546-3.277,1-6.737,2.731-9.65,2-2.367,4.825-4.461,8.011-4.006a41.967,41.967,0,0,1,5.826-6.828A15.346,15.346,0,0,1,163.827,6.755Z" transform="translate(-78.612 -6.294)" fill="#23203f"/>
        <path id="Trazado_199287" data-name="Trazado 199287" d="M368.428,12.561A19.857,19.857,0,0,1,381.264,8.1c3.823,0,7.92,1.366,10.378,4.461a26.035,26.035,0,0,1,4.552,8.011,33.294,33.294,0,0,1,.364,15.567c-1.274,5.735-.819,11.652.091,17.3a12.429,12.429,0,0,0,2.276,5.553c.364.455.182,1.092.182,1.639a3.984,3.984,0,0,1-3.277-2.185c.728,1.73,1.73,3.368,2.549,5.1.637,1.366,2,2.367,2,3.914a4.772,4.772,0,0,1-2.276.091c-3.277-.91-6.645-1.821-9.559-3.641a22.6,22.6,0,0,0-5.007-3.277,10.378,10.378,0,0,0,.91,1.73,8.458,8.458,0,0,0-.455.91c-1.548-.182-2.64-1.457-3.823-2.367a21.951,21.951,0,0,1-4.643-5.371c-.637,2-1.274,4.1-1.73,6.19a3.861,3.861,0,0,0,3.368,4.734,2.52,2.52,0,0,0,.091.819c-.637.182-1.274.455-1.912.637a4.055,4.055,0,0,1-3.55-.091,18.128,18.128,0,0,1-4.188-3.732,48.823,48.823,0,0,0-1-11.561c-.273-1.366-1-3-2.549-3.277a2.326,2.326,0,0,0-2.367,1.73,53.127,53.127,0,0,0-2,7.465,3.651,3.651,0,0,1-1.73-.273c.91-2.185,2.185-4.279,2.731-6.645a2.658,2.658,0,0,1-.819.182,27.824,27.824,0,0,0-3,4.279c-.728-1.639-1.366-3.55-2.64-4.825-.728-.728-1.821-.455-2.731-.637-1.548-.182-3.459-.091-4.461-1.548-1.092-1.183-1-2.913-1.821-4.279-.819-1.274-2.549-1.274-3.914-1.183a24.314,24.314,0,0,0-7.92,2.094,38.169,38.169,0,0,0-6.281,2.64c-1.912,1-3.641,2.367-5.644,3.277a5.349,5.349,0,0,1-2.094-2.64,15.525,15.525,0,0,1,.091-7.374,25.85,25.85,0,0,1,3.368-8.921c3.186-4.461,7.738-7.829,12.472-10.469a30.906,30.906,0,0,1,8.921-3.277,28.689,28.689,0,0,1,8.375,0c3.641.455,6.919,2.094,10.1,3.732A14.678,14.678,0,0,1,368.428,12.561Zm19.845-.273c1.457,2.822,3.732,5.28,4.37,8.466,1.457,4.188,2.549,8.739,2.094,13.2-.182,1.73.182,3.55-.091,5.28a16.826,16.826,0,0,0,0,4.279,4.568,4.568,0,0,0,.182-1.092,84.47,84.47,0,0,1,.637-9.65,28.9,28.9,0,0,0,0-10.833c-.546-2.367-2-4.37-3.277-6.463A6.537,6.537,0,0,0,388.274,12.288Zm-2.913.637A22.27,22.27,0,0,1,388.82,17.2c2,3.368,2.367,7.374,3.277,11.2a31.778,31.778,0,0,1,.455,4.006,4.035,4.035,0,0,0,.273-1.821c-.091-2.185.273-4.461-.182-6.645-.546-2.276-1.092-4.734-2.64-6.554A17.974,17.974,0,0,0,385.36,12.925ZM335.747,24.213c-4.734,1.366-8.375,5.007-11.561,8.557a14.28,14.28,0,0,0-2.64,6.281c-.364,2.822-.91,5.826,0,8.648,0-2-.364-4.006.182-6.008.637-2.913,2.367-5.462,4.005-7.829a40.732,40.732,0,0,1,7.192-6.554,46.251,46.251,0,0,1,13.382-6.737,4.387,4.387,0,0,0-1.092,0C341.846,21.3,338.933,22.939,335.747,24.213Zm28.494-.273c1.457,1.183,2.731,2.458,4.188,3.55a40.957,40.957,0,0,1,5.644,6.281c.637.728,1.183,1.821,2.367,1.548.364-1,1.821-1.912,1.183-3.1a23.433,23.433,0,0,0-3.277-5.917,17.133,17.133,0,0,0-6.1-5.28C366.425,20.3,363.785,21.937,364.241,23.94Zm20.847,1.548c.182,1.274.546,2.64.728,3.914.455,2.64.364,5.371.728,8.011.546,5.189,1.274,10.56,4.37,15.021,1,1.274,1.639,2.913,2.731,4.188a8.206,8.206,0,0,0-.819-2.913c-2.64-4.916-3.823-10.469-4.916-15.931C387.09,33.681,387.363,29.22,385.087,25.488ZM370.8,31.223c.091,1.092,1.092,1.73,1.548,2.64,1.183,2.367,2.549,4.734,2.822,7.465.546,2.913-.091,5.917-.273,8.83-.182,2.549-.91,4.916-1.183,7.465l.091.273.364-.091c1.092-1.912,1.457-4.1,2.185-6.1a20.154,20.154,0,0,0,.364-13.291A20.6,20.6,0,0,0,370.8,31.223Z" transform="translate(-94.772 -6.456)" fill="#23203f"/>
        <path id="Trazado_199288" data-name="Trazado 199288" d="M190.1,47.091c-.364-1.639,1.639-2.276,2.913-2.094a4.552,4.552,0,0,1,3.914,4.1,2,2,0,0,0-.728.091,6.583,6.583,0,0,0-2-1.548C192.918,47,191.461,47.728,190.1,47.091Z" transform="translate(-83.214 -9.761)" fill="#23203f"/>
        <path id="Trazado_199289" data-name="Trazado 199289" d="M152.1,49.6l.819,1c.819,1.274,2,2.458,2.367,4.006-.364.819-.637,2-1.73,2A27.5,27.5,0,0,0,152.1,49.6Z" transform="translate(-79.812 -10.177)" fill="#23203f"/>
        <path id="Trazado_199290" data-name="Trazado 199290" d="M189.487,52.671a3.69,3.69,0,0,1,3.1.091,2.894,2.894,0,0,1-.819,4.734c-.91.364-2.367.546-2.913-.546C188.121,55.584,188.03,53.49,189.487,52.671Z" transform="translate(-83.06 -10.425)" fill="#23203f"/>
        <path id="Trazado_199291" data-name="Trazado 199291" d="M79.634,283.9c1.457.455,2.913.91,4.37,1.274a67,67,0,0,0,9.559,1.274c7.738.819,15.476,2.094,23.214,2.276,6.828.182,13.564.182,20.392-.182,4.188-.091,8.375-.637,12.563-1,4.279-.455,8.557-1.092,12.745-1.639a6.822,6.822,0,0,1,.455,1.457,4.761,4.761,0,0,1,.91,2.094c.637,3.1.91,6.372,1.821,9.377.819,4.005,1.639,8.011,2.549,12.017.819,3.641.91,7.465,1.457,11.2.364,4.188.91,8.375,1.274,12.654a40.782,40.782,0,0,1,.546,8.83,3.064,3.064,0,0,1-2.094,2.913,14.278,14.278,0,0,0-3.368.455c-3.368.819-6.828.728-10.2,1.457a101.347,101.347,0,0,1-13.837,2c-1.548.091-3.1-.182-4.552.273a30.054,30.054,0,0,1-6.919,1.366c-2,0-4.006-.455-6.008-.637-8.83,1-17.843,2-26.673.728-3.186-.455-6.463-.364-9.65-.819a5.245,5.245,0,0,1-4.37-3.186,6.73,6.73,0,0,1-.182-3c-.182-1.548-.637-3.1-.91-4.552-.546-2.822-.364-5.735-.819-8.648a40.319,40.319,0,0,1-.546-4.643c-.182-5.826-.455-11.652-.728-17.479-1.092-7.92-2-15.84-1.548-23.851A5.5,5.5,0,0,1,79.634,283.9Zm61.539,11.106a33.848,33.848,0,0,0-4.1,3c-1.366,1.366-2.913,2.458-4.279,3.823-1.092,1.183-.819,2.822-1,4.279-.273,2.731-.637,5.371-.819,8.1a75.828,75.828,0,0,0,.182,15.749c.273,4.37-.455,8.648-.091,13.018.182,2.549.091,5.189.273,7.738.364,1,2.185.637,2-.455-.182-4.188-.182-8.375-.091-12.654-.455-7.01.546-14.11,1-21.12,0-3.732.182-7.465-.182-11.2,0-.728-.091-1.548.546-2,1.457-1.183,3.1-2.094,4.643-3.186a18.965,18.965,0,0,0,3.823-4.279c.637-1,1.457-2.094,1.274-3.277C142.994,292.912,142.266,294.187,141.174,295.006Zm21.939.273a8.224,8.224,0,0,0,.364,2.549,60.185,60.185,0,0,1,2.185,9.741c.364,3.732.637,7.465.91,11.2.819,6.1,2.276,12.017,3.1,18.116.819-4.461-.091-8.921-.819-13.382-.182-3.55-1.274-7.01-1.639-10.469a142.106,142.106,0,0,0-3.1-16.477A1.34,1.34,0,0,0,163.113,295.279Zm-17.205,3.277a24.6,24.6,0,0,1,6.372,4.1c1.912,1.821,3.641,3.914,6.1,5.1,1.548.728,3,1.639,4.552,2.276a18.214,18.214,0,0,0-3.368-2.549c-1.548-1-2.549-2.64-3.732-3.914a16.507,16.507,0,0,0-3.732-2.913C150.277,299.376,148.092,299.012,145.907,298.557Zm-18.571,9.012a46.715,46.715,0,0,1-5.917,8.011c-2.185,2.549-3.732,5.553-5.644,8.284a50.95,50.95,0,0,1-5.371,7.192c-1,1.366-2.276,2.549-2.822,4.188a4.9,4.9,0,0,0,1.183-.637c2.822-2.731,5.735-5.553,8.466-8.375a34.08,34.08,0,0,0,9.1-13.2c1-2.549,2.549-4.916,2.822-7.647C128.156,305.748,127.791,306.75,127.336,307.569ZM83,309.663c1.274,6.372.273,12.927.91,19.3.728,4.552,1.639,9.012,2,13.564a15.275,15.275,0,0,0,.637,3.55c-.182-3.277.273-6.554,0-9.832-.273-3.641.182-7.283-.182-10.924-.182-2.458-1-4.825-1.274-7.283-.273-2.094-1-4.188-1.274-6.281C83.822,311.028,83.822,310.118,83,309.663Zm45.335,10.651c-.637,2.276-1.366,4.552-2.094,6.828a72.394,72.394,0,0,1-3.1,6.646,14.115,14.115,0,0,0-1.274,6.1c2.913-1.912,3.277-5.644,4.37-8.648a64.688,64.688,0,0,0,3-10.924Z" transform="translate(-73.255 -31.183)" fill="#23203f"/>
        <path id="Trazado_199292" data-name="Trazado 199292" d="M395.1,12.7a6.8,6.8,0,0,1,4.005,3.277c1.274,2,2.731,4.006,3.277,6.463a28.9,28.9,0,0,1,0,10.833,85.865,85.865,0,0,0-.637,9.65,4.568,4.568,0,0,1-.182,1.092,16.822,16.822,0,0,1,0-4.279c.273-1.73-.182-3.55.091-5.28.455-4.552-.637-9.012-2.094-13.2C398.923,17.889,396.648,15.522,395.1,12.7Z" transform="translate(-101.599 -6.868)" fill="#3f3c61"/>
        <path id="Trazado_199293" data-name="Trazado 199293" d="M391.9,13.4a19.615,19.615,0,0,1,4.734,4.37c1.548,1.821,2.094,4.279,2.64,6.554.455,2.185.091,4.461.182,6.645a4.036,4.036,0,0,1-.273,1.821,28.37,28.37,0,0,0-.455-4.006c-.819-3.823-1.183-7.829-3.277-11.2A39.2,39.2,0,0,0,391.9,13.4Z" transform="translate(-101.312 -6.931)" fill="#3f3c61"/>
        <path id="Trazado_199294" data-name="Trazado 199294" d="M335.952,25.45c3.1-1.183,6.1-2.913,9.468-3.55h1.092a47.427,47.427,0,0,0-13.382,6.737,35.227,35.227,0,0,0-7.192,6.554c-1.639,2.458-3.368,4.916-4.005,7.829-.455,2-.091,4.006-.182,6.008-.91-2.822-.364-5.826,0-8.648a14.28,14.28,0,0,1,2.64-6.281C327.577,30.457,331.219,26.816,335.952,25.45Z" transform="translate(-94.978 -7.693)" fill="#3f3c61"/>
        <path id="Trazado_199295" data-name="Trazado 199295" d="M391.6,27.2c2.185,3.641,1.912,8.193,2.731,12.2,1.092,5.462,2.276,11.015,4.916,15.931a8.206,8.206,0,0,1,.819,2.913c-1.092-1.274-1.639-2.822-2.731-4.188-3-4.37-3.823-9.832-4.37-15.021-.455-2.64-.364-5.371-.728-8.011C392.146,29.84,391.782,28.566,391.6,27.2Z" transform="translate(-101.285 -8.168)" fill="#3f3c61"/>
        <path id="Trazado_199296" data-name="Trazado 199296" d="M375.9,33.5a17.393,17.393,0,0,1,5.735,7.283,20.17,20.17,0,0,1-.364,13.291c-.728,2-1,4.279-2.185,6.1l-.364.091-.091-.273a67.094,67.094,0,0,0,1.183-7.465c.182-2.913.819-5.917.273-8.83-.182-2.731-1.548-5.1-2.822-7.465C376.9,35.321,375.9,34.592,375.9,33.5Z" transform="translate(-99.877 -8.733)" fill="#3f3c61"/>
        <path id="Trazado_199297" data-name="Trazado 199297" d="M146.263,295.858c1.092-.819,1.821-2.094,3.186-2.458.273,1.274-.546,2.367-1.274,3.277a18.966,18.966,0,0,1-3.823,4.279c-1.457,1.092-3.1,2.094-4.643,3.186-.637.455-.546,1.366-.546,2,.364,3.732.182,7.465.182,11.2-.455,7.01-1.457,14.019-1,21.12-.091,4.188,0,8.375.091,12.654.091,1.092-1.639,1.548-2,.455-.182-2.549-.091-5.189-.273-7.738-.364-4.37.364-8.648.091-13.018a75.829,75.829,0,0,1-.182-15.749c.182-2.731.546-5.371.819-8.1.182-1.457-.091-3.1,1-4.279,1.366-1.366,2.913-2.458,4.279-3.823A33.845,33.845,0,0,1,146.263,295.858Z" transform="translate(-78.345 -32.035)" fill="#3f3c61"/>
        <path id="Trazado_199298" data-name="Trazado 199298" d="M171.4,296.4a1.721,1.721,0,0,1,1.092,1.274,111.849,111.849,0,0,1,3.1,16.477c.364,3.55,1.366,6.919,1.639,10.469.728,4.37,1.639,8.921.819,13.382-.819-6.1-2.276-12.108-3.1-18.116-.273-3.732-.546-7.465-.91-11.2a71.669,71.669,0,0,0-2.185-9.741A7.9,7.9,0,0,1,171.4,296.4Z" transform="translate(-81.542 -32.304)" fill="#3f3c61"/>
        <path id="Trazado_199299" data-name="Trazado 199299" d="M152.5,300c2.094.455,4.37.819,6.1,2.094a22.891,22.891,0,0,1,3.732,2.913c1.274,1.274,2.276,2.913,3.732,3.914,1.092.819,2.458,1.366,3.368,2.549-1.548-.637-3.1-1.548-4.552-2.276-2.367-1.183-4.188-3.277-6.1-5.1A19.742,19.742,0,0,0,152.5,300Z" transform="translate(-79.848 -32.627)" fill="#3f3c61"/>
        <path id="Trazado_199300" data-name="Trazado 199300" d="M130.154,309.685c.455-.819.819-1.821,1.821-2.185-.273,2.731-1.821,5.1-2.822,7.647a34.08,34.08,0,0,1-9.1,13.2c-2.731,2.913-5.553,5.644-8.466,8.375a3,3,0,0,1-1.183.637c.546-1.639,1.821-2.822,2.822-4.188a70.331,70.331,0,0,0,5.371-7.192c1.912-2.731,3.368-5.735,5.644-8.284A52.059,52.059,0,0,0,130.154,309.685Z" transform="translate(-76.073 -33.299)" fill="#3f3c61"/>
        <path id="Trazado_199301" data-name="Trazado 199301" d="M83.4,312.2c.819.364.728,1.366.91,2.094.273,2.094,1,4.188,1.274,6.281.273,2.458,1.092,4.825,1.274,7.283.273,3.641-.091,7.283.182,10.924.273,3.277-.273,6.554,0,9.832a11.651,11.651,0,0,1-.637-3.55c-.455-4.552-1.274-9.1-2-13.564C83.673,325.127,84.674,318.572,83.4,312.2Z" transform="translate(-73.652 -33.721)" fill="#3f3c61"/>
        <path id="Trazado_199302" data-name="Trazado 199302" d="M132.563,323.891c.182,0,.637-.091.91-.091a51.2,51.2,0,0,1-3,10.924c-1,3-1.457,6.737-4.37,8.648a15.579,15.579,0,0,1,1.274-6.1c1-2.185,2.185-4.37,3.1-6.645C131.2,328.534,131.926,326.258,132.563,323.891Z" transform="translate(-77.481 -34.761)" fill="#3f3c61"/>
        <path id="Trazado_199303" data-name="Trazado 199303" d="M368.7,25.2c-.455-2,2.276-3.641,4.005-2.913,2.458,1.092,4.37,3.186,6.1,5.28a23.433,23.433,0,0,1,3.277,5.917c.546,1.183-.819,2.094-1.183,3.1-1.183.273-1.73-.819-2.367-1.548a40.954,40.954,0,0,0-5.644-6.281C371.426,27.654,370.061,26.379,368.7,25.2Z" transform="translate(-99.227 -7.711)" fill="#8cbcfa"/>
        <path id="Trazado_199304" data-name="Trazado 199304" d="M379.329,79.418c1.821-1.457,4.1-.637,6.19-.273,2.185.364,4.005,1.73,6.008,2.64a24.889,24.889,0,0,1,3.914,2.367c1.639,1.274,3.459,2.276,4.825,3.823a20.2,20.2,0,0,1,3.1,4.734c1.092,1.457,2.367,2.822,3.368,4.37,1.73,2.64,2.731,5.735,4.1,8.648,1.457,2.913,2.549,5.917,4.005,8.83a128.352,128.352,0,0,1,4.734,14.11c1.183,3.823,2.822,7.374,3.914,11.2A60.677,60.677,0,0,1,426.3,154.43c.273,4.1.819,8.193.728,12.29,0,5.371.273,10.742.455,16.113a79.1,79.1,0,0,1,.182,13.928c-.273,2.458-.091,5.007-.182,7.556-.182,6.1,8.83,33.5,10.469,37.506a2.162,2.162,0,0,1-1.548,2.185c-4.552.637-9.194,1.183-13.746,1.73-5.28.637-10.56,2.094-15.931,1.73a70.022,70.022,0,0,0-8.739.182c-4.643.273-9.286-.273-13.928-.182a161.96,161.96,0,0,1-21.939-2.549c-2-.273-4.006-.455-6.008-.819,1.912.637,3.914.91,5.735,1.639a70.144,70.144,0,0,0,9.559,2.458c8.284,1.548,16.568,3.277,25.034,3.459a56.722,56.722,0,0,0,20.665-2c4.643-1.092,9.012-3.277,13.837-3.277,1.183-.091,2.276-.091,3.459-.273.364,2.367,1.183,4.643,1.274,7.01a56.928,56.928,0,0,1,.91,8.739c-.091,3.186,0,6.281.182,9.468.637,3.823,1,7.738,1.548,11.561.455,2.64.364,5.28.637,8.011.455,3.914.273,21.757,1.457,25.581.364,1.183,1.092,2.367.637,3.55a4.051,4.051,0,0,1-4.005,2.731c-4.734.182-9.377,1.092-14.019,1.548-4.37.273-8.83.273-13.2.546-8.1.364-16.113,1.548-24.215,2.094-4.643.455-9.376,1-14.019,1.274-4.461.364-8.83,1.183-13.291,1.366-3.823.091-7.738.273-11.561,0-1.274-.091-2.822.546-3.823-.455-1.092-1-.728-2.731-.637-4.005.728-3.732.728-7.556,1.274-11.288.455-3.55.91-21.029,1.73-24.579,1-4.1,1.274-8.284,2.367-12.381,1.183-4.643,1.912-9.468,2.913-14.2,1.639-6.281,3.368-12.563,5.462-18.753a4.275,4.275,0,0,1-2-2c-.546-1.366,5.189-13.928,6.008-20.665,1.366-10.378,2.64-21.12,3-21.484,7.01-1.366,6.645-4.005,7.829-5.735,2.822-4.006,5.462-8.193,8.1-12.381,1.821,1,3.55,2.731,5.826,2.458,1.183-2.549,2.913-4.825,4.188-7.283a80.687,80.687,0,0,0,4.825-9.741,46.453,46.453,0,0,0,2.549-6.737c1.274-5.1,3-10.014,4.643-14.93-1.092,2.64-1.912,5.371-3.1,7.92-.637,1.274-1.092,2.64-1.639,3.914-.637,1.366-1.548,2.64-2.276,3.914-2.549,4.643-4.005,9.832-6.645,14.474a34.451,34.451,0,0,1-3.732,5.735c-2.822-1.457-5.826-2.458-8.557-3.914a27.1,27.1,0,0,0-9.559-2.549c-2.822-1.183-5.553-2.731-8.648-3.368a2.537,2.537,0,0,1-1.639-1.092c-.728-1.183-.273-2.549-.182-3.732.273.455.637.91.91,1.366.819-3.1,1.274-6.19,1.821-9.377.637-3.368.91-6.828,1.366-10.287.455-4.461,1.457-8.739,2.185-13.109a87.734,87.734,0,0,1,3.641-13.564,61.969,61.969,0,0,0,2.367-6.919,49.524,49.524,0,0,1,1.73-5.189c-2.094,4.552-4.552,9.012-6.372,13.746a90.668,90.668,0,0,0-5.917,21.757c-.182,4.1-.819,8.284-.728,12.381a46.3,46.3,0,0,1-.364,5.007c-1.821-2.913-3.641-5.826-4.461-9.194-.819-3.277-1.821-6.554-1.639-10.014.273-6.19,1.73-12.2,2.458-18.3.546-4.188,1-8.466,1.639-12.654a2.524,2.524,0,0,0-.273-1.821c-.364,2-.455,4.1-.819,6.1a263.049,263.049,0,0,0-5.007,30.314,28.234,28.234,0,0,0,.091,7.829c.273,2.185,1.366,4.188,2.185,6.281a64.237,64.237,0,0,1-6.645-5.462c-2.276-1.912-4.916-3.186-7.1-5.007-1.457-1.183-3.1-2.185-4.188-3.823,2.367-5.917,4.825-11.834,7.647-17.479,2.731-6.1,5.826-12.017,8.739-17.934,1-2.822,2.731-5.371,4.1-7.92a93.563,93.563,0,0,1,4.461-8.466c.546-.728,1.092-1.366,1.639-2a.69.69,0,0,0,.364.182,25.08,25.08,0,0,0,1.548,2.64c1,1.457.728,3.277.546,4.825-.364,3.1-1.183,6.008-1.092,9.1a17.541,17.541,0,0,1-.091,2.185,18.711,18.711,0,0,0-.182,3.186,19.648,19.648,0,0,0,3.55-4.643c1.183-2,2.458-3.914,3.641-5.826a93.366,93.366,0,0,1,6.463-8.1,86.838,86.838,0,0,1,9.012-9.285,1.992,1.992,0,0,0,.546-2.458A48.837,48.837,0,0,0,379.329,79.418ZM377.6,99.9c2.276-.273,4.37-1.183,6.737-.91,3.732.364,7.283,1.912,10.651,3.55a18.887,18.887,0,0,1,6.919,6.737c1.457,3,2,6.372,2.64,9.65a40.983,40.983,0,0,0-1.366-6.646c-.546-1.73-.819-3.55-1.821-5.007-.819-1.183-1.366-2.549-2.276-3.732a11.814,11.814,0,0,0-3.732-2.913,19.663,19.663,0,0,0-5.917-2.367c-1.912-.273-3.914-.728-5.917-.273A49.64,49.64,0,0,0,377.6,99.9Z" transform="translate(-95.932 -12.775)" fill="#8cbcfa"/>
        <path id="Trazado_199305" data-name="Trazado 199305" d="M159.468,35.313c1.457-2.094,4.188-2.913,6.645-2.913,4.279.273,8.193,1.821,12.29,3,6.646,2.276,13.473,4.643,20.574,3.914-1.092,5.189-1.366,10.469-2.458,15.749-.637,3-.819,6.1-1.457,9.194-1.912-1.274-3.914-2.367-5.826-3.641-1.821-1.183-3.368-2.822-5.371-3.641a16.057,16.057,0,0,0-8.557-.273c-3,.364-5.917,1.457-8.921,1.639a16.766,16.766,0,0,0-4.279.637c-2.367-2.64-3.459-6.281-6.008-8.739.91-3.277.728-6.645,1.092-10.014A13.512,13.512,0,0,1,159.468,35.313Zm27.583,10.651c1.274.637,2.822-.091,4.1.455a6.583,6.583,0,0,1,2,1.548,2,2,0,0,0,.728-.091,4.732,4.732,0,0,0-3.914-4.1C188.69,43.688,186.687,44.325,187.052,45.964ZM171.667,49.97c-.91.91-.455,2.458.364,3.368a2.24,2.24,0,0,0,3.55-.819,3.389,3.389,0,0,0-.273-3.1A3.148,3.148,0,0,0,171.667,49.97Zm14.93.91c-1.457.819-1.366,2.913-.728,4.188.546,1.092,2,1,2.913.546a2.887,2.887,0,0,0,.819-4.734A3.825,3.825,0,0,0,186.6,50.88Z" transform="translate(-80.17 -8.634)" fill="#f4c7a8"/>
        <path id="Trazado_199306" data-name="Trazado 199306" d="M143.657,48.33c.637-1.457,2.458-1.73,3.823-1.73,1.183,0,2,.91,2.822,1.639.364.091.637.273,1,.364.273.546.455,1.183.728,1.73l-.819-1a27.379,27.379,0,0,1,1.457,7.1c1.092-.091,1.366-1.183,1.73-2a47.587,47.587,0,0,1,4.461,7.465,42.5,42.5,0,0,0-3.55,9.285c-1.912-2.822-3.914-5.462-5.735-8.375-.364-.728-1.274-.819-1.912-.91-3.641-.546-5.371-4.552-5.462-7.92A17.821,17.821,0,0,1,143.657,48.33Zm1.274,5.462c1.183-.182,2-1.183,3.1-1.639.364.364.819.728,1.183,1.092-2.094.546-4.006,2.731-3,4.916.273,1.639,3.277,1.821,3.186-.182a13.621,13.621,0,0,1-1.183-1c-.182-.637.182-1.183.273-1.821.728-.455,1.73-.728,1.912-1.73a3.945,3.945,0,0,0-2.276-3.459C145.932,49.6,144.385,51.971,144.931,53.792Z" transform="translate(-78.924 -9.908)" fill="#f4c7a8"/>
        <path id="Trazado_199307" data-name="Trazado 199307" d="M333.94,49.09c2.549-.91,5.1-2,7.92-2.094,1.366-.091,3-.091,3.914,1.183.728,1.366.728,3.1,1.821,4.279,1,1.366,2.913,1.366,4.461,1.548.91.091,2-.091,2.731.637a16.636,16.636,0,0,1,2.64,4.825c-1.274,2-2,4.188-3.368,6.1a50.848,50.848,0,0,1-6.554,2.367c-3.459,1-7.283-.091-10.56,1.457-1.639.637-2.822,2.094-4.005,3.277-1.457,1.366-3.277,2.185-4.916,3.368-1.092-2.276-1.366-4.734-2-7.1a63.735,63.735,0,0,1-3.459-8.1A23.409,23.409,0,0,1,322.2,55.1c2-.91,3.732-2.185,5.644-3.277A31.017,31.017,0,0,1,333.94,49.09Z" transform="translate(-95.059 -9.94)" fill="#f4c7a8"/>
        <path id="Trazado_199308" data-name="Trazado 199308" d="M365.5,55.028a2.354,2.354,0,0,1,2.367-1.73c1.548.273,2.276,1.912,2.549,3.277a40,40,0,0,1,.273,8.1,3.157,3.157,0,0,1-1.73,2.731c-.91.455-2,.546-2.913,1-.091.455.091,1.183.637,1.092a5.619,5.619,0,0,0,4.37-1.639l.273.273a20.5,20.5,0,0,0,4.188,3.732,3.769,3.769,0,0,0,3.55.091,13.647,13.647,0,0,0,2.64,5.1,41.518,41.518,0,0,1,3.459,5.371,1.992,1.992,0,0,1-.546,2.458,86.838,86.838,0,0,0-9.012,9.285,78.786,78.786,0,0,0-6.463,8.1c-1.274,1.912-2.549,3.823-3.641,5.826a19.649,19.649,0,0,1-3.55,4.643,12.266,12.266,0,0,1,.182-3.186,16.349,16.349,0,0,0,.182,2c.273-5.189,2-10.2,2-15.476.364-2.276-1.274-4.279-3.1-5.371a.69.69,0,0,0-.364-.182c2.64-4.552,6.463-8.375,8.1-13.473a18.083,18.083,0,0,0,.91-7.92c-.182.091-.546.182-.728.273-.273,3.55-1.092,7.192-3.277,10.1-1.548-2.731-2.094-5.917-3.641-8.648a25.2,25.2,0,0,0-2.822-4.1c.819-1.548,1.548-3.186,2.367-4.734a2.8,2.8,0,0,0,1.73.273A58.2,58.2,0,0,1,365.5,55.028Zm.819,5.1a7.231,7.231,0,0,1,1.274,1.639c-.091.91-.91,1.548-.819,2.458,0,.637,1.092.819,1.457.273a5.018,5.018,0,0,0,1.092-3.55c-.091-1.274-1.366-1.821-2.185-2.549a1.607,1.607,0,0,1,.728-1.912c.455.364.819.637,1.274,1-.364-.637-.728-1.548-1.639-1.366C365.772,56.211,365.135,58.851,366.319,60.125Z" transform="translate(-98.398 -10.506)" fill="#f4c7a8"/>
        <path id="Trazado_199309" data-name="Trazado 199309" d="M148.826,66.7a1.353,1.353,0,0,1,.546.091c1.457,2.731,3.1,5.371,4.461,8.193.637,1.183.182,2.64.819,3.823,1.457,2.367,3.459,4.279,5.007,6.554a35.078,35.078,0,0,1-5.189-4.552c-1.183-1.274-1.548-3.1-2.549-4.552.546,2.822,2.276,5.189,3.823,7.556a9.414,9.414,0,0,0,2.185,2.822c3.55,2.458,7.465,4.552,11.834,5.007a9.747,9.747,0,0,1,3.55.91c-1.366,1.457.455,3.1.364,4.734.182,1.821-1.183,3.277-2.64,4.188a20,20,0,0,1-9.194,2.367c-4.1.182-8.011-1.457-11.561-3.368-3.55-1.821-7.1-4.006-9.377-7.374-1.366-2-1.092-4.643-.273-6.828.364-.637.819-1.274,1.274-1.912,1.548-2.094,2.367-4.734,3.732-7.01C146.914,73.8,147.733,70.159,148.826,66.7Z" transform="translate(-78.722 -11.71)" fill="#f4c7a8"/>
        <path id="Trazado_199310" data-name="Trazado 199310" d="M201.675,132.884a10.329,10.329,0,0,1,4.1-2.094,1.754,1.754,0,0,1,1.73,1.366c-1.183,1.457-1.548,3.459-2.822,4.825-1.274,1.548-3.1,2.549-4.461,4.006-.091.182-.182.637-.273.91,2.367-1.274,4.37-3.186,6.645-4.643a83.37,83.37,0,0,0,8.921-3.641c2.913-1.092,5.644-2.822,8.739-2.913.819-.091,1.274.546,1.73,1.092l-.182.182a18.6,18.6,0,0,1-3.277,3.277,42.13,42.13,0,0,1-6.463,3.1c-2.822,1.274-5.917,2.185-8.466,4.005a2.547,2.547,0,0,0-.819,1.183c1.639-.455,3-1.548,4.552-2.185,4.279-1.912,8.83-3,12.927-5.28.819-.364,1-1.366,1.274-2.094a4.007,4.007,0,0,1-.182.91c1.457-.455,3.1-1.274,4.552-.546.819.819.182,2.094-.091,3a3.011,3.011,0,0,1,.273,3.732c-.273-.091-.728-.182-.91-.273a6.773,6.773,0,0,1-3.186,2.549,149.355,149.355,0,0,0-14.748,6.281c-.637.455-1.73.728-1.548,1.73a127.957,127.957,0,0,1,14.93-6.554,26.17,26.17,0,0,0,3.641-1.639c0,.819.273,1.639-.273,2.367-1.092,1.639-2.822,2.731-4.279,4.005-2.276,1.274-4.643,2.276-6.828,3.641-2.185,1.457-4.734,2.185-6.554,4.1a43.377,43.377,0,0,0-5.28,5.553,11.762,11.762,0,0,1-7.192,5.462,34,34,0,0,1-4.188.819c-2.094-1.912-3.277-4.552-4.552-7.01a25.877,25.877,0,0,1-1.457-5.189,14.009,14.009,0,0,1-.273-5.826,2.658,2.658,0,0,1,.182-.819,41.559,41.559,0,0,1,4.005-7.738c1.457-2.185,3.732-3.732,5.553-5.644A38.7,38.7,0,0,1,201.675,132.884Zm23.669,6.008c-4.734,1.821-9.65,3.368-14.11,5.917a19.312,19.312,0,0,0-3.277,1.912c-.546.273-.273,1.457.364,1,6.19-3.1,12.472-6.008,18.844-8.648.91-.455,2.549-.546,2.458-1.912A35.026,35.026,0,0,0,225.344,138.892Z" transform="translate(-82.959 -17.447)" fill="#f4c7a8"/>
        <path id="Trazado_199311" data-name="Trazado 199311" d="M238.136,171.614c-1.092-1.274-2.094-2.64-3.186-3.914a9.086,9.086,0,0,0-3.823.546c-2.731,1.092-5.462,2.458-7.283,4.825-2.731,3.186-5.371,6.554-6.828,10.56-.819,2.367-.91,5.007-1.639,7.465-.091.182-.091.273-.182.455a15.973,15.973,0,0,1,2.64,4.279c1.092,2.913,3.368,5.1,4.37,8.011a4.841,4.841,0,0,1-.455,2.731c-1.457,3.55-2.367,7.192-3.732,10.742-1.821,6.008-3.914,11.925-5.462,17.934-1,3.823-1.73,7.738-2.822,11.47a76.719,76.719,0,0,1-7.01,17.752A51,51,0,0,0,197.9,275.12c-1.092,3.823-2.276,7.647-2,11.652,0,1.912-.273,4.37,1.548,5.553,1.092.819,2.367.182,3.368-.455a9.244,9.244,0,0,1,0-4.461,23.576,23.576,0,0,0,.91-7.556c.728,3.732-.091,7.465.091,11.2a5.643,5.643,0,0,0,1.092,2.64,3.629,3.629,0,0,0,2.185.637c1.548-.273,2.458-1.639,3.368-2.822-1.183-1.639-1.092-3.641-1-5.553s-.091-3.732-.182-5.644a59.267,59.267,0,0,1,1.183,7.01,9.7,9.7,0,0,0,1.548,4.461c.91.546,2.094.091,3.1-.091,1-.728,1.183-2,1.548-3.1.273,0,.637.091.91.091-1.639-2.094-1.912-4.825-2.731-7.192a29.447,29.447,0,0,1,2.458,4.005,9.465,9.465,0,0,0,2.367,3.277,2.9,2.9,0,0,0,4.188-.91c.819-1,.91-2.458,1.73-3.368l.182-.182c.273-1.912.546-4.188-.728-5.826-.728-1-2-.637-3.1-.455-.728,2,1,3.732,1.274,5.644-.364-.091-.91,0-1.183-.455a6.718,6.718,0,0,1-1.821-4.37c.364-2.731,3-4.461,3.368-7.1a27.4,27.4,0,0,0,0-4.734,2.5,2.5,0,0,1,.091-1.821c1.73-3.1,2.913-6.463,4.643-9.559,2.64-4.916,5.28-9.741,7.738-14.657,3.277-6.19,6.646-12.29,9.923-18.48,2.913-5.462,6.1-10.833,8.284-16.659-3.823-1.73-8.1,0-11.926.637-3.368.546-6.828,1.639-10.2.819a2.139,2.139,0,0,1-1.821-2.094,3.836,3.836,0,0,1,1.457-1.73,45.738,45.738,0,0,1,7.92-4.552,65.614,65.614,0,0,0-8.466,1.366,10.072,10.072,0,0,1-5.917-.546,2.848,2.848,0,0,1-1.639-2.276c.091-1.274,1.457-1.821,2.367-2.549a10.738,10.738,0,0,1-3.641-1.912,2.179,2.179,0,0,1-.182-3.1,10.421,10.421,0,0,1,3.277-1.366c-1.548-.364-3.368-.819-4.188-2.367A1.473,1.473,0,0,1,220.2,184c3.914-1.092,7.738-2.731,11.743-3.368a54.815,54.815,0,0,1,10.2-.637c-1.639-.546-3.368-1-4.643-2.276a4.966,4.966,0,0,1-1.457-4.916c.273-.546.819-1.457,1.548-1.092C237.681,171.614,238.136,171.614,238.136,171.614Z" transform="translate(-83.735 -20.765)" fill="#f4c7a8"/>
        <path id="Trazado_199312" data-name="Trazado 199312" d="M362.328,186.274c-2.185-1.274-4.552-1.912-6.828-3-2.822-1.183-5.553-2.731-8.648-3.368a31.566,31.566,0,0,1-2.276,2.64c-1.457.273-2.913-.182-4.37-.091-3.641.091-7.283-.728-10.924-.728-4.916,0-9.832-.182-14.748-.091a94.849,94.849,0,0,1-10.2.182c-3.823-.182-7.465,1.548-11.288,1.274a28.3,28.3,0,0,0-4.005.546c-2.64.273-5.371.455-8.011.546a14.713,14.713,0,0,1-5.644-.455,43.58,43.58,0,0,1-7.465-3.641c-1.548-1.092-3.277-2.094-5.007-3.1a21.794,21.794,0,0,0-10.1-2.731,42.135,42.135,0,0,1-12.472-2.458.9.9,0,0,0-.546.182,9.787,9.787,0,0,0,.091,2.822,7.018,7.018,0,0,0,2.822,2.822,35.181,35.181,0,0,0,8.557,2.913c.728,0,.728.819.455,1.274a7.11,7.11,0,0,1-3.1-.091,66.506,66.506,0,0,0-12.017-.637A48.419,48.419,0,0,0,223.683,184c-.455.273-1.183.273-1.183,1a2.493,2.493,0,0,0,2.094,1.274c2.913.364,5.826-.455,8.739-.455,2.276-.091,4.279,1.183,6.554,1.366,2.822.364,5.462-.819,8.284-1.092-.273.91-1.274,1.092-2.094,1.366a44.49,44.49,0,0,1-9.741,1.639,51.522,51.522,0,0,0-10.56,1.274,8.989,8.989,0,0,0-2.549,1.092,10.191,10.191,0,0,0,5.553,2.367,18.607,18.607,0,0,0,3.823-1.183,54.4,54.4,0,0,1,9.377-2.367c2.094-.364,4.005-1.274,6.1-1.183a10.122,10.122,0,0,1-3.914,1.73c-3.459,1.183-7.1,1.73-10.469,3.1-2.731,1.092-5.644,1.821-8.1,3.55,2.094,1.821,5.1,1.457,7.647.91,4.552-1,9.012-2.185,13.564-3.1a4.635,4.635,0,0,1,2.731.091.961.961,0,0,0-.182.455c-1.912,1.366-4.37,1.73-6.463,2.822l-8.466,4.37c-1.092.637-2.549,1.183-2.913,2.64a13.4,13.4,0,0,0,6.008-.455c5.007-1.274,9.923-2.458,14.93-3.823a6.336,6.336,0,0,1,2.913-.182c2.185.455,4.37.91,6.645,1.366a37.416,37.416,0,0,0,6.372.364c1.457-.364,2.822-1,4.188-1.366,1.366-.273,2.64-1.366,4.1-.91,9.1,2.094,18.48,3,27.674,4.643,4.37.819,8.83,1.457,13.2,2.276a83.431,83.431,0,0,0,14.292,1.274c6.463.182,12.927.546,19.3-.728a46.028,46.028,0,0,1,6.19-.819c1.73-1.366,2.367-3.55,3.641-5.28,2.822-4.005,5.462-8.193,8.1-12.381C366.88,188.55,364.513,187.64,362.328,186.274Z" transform="translate(-86.124 -21.133)" fill="#f4c7a8"/>
        <path id="Trazado_199313" data-name="Trazado 199313" d="M277.129,184.281c-.091-.091-.091-.182-.182-.364-.273-.455-.728-.364-1.183-.364a7.727,7.727,0,0,1-4.005-1.274c-1.274-.637-2.549-1.366-3.732-2.094-1.548-1.092-3.277-2.094-5.007-3.1a21.794,21.794,0,0,0-10.1-2.731,42.135,42.135,0,0,1-12.472-2.458.9.9,0,0,0-.546.182,9.786,9.786,0,0,0,.091,2.822,7.018,7.018,0,0,0,2.822,2.822,35.181,35.181,0,0,0,8.557,2.913c.728,0,.728.819.455,1.274a7.11,7.11,0,0,1-3.1-.091,66.506,66.506,0,0,0-12.017-.637,48.42,48.42,0,0,0-12.927,2.913c-.455.273-1.183.273-1.183,1a2.493,2.493,0,0,0,2.094,1.274c2.913.364,5.826-.455,8.739-.455,2.276-.091,4.279,1.183,6.554,1.366,2.822.364,5.462-.819,8.284-1.092-.273.91-1.274,1.092-2.094,1.366a44.489,44.489,0,0,1-9.741,1.639,51.522,51.522,0,0,0-10.56,1.274,8.989,8.989,0,0,0-2.549,1.092,10.191,10.191,0,0,0,5.553,2.367,18.607,18.607,0,0,0,3.823-1.183,54.4,54.4,0,0,1,9.377-2.367c2.094-.364,4.005-1.274,6.1-1.183a10.122,10.122,0,0,1-3.914,1.73c-3.459,1.183-7.1,1.73-10.469,3.1-2.731,1.092-5.644,1.821-8.1,3.55,2.094,1.821,5.1,1.457,7.647.91,4.552-1,9.012-2.185,13.564-3.1a4.635,4.635,0,0,1,2.731.091.961.961,0,0,0-.182.455c-1.912,1.366-4.37,1.73-6.463,2.822l-8.466,4.37c-1.092.637-2.549,1.183-2.913,2.64a13.4,13.4,0,0,0,6.008-.455c5.007-1.274,9.923-2.458,14.93-3.823a6.336,6.336,0,0,1,2.913-.182c2.185.455,4.37.91,6.646,1.366a37.421,37.421,0,0,0,6.372.364,5.134,5.134,0,0,0,1.092-.364c.273-.091.546-.091.91-.182s.819-.273,1.183-.364c.637-.182,1.183-.273,1.821-.455.637-.091,1.183-.455,1.821-.546a2,2,0,0,1,1.274.091c.364.091.728.182.91-.182a4.1,4.1,0,0,0,.273-1,4.506,4.506,0,0,0,.364-1.183c.273-.91.364-1.821.546-2.64a35.462,35.462,0,0,0,.091-5.371,28.277,28.277,0,0,0-.637-4.006c-.091-.546-.273-1.092-.364-1.639C277.4,185.1,277.312,184.645,277.129,184.281Z" transform="translate(-86.133 -21.142)" fill="#8cbcfa"/>
        <path id="Trazado_199314" data-name="Trazado 199314" d="M152.561,50.53c-.273-.546-.455-1.183-.728-1.73a13.5,13.5,0,0,1,3.55,2.822c2.549,2.458,3.641,6.1,6.008,8.739a16.766,16.766,0,0,1,4.279-.637c3-.182,5.917-1.274,8.921-1.639a16.057,16.057,0,0,1,8.557.273c2.094.819,3.55,2.458,5.371,3.641,1.912,1.274,3.914,2.367,5.826,3.641.182,2.822-.91,5.553-1.821,8.193a28.715,28.715,0,0,1-6.008,9.65,55.436,55.436,0,0,1-7.92,5.826,9.769,9.769,0,0,1-3.459,1.183c0,.091,0,.364-.091.455-.364,0-.728-.091-1.092-.091a9.3,9.3,0,0,0-3.55-.91,31.186,31.186,0,0,1-10.1-6.19c-1.548-2.276-3.641-4.188-5.007-6.554-.728-1.183-.273-2.64-.819-3.823-1.366-2.822-3-5.462-4.461-8.193a1.353,1.353,0,0,1-.546-.091c-.364-1-.91-2-1.366-3,.728.182,1.548.182,1.912.91,1.73,2.913,3.823,5.553,5.735,8.375a42.5,42.5,0,0,1,3.55-9.285,55.769,55.769,0,0,0-4.461-7.465C154.563,53.079,153.38,51.9,152.561,50.53Z" transform="translate(-79.453 -10.105)" fill="#e8e6d9"/>
        <path id="Trazado_199315" data-name="Trazado 199315" d="M360.887,55.982a2.658,2.658,0,0,1,.819-.182c-.546,2.367-1.821,4.461-2.731,6.645-.728,1.639-1.548,3.186-2.367,4.734a25.2,25.2,0,0,1,2.822,4.1c1.548,2.731,2.094,5.917,3.641,8.648a18.292,18.292,0,0,0,3.277-10.1c.182-.091.546-.182.728-.273a16.835,16.835,0,0,1-.91,7.92c-1.73,5.007-5.553,8.921-8.1,13.473a17.447,17.447,0,0,0-1.639,2c-1.183,0-1.912.91-2.822,1.457-1.912,1.183-4.1,2.549-6.372,1.912a23.814,23.814,0,0,1-11.561-6.828,58.839,58.839,0,0,1-5.735-6.737,10.9,10.9,0,0,1-1.639-4.734,1.291,1.291,0,0,1,.364-1.274c1.639-1.092,3.459-1.912,4.916-3.368,1.274-1.183,2.367-2.64,4.005-3.277,3.277-1.548,7.1-.455,10.56-1.457a56.305,56.305,0,0,0,6.554-2.367c1.274-1.912,2.094-4.1,3.368-6.1A19.909,19.909,0,0,1,360.887,55.982Z" transform="translate(-95.606 -10.732)" fill="#e8e6d9"/>
        <path id="Trazado_199316" data-name="Trazado 199316" d="M145.192,54.12c-.455-1.821,1-4.188,3.1-3.823a4.057,4.057,0,0,1,2.276,3.459c-.182,1-1.183,1.274-1.912,1.73-.091.637-.455,1.183-.273,1.821a11.53,11.53,0,0,0,1.183,1c.091,1.912-2.822,1.821-3.186.182-1-2.276.91-4.37,3-4.916-.364-.364-.819-.728-1.183-1.092C147.195,53.027,146.375,54.029,145.192,54.12Z" transform="translate(-79.185 -10.236)" fill="#d89466"/>
        <path id="Trazado_199317" data-name="Trazado 199317" d="M366.941,60.4c-1.183-1.274-.546-3.823,1.366-4.006.91-.182,1.274.728,1.639,1.366a6.874,6.874,0,0,1-1.274-1,1.428,1.428,0,0,0-.728,1.912c.819.728,2.094,1.274,2.185,2.549a4.889,4.889,0,0,1-1.092,3.55c-.273.546-1.457.364-1.457-.273-.091-.91.728-1.639.819-2.458A14.032,14.032,0,0,0,366.941,60.4Z" transform="translate(-99.02 -10.784)" fill="#d89466"/>
        <path id="Trazado_199318" data-name="Trazado 199318" d="M371.076,57a55.146,55.146,0,0,1,1,11.561l-.273-.273a6.1,6.1,0,0,1-4.37,1.639c-.546.091-.728-.637-.637-1.092.91-.455,2-.546,2.913-1a3.157,3.157,0,0,0,1.73-2.731A47.876,47.876,0,0,0,371.076,57Z" transform="translate(-99.059 -10.84)" fill="#d89466"/>
        <path id="Trazado_199319" data-name="Trazado 199319" d="M153.2,77c.91,1.457,1.366,3.277,2.549,4.552a31,31,0,0,0,5.189,4.552c3,2.549,6.281,5.007,10.1,6.19-4.37-.364-8.284-2.549-11.834-5.007a11.152,11.152,0,0,1-2.185-2.822C155.476,82.189,153.746,79.822,153.2,77Z" transform="translate(-79.91 -12.633)" fill="#d89466"/>
        <path id="Trazado_199320" data-name="Trazado 199320" d="M205.943,137.125c1.274-1.366,1.639-3.368,2.822-4.825.182,1.73-.546,3.368-.819,5.1-2.276,1.457-4.279,3.368-6.646,4.643.091-.182.182-.637.273-.91C202.939,139.765,204.759,138.763,205.943,137.125Z" transform="translate(-84.223 -17.591)" fill="#d89466"/>
        <path id="Trazado_199321" data-name="Trazado 199321" d="M224.54,135.477a22.305,22.305,0,0,0,3.277-3.277,3.758,3.758,0,0,1-.364,2c-.364.728-.546,1.73-1.274,2.094-4.1,2.367-8.648,3.459-12.927,5.28-1.548.637-2.913,1.73-4.552,2.185a3.893,3.893,0,0,1,.819-1.183c2.549-1.821,5.644-2.731,8.466-4.005A33.257,33.257,0,0,0,224.54,135.477Z" transform="translate(-84.886 -17.582)" fill="#d89466"/>
        <path id="Trazado_199322" data-name="Trazado 199322" d="M227.359,139.53a35.022,35.022,0,0,1,4.279-1.73c.091,1.366-1.548,1.457-2.458,1.912-6.372,2.64-12.654,5.553-18.844,8.648-.637.455-.91-.728-.364-1a14.707,14.707,0,0,1,3.277-1.912C217.709,142.9,222.625,141.35,227.359,139.53Z" transform="translate(-84.974 -18.084)" fill="#d89466"/>
        <path id="Trazado_199323" data-name="Trazado 199323" d="M231.279,141.8c.273.091.728.182.91.273a3.4,3.4,0,0,0-.546.637c-.455.455-.819,1-1.274,1.457a26.17,26.17,0,0,1-3.641,1.639,127.955,127.955,0,0,0-14.93,6.554c-.182-1,.91-1.366,1.548-1.73a140.627,140.627,0,0,1,14.748-6.281A6.664,6.664,0,0,0,231.279,141.8Z" transform="translate(-85.162 -18.443)" fill="#d89466"/>
        <path id="Trazado_199324" data-name="Trazado 199324" d="M238.338,173.284c.273-.546.819-1.457,1.548-1.092a9.787,9.787,0,0,0,.091,2.822,7.018,7.018,0,0,0,2.822,2.822,35.18,35.18,0,0,0,8.557,2.913c.728,0,.728.819.455,1.274a7.11,7.11,0,0,1-3.1-.091A66.506,66.506,0,0,0,236.7,181.3a48.42,48.42,0,0,0-12.927,2.913c-.455.273-1.183.273-1.183,1a2.493,2.493,0,0,0,2.094,1.274c2.913.364,5.826-.455,8.739-.455,2.276-.091,4.279,1.183,6.554,1.366,2.822.364,5.462-.819,8.284-1.092-.273.91-1.274,1.092-2.094,1.366a44.489,44.489,0,0,1-9.741,1.639,51.523,51.523,0,0,0-10.56,1.274,8.989,8.989,0,0,0-2.549,1.092,10.191,10.191,0,0,0,5.553,2.367,18.607,18.607,0,0,0,3.823-1.183,54.4,54.4,0,0,1,9.377-2.367c2.094-.364,4.006-1.274,6.1-1.183a10.122,10.122,0,0,1-3.914,1.73c-3.459,1.183-7.1,1.73-10.469,3.1-2.731,1.092-5.644,1.821-8.1,3.55,2.094,1.821,5.1,1.457,7.647.91,4.552-1,9.012-2.185,13.564-3.1a4.635,4.635,0,0,1,2.731.091.961.961,0,0,0-.182.455c-1.912,1.366-4.37,1.73-6.463,2.822l-8.466,4.37c-1.092.637-2.549,1.183-2.913,2.64a13.4,13.4,0,0,0,6.008-.455c5.007-1.274,9.923-2.458,14.93-3.823a6.336,6.336,0,0,1,2.913-.182c2.185.455,4.37.91,6.645,1.366a37.423,37.423,0,0,0,6.372.364,22.759,22.759,0,0,1-7.01.819c-1.821-.273-3.55-.91-5.371-1.092-.728.819-.819,2.185-1.457,3.186-3.823-1.73-8.1,0-11.925.637-3.368.546-6.828,1.639-10.2.819a2.139,2.139,0,0,1-1.821-2.094,3.835,3.835,0,0,1,1.457-1.73,45.738,45.738,0,0,1,7.92-4.552A65.614,65.614,0,0,0,231.6,200.5a10.072,10.072,0,0,1-5.917-.546,2.848,2.848,0,0,1-1.639-2.276c.091-1.274,1.457-1.821,2.367-2.549a10.738,10.738,0,0,1-3.641-1.912,2.179,2.179,0,0,1-.182-3.1,10.421,10.421,0,0,1,3.277-1.366c-1.548-.364-3.368-.819-4.188-2.367a1.473,1.473,0,0,1,.91-2.185c3.914-1.092,7.738-2.731,11.743-3.368a54.816,54.816,0,0,1,10.2-.637c-1.639-.546-3.368-1-4.643-2.276A4.1,4.1,0,0,1,238.338,173.284Z" transform="translate(-86.03 -21.16)" fill="#547196"/>
        <path id="Trazado_199325" data-name="Trazado 199325" d="M320.119,181.166a82.8,82.8,0,0,1,15.749.091c2.822.273,5.553.91,8.284,1.274,2.458.455,4.916.364,7.374.819-1.457.273-2.913-.182-4.37-.091-3.641.091-7.283-.728-10.924-.728-4.916,0-9.832-.182-14.748-.091a94.849,94.849,0,0,1-10.2.182c-3.823-.182-7.465,1.548-11.288,1.274,3.186-.182,6.281-1.183,9.468-1.548C313.109,182.167,316.568,181.439,320.119,181.166Z" transform="translate(-93.072 -21.941)" fill="#d89466"/>
        <path id="Trazado_199326" data-name="Trazado 199326" d="M223.759,281.634a27.4,27.4,0,0,0,0-4.734,14.43,14.43,0,0,1-1.73,11.106c-.728,2,1,3.732,1.274,5.644-.364-.091-.91,0-1.183-.455a6.718,6.718,0,0,1-1.821-4.37C220.664,286,223.3,284.365,223.759,281.634Z" transform="translate(-85.926 -30.556)" fill="#d89466"/>
        <path id="Trazado_199327" data-name="Trazado 199327" d="M202.083,291.1c.728,3.732-.091,7.465.091,11.2a5.643,5.643,0,0,0,1.092,2.64,7.943,7.943,0,0,1-2.094-1.821,9.244,9.244,0,0,1,0-4.461C201.719,296.107,202.356,293.649,202.083,291.1Z" transform="translate(-84.187 -31.829)" fill="#d89466"/>
        <path id="Trazado_199328" data-name="Trazado 199328" d="M208.3,291.5a59.274,59.274,0,0,1,1.183,7.01,9.7,9.7,0,0,0,1.548,4.461c.91.546,2.094.091,3.1-.091a3.078,3.078,0,0,1-4.643-.182c-1.183-1.639-1.092-3.641-1-5.553C208.573,295.323,208.391,293.412,208.3,291.5Z" transform="translate(-84.85 -31.865)" fill="#d89466"/>
        <path id="Trazado_199329" data-name="Trazado 199329" d="M214.4,292.8a29.444,29.444,0,0,1,2.458,4.005,9.466,9.466,0,0,0,2.367,3.277,2.9,2.9,0,0,0,4.188-.91c.819-1,.91-2.458,1.73-3.368a16.657,16.657,0,0,1-2.367,4.552c-1.548,1.274-4.461,1.457-5.644-.364C215.492,297.9,215.31,295.167,214.4,292.8Z" transform="translate(-85.397 -31.981)" fill="#d89466"/>
        <path id="Trazado_199330" data-name="Trazado 199330" d="M255.872,209.385c.546-1,.637-2.276,1.457-3.186-2.913-.273-13.564,4.005-21.029,4.916,2.549,0,5.1-.728,7.647-1.092C247.77,209.294,251.958,207.564,255.872,209.385Z" transform="translate(-87.361 -24.216)" fill="#f4c7a8"/>
        <path id="Trazado_199331" data-name="Trazado 199331" d="M127.684,89.827a7.513,7.513,0,0,1,3.368-3.55,2.525,2.525,0,0,1,3.459,1.548c-.819,2.185-1.183,4.825.273,6.828,2.185,3.459,5.826,5.553,9.377,7.374,3.55,2,7.465,3.641,11.561,3.368,3.186-.273,6.463-.728,9.194-2.367,1.457-.91,2.913-2.367,2.64-4.188.091-1.639-1.639-3.277-.364-4.734.364,0,.728.091,1.092.091a5.806,5.806,0,0,1,2.458,1.274v.182c.364,1.548,1.548,3.186.637,4.734-2,3.277-5.371,5.371-8.739,7.1a6.218,6.218,0,0,0,2.913-.637,38.931,38.931,0,0,0,5.189-3.368,6.865,6.865,0,0,0,2.276-4.006,70.291,70.291,0,0,1,9.012,4.643,69.715,69.715,0,0,1,6.919,4.552,51.954,51.954,0,0,1,6.463,6.19c2.458,2.731,5.007,5.553,7.283,8.466,1.183,1.912,2.731,3.914,2.458,6.281-2.913,1.366-5.917,2.549-8.921,3.641.273-1.73,1.092-3.277.819-5.1a1.754,1.754,0,0,0-1.73-1.366,9.273,9.273,0,0,0-4.1,2.094,39.35,39.35,0,0,0-4.643,4.1c-1.821,1.912-4.1,3.459-5.553,5.644a38.906,38.906,0,0,0-4.006,7.738,3.882,3.882,0,0,0-3.732,0,27.9,27.9,0,0,0-5.1,2.822c-2.094-1.183-4.643-2.185-7.1-1.548-5.917,2.094-10.924,6.19-15.567,10.2-2.367,2.094-4.916,4.005-7.192,6.19-3,2.822-6.372,5.371-9.468,8.1a59.6,59.6,0,0,1-1.366-7.01c-1.366-7.01-1.639-14.11-3.186-21.029a47.2,47.2,0,0,0-3.459-10.287,54.721,54.721,0,0,0-5.28-8.193,14.065,14.065,0,0,0-3.1-3.459c2.64,2.64,4.37,6.1,6.19,9.377a37.525,37.525,0,0,1,3,8.284c2.185,10.1,1.73,20.665,4.006,30.77a23.808,23.808,0,0,1,.819,3.459c-2.185,2.094-4.643,4.005-6.554,6.463-1,1.366-2.367,2.549-2.549,4.37a67.471,67.471,0,0,0,7.465-7.01c4.552-4.279,9.285-8.284,13.746-12.563,3.914-3.55,7.647-7.374,12.017-10.469A28.262,28.262,0,0,1,160.092,150a11.453,11.453,0,0,1,7.192.91c.728.455,1.274-.273,1.821-.637a24.858,24.858,0,0,1,5.462-3.1c.728-.364,1.639,0,2.367.091a14.009,14.009,0,0,0,.273,5.826c-.637,3.1.728,6.008,1.821,8.739a31.506,31.506,0,0,0,2.458,4.552,27.1,27.1,0,0,0-3.277,3.186,5.835,5.835,0,0,1-2.276,1.912c-.637.182-1.821-.546-.91-1.092,1.73-1.366,2.64-3.368,3.914-5.1a31.886,31.886,0,0,1-2.731,2.185,30.179,30.179,0,0,0-2.367,2.458,5.035,5.035,0,0,1-1.092-1.274,33.126,33.126,0,0,0,5.007-6.19,50.719,50.719,0,0,0-5.462,5.371c-1.548-2.367-3.368-4.734-4.006-7.556a19.951,19.951,0,0,1-.728-6.919,2.658,2.658,0,0,1-.819.182c-.182,2.64.637,5.189.728,7.92a10.272,10.272,0,0,0,1.457,4.825,21.749,21.749,0,0,0,4.279,6.737c1,1,2.549.91,3.823.819a11.263,11.263,0,0,1-1.366,3,29.236,29.236,0,0,1-4.916,6.645c-4.916,4.643-10.1,8.921-15.2,13.291a157.346,157.346,0,0,1-20.028,15.567c-3.732,2.185-7.829,4.734-12.29,3.732-4.461-.819-7.556-4.461-10.378-7.738a65.858,65.858,0,0,1-11.015-15.84c-1.183-2.276-2.185-4.552-3.459-6.828a73.405,73.405,0,0,1-3.823-7.556c-1.366-3.186-3.368-6.008-4.643-9.194-1.274-3.277-2.458-6.463-3.55-9.832a34.517,34.517,0,0,0-1.274-4.37,32.484,32.484,0,0,1-1.73-4.1,37.422,37.422,0,0,0,.364,6.372,14.693,14.693,0,0,1,.182,4.461,43.869,43.869,0,0,0,2.094,17.114c1.274,3.277,2.185,6.737,4.1,9.832,1.092,1.639,1.639,3.823,3.459,4.734-.546-1.639-1.457-3.186-2.094-4.825a77.82,77.82,0,0,1-3.823-12.654,82.522,82.522,0,0,1,4.825,11.288,95.5,95.5,0,0,0,6.737,15.658,40.392,40.392,0,0,0,7.92,9.65,44.908,44.908,0,0,0,8.375,5.917c1.366.728,2.64,1.639,4.006,2.367a46.208,46.208,0,0,0-5.371-7.192c2.094,2,4.37,3.914,7.192,4.734,3.277,1.274,6.828.546,9.923-.819a60.691,60.691,0,0,0,11.379-7.01,181.036,181.036,0,0,0,14.2-12.108c4.916-4.37,9.923-8.557,14.474-13.291a43.252,43.252,0,0,0,6.008-8.648c.637-1.183.455-2.731,1.457-3.732,1.274-1.366,2.367-3,3.641-4.37a7.991,7.991,0,0,0,1.092-1.366,7.257,7.257,0,0,0-.273-1.366c1.366-.273,2.822-.455,4.188-.819-.273.364-.637.637-.91,1,2.276-.637,4.643-1,6.463-2.549,3.368-2.822,5.826-6.554,9.1-9.377,1.912-1.457,3.914-2.64,5.826-4.1,1.73-1.274,3.55-2.367,5.189-3.732,1.457-1.274,3.186-2.276,4.279-4.005.546-.728.273-1.548.273-2.367a9.743,9.743,0,0,0,1.274-1.457c2.276,1,3.823,3.732,2.731,6.1A8.218,8.218,0,0,1,224,150.547c0,.637-.546,1.092-1,1.639a6.071,6.071,0,0,0-6.554-1.639,26.3,26.3,0,0,0-5.1,2.458c-1.457.819-2.731,2.094-4.188,2.913.364-1.639,1-3.1,1.366-4.734-1.092,1.821-1.457,3.914-2.458,5.735-1.548,2.731-2.458,5.826-3.823,8.557-1.457,3.459-4.461,5.917-5.826,9.468a4.1,4.1,0,0,0,.455,3.55,11.952,11.952,0,0,1,.091-2.549c.546-1.639,1.912-2.731,3.186-3.914,2.185-1.821,3.368-4.552,4.279-7.192.819-2.185.819-4.734,2.549-6.372,2.913-2.822,6.737-4.552,10.469-5.826a12.3,12.3,0,0,1,4.825-.455c1.639,2.458,1.457,5.462,1.274,8.284l-.364-.182c-.546-.455-1.366-.273-2-.182-3.641.728-6.554,3.1-9.468,5.189-2.822,2.185-4.734,5.189-6.554,8.1-1.366,2.276-2.731,4.825-2.367,7.556a6.138,6.138,0,0,0,.91,3.1c-.091.182-.091.273-.182.455-.455.819-1.639.455-2.367.182a12.314,12.314,0,0,1-4.461-4.188,4.879,4.879,0,0,1-2.549-.182c.637-.182,1.274-.273,1.912-.455a15.38,15.38,0,0,1-3.368-1.366c-1.274-1.912-1.183-4.37-1.274-6.646-.091-2,.728-3.823,1.274-5.735a23.061,23.061,0,0,0-2.549,4.643,36.529,36.529,0,0,0-.637,4.552,47.419,47.419,0,0,1-4.734-3.732,25.5,25.5,0,0,1-1.821-2.913,106.223,106.223,0,0,1-4.279,15.112c-1.548,3-2.185,6.463-3.641,9.559a63.625,63.625,0,0,1-9.923,14.11c-1.639,1.73-2.913,3.823-4.552,5.644-3,3.55-6.646,6.463-9.559,10.014,1.821-1.548,3.732-3.1,5.644-4.552,2.367-1.821,4.552-3.914,6.828-5.826a36.932,36.932,0,0,0,9.468-11.743c0,2.185-.364,4.37-.546,6.463a21.4,21.4,0,0,1-.819,4.825c-.455,1.366-.546,2.913-1.092,4.279a81.283,81.283,0,0,1-3.732,8.739c-.819,1.639-.819,3.55-1.639,5.189a23.156,23.156,0,0,0-1.457,3.459,54.876,54.876,0,0,0,3.277-4.734,22.436,22.436,0,0,0,2.276-4.1c.182,3.732.182,7.556.364,11.288-.364,3.914-.091,7.829-1.183,11.652a64.9,64.9,0,0,1-1.639,7.283c-.91,2.64-3.186,4.643-3.914,7.374a11.623,11.623,0,0,0-.455,5.007,4.991,4.991,0,0,1-1.366.728c-4.279.546-8.466,1.183-12.745,1.639-4.188.273-8.375.91-12.563,1-6.828.364-13.564.273-20.392.182-7.829-.182-15.476-1.457-23.214-2.276a67,67,0,0,1-9.559-1.274c-1.457-.364-2.913-.819-4.37-1.274-1.457-.364-3.1-1.366-3.186-3,.364-3.277,1-6.645.091-9.923-.637-1.183-1.821-2.094-2.094-3.459-.728-3.823.182-7.647.273-11.47.273-4.188-.091-8.466.455-12.654.273-2.549.364-5.1.728-7.738.364-5.735-.819-11.47-.819-17.205-.091-4.005-.455-7.92-.273-11.925.273-8.557.728-17.114.819-25.672.182-9.377-.364-18.753.91-28.13,1-5.28,1.73-10.742,3.641-15.84,1.548-4.1,4.37-7.647,7.1-11.015a37.257,37.257,0,0,1,17.205-12.108,78.837,78.837,0,0,1,12.472-4.552C119.946,90.556,123.769,89.463,127.684,89.827Zm-.182.637c1.548,3.641,3.1,7.374,5.826,10.287a13.913,13.913,0,0,0,4.1,3.55,35.3,35.3,0,0,0,5.1,2.094,43.822,43.822,0,0,0,6.645,1.548,10.313,10.313,0,0,0,2.913.091c-.91-.637-2.185-.455-3.186-.819a29.808,29.808,0,0,1-8.739-3.277,28.374,28.374,0,0,1-4.825-3.914c-1.639-1.457-2.822-3.277-4.37-4.825-1.366-1.366-1.821-3.186-2.64-4.825A2.26,2.26,0,0,0,127.5,90.465Zm91.216,52.891a14.439,14.439,0,0,0-3.914,2.731c2.549.546,4.461-2,7.01-1.73C220.812,143.811,219.811,142.9,218.718,143.356ZM157,156.829c2.367-1.73,4.916-3.732,8.011-3.732a5.463,5.463,0,0,0-2.913-.637C159.728,152.823,158.636,155.372,157,156.829Zm14.93,6.008a14,14,0,0,0,4.461-3.55C174.84,160.288,172.928,161.107,171.927,162.837Zm-10.378,3.277c1.73-1,3.641-2.185,4.461-4.1A5.226,5.226,0,0,0,161.549,166.114Zm-42.149,7.01c1.183-.637,2.094-1.73,3.186-2.458a1.911,1.911,0,0,0,1.092-1.821c-.273-.091-.819-.182-1.092-.273A8.216,8.216,0,0,0,119.4,173.124Zm3.732-.728a14.942,14.942,0,0,0-5.462,7.647,43.9,43.9,0,0,1,3.277-3.914c1.092-1.183,2.458-2,3.641-3.1.364-.273.273-.819.273-1.274A6.657,6.657,0,0,0,123.132,172.4Zm48.7,6.645c-2.185,1.821-4.279,3.732-6.281,5.644-2.094,2.367-4.461,4.37-6.463,6.828,2.094-2.185,4.734-3.732,6.919-5.735,1.821-1.639,3.732-3.277,5.462-5.1a9.806,9.806,0,0,0,2.276-4.916C173.019,176.765,172.837,178.131,171.836,179.041Zm-90.215,2.822c.91,5.007,2.731,9.832,4.188,14.748,2.094,6.1,4.825,12.2,9.285,17.023,4.916,5.644,9.832,11.561,16.3,15.567-1.092-1-1.912-2.276-2.913-3.368-1.912-2-3.732-4.006-5.553-6.008-4.188-4.643-6.646-10.378-9.923-15.567-1.366-2.367-2.549-4.825-3.914-7.1-1.548-2.913-3-5.917-4.643-8.739A40.667,40.667,0,0,1,81.621,181.863Zm-1.183,23.942c1,2.549,1.821,5.1,2.64,7.647.819,2.822,2.731,5.28,4.461,7.556A23.517,23.517,0,0,0,93,226.379c-.91-2.094-2.458-3.914-3.55-5.917a53.858,53.858,0,0,0-3.823-6.19C83.714,211.631,82.076,208.627,80.437,205.805Zm-3.823,47.429a11.214,11.214,0,0,0,6.463,4.1c4.279,1.457,8.557,3.277,13.2,3.732,4.279.819,8.739.728,13.018,1.366,3.823.364,7.465,1.639,11.288,1.73,6.463.546,12.836.637,19.3.637,5.1.455,10.014-1.274,15.021-1.457a19.139,19.139,0,0,0,5.917-1.274c-1,.182-1.912.455-2.913.728-2,.546-4.1.273-6.19.546-5.371.728-10.742,1.366-16.113.728-4.916-.364-9.923-.182-14.748-1.092-4.1-.546-8.284-.91-12.381-1.639a34.437,34.437,0,0,1-8.011-2c-5.007-1.912-10.287-2.822-15.385-4.552-2-.637-4.006-1-6.008-1.548C78.252,253.052,77.251,252.324,76.614,253.234Z" transform="translate(-72.692 -13.444)" fill="#7e5ee3"/>
        <path id="Trazado_199332" data-name="Trazado 199332" d="M132.9,90.891c.182,0,.546-.091.819-.091.819,1.639,1.274,3.55,2.64,4.825,1.548,1.548,2.731,3.368,4.37,4.825,1.548,1.366,2.913,3,4.825,3.914a28.289,28.289,0,0,0,8.739,3.277c1.092.273,2.276.182,3.186.819a10.424,10.424,0,0,1-2.913-.091,39.266,39.266,0,0,1-6.645-1.548c-1.73-.637-3.459-1.366-5.1-2.094a13.913,13.913,0,0,1-4.1-3.55C135.9,98.265,134.357,94.441,132.9,90.891Z" transform="translate(-78.09 -13.87)" fill="#644bb5"/>
        <path id="Trazado_199333" data-name="Trazado 199333" d="M180.33,101.234c.91-1.639-.273-3.186-.637-4.734a4.359,4.359,0,0,1,2.185,3.823,7.151,7.151,0,0,1-2.276,4.006,38.93,38.93,0,0,1-5.189,3.368,6.474,6.474,0,0,1-2.913.637C174.959,106.6,178.328,104.511,180.33,101.234Z" transform="translate(-81.551 -14.381)" fill="#644bb5"/>
        <path id="Trazado_199334" data-name="Trazado 199334" d="M116.6,125.6a14.065,14.065,0,0,1,3.1,3.459,59.79,59.79,0,0,1,5.28,8.193,44.15,44.15,0,0,1,3.459,10.287c1.548,6.919,1.821,14.11,3.186,21.029a59.6,59.6,0,0,0,1.366,7.01c3.1-2.731,6.463-5.189,9.468-8.1,2.276-2.185,4.825-4.005,7.192-6.19,4.734-4.1,9.65-8.1,15.567-10.2,2.458-.637,4.916.364,7.1,1.548a40.04,40.04,0,0,1,5.1-2.822,4.146,4.146,0,0,1,3.732,0,2.658,2.658,0,0,1-.182.819c-.819-.091-1.639-.455-2.367-.091a21.657,21.657,0,0,0-5.462,3.1c-.546.364-1.092,1.092-1.821.637a11.613,11.613,0,0,0-7.192-.91,28.261,28.261,0,0,0-9.468,4.825c-4.37,3.1-8.1,6.919-12.017,10.469-4.461,4.37-9.285,8.284-13.746,12.563-2.367,2.367-4.643,5.007-7.465,7.01.182-1.821,1.548-3,2.549-4.37a54.948,54.948,0,0,1,6.554-6.463,15.9,15.9,0,0,0-.819-3.459c-2.276-10.1-1.73-20.665-4.006-30.77a37.524,37.524,0,0,0-3-8.284C120.97,131.7,119.24,128.24,116.6,125.6Z" transform="translate(-76.629 -16.991)" fill="#644bb5"/>
        <path id="Trazado_199335" data-name="Trazado 199335" d="M232.714,148.991c1.183-.364,2.185.455,3.1.91-2.549-.182-4.461,2.276-7.01,1.73A16.431,16.431,0,0,1,232.714,148.991Z" transform="translate(-86.688 -19.08)" fill="#644bb5"/>
        <path id="Trazado_199336" data-name="Trazado 199336" d="M84.764,163.272A36.9,36.9,0,0,1,84.4,156.9a20.5,20.5,0,0,0,1.73,4.1,24.062,24.062,0,0,1,1.274,4.37q1.639,4.916,3.55,9.832c1.274,3.186,3.277,6.008,4.643,9.194a83.985,83.985,0,0,0,3.823,7.556c1.274,2.185,2.276,4.552,3.459,6.828a65.857,65.857,0,0,0,11.015,15.84c2.822,3.277,5.917,6.828,10.378,7.738,4.461,1,8.557-1.639,12.29-3.732a143.931,143.931,0,0,0,20.028-15.567c5.1-4.37,10.287-8.648,15.2-13.291a32.221,32.221,0,0,0,4.916-6.646,17.881,17.881,0,0,0,1.366-3c-1.274.091-2.822.182-3.823-.819a21.749,21.749,0,0,1-4.279-6.737,12.9,12.9,0,0,1-1.457-4.825c0-2.64-.819-5.189-.728-7.92a2.658,2.658,0,0,1,.819-.182,21.84,21.84,0,0,0,.728,6.919c.637,2.822,2.458,5.189,4.006,7.556a50.718,50.718,0,0,1,5.462-5.371,33.126,33.126,0,0,1-5.007,6.19,7.34,7.34,0,0,0,1.092,1.274c.819-.728,1.457-1.73,2.367-2.458a31.889,31.889,0,0,0,2.731-2.185c-1.274,1.73-2.276,3.732-3.914,5.1-.91.546.273,1.274.91,1.092a5.162,5.162,0,0,0,2.276-1.912,27.1,27.1,0,0,1,3.277-3.186,27.354,27.354,0,0,1-2.458-4.552c-1.092-2.822-2.458-5.735-1.821-8.739a25.876,25.876,0,0,0,1.457,5.189c1.183,2.549,2.367,5.189,4.552,7.01a7.257,7.257,0,0,1,.273,1.366,3.817,3.817,0,0,1-1.092,1.366c-1.366,1.366-2.367,3-3.641,4.37-1,1-.819,2.549-1.457,3.732a43.251,43.251,0,0,1-6.008,8.648c-4.461,4.825-9.559,8.921-14.474,13.291a178.2,178.2,0,0,1-14.2,12.108,56.288,56.288,0,0,1-11.379,7.01c-3.1,1.366-6.646,2.094-9.923.819-2.822-.819-5.1-2.731-7.192-4.734a52.79,52.79,0,0,1,5.371,7.192c-1.366-.728-2.64-1.639-4.006-2.367a48.115,48.115,0,0,1-8.375-5.917,40.393,40.393,0,0,1-7.92-9.65A82.065,82.065,0,0,1,93.5,193.132a95.623,95.623,0,0,0-4.825-11.288A75.191,75.191,0,0,0,92.5,194.5c.637,1.639,1.548,3.186,2.094,4.825-1.821-1-2.367-3.1-3.459-4.734-1.821-3-2.822-6.463-4.1-9.832a43.456,43.456,0,0,1-2.094-17.114A17.943,17.943,0,0,0,84.764,163.272Z" transform="translate(-73.742 -19.797)" fill="#644bb5"/>
        <path id="Trazado_199337" data-name="Trazado 199337" d="M217.654,155.041c2.185-1.457,4.552-2.367,6.828-3.641-1.639,1.457-3.55,2.458-5.189,3.732-1.912,1.457-3.914,2.64-5.826,4.1-3.277,2.913-5.826,6.554-9.1,9.377-1.821,1.548-4.279,1.912-6.463,2.549.273-.364.637-.637.91-1,3.1-.637,5.462-2.913,7.192-5.462,1.457-2.185,3.459-3.732,5.28-5.553C213.012,157.226,215.561,156.5,217.654,155.041Z" transform="translate(-83.918 -19.304)" fill="#644bb5"/>
        <path id="Trazado_199338" data-name="Trazado 199338" d="M165.3,163.362c1.639-1.548,2.731-4.005,5.1-4.37a4.737,4.737,0,0,1,2.913.637C170.216,159.721,167.667,161.633,165.3,163.362Z" transform="translate(-80.995 -19.978)" fill="#644bb5"/>
        <path id="Trazado_199339" data-name="Trazado 199339" d="M223.914,159.026a26.3,26.3,0,0,1,5.1-2.458,6.071,6.071,0,0,1,6.554,1.639h-.637a12.3,12.3,0,0,0-4.825.455,28.213,28.213,0,0,0-10.469,5.826c-1.821,1.639-1.821,4.188-2.549,6.372-.91,2.64-2.094,5.371-4.279,7.192a9.506,9.506,0,0,0-3.186,3.914,11.953,11.953,0,0,0-.091,2.549,4.1,4.1,0,0,1-.455-3.55c1.366-3.459,4.37-6.008,5.826-9.468,1.457-2.822,2.276-5.826,3.823-8.557,1-1.821,1.366-3.914,2.458-5.735-.455,1.548-1,3.1-1.366,4.734C221.183,161.028,222.458,159.845,223.914,159.026Z" transform="translate(-84.898 -19.738)" fill="#644bb5"/>
        <path id="Trazado_199340" data-name="Trazado 199340" d="M181.7,170.05c1-1.639,2.913-2.549,4.461-3.55A17.057,17.057,0,0,1,181.7,170.05Z" transform="translate(-82.466 -20.658)" fill="#644bb5"/>
        <path id="Trazado_199341" data-name="Trazado 199341" d="M225.024,172.178c2.913-2.094,5.826-4.461,9.468-5.189a2.579,2.579,0,0,1,2,.182l.182.455a9.086,9.086,0,0,0-3.823.546c-2.731,1.092-5.462,2.458-7.283,4.825-2.731,3.186-5.371,6.554-6.828,10.56-.819,2.367-.91,5.007-1.639,7.465a5.36,5.36,0,0,1-.91-3.1c-.364-2.731,1-5.28,2.367-7.556A28.3,28.3,0,0,1,225.024,172.178Z" transform="translate(-85.553 -20.691)" fill="#644bb5"/>
        <path id="Trazado_199342" data-name="Trazado 199342" d="M170.3,173.6a5.127,5.127,0,0,1,4.461-4.1C173.941,171.412,172.03,172.6,170.3,173.6Z" transform="translate(-81.443 -20.927)" fill="#644bb5"/>
        <path id="Trazado_199343" data-name="Trazado 199343" d="M124,181.252a7.214,7.214,0,0,1,3.277-4.552c.273.091.819.182,1.092.273a1.911,1.911,0,0,1-1.092,1.821C126.094,179.431,125.274,180.614,124,181.252Z" transform="translate(-77.292 -21.572)" fill="#644bb5"/>
        <path id="Trazado_199344" data-name="Trazado 199344" d="M202.455,178.343A19.306,19.306,0,0,1,205,173.7c-.546,1.912-1.366,3.732-1.274,5.735.091,2.276,0,4.734,1.274,6.645.91.819,2.185.91,3.368,1.366a14.55,14.55,0,0,1-1.912.455c-1.274-.364-2.913-.273-3.641-1.548a7.453,7.453,0,0,1-.819-3.459A15.79,15.79,0,0,1,202.455,178.343Z" transform="translate(-84.286 -21.303)" fill="#644bb5"/>
        <path id="Trazado_199345" data-name="Trazado 199345" d="M127.562,180.837a6.658,6.658,0,0,1,1.73-.637c-.091.455.091.91-.273,1.274-1.092,1.092-2.458,2-3.641,3.1a33.92,33.92,0,0,0-3.277,3.914A14.942,14.942,0,0,1,127.562,180.837Z" transform="translate(-77.122 -21.886)" fill="#644bb5"/>
        <path id="Trazado_199346" data-name="Trazado 199346" d="M180.345,187.877c1-.819,1.092-2.276,1.912-3.277a9.806,9.806,0,0,1-2.276,4.916c-1.73,1.73-3.641,3.368-5.462,5.1-2.185,2.094-4.825,3.55-6.919,5.735,2-2.458,4.37-4.461,6.463-6.828C176.157,191.519,178.251,189.607,180.345,187.877Z" transform="translate(-81.201 -22.28)" fill="#644bb5"/>
        <path id="Trazado_199347" data-name="Trazado 199347" d="M82.5,191.3a40.47,40.47,0,0,0,2.731,6.463c1.639,2.822,3.1,5.826,4.643,8.739,1.457,2.276,2.64,4.734,3.914,7.1,3.277,5.189,5.735,10.924,9.923,15.567,1.821,2,3.641,4.1,5.553,6.008,1,1.092,1.821,2.367,2.913,3.368-6.463-4.006-11.288-9.923-16.3-15.567-4.461-4.825-7.192-10.833-9.285-17.023C85.231,201.132,83.41,196.307,82.5,191.3Z" transform="translate(-73.571 -22.881)" fill="#644bb5"/>
        <path id="Trazado_199348" data-name="Trazado 199348" d="M183.642,202.659c1.457-3.1,2.094-6.554,3.641-9.559-.728,2.822-1.73,5.553-2.367,8.375a42.836,42.836,0,0,1-3.277,8.83,35.964,35.964,0,0,1-9.468,11.743c-2.367,1.912-4.461,4.005-6.828,5.826-1.912,1.457-3.732,3-5.644,4.552,2.913-3.55,6.554-6.463,9.559-10.014,1.548-1.821,2.913-3.823,4.552-5.644A66.383,66.383,0,0,0,183.642,202.659Z" transform="translate(-80.493 -23.042)" fill="#644bb5"/>
        <path id="Trazado_199349" data-name="Trazado 199349" d="M81.2,217.6a68.856,68.856,0,0,0,5.28,8.466,53.857,53.857,0,0,1,3.823,6.19c1.092,2,2.64,3.823,3.55,5.917a23.517,23.517,0,0,1-5.462-5.371,22.725,22.725,0,0,1-4.461-7.556C83.021,222.607,82.2,220.058,81.2,217.6Z" transform="translate(-73.455 -25.239)" fill="#644bb5"/>
        <path id="Trazado_199350" data-name="Trazado 199350" d="M180.428,228.679c.546-1.366.637-2.913,1.092-4.279a32.585,32.585,0,0,1-1.183,7.829,23.579,23.579,0,0,1-1.183,5.007,22.436,22.436,0,0,1-2.276,4.1,54.865,54.865,0,0,1-3.277,4.734,16.414,16.414,0,0,1,1.457-3.459c.819-1.639.91-3.55,1.639-5.189A57.34,57.34,0,0,0,180.428,228.679Z" transform="translate(-81.739 -25.849)" fill="#644bb5"/>
        <path id="Trazado_199351" data-name="Trazado 199351" d="M77,269.656c.637-.91,1.639-.182,2.549,0,2,.546,4.006.819,6.008,1.548,5.007,1.73,10.378,2.64,15.385,4.552a39.7,39.7,0,0,0,8.011,2c4.1.819,8.284,1.092,12.381,1.639,4.825.91,9.832.728,14.748,1.092a68.134,68.134,0,0,0,16.113-.728c2-.273,4.188,0,6.19-.546,1-.273,1.912-.546,2.913-.728a19.14,19.14,0,0,1-5.917,1.274c-5.007.091-9.923,1.912-15.021,1.457a170.19,170.19,0,0,1-19.3-.637c-3.823-.091-7.465-1.457-11.288-1.73-4.37-.546-8.739-.546-13.018-1.366-4.552-.455-8.83-2.276-13.2-3.732A11.483,11.483,0,0,1,77,269.656Z" transform="translate(-73.078 -29.866)" fill="#644bb5"/>
        <path id="Trazado_199352" data-name="Trazado 199352" d="M361.3,94.6c1.821,1.092,3.459,3.1,3.1,5.371a34.678,34.678,0,0,1-.637,6.1l-.546,3c-.182,1-.273,2-.546,3a16.8,16.8,0,0,0-.364,2.094c-.091.546-.091,1.183-.182,1.73,0,.182,0,.546-.182.637a4.51,4.51,0,0,1-.182-1.548v-2.367a16.991,16.991,0,0,1,.364-2.276c.273-1.366.273-2.731.546-4.1a33.259,33.259,0,0,0,.637-4.188c.182-1.639.455-3.459-.546-4.825C362.3,96.421,361.755,95.51,361.3,94.6Z" transform="translate(-98.568 -14.211)" fill="#547196"/>
        <path id="Trazado_199353" data-name="Trazado 199353" d="M382.1,101.793c2-.637,3.914-1.457,5.917-1.912,1.912-.455,3.914,0,5.917.273a20.658,20.658,0,0,1,5.917,2.367,14.282,14.282,0,0,1,3.732,2.913,25.5,25.5,0,0,1,2.276,3.732,17.475,17.475,0,0,1,1.821,5.007,40.983,40.983,0,0,1,1.366,6.646c-.728-3.277-1.274-6.646-2.64-9.65a18.2,18.2,0,0,0-6.919-6.737c-3.368-1.639-6.828-3.186-10.651-3.55C386.47,100.609,384.376,101.52,382.1,101.793Z" transform="translate(-100.433 -14.667)" fill="#547196"/>
        <path id="Trazado_199354" data-name="Trazado 199354" d="M362.534,126.546c1.821-4.734,4.188-9.194,6.372-13.746a49.524,49.524,0,0,0-1.73,5.189,69.017,69.017,0,0,1-2.367,6.919,87.734,87.734,0,0,0-3.641,13.564c-.728,4.37-1.73,8.739-2.185,13.109-.455,3.368-.637,6.828-1.366,10.287-.546,3.1-1,6.281-1.821,9.377-.273-.455-.637-.91-.91-1.366-.819-.455-1.639-.728-2.458-1.092-4.188-1.639-7.374-4.916-10.56-7.92-1.457-1.457-3.277-2.549-4.643-4.188-1.274-1.457-2.822-2.64-4.188-4.006a13.9,13.9,0,0,1-1.639-1.639c.091-.273.273-.637.364-.91,1,1.639,2.731,2.549,4.188,3.823,2.276,1.821,4.916,3.186,7.1,5.007a64.24,64.24,0,0,0,6.645,5.462,32.148,32.148,0,0,1-2.185-6.281,28.154,28.154,0,0,1-.091-7.829,263.055,263.055,0,0,1,5.007-30.314c.364-2,.455-4.1.819-6.1a2.524,2.524,0,0,1,.273,1.821c-.637,4.188-1,8.466-1.639,12.654-.728,6.1-2.185,12.108-2.458,18.3-.182,3.368.91,6.737,1.639,10.014.819,3.368,2.64,6.281,4.461,9.194a46.3,46.3,0,0,0,.364-5.007c-.091-4.188.546-8.284.728-12.381A89.827,89.827,0,0,1,362.534,126.546Z" transform="translate(-95.887 -15.843)" fill="#547196"/>
        <path id="Trazado_199355" data-name="Trazado 199355" d="M401,159.82c1.183-2.549,1.912-5.28,3.1-7.92-1.639,4.916-3.368,9.923-4.643,14.93-.546,2.367-1.73,4.461-2.549,6.737a64.611,64.611,0,0,1-4.825,9.741c-1.366,2.458-3,4.734-4.188,7.283-2.276.364-4.005-1.457-5.826-2.458-2.094-1.457-4.552-2.458-6.737-3.732s-4.552-1.912-6.828-3a26.6,26.6,0,0,1,9.559,2.549c2.822,1.457,5.826,2.367,8.557,3.914a38.659,38.659,0,0,0,3.732-5.735c2.64-4.643,4.1-9.832,6.646-14.474.728-1.366,1.639-2.549,2.276-3.914C399.907,162.46,400.453,161.094,401,159.82Z" transform="translate(-99.214 -19.349)" fill="#547196"/>
        <path id="Trazado_199356" data-name="Trazado 199356" d="M358.3,260.176c2,.364,4.005.546,6.008.819a147.211,147.211,0,0,0,21.939,2.549c4.643-.091,9.285.455,13.928.182,2.913-.182,5.826-.273,8.739-.182,5.371.364,10.651-1,15.931-1.73,4.552-.546,9.194-1.092,13.746-1.73a2.162,2.162,0,0,0,1.548-2.185c0,.819.364,1.821-.182,2.549a4.318,4.318,0,0,1-3.368,1.639c-1.183.182-2.276.182-3.459.273-4.825.091-9.285,2.185-13.837,3.277a56.723,56.723,0,0,1-20.665,2c-8.466-.182-16.75-1.912-25.034-3.459a70.136,70.136,0,0,1-9.559-2.458C362.214,261.086,360.212,260.813,358.3,260.176Z" transform="translate(-98.299 -28.852)" fill="#547196"/>
        <path id="Trazado_199357" data-name="Trazado 199357" d="M337.914,161.842c-1.457-1.457-3.277-2.549-4.643-4.188-1.274-1.457-2.822-2.64-4.188-4.005-.546.728-2.185,2.367-2.822,3.1-1.912-2.549-23.851-30.132-25.125-32.044-2.731,4.37-8.1,5.735-12.836,6.008.364.455,16.386,40.055,19.663,45.244a2.383,2.383,0,0,1,.455,1.548c3.55-.273,7.01-1.092,10.56-1.274a82.8,82.8,0,0,1,15.749.091c2.822.273,5.553.91,8.284,1.274,1.73-2.64,3.914-5.007,5.462-7.829C344.377,168.123,341.191,164.846,337.914,161.842Z" transform="translate(-92.023 -16.91)" fill="#f4c7a8"/>
        <g id="Grupo_137481" data-name="Grupo 137481" transform="translate(161.466 44.304)">
          <path id="Trazado_199358" data-name="Trazado 199358" d="M259,76.4s-1.912-5.1-2-5.371,1.366-.819,1.548-.728,3,4.916,3,4.916Z" transform="translate(-250.683 -56.335)" fill="#a39acd"/>
          <path id="Trazado_199359" data-name="Trazado 199359" d="M257.9,79.414s-1.274-1.912-1-2.276a13.847,13.847,0,0,1,3.368-1.821,7.429,7.429,0,0,1,3.368-.819c.455.091,1.274,2.913,1.274,2.913Z" transform="translate(-250.67 -56.71)" fill="#7e5ee3"/>
          <path id="Trazado_199360" data-name="Trazado 199360" d="M263.4,89.6c2.094-.819,4.005-2.094,6.1-3a9.4,9.4,0,0,1,1.183,3,3.437,3.437,0,0,1-1.092.91c-.273.091-.546.273-.819.364a4.253,4.253,0,0,0-.91.455l-1.366.819a10.114,10.114,0,0,1-1.457.637A8.859,8.859,0,0,1,263.4,89.6Z" transform="translate(-251.257 -57.797)" fill="#23203f"/>
          <path id="Trazado_199361" data-name="Trazado 199361" d="M264.754,96.3c.819,1.457,1.639,3,2.549,4.461-1.092.728-2.367,1.457-3.732,1.092-1.183-.182-2.822-1.092-2.185-2.549A7.715,7.715,0,0,1,264.754,96.3Z" transform="translate(-251.063 -58.667)" fill="#8cbcfa"/>
          <path id="Trazado_199362" data-name="Trazado 199362" d="M269.289,105.483a6.782,6.782,0,0,1,2.276-1.183c.637,1,1.274,2,1.821,3a5.812,5.812,0,0,0-1.366,2.549,6.338,6.338,0,0,0-2.276-.455c.273,1,1.366,1.092,2.185,1.366a7.859,7.859,0,0,0,2.458,3.55,36.337,36.337,0,0,0-4.279,1c-1.366.364-2-1.183-3.1-1.639l-.182-.091a6.076,6.076,0,0,1-.455-4.37C266.649,107.4,268.105,106.394,269.289,105.483Z" transform="translate(-251.501 -59.384)" fill="#8cbcfa"/>
          <path id="Trazado_199363" data-name="Trazado 199363" d="M269.884,116.682a12.294,12.294,0,0,0,4.825,0,3.3,3.3,0,0,1,2.094,0,36,36,0,0,1,3.914,2.549c-1.183-.637-2.367-1.548-3.823-1.639,1.457,1.274,3.914,2.094,3.914,4.461-2.185.364-4.552.819-6.646.091a7.532,7.532,0,0,1-4.188-3.1A3.529,3.529,0,0,1,269.884,116.682Z" transform="translate(-251.824 -60.478)" fill="#8cbcfa"/>
          <path id="Trazado_199364" data-name="Trazado 199364" d="M269.3,91.264c.273-.091.546-.273.819-.364a2.143,2.143,0,0,0,.728.182c.182.546.364,1,.546,1.548l-.546,1.912C270.3,93.449,269.846,92.357,269.3,91.264Z" transform="translate(-251.786 -58.183)" fill="#e8e6d9"/>
          <path id="Trazado_199365" data-name="Trazado 199365" d="M266.8,92.619l1.366-.819c1.092,2.549,2.549,5.007,3.277,7.738-.364.182-.637.364-1,.546a5.551,5.551,0,0,1-1.73-2.549C268.074,95.805,267.437,94.258,266.8,92.619Z" transform="translate(-251.562 -58.264)" fill="#e8e6d9"/>
          <path id="Trazado_199366" data-name="Trazado 199366" d="M276.5,96.564a2.833,2.833,0,0,1,.546-.364,6.793,6.793,0,0,1,1.092.637,5.437,5.437,0,0,1-1,.546A5,5,0,0,1,276.5,96.564Z" transform="translate(-252.431 -58.658)" fill="#e8e6d9"/>
          <path id="Trazado_199367" data-name="Trazado 199367" d="M272,96.8a3.781,3.781,0,0,0,2.822.455l-.819.273a5.89,5.89,0,0,0,.364,1.183l-1.092.546A15.832,15.832,0,0,1,272,96.8Z" transform="translate(-252.028 -58.712)" fill="#e8e6d9"/>
          <path id="Trazado_199368" data-name="Trazado 199368" d="M278.8,100.019c.546-.273,1-.546,1.457-.819v1.366C279.8,100.383,279.255,100.2,278.8,100.019Z" transform="translate(-252.637 -58.927)" fill="#e8e6d9"/>
          <path id="Trazado_199369" data-name="Trazado 199369" d="M275.523,95.159c1.092-.91,1.457-2.367,2.367-3.459-.182,1.457-.273,3-1.366,4.1a2.832,2.832,0,0,1-.546.364,3.855,3.855,0,0,1-1.274.546,3.462,3.462,0,0,1-2.822-.455.69.69,0,0,0-.182-.364A3.163,3.163,0,0,0,275.523,95.159Z" transform="translate(-252.001 -58.255)" fill="#547196"/>
          <path id="Trazado_199370" data-name="Trazado 199370" d="M282.021,108.34c2.094.273,3.368-1.73,4.916-2.64a5.624,5.624,0,0,1-4.005,3.55c-2.731.182-5.28-1.274-8.011-1.274-1.821.091-2.367,2.276-1.73,3.732.819,1.912,3,2.367,4.734,3.1a10.118,10.118,0,0,1,5.007,3.914c.819,1.274,1.274,2.822,2.458,3.732a7.675,7.675,0,0,0,5.553,1.73c-1.821,1.183-4.005.273-5.826-.546a7.679,7.679,0,0,1-3.186-3.186c-.091.728-.091,1.73-.819,2.185a7.646,7.646,0,0,1-4.279.273,22.028,22.028,0,0,1-5.28-2.094,4.192,4.192,0,0,1-2-2.64,7.532,7.532,0,0,0,4.188,3.1,12.664,12.664,0,0,0,6.645-.091c0-2.367-2.458-3.186-3.914-4.461a8.45,8.45,0,0,1,3.823,1.639,22.222,22.222,0,0,0-3.914-2.549c-.637-.364-1.366-.091-2.094,0a12.294,12.294,0,0,1-4.825,0A3.773,3.773,0,0,1,267,113.711c1.092.455,1.73,2.094,3.1,1.639,1.457-.273,2.822-.819,4.279-1a7.6,7.6,0,0,1-2.458-3.55c-.819-.273-1.912-.364-2.185-1.366a6.339,6.339,0,0,1,2.276.455,5.811,5.811,0,0,1,1.366-2.549,4.859,4.859,0,0,1,2.276-.455C277.924,107.066,279.927,107.976,282.021,108.34Z" transform="translate(-251.58 -59.51)" fill="#547196"/>
          <path id="Trazado_199371" data-name="Trazado 199371" d="M260.649,77.663c1.548-.546,3.1-1.548,4.825-1.366a27.183,27.183,0,0,1,1.821,3.641,84.893,84.893,0,0,0,4.552,9.1,19.992,19.992,0,0,0-1.548,2.276c-.182-.546-.364-1-.546-1.548a2.142,2.142,0,0,0-.728-.182,5.281,5.281,0,0,0,1.092-.91,12.143,12.143,0,0,0-1.183-3c-.637-1.366-1.366-2.731-2.094-4.1a17.862,17.862,0,0,0-1.548-2.913c-.455-.455-1.183-.182-1.639,0a40.032,40.032,0,0,1-4.552,1.912c.182,1.457,1.183,2.549,1.73,3.914.637,1.457,1.366,2.822,2,4.188a8.858,8.858,0,0,0,1.639,3.186,7.047,7.047,0,0,0,1.457-.637c.637,1.639,1.274,3.277,2,4.825.455.91.728,2,1.73,2.549-.728.364-1.366.819-2.094,1.183-.182-.182-.364-.637-.546-.819-.91-1.457-1.73-3-2.549-4.461-1-2-2-4.006-2.822-6.008a48.3,48.3,0,0,0-4.005-7.374,2.232,2.232,0,0,1-.546-1.457C257.918,78.574,259.374,78.21,260.649,77.663Z" transform="translate(-250.691 -56.872)" fill="#a39acd"/>
          <path id="Trazado_199372" data-name="Trazado 199372" d="M268.4,91.755a8.457,8.457,0,0,1,.91-.455c.455,1.092,1,2.185,1.457,3.277.273.455.455,1,.728,1.457a.69.69,0,0,0,.182.364c.455.819.819,1.639,1.274,2.458a8.323,8.323,0,0,1-1.274.637C270.949,96.762,269.492,94.3,268.4,91.755Z" transform="translate(-251.705 -58.219)" fill="#a39acd"/>
          <path id="Trazado_199373" data-name="Trazado 199373" d="M274.91,97.246c.455-.182.91-.364,1.274-.546.182.273.455.546.637.819-.819.455-1.639.819-2.458,1.274A5.888,5.888,0,0,0,274,97.61,6.276,6.276,0,0,1,274.91,97.246Z" transform="translate(-252.207 -58.703)" fill="#a39acd"/>
          <path id="Trazado_199374" data-name="Trazado 199374" d="M271.8,103.558q2.185-1.366,4.37-2.458c1.092,1.821,2,3.823,3.1,5.644a29.045,29.045,0,0,1,3-1c.182.455.455,1,.637,1.457-.091.182-.364.546-.455.728-2.094-.364-4.1-1.274-6.19-1.366a4.859,4.859,0,0,0-2.276.455,23.9,23.9,0,0,0-1.821-3A1.985,1.985,0,0,0,271.8,103.558Z" transform="translate(-252.01 -59.098)" fill="#a39acd"/>
          <path id="Trazado_199375" data-name="Trazado 199375" d="M263.852,78.875c.455-.182,1.183-.455,1.639,0a17.862,17.862,0,0,1,1.548,2.913c.728,1.366,1.457,2.731,2.094,4.1-2.094.91-4.006,2.185-6.1,3-.637-1.366-1.366-2.731-2-4.188-.546-1.274-1.548-2.458-1.73-3.914C260.848,80.241,262.3,79.513,263.852,78.875Z" transform="translate(-250.889 -57.083)" fill="#7e5ee3"/>
          <path id="Trazado_199376" data-name="Trazado 199376" d="M277.133,96.882c.273-.091.637-.091.91-.182a17.194,17.194,0,0,1,1,2.276c-.455.273-1,.546-1.457.819a18.2,18.2,0,0,0-1.912.91,33.832,33.832,0,0,0-4.37,2.458,21.774,21.774,0,0,1-3.914,1.821,4.839,4.839,0,0,1-1.092-2.276,14.067,14.067,0,0,1,2-1.092,15.565,15.565,0,0,0,2.094-1.183,9.929,9.929,0,0,1,1-.546c.455-.182.819-.455,1.274-.637l1.092-.546a15.833,15.833,0,0,0,2.458-1.274A4.824,4.824,0,0,0,277.133,96.882Z" transform="translate(-251.517 -58.703)" fill="#7e5ee3"/>
          <path id="Trazado_199377" data-name="Trazado 199377" d="M300.113,122.22c.091-.091.091-.091.091-.182s-.091-.182-.182-.273c-.091-.182-.273-.273-.455-.455l-.273-.273a3.366,3.366,0,0,1-.455-1,5.134,5.134,0,0,1-.364-1.092c-.637-2.731-1-5.553-1.73-8.284-.455-1.73-.273-3.732-1.457-5.28-2.094-2.731-3.914-5.735-6.463-8.011a73.44,73.44,0,0,0-7.92-7.1c-1.457-.91-2.822-2.185-4.552-2.367-1.457,0-2.549,1.183-3.459,2.094a19.987,19.987,0,0,0-1.548,2.276l-.546,1.912c.273.455.455,1,.728,1.457a3.539,3.539,0,0,0,3.823-.819c1.092-.91,1.457-2.367,2.367-3.459-.182,1.457-.273,3-1.366,4.1a6.791,6.791,0,0,1,1.092.637c.273-.091.637-.091.91-.182a17.2,17.2,0,0,1,1,2.276v1.366c-.546-.182-1-.364-1.548-.546a18.2,18.2,0,0,0-1.912.91c1.092,1.821,2,3.823,3.1,5.644a29.042,29.042,0,0,1,3-1c.182.455.455,1,.637,1.457-.091.182-.364.546-.455.728,2.094.273,3.368-1.73,4.916-2.64a5.624,5.624,0,0,1-4.006,3.55c-2.731.182-5.28-1.274-8.011-1.274-1.821.091-2.367,2.276-1.73,3.732.819,1.912,3,2.367,4.734,3.1a10.118,10.118,0,0,1,5.007,3.914c.819,1.274,1.274,2.822,2.458,3.732a7.675,7.675,0,0,0,5.553,1.73c-1.821,1.183-4.006.273-5.826-.546a7.679,7.679,0,0,1-3.186-3.186c-.091.728-.091,1.73-.819,2.185a7.646,7.646,0,0,1-4.279.273,13.139,13.139,0,0,0,3,2.458c1.821,1.274,4.1,1.548,5.735,3,.182.182.364.273.364.546.091.182,0,.364.091.546,0,.182.182.182.364.182s.364-.091.637-.091c.637-.091,1.366-.273,2-.364a24.889,24.889,0,0,0,7.647-2.64c.546-.364,1.092-.728,1.548-1.092a2.127,2.127,0,0,0,.637-.637c.273-.273.364-.546.637-.728C300.022,122.311,300.113,122.311,300.113,122.22Z" transform="translate(-251.92 -57.914)" fill="#8cbcfa"/>
          <g id="Grupo_137480" data-name="Grupo 137480">
            <path id="Trazado_199378" data-name="Trazado 199378" d="M257.47,70.2a.5.5,0,0,1-.455-.273L250.1,55.634a.469.469,0,1,1,.819-.455l6.919,14.292a.6.6,0,0,1-.182.637C257.561,70.2,257.561,70.2,257.47,70.2Z" transform="translate(-250.061 -54.961)" fill="#a39acd"/>
          </g>
        </g>
        <path id="Trazado_199379" data-name="Trazado 199379" d="M172.94,51.507a4.1,4.1,0,0,1,4.188-.637,3.447,3.447,0,0,1,.364,3.368c-.637,1.366-3,2.094-4.188.819C172.394,54.147,171.848,52.509,172.94,51.507Z" transform="translate(-81.626 -10.263)" fill="#23203f"/>
        <path id="Trazado_199380" data-name="Trazado 199380" d="M170.954,45.294a11.571,11.571,0,0,1,1.457-1.274A5.391,5.391,0,0,1,175.6,43.2a5.5,5.5,0,0,1,3.914,1.639c-.091.273-.364.819-.455,1.092-1.548.182-2.913-.728-4.461-.637a9.152,9.152,0,0,0-2.276.364,9.447,9.447,0,0,0-.91.364c-.182.091-.546.364-.728.273C170.317,46.113,170.5,45.749,170.954,45.294Z" transform="translate(-81.46 -9.603)" fill="#23203f"/>
        <g id="Grupo_137482" data-name="Grupo 137482" transform="translate(229.844 47.252)">
          <path id="Trazado_199381" data-name="Trazado 199381" d="M330.022,65.374c0-1.366-1.73-1.457-2.64-1.092a3.609,3.609,0,0,0-2.185,3.823c.182,0,.455-.091.546-.091a4.163,4.163,0,0,1,1.274-1.548C327.838,65.83,329.112,66.1,330.022,65.374Z" transform="translate(-325.173 -58.729)" fill="#23203f"/>
          <path id="Trazado_199382" data-name="Trazado 199382" d="M331.74,69.594a2.547,2.547,0,0,0-2.276.637,2.284,2.284,0,0,0,1.548,3.459c.819.091,1.912-.091,2.094-1C333.288,71.506,333.015,69.868,331.74,69.594Z" transform="translate(-325.525 -59.217)" fill="#23203f"/>
          <path id="Trazado_199383" data-name="Trazado 199383" d="M346.534,64.558a3.17,3.17,0,0,0-3.55.273,3.437,3.437,0,0,0,.455,3.1,2.169,2.169,0,0,0,3.55-.091C347.535,66.834,347.626,65.2,346.534,64.558Z" transform="translate(-326.754 -58.732)" fill="#23203f"/>
          <path id="Trazado_199384" data-name="Trazado 199384" d="M346.715,59.019a2.751,2.751,0,0,0-1.457-.455,7.907,7.907,0,0,0-2-.364,2.693,2.693,0,0,0-.91.182,3.516,3.516,0,0,0-2.549,2.094.873.873,0,0,0,.182.819c.364.182.819-.091,1.092-.182a21.462,21.462,0,0,1,2.549-1.092,5.892,5.892,0,0,1,2.185-.091c.273,0,.637.182.91.091.182-.091.455-.182.273-.455A.953.953,0,0,0,346.715,59.019Z" transform="translate(-326.48 -58.2)" fill="#23203f"/>
        </g>
        <g id="Grupo_137483" data-name="Grupo 137483" transform="translate(95.856 135.019)">
          <path id="Trazado_199385" data-name="Trazado 199385" d="M178,158.424a4.291,4.291,0,0,1,1.366-1.73,13.211,13.211,0,0,1,1.73-1.092,9.287,9.287,0,0,1,1.912-.819,4.185,4.185,0,0,1,2.367,0c.091,0,0,.819-.091.819a4.891,4.891,0,0,0-1.457.91,12.777,12.777,0,0,1-1.639,1.092,9.472,9.472,0,0,1-1.821.728c-.546.182-1.092.364-1.73.637C178.454,159.062,177.908,158.515,178,158.424Z" transform="translate(-177.989 -154.611)" fill="#4b3888"/>
        </g>
        <g id="Grupo_137484" data-name="Grupo 137484" transform="translate(57.019 139.917)">
          <path id="Trazado_199386" data-name="Trazado 199386" d="M135.393,182.849a40.96,40.96,0,0,1,5.917-6.554c2-2,4.006-4.188,6.1-6.19a46.733,46.733,0,0,1,6.919-5.644c2.367-1.457,4.643-3.55,7.647-4.461.455-.091.637.637.273.819a14.594,14.594,0,0,0-3.459,2.367c-1.092.91-2.185,1.912-3.368,2.822a75.489,75.489,0,0,0-6.372,5.735c-2.094,2-4.1,4.1-6.372,6.008a66.459,66.459,0,0,0-6.554,5.644C135.758,183.668,135.12,183.213,135.393,182.849Z" transform="translate(-135.327 -159.991)" fill="#4b3888"/>
        </g>
        <g id="Grupo_137485" data-name="Grupo 137485" transform="translate(33.399 103.29)">
          <path id="Trazado_199387" data-name="Trazado 199387" d="M110.127,119.887c1.183,1.274,2.549,2.367,3.823,3.732,1.183,1.366,2.276,2.822,3.459,4.279a18.585,18.585,0,0,1,2.549,5.007l1,2.549c.364.819.637,1.73.91,2.549a61.449,61.449,0,0,1,2.185,10.651c.273,1.821.455,3.55.728,5.28a26.4,26.4,0,0,1,.637,5.462.41.41,0,1,1-.819,0,26.118,26.118,0,0,0-1.274-5.1c-.455-1.73-.819-3.55-1.183-5.28a94.118,94.118,0,0,0-2.458-10.287l-.819-2.458c-.273-.819-.637-1.73-.91-2.549a23.993,23.993,0,0,0-2.094-4.643l-3-4.37c-1.092-1.366-2.276-2.64-3.368-4.188C109.125,119.978,109.762,119.523,110.127,119.887Z" transform="translate(-109.381 -119.756)" fill="#4b3888"/>
        </g>
        <g id="Grupo_137486" data-name="Grupo 137486" transform="translate(25.057 77.749)">
          <path id="Trazado_199388" data-name="Trazado 199388" d="M100.293,99.711a11.2,11.2,0,0,1,2.822-1.73,28.13,28.13,0,0,1,2.913-1.274c2-.819,4.1-1.274,6.008-1.912,2-.637,4.006-1.183,6.008-1.73.546-.091,1-.273,1.457-.364.546-.182,1-.273,1.548-.455a12.338,12.338,0,0,1,3.277-.546c.364,0,.364.819,0,.819-1.912.273-3.641,1.639-5.735,2.276-2,.728-4.006,1.457-6.008,2.094s-4.1,1.092-6.1,1.639l-3,.819a12.891,12.891,0,0,0-2.822,1C100.566,100.53,100.019,99.893,100.293,99.711Z" transform="translate(-100.217 -91.7)" fill="#4b3888"/>
        </g>
        <g id="Grupo_137487" data-name="Grupo 137487" transform="translate(108.902 92.587)">
          <path id="Trazado_199389" data-name="Trazado 199389" d="M207.14,121.564a20.193,20.193,0,0,0-3.459-3.368l-3.823-3q-1.912-1.5-3.823-3.277a27.455,27.455,0,0,0-3.641-3.1c-.182-.091,0-.819.273-.819a14.567,14.567,0,0,1,4.552,2.458c1.366.91,2.731,1.912,4.006,2.913a32.687,32.687,0,0,1,3.823,3.368,16.952,16.952,0,0,1,2.913,4.279C208.051,121.382,207.322,121.746,207.14,121.564Z" transform="translate(-192.32 -108)" fill="#4b3888"/>
        </g>
        <g id="Grupo_137488" data-name="Grupo 137488" transform="translate(122.895 138.644)">
          <path id="Trazado_199390" data-name="Trazado 199390" d="M218.168,158.963c-.546,1.639-.91,3.277-1.548,4.916-.182.455-.364.819-.546,1.274l-.637,1.092c-.455.728-.819,1.457-1.274,2.185l-2.731,4.37c-1,1.366-2,2.731-3,4.188-.182.182-.819-.091-.728-.364.637-1.639,1.366-3.186,2.094-4.734.819-1.548,1.548-3,2.458-4.461l1.366-2.185.728-1.092c.182-.364.455-.637.637-1,.819-1.457,1.548-3,2.549-4.461C217.622,158.417,218.259,158.781,218.168,158.963Z" transform="translate(-207.69 -158.592)" fill="#4b3888"/>
        </g>
        <g id="Grupo_137489" data-name="Grupo 137489" transform="translate(139.309 140.289)">
          <path id="Trazado_199391" data-name="Trazado 199391" d="M225.793,162.949a15.136,15.136,0,0,1,2.185-1.457,8.966,8.966,0,0,1,2.549-.728,19.913,19.913,0,0,1,2.458-.364h1.457a3.2,3.2,0,0,1,1.457.546c.182.091-.273.728-.364.728a4.6,4.6,0,0,0-2.094.455,19.373,19.373,0,0,1-2.458.728c-.819.182-1.639.273-2.367.364-.637.091-1.548.364-2.458.455C225.793,163.768,225.611,163.04,225.793,162.949Z" transform="translate(-225.722 -160.4)" fill="#4b3888"/>
        </g>
        <g id="Grupo_137490" data-name="Grupo 137490" transform="translate(144.824 132.535)">
          <path id="Trazado_199392" data-name="Trazado 199392" d="M231.8,152.809a3.774,3.774,0,0,1,2.822-.91,6.45,6.45,0,0,1,2.549.819c.091,0,.091.819,0,.819a6.1,6.1,0,0,1-2.731.546,12.835,12.835,0,0,1-2.458-.455S231.707,152.9,231.8,152.809Z" transform="translate(-231.78 -151.881)" fill="#4b3888"/>
        </g>
        <g id="Grupo_137492" data-name="Grupo 137492" transform="translate(19.615 202.226)">
          <g id="Grupo_137491" data-name="Grupo 137491" transform="translate(0 0)">
            <path id="Trazado_199393" data-name="Trazado 199393" d="M94.932,228.585a68.041,68.041,0,0,0,7.1,6.372c2.549,2.094,4.643,4.552,7.192,6.008,2.822,1.639,5.371,3.459,8.193,4.825s5.826,2.458,8.83,3.914c.455.182.182.91-.273.819-3-1-6.19-1.73-9.194-3a55.17,55.17,0,0,1-8.557-4.643,27.511,27.511,0,0,1-4.006-3.1c-1.092-1.092-2.276-2.276-3.368-3.459a49.3,49.3,0,0,1-6.463-7.283C93.93,228.585,94.659,228.221,94.932,228.585Z" transform="translate(-94.239 -228.437)" fill="#4b3888"/>
          </g>
        </g>
        <g id="Grupo_137493" data-name="Grupo 137493" transform="translate(75.62 200.272)">
          <path id="Trazado_199394" data-name="Trazado 199394" d="M155.8,241.5a32.542,32.542,0,0,1,4.643-4.1c.819-.637,1.457-1.274,2.276-2,.819-.637,1.548-1.366,2.367-2,1.639-1.274,3.186-2.458,4.734-3.732a18.668,18.668,0,0,1,5.28-3.368c.273-.091.637.546.364.728a25.941,25.941,0,0,0-4.37,4.005,47.409,47.409,0,0,1-4.552,4.1l-2.367,1.912a18.206,18.206,0,0,1-2.549,1.821c-1.73,1.092-3.55,2-5.189,3.1C156.161,242.321,155.614,241.775,155.8,241.5Z" transform="translate(-155.76 -226.29)" fill="#4b3888"/>
        </g>
        <g id="Grupo_137494" data-name="Grupo 137494" transform="translate(66.048 240.332)">
          <path id="Trazado_199395" data-name="Trazado 199395" d="M145.568,278.857c2.458-.182,4.734-.91,7.283-1.274,1.274-.182,2.458-.273,3.641-.455s2.367-.455,3.641-.637l1.821-.364c.546-.091,1.183-.273,1.73-.364a20.8,20.8,0,0,0,3.368-1.092,12.751,12.751,0,0,0,5.553-4.279c.182-.273.91.091.728.455a12.2,12.2,0,0,1-5.462,5.462,18.239,18.239,0,0,1-3.641,1.548,14.551,14.551,0,0,1-1.912.455l-1.821.364c-1.183.273-2.458.455-3.732.637s-2.64.182-3.732.273a34.687,34.687,0,0,1-7.556.182C145.113,279.676,145.2,278.857,145.568,278.857Z" transform="translate(-145.245 -270.295)" fill="#4b3888"/>
        </g>
        <g id="Grupo_137495" data-name="Grupo 137495" transform="translate(2.26 229.716)">
          <path id="Trazado_199396" data-name="Trazado 199396" d="M76.654,258.694a9.662,9.662,0,0,1,.455,2.094,4.172,4.172,0,0,0,.364,1.457,13.68,13.68,0,0,0,1,1.548,6.062,6.062,0,0,1,.546,1.092,2.049,2.049,0,0,1,.091,1.274c0,.182-.819.091-.819.091a4.867,4.867,0,0,0-1.183-1.183,5.812,5.812,0,0,1-1.548-1.73,3.664,3.664,0,0,1-.273-2.549,7.359,7.359,0,0,1,.637-2C75.835,258.6,76.654,258.6,76.654,258.694Z" transform="translate(-75.175 -258.634)" fill="#4b3888"/>
        </g>
        <g id="Grupo_137497" data-name="Grupo 137497" transform="translate(263.158 94.019)">
          <g id="Grupo_137496" data-name="Grupo 137496" transform="translate(0)">
            <path id="Trazado_199397" data-name="Trazado 199397" d="M361.8,154.933c2.458-7.465,3.55-15.2,5.735-22.85a128.022,128.022,0,0,1,8.375-22.212c.273-.546,1-.273.819.273-2.549,7.465-4.916,14.93-6.919,22.485-1,3.732-1.912,7.556-3,11.379a82,82,0,0,1-4.005,11.2C362.343,155.843,361.615,155.479,361.8,154.933Z" transform="translate(-361.769 -109.573)" fill="#d7e8fd"/>
          </g>
        </g>
        <g id="Grupo_137498" data-name="Grupo 137498" transform="translate(254.357 104.374)">
          <path id="Trazado_199398" data-name="Trazado 199398" d="M356.106,121.268a71.405,71.405,0,0,1-.637,16.477c-.182,1.366-.455,2.731-.637,4.1-.273,1.366-.546,2.64-.728,4.005-.091.637-.182,1.274-.273,2a6.725,6.725,0,0,0,0,1.912,19.46,19.46,0,0,1,.455,4.1c-.091.455-.819.364-.819,0a25.7,25.7,0,0,0-1.092-3.914,9.559,9.559,0,0,1-.273-2.185,15.425,15.425,0,0,1,.091-2.094c.091-1.366.273-2.731.455-4.1s.364-2.64.546-4.005c.728-5.371,1.457-10.742,2-16.113C355.286,120.813,356.106,120.813,356.106,121.268Z" transform="translate(-352.1 -120.947)" fill="#d7e8fd"/>
        </g>
        <g id="Grupo_137499" data-name="Grupo 137499" transform="translate(237.88 117.381)">
          <path id="Trazado_199399" data-name="Trazado 199399" d="M341.01,135.658a77.535,77.535,0,0,1-2.367,7.829c-1,2.64-2.549,4.825-3.823,7.283-.091.182-.819,0-.819-.273a35.861,35.861,0,0,1,2.549-7.829,39.631,39.631,0,0,1,3.641-7.374C340.372,135.112,341.1,135.385,341.01,135.658Z" transform="translate(-334 -135.235)" fill="#d7e8fd"/>
        </g>
        <g id="Grupo_137500" data-name="Grupo 137500" transform="translate(284.293 66.997)">
          <path id="Trazado_199400" data-name="Trazado 199400" d="M388.822,79.9a7.41,7.41,0,0,1,2.549,3A5.083,5.083,0,0,1,391.917,85a6.447,6.447,0,0,1-.091,1.274c-.091.182-.091.455-.182.637a2.833,2.833,0,0,1-.364.546,18.792,18.792,0,0,1-2.549,2.822,11.192,11.192,0,0,1-3.277,2.094c-.182.091-.546-.637-.455-.728A16.348,16.348,0,0,0,387.365,89c.728-.91,1.457-1.912,2.094-2.822a3.312,3.312,0,0,0,.091-2.549,11.5,11.5,0,0,0-1.366-3.1C388.094,80.354,388.64,79.808,388.822,79.9Z" transform="translate(-384.984 -79.889)" fill="#d7e8fd"/>
        </g>
        <g id="Grupo_137501" data-name="Grupo 137501" transform="translate(318.743 106.489)">
          <path id="Trazado_199401" data-name="Trazado 199401" d="M423.622,123.479a28.173,28.173,0,0,1,2.276,5.1c.546,1.73,1.183,3.459,1.821,5.189a89.251,89.251,0,0,1,2.913,10.742c.364,1.821.637,3.641.91,5.462.273,1.912.364,3.732.455,5.553l.273,2.731c.091.91.182,1.912.182,2.822,0,1.821,0,3.641.182,5.462a.42.42,0,1,1-.819.182,38.923,38.923,0,0,1-.819-5.553,23.078,23.078,0,0,0-.364-2.64c-.182-.91-.364-1.821-.455-2.731-.273-1.821-.455-3.641-.728-5.462s-.637-3.55-1-5.371c-.728-3.55-1.548-7.1-2.549-10.651l-.728-2.64c-.273-.91-.455-1.821-.637-2.731a23.827,23.827,0,0,0-1.639-5.1C422.62,123.388,423.258,123.024,423.622,123.479Z" transform="translate(-422.827 -123.27)" fill="#d7e8fd"/>
        </g>
        <g id="Grupo_137502" data-name="Grupo 137502" transform="translate(289.746 228.246)">
          <path id="Trazado_199402" data-name="Trazado 199402" d="M391.453,261.371c4.005-.273,8.011-.273,11.925-.455,2-.091,3.914-.182,5.917-.364,2.094-.091,4.1,0,6.008-.182,3.823-.273,7.738-1.092,11.743-1.548l6.008-.546a28.286,28.286,0,0,0,2.913-.364,9.472,9.472,0,0,0,2.731-.819c.455-.273,1,.273.455.728A8.936,8.936,0,0,1,436.242,259c-1,.273-2,.455-3,.637-2,.364-3.914.637-5.917,1a98.781,98.781,0,0,1-11.925,1.912c-2.094.091-4.1,0-6.008.091-2,.091-4.005.091-6.008.091-4.005,0-8.011-.364-11.925-.546C390.816,262.191,390.816,261.462,391.453,261.371Z" transform="translate(-390.975 -257.02)" fill="#d7e8fd"/>
        </g>
      </g>
    </g>
  </g>
</svg>
