<svg xmlns="http://www.w3.org/2000/svg" width="77.845" height="134.435" viewBox="0 0 77.845 134.435">
  <path id="Trazado_199412" data-name="Trazado 199412" d="M3973.078,468.906l42.537-58.694a34.043,34.043,0,0,0,4.475-8.1,21.938,21.938,0,0,0,1.577-7.739V394.2q0-5.278-3.239-8.142t-9.207-2.863a12.014,12.014,0,0,0-9.377,3.981q-3.58,3.982-4.347,11.318v.089h-23.954v-.089q.767-12.167,5.583-20.937a33.389,33.389,0,0,1,13-13.376,37.92,37.92,0,0,1,18.924-4.608q11.592,0,19.82,3.982a28.037,28.037,0,0,1,12.531,11.587q4.3,7.606,4.3,18.342v.09a54.709,54.709,0,0,1-2.941,17.581,56.1,56.1,0,0,1-8.226,15.792l-30.518,40.442h42.367v23.621h-73.31Z" transform="translate(-3970.043 -358.07)" fill="#ff9d00" stroke="#fff" stroke-width="3"/>
</svg>
