<svg xmlns="http://www.w3.org/2000/svg" width="77.621" height="134.459" viewBox="0 0 77.621 134.459">
  <path id="Trazado_199414" data-name="Trazado 199414" d="M6556.055,496.218a39.943,39.943,0,0,1-17.727-4.167l-.171-.085a33.187,33.187,0,0,1-13.691-12.4,39.253,39.253,0,0,1-5.594-19.4H6542.5a16.838,16.838,0,0,0,2.213,6.777,11.679,11.679,0,0,0,4.383,4.252,12.665,12.665,0,0,0,6.178,1.462q6.512,0,10.06-3.854t3.548-10.851v-3.012q0-7.352-2.88-11.339a9.538,9.538,0,0,0-8.224-3.986h-10.268V416.226h10.268a7.659,7.659,0,0,0,6.721-3.5q2.379-3.5,2.379-9.789v-2.215q0-5.934-2.629-9.169a8.989,8.989,0,0,0-7.388-3.233,10.009,10.009,0,0,0-5.636,1.683,13.438,13.438,0,0,0-4.3,4.872,24.166,24.166,0,0,0-2.5,7.707h-23.543a48.091,48.091,0,0,1,5.969-20.33,34.2,34.2,0,0,1,12.982-13.022,36.038,36.038,0,0,1,17.866-4.473q16.111,0,24.92,8.726t8.808,24.759v3.9a28.261,28.261,0,0,1-4.258,15.591,25.7,25.7,0,0,1-12.1,9.922,21.443,21.443,0,0,1,13.566,9.744q4.8,7.62,4.8,19.4v3.9q0,11.251-4.174,19.223a28.028,28.028,0,0,1-12.189,12.136q-8.015,4.165-19.286,4.164Z" transform="translate(-6517.303 -363.259)" fill="#8cbcfa" stroke="#fff" stroke-width="3"/>
</svg>
