<svg xmlns="http://www.w3.org/2000/svg" width="78.93" height="133.455" viewBox="0 0 78.93 133.455">
  <path id="Trazado_199410" data-name="Trazado 199410" d="M11730.006,502.013a34.264,34.264,0,0,1-13.32-13.321,47.486,47.486,0,0,1-5.818-20.736v-.089h24.334v.089q.709,7.106,4.352,11.056a12.317,12.317,0,0,0,9.5,3.952q6.393,0,9.9-4.174t3.508-11.811V456.145q0-7.636-3.154-11.767a10.478,10.478,0,0,0-8.836-4.129,14.815,14.815,0,0,0-8.924,2.664,13.675,13.675,0,0,0-5.107,7.46h-22.732V376.132h69.355v23.445h-45.023V422.4a19.176,19.176,0,0,1,7.5-4.218,30.284,30.284,0,0,1,9.457-1.554q10.037,0,17.184,4.618a28.8,28.8,0,0,1,10.879,13.5q3.732,8.881,3.73,21.4V466.98q0,12.521-4.484,21.4a30.942,30.942,0,0,1-13.01,13.543q-8.525,4.662-20.6,4.662a38.08,38.08,0,0,1-18.693-4.573" transform="translate(-11709.367 -374.632)" fill="#2ed986" stroke="#fff" stroke-width="3"/>
</svg>
