<svg id="Grupo_137386" data-name="Grupo 137386" xmlns="http://www.w3.org/2000/svg" xmlns:xlink="http://www.w3.org/1999/xlink" width="295" height="183.702" viewBox="0 0 295 183.702">
  <defs>
    <clipPath id="clip-path">
      <rect id="Rectángulo_43831" data-name="Rectángulo 43831" width="295" height="183.702" fill="none"/>
    </clipPath>
    <clipPath id="clip-path-2">
      <path id="Trazado_198571" data-name="Trazado 198571" d="M41.611,50.615a34.49,34.49,0,0,0,68.98,0c0-19.048-15.442-41.187-34.49-41.187s-34.49,22.139-34.49,41.187" transform="translate(-41.611 -9.428)" fill="none"/>
    </clipPath>
  </defs>
  <g id="Grupo_137381" data-name="Grupo 137381">
    <g id="Grupo_137380" data-name="Grupo 137380" clip-path="url(#clip-path)">
      <path id="Trazado_198435" data-name="Trazado 198435" d="M289.918,172.828A67.654,67.654,0,0,1,233.338,202.9H45.046c-37.846,0-59.069-44.25-34.524-69.167s2.865-46.2,40.724-66.179c36.677-19.358,49.2,21.9,82.988-5.094s82.98-24.452,93.788,3.056,8.261,37.189,31.184,43.3,45.337,40.752,31.583,62.657q-.43.684-.871,1.353" transform="translate(0 -22.617)" fill="#eef5ff"/>
      <path id="Trazado_198436" data-name="Trazado 198436" d="M496.841,315.165c-19.836,1.683-33.207,38.864-82.794,16.515,0,0,5.445-16.232,29.836-26.349s52.958,9.833,52.958,9.833" transform="translate(-215.293 -157.275)" fill="#cddcf4"/>
      <path id="Trazado_198437" data-name="Trazado 198437" d="M428.153,341.229a138.21,138.21,0,0,1,16.031-7.03c1.364-.524,2.748-1,4.135-1.455,1.382-.479,2.781-.9,4.179-1.335,1.393-.449,2.81-.814,4.222-1.2.708-.188,1.411-.388,2.121-.565l2.136-.513,2.141-.491,2.156-.424,2.156-.423c.719-.138,1.445-.245,2.169-.355,1.45-.214,2.895-.457,4.355-.6s2.909-.361,4.377-.416a73.3,73.3,0,0,1,17.508.647,118.32,118.32,0,0,0-17.356.911l-1.076.122-1.072.165-2.145.313c-1.432.184-2.85.471-4.272.728-.709.139-1.424.239-2.132.386l-2.123.441-2.122.441-2.109.505-2.115.483c-.7.168-1.4.359-2.1.537l-2.1.543c-.7.178-1.392.4-2.092.579-1.4.383-2.795.757-4.178,1.188s-2.78.816-4.161,1.26c-5.537,1.725-11.026,3.624-16.532,5.554" transform="translate(-222.628 -169.609)" fill="#b0bdd1"/>
      <path id="Trazado_198438" data-name="Trazado 198438" d="M489.429,196.945c-24.2,17.3-13.006,75.279-93.775,84.408,0,0-5.392-25.011,18.226-56.625s75.549-27.783,75.549-27.783" transform="translate(-205.454 -102.33)" fill="#8cbcfa"/>
      <path id="Trazado_198439" data-name="Trazado 198439" d="M407.422,283.836a135.765,135.765,0,0,1,12.762-21.761,153.341,153.341,0,0,1,16.3-19.364,134.313,134.313,0,0,1,19.418-16.28,87.3,87.3,0,0,1,22.513-11.423,140.473,140.473,0,0,0-20.9,13.633,202.055,202.055,0,0,0-18.549,16.546,248.293,248.293,0,0,0-16.616,18.538c-5.232,6.467-10.15,13.2-14.935,20.111" transform="translate(-211.848 -111.799)" fill="#cddcf4"/>
      <path id="Trazado_198440" data-name="Trazado 198440" d="M47.682,307.2c19.669,3.075,30.388,41.106,81.426,22.3,0,0-4.289-16.574-27.907-28.384s-53.519,6.08-53.519,6.08" transform="translate(-24.793 -154.477)" fill="#cddcf4"/>
      <path id="Trazado_198441" data-name="Trazado 198441" d="M131.59,337.072c-5.357-2.313-10.7-4.593-16.1-6.7-1.346-.539-2.709-1.031-4.062-1.549s-2.718-1-4.084-1.479c-.685-.232-1.359-.5-2.046-.724l-2.057-.69c-.686-.227-1.37-.466-2.059-.684l-2.075-.631-2.068-.652-2.086-.59-2.086-.589c-.7-.2-1.4-.346-2.1-.535-1.4-.356-2.794-.742-4.21-1.026l-2.117-.463-1.058-.24-1.065-.2a118.231,118.231,0,0,0-17.249-2.131,73.294,73.294,0,0,1,17.51.588c1.46.157,2.892.469,4.337.723s2.871.587,4.3.9c.715.161,1.431.319,2.139.507l2.121.574,2.121.575,2.1.64,2.094.662c.7.227,1.383.476,2.076.714,1.382.481,2.77.945,4.128,1.49,1.363.53,2.73,1.051,4.074,1.626,1.352.556,2.7,1.123,4.023,1.742a138.182,138.182,0,0,1,15.5,8.142" transform="translate(-33.834 -165.299)" fill="#b0bdd1"/>
      <path id="Trazado_198442" data-name="Trazado 198442" d="M74.92,191.556c21.794,18.027,7.295,72.26,83.28,86.325,0,0,6.787-23.358-13.495-54.92s-69.785-31.4-69.785-31.4" transform="translate(-38.956 -99.604)" fill="#8cbcfa"/>
      <path id="Trazado_198443" data-name="Trazado 198443" d="M170.828,280.989c-4.107-6.86-8.335-13.56-12.873-20.035-4.556-6.458-9.372-12.712-14.526-18.673a194.7,194.7,0,0,0-16.461-16.937,135.689,135.689,0,0,0-18.86-14.379,82.207,82.207,0,0,1,20.629,12.288,126.6,126.6,0,0,1,17.347,16.734,144.4,144.4,0,0,1,14.155,19.474,127.128,127.128,0,0,1,10.59,21.528" transform="translate(-56.213 -109.696)" fill="#cddcf4"/>
      <path id="Trazado_198444" data-name="Trazado 198444" d="M327.166,296.734c-2.729,3.24-5.2,8.611-6.736,9.464s-4.122,1.149-6.568,9.02,9.9,6.793,9.9,6.793a18.208,18.208,0,0,0,7.411-10.357l5.287-4.689Z" transform="translate(-163.033 -154.293)" fill="#f6a397"/>
      <path id="Trazado_198445" data-name="Trazado 198445" d="M321.882,330.849a19.8,19.8,0,0,0,7.385-4.881c3.4-3.594,3.841-9.987,3.841-9.987l1.63,3.045L338,315.543l1.571-.152,1.158,1.275-5.287,4.689a18.21,18.21,0,0,1-7.41,10.357,19.625,19.625,0,0,1-6.283-.562c.074-.186.135-.3.135-.3" transform="translate(-167.3 -163.995)" fill="#d65863"/>
      <path id="Trazado_198446" data-name="Trazado 198446" d="M356.232,238c-3.782,2.764-6.038,4.771-7.918,8.531S334.65,263.806,333.9,265.011,340.52,279,346.422,282.136c0,0,8.911-10.279,14.05-14.165s3.385-17.675,1-22.313A36.211,36.211,0,0,0,356.232,238" transform="translate(-173.59 -123.756)" fill="#7e5ee3"/>
      <path id="Trazado_198447" data-name="Trazado 198447" d="M364.631,281.5v-7.675s1-.4,1.78,2.19a7.1,7.1,0,0,1,.149,3.064l5.737-4.315c.237,4.831-.538,9.744-3.288,11.823-5.139,3.886-14.05,14.165-14.05,14.165a18.608,18.608,0,0,1-4.7-3.99c3.628-3.613,10.512-10.587,14.368-15.262" transform="translate(-182.127 -142.368)" fill="#314ec6"/>
      <path id="Trazado_198448" data-name="Trazado 198448" d="M301.979,343.077c-.981.306-1.706.775-1.706,2.011a10.01,10.01,0,0,0,.682,3.965c.469.768,2.89,1.227,2.89,1.227s-.162-5.107-.673-6.044a2.388,2.388,0,0,0-1.193-1.159" transform="translate(-156.134 -178.391)" fill="#f6a397"/>
      <path id="Trazado_198449" data-name="Trazado 198449" d="M301.332,354.558a3.415,3.415,0,0,1-.334-.893,1.652,1.652,0,0,0,1.345.589l1.839.573c.028.575.041.959.041.959s-2.422-.46-2.891-1.227" transform="translate(-156.511 -183.896)" fill="#d65863"/>
      <path id="Trazado_198450" data-name="Trazado 198450" d="M305.918,339.185a2.519,2.519,0,0,0-2.387,2.259c0,1.236-.426,4.689,0,5.243a10.082,10.082,0,0,0,3.24,2.259c.725.128,1.956-.085,1.788-.469s-2.64-9.293-2.64-9.293" transform="translate(-157.729 -176.367)" fill="#f6a397"/>
      <path id="Trazado_198451" data-name="Trazado 198451" d="M303.359,352.882c.905,1.022,3.22.93,3.22.93a9.23,9.23,0,0,1,1.142,1.435c.076.211.492.488.549.7a3.265,3.265,0,0,1-1.49.12,10.136,10.136,0,0,1-3.209-2.224l-.212-.961v0" transform="translate(-157.738 -183.489)" fill="#d65863"/>
      <path id="Trazado_198452" data-name="Trazado 198452" d="M313.124,334.936c-3.663.206-4.345.547-4.472,2.04s-.043,5.841.426,6.949a8.753,8.753,0,0,0,1.322,2.686,2.335,2.335,0,0,0,1.49.6s2.006-2.944,2.091-5.417a37.953,37.953,0,0,0-.856-6.857" transform="translate(-160.462 -174.157)" fill="#f6a397"/>
      <path id="Trazado_198453" data-name="Trazado 198453" d="M311.443,349.291a22.222,22.222,0,0,0,.65-5.48c.02-1.273,1.2,5.375.673,7.2-.263.453-.451.73-.451.73a2.332,2.332,0,0,1-1.49-.6,8.726,8.726,0,0,1-1.322-2.686,2.131,2.131,0,0,1-.087-.257,2.168,2.168,0,0,0,2.026,1.093" transform="translate(-160.888 -178.688)" fill="#d65863"/>
      <path id="Trazado_198454" data-name="Trazado 198454" d="M324.411,341.138c-.23,2.037-2.9,2.771-3.2,3.794s-.085,1.961-.6,2.217-2.643-.938-2.558-2.3a2.654,2.654,0,0,1-1.791,1.364c-1.236.213-1.535-.69-1.322-2.05a17.345,17.345,0,0,0,.128-3.7c-.043-1.62-.426-3.112.3-4.9s1.706-3.368,3.666-3.069,3.155,2.771,4.22,3.623,1.407,2.771,1.151,5.031" transform="translate(-163.731 -172.864)" fill="#f6a397"/>
      <path id="Trazado_198455" data-name="Trazado 198455" d="M321.5,349.11c.12-2.591.255-4.711.255-5.129s-.135-3.168.842-3.335c.149-.025,2.3,1.337,2.34,2.257s0,2.57-.669,3.04a29.845,29.845,0,0,0-2.768,3.168" transform="translate(-167.17 -177.127)" fill="#d65863"/>
      <path id="Trazado_198456" data-name="Trazado 198456" d="M438.671,231.242c-3.886-4.931-5.223-5.432-9.235-7.772s-19.221-8.273-22.355-9.025-15.773,5.14-19.921,7.02-9.424,3.73-10.324,5.563c-3.01,6.134,2.951,14.828,2.983,33.047.016,9.542,2.191,31,2.191,31s47.76.089,48.429-.913,2.34-35.267,3.175-42.287,5.056-16.631,5.056-16.631" transform="translate(-195.503 -111.471)" fill="#7e5ee3"/>
      <path id="Trazado_198457" data-name="Trazado 198457" d="M377.01,253.066a23.729,23.729,0,0,1-.749-3.507,23.466,23.466,0,0,1-.275-3.575,23.459,23.459,0,0,1,.749,3.507,23.716,23.716,0,0,1,.275,3.576" transform="translate(-195.502 -127.905)" fill="#314ec6"/>
      <path id="Trazado_198458" data-name="Trazado 198458" d="M407.449,241.618c-1.845-.689-6.217.509-7.016.788s.47-3.138.94-3.561a2.5,2.5,0,0,1,2.664-.962,5.6,5.6,0,0,1,2.862,2.639,7.721,7.721,0,0,0,.55,1.1" transform="translate(-208.08 -123.633)" fill="#314ec6"/>
      <path id="Trazado_198459" data-name="Trazado 198459" d="M432.955,245.55a41.279,41.279,0,0,1-5.417-2.235c-.919-.439-5.083-.644-7.88.138,0,0,5.383-3.637,8.517-3.606s4.325,1.16,4.576,2.163a20.808,20.808,0,0,1,.2,3.541" transform="translate(-218.211 -124.714)" fill="#314ec6"/>
      <path id="Trazado_198460" data-name="Trazado 198460" d="M395.976,308.717c.513-.5,31.7.5,32.33-2.758s1.058-9.187,1.058-9.187c-3.755,2.006-9.206,1.171-9.206,1.171,3.635-1.187,8.9-7.152,9.151-8.907.772-5.407-2.116-20.312-2.116-20.312l2.116-4.258,2.476-1.379a34.375,34.375,0,0,1,8.71,6.639,33.765,33.765,0,0,0-.62,3.473c-.788,6.618-2.319,37.448-3.052,41.794-9.661.356-27.173,1-38.892,1.4-5.678.013-9.662.006-9.662.006s-.073-2.822-.244-6.87c3.269-.192,7.632-.5,7.95-.813" transform="translate(-201.763 -136.799)" fill="#314ec6"/>
      <path id="Trazado_198461" data-name="Trazado 198461" d="M408.153,229.041c3.365-.406,8.775-3.322,10.906-2.319s2.632,3.572,3.071,4.011,2.319-1.755,2.319-7.145.166-10.91-3.8-11.66-14.248,3.136-16.316,4.7a9.765,9.765,0,0,0-3.51,4.679c-.564,1.526-2.068,7.668-1.379,7.731s2.632-3.949,4.074-4.074,3.726,4.184,4.638,4.074" transform="translate(-207.606 -110.147)" fill="#7e5ee3"/>
      <path id="Trazado_198462" data-name="Trazado 198462" d="M411.878,228.781c-.858-2.037-1.8-3.823-1.767-5.234s.345-2.381,1.912-2.82,2.225.407,2.319,2.538-2.464,5.516-2.464,5.516" transform="translate(-213.246 -114.714)" fill="#314ec6"/>
      <path id="Trazado_198463" data-name="Trazado 198463" d="M439.389,220.862c3.276-2.972,3.647-6.294,3.34-6.983s-1.661-1.191-1.661-1.191-.533,2.163-.219,2.7-1.459,5.479-1.459,5.479" transform="translate(-228.47 -110.592)" fill="#314ec6"/>
      <path id="Trazado_198464" data-name="Trazado 198464" d="M428.525,238.2a16.721,16.721,0,0,1,2.481-.869,8.725,8.725,0,0,1,2.641-.314,2.375,2.375,0,0,1,1.334.45,13.458,13.458,0,0,1,.925.98,10.025,10.025,0,0,1,1.386,2.274,1.145,1.145,0,0,0,.274.407c.007,0,0,.013.072-.029a.978.978,0,0,0,.183-.183,7.013,7.013,0,0,0,.639-1.083,8.9,8.9,0,0,0,.774-2.428,21.584,21.584,0,0,0,.318-2.58c.075-.867.1-1.739.111-2.613a22.328,22.328,0,0,1-.066,5.254,8.462,8.462,0,0,1-.73,2.568,6.872,6.872,0,0,1-.68,1.174,1.432,1.432,0,0,1-.279.278.645.645,0,0,1-.233.108.5.5,0,0,1-.308-.035.84.84,0,0,1-.328-.312,3.109,3.109,0,0,1-.175-.309,9.82,9.82,0,0,0-1.307-2.2c-.264-.321-.573-.675-.845-.948a2.149,2.149,0,0,0-1.1-.406,8.553,8.553,0,0,0-2.553.176,21.145,21.145,0,0,0-2.532.639" transform="translate(-222.821 -120.742)" fill="#314ec6"/>
      <path id="Trazado_198465" data-name="Trazado 198465" d="M405.365,240.509a11.093,11.093,0,0,0-1.118-.909,3.562,3.562,0,0,0-.6-.349,1.342,1.342,0,0,0-.3-.083.668.668,0,0,0-.118.011.588.588,0,0,0-.108.056,6.611,6.611,0,0,0-1.971,1.967c-.271.378-.509.811-.829,1.2a3.437,3.437,0,0,1-.546.55.87.87,0,0,1-.43.193.419.419,0,0,1-.314-.1.525.525,0,0,1-.147-.232,1.951,1.951,0,0,1-.037-.795,7.071,7.071,0,0,1,.131-.728,13.066,13.066,0,0,1,.423-1.4c-.065.481-.152.957-.191,1.435-.027.238-.045.476-.048.709a1.805,1.805,0,0,0,.072.64.147.147,0,0,0,.046.068c.012,0,0,0,.024,0a.554.554,0,0,0,.211-.124,3.016,3.016,0,0,0,.448-.5c.283-.364.509-.785.793-1.2a7.863,7.863,0,0,1,.959-1.14,5.492,5.492,0,0,1,1.214-.873.95.95,0,0,1,.223-.087.923.923,0,0,1,.241,0,1.426,1.426,0,0,1,.389.143,3.6,3.6,0,0,1,.608.448,7.692,7.692,0,0,1,.973,1.092" transform="translate(-207.379 -124.179)" fill="#314ec6"/>
      <path id="Trazado_198466" data-name="Trazado 198466" d="M412.833,197c.008,1.324.06,2.645.2,3.963.338,3.232.007,7.494.262,8.281.285.878,1.978,4.012,1.978,4.012a15.139,15.139,0,0,0,4.262-2.884c1.253-1.5,2.883-1.58,5.077-3.8s3.685-5.742,3.2-8.674c-.063-.376-.448-4.13-.533-8.016s-4.168-6.838-8.054-6.838-6.213,5.767-6.334,9.652c-.05,1.595-.059,3.092-.052,4.3" transform="translate(-214.661 -95.18)" fill="#f6a397"/>
      <path id="Trazado_198467" data-name="Trazado 198467" d="M427.273,191.028c.085,3.886.47,7.64.533,8.016a7.953,7.953,0,0,1-.078,2.833c-.86.159-11.927.426-14.794-.909-.066-.939-.1-1.88-.1-2.823-.007-1.212,0-2.709.052-4.3a14.644,14.644,0,0,1,1.3-5.372l9.1-3.227a6.973,6.973,0,0,1,3.989,5.785" transform="translate(-214.661 -96.321)" fill="#d65863"/>
      <path id="Trazado_198468" data-name="Trazado 198468" d="M389.88,163.586a7.678,7.678,0,0,0-8.081,7.9c0,3.038.974,7.9,8.081,7.9,3.554,0,5.959-3.538,5.959-7.9s-2.405-7.9-5.959-7.9" transform="translate(-198.525 -85.06)" fill="#504984"/>
      <path id="Trazado_198469" data-name="Trazado 198469" d="M391.482,167.617a5.8,5.8,0,0,0-6.1,5.967c0,2.295.735,5.967,6.1,5.967,2.683,0,4.5-2.671,4.5-5.967s-1.816-5.967-4.5-5.967" transform="translate(-200.387 -87.156)" fill="#372d5b"/>
      <path id="Trazado_198470" data-name="Trazado 198470" d="M382.9,149.47c.348,2.06,1.367,2.848,1.823,5.625s-.759,6.814,1.053,10.329,4.741,8.137,6.434,8.333,15.249-2.094,19.823-11.19c1.312-2.611,4.119-12.849,1.718-19.1s-6.307-11.981-15.335-12.154-17.356,7.238-15.515,18.158" transform="translate(-198.963 -68.277)" fill="#f6a397"/>
      <path id="Trazado_198471" data-name="Trazado 198471" d="M397.854,191.009a1.591,1.591,0,0,0,1.249-.489,1.277,1.277,0,0,0,.234-.982,2.908,2.908,0,0,1-2.44.53c-.107.648.393.928.957.941" transform="translate(-206.368 -98.555)" fill="#d65863"/>
      <path id="Trazado_198472" data-name="Trazado 198472" d="M401.6,139.507a6.05,6.05,0,0,0-1.776-3.38,26.422,26.422,0,0,0-6.119-1.693,35.186,35.186,0,0,1-5.4-1.042,7.4,7.4,0,0,0,2.279,3.057s-6.38-.323-8.4-2.211c0,0,.391,1.556.781,2.6,0,0-3.125-.322-4.1-1.559a21.1,21.1,0,0,0-.781,4.226s-3.754-5.138-2.8-9.217,2.257-5.642,2.257-5.642a20.724,20.724,0,0,1-4.166,0s3.472-3.038,6.076-5.035,10.416-2.083,10.416-2.083a12.041,12.041,0,0,1,.087-5.382s3.341,4.9,6.879,6.4a29.328,29.328,0,0,0,6.811,2.317c3.75.947,7.316,3.347,8.813,5.365s3.125,4.1,4.1,4.427a8.558,8.558,0,0,1-3.515-1.3,13.2,13.2,0,0,1-.629,10.15c-2.583,5.712-9.053,4.022-10.308,2.761a2.455,2.455,0,0,1-.5-2.761" transform="translate(-194.141 -58.314)" fill="#ba6454"/>
      <path id="Trazado_198473" data-name="Trazado 198473" d="M430.107,150.3a2.455,2.455,0,0,1-.5-2.761,6.113,6.113,0,0,0-1.26-2.819,38.079,38.079,0,0,0-1.111-17.125,19.538,19.538,0,0,0,2.964.936,32.112,32.112,0,0,1,3.919,8.505c1.135,3.781,1.685,7.865.626,11.668a12.758,12.758,0,0,1-1.168,2.816,6.2,6.2,0,0,1-3.467-1.221" transform="translate(-222.15 -66.346)" fill="#874438"/>
      <path id="Trazado_198474" data-name="Trazado 198474" d="M429.275,144.3s.446-14.278-7.04-18.835a9.763,9.763,0,0,1,9.114,5.143,23.643,23.643,0,0,1,3.012,13.548c-.084,2.785-5.086.144-5.086.144" transform="translate(-219.551 -65.224)" fill="#504984"/>
      <path id="Trazado_198475" data-name="Trazado 198475" d="M435.2,163.586a7.678,7.678,0,0,1,8.081,7.9c0,3.038-.974,7.9-8.081,7.9-3.554,0-5.959-3.538-5.959-7.9s2.405-7.9,5.959-7.9" transform="translate(-223.194 -85.06)" fill="#504984"/>
      <path id="Trazado_198476" data-name="Trazado 198476" d="M435.052,172.448c0-3.874,2.558-7.015,5.712-7.015s5.539,3.141,5.539,7.015-2.384,7.015-5.539,7.015-5.712-3.141-5.712-7.015" transform="translate(-226.215 -86.021)" fill="#372d5b"/>
      <path id="Trazado_198477" data-name="Trazado 198477" d="M440.425,174.876c0-2.637,1.741-4.774,3.887-4.774s3.887,2.137,3.887,4.774-1.741,4.774-3.887,4.774-3.887-2.137-3.887-4.774" transform="translate(-229.009 -88.448)" fill="#504984"/>
      <path id="Trazado_198478" data-name="Trazado 198478" d="M402.784,196.509c-1.589.875-6.779,1.166-7.133,1.118s.372,3.893,1.643,4.038,3.813-.194,4.873-1.215.617-3.941.617-3.941" transform="translate(-205.682 -102.179)" fill="#d65863"/>
      <path id="Trazado_198479" data-name="Trazado 198479" d="M402.876,197.924c-.1-.349-.174-.63-.248-.9a28.086,28.086,0,0,1-6.25.875,7.283,7.283,0,0,0,.453,1.584c.033-.022-.009.051.025.029a7.734,7.734,0,0,0,6.021-1.585" transform="translate(-206.105 -102.445)" fill="#fff"/>
      <path id="Trazado_198480" data-name="Trazado 198480" d="M409.148,175.473c0-.719.355-1.3.792-1.3s.792.583.792,1.3-.355,1.3-.792,1.3-.792-.583-.792-1.3" transform="translate(-212.746 -90.564)" fill="#3f1751"/>
      <path id="Trazado_198481" data-name="Trazado 198481" d="M390.268,176.739c0-.719.3-1.3.681-1.3s.681.583.681,1.3-.3,1.3-.681,1.3-.681-.583-.681-1.3" transform="translate(-202.929 -91.222)" fill="#3f1751"/>
      <path id="Trazado_198482" data-name="Trazado 198482" d="M410.749,165.256a8.3,8.3,0,0,0-3.578-.954,4.606,4.606,0,0,0-1.9.186,3.5,3.5,0,0,0-1.572,1.1l.047.078c.654-.071,1.194-.231,1.764-.306s1.1-.288,1.681-.335a10.084,10.084,0,0,1,3.522.314Z" transform="translate(-209.912 -85.423)" fill="#3f1751"/>
      <path id="Trazado_198483" data-name="Trazado 198483" d="M385.436,168.56a3.574,3.574,0,0,1,.875-.213,7.4,7.4,0,0,1,.882-.058,3.881,3.881,0,0,0,.874.031,2.576,2.576,0,0,0,.444-.123,1.81,1.81,0,0,0,.473-.236l.01-.09a1.7,1.7,0,0,0-.93-.454,2.207,2.207,0,0,0-.97.156,4.527,4.527,0,0,0-.921.344,3,3,0,0,0-.793.571Z" transform="translate(-200.387 -87.044)" fill="#3f1751"/>
      <path id="Trazado_198484" data-name="Trazado 198484" d="M377.126,355.748c0,.2-.278.493-.968.493H354.419c-2.507,0-3.092-.992-2.34-2.245s3.928-4.012,11.783-5.934,11.986,2.572,13.263,4.6a3.18,3.18,0,0,1,0,3.089" transform="translate(-182.913 -180.74)" fill="#504984"/>
      <path id="Trazado_198485" data-name="Trazado 198485" d="M351.9,356.535c.433,1.438,17.02.688,17.02.688s-1.682-2.272-3.541-2.337-2.763.581-5.257,1.01-.645-1.015-.645-1.015a8.428,8.428,0,0,1-2.479-.946s4.109-1.214,5.832-1.5a38.87,38.87,0,0,1,6.675,0c.4.066,2.424-1.109,4.87-.519a10.958,10.958,0,0,1,2.756,2.9,3.18,3.18,0,0,1,0,3.089c0,.2-.278.493-.968.493H354.422c-2.249,0-2.948-.8-2.525-1.869" transform="translate(-182.916 -182.903)" fill="#372d5b"/>
      <path id="Trazado_198486" data-name="Trazado 198486" d="M427.231,324.286s-15.459,2.391-23.839,3.89c-7.938,1.42-14.792,2.037-16.735,1.661a103.818,103.818,0,0,1-10.718-3.7c-2.131-.878-6.393-1.379-8.587-.689s-3.99,1.442-4.868,1.442-.71,1.421.46,1.713a8.771,8.771,0,0,0,2.214.251s-3.969,2.173-4.68,2.382.131,1.5,1.092,1.421c0,0-.841.5-.549,1s2.382.5,2.382.5-2.549,1.254-.418,1.755,4.68-1.88,5.724-2.089a7.213,7.213,0,0,1,4.638.794c1.17.877,6.184,4.93,13.037,2.507,0,0,46.513,1.885,51.151,1.885s7.439-4.1,5.952-12a59.955,59.955,0,0,0-4.37-13.789l-16.045,1.128Z" transform="translate(-187.302 -162.87)" fill="#f6a397"/>
      <path id="Trazado_198487" data-name="Trazado 198487" d="M378.144,342.989a6.249,6.249,0,0,1,.94-.165s-.4.069-.94.165" transform="translate(-196.624 -178.259)" fill="#d65863"/>
      <path id="Trazado_198488" data-name="Trazado 198488" d="M367.309,344.423a8.772,8.772,0,0,1-2.214-.251,1.394,1.394,0,0,1-.745-.459,6.182,6.182,0,0,0,3.78,0c.553-.132,1.913-.38,2.842-.545a21.713,21.713,0,0,0-3.662,1.255" transform="translate(-189.451 -178.438)" fill="#d65863"/>
      <path id="Trazado_198489" data-name="Trazado 198489" d="M370.941,349.594a2.465,2.465,0,0,1,.24-.1l-.24.1" transform="translate(-192.879 -181.728)" fill="#d65863"/>
      <path id="Trazado_198490" data-name="Trazado 198490" d="M360.783,351.133c.015.013.474.418,1.44,0,.8-.35,2.757-1.151,3.437-1.43-.855.388-3.175,1.7-3.792,1.922a1.343,1.343,0,0,1-1.084-.49" transform="translate(-187.597 -181.835)" fill="#d65863"/>
      <path id="Trazado_198491" data-name="Trazado 198491" d="M364.151,353.7c.71-.209,2.194-1.107,3.1-1.537a6.251,6.251,0,0,1,2.068-.48,4.389,4.389,0,0,0-1.253.48c-.909.448-3.4,2-3.4,2a7.676,7.676,0,0,1-2.024-.259,5.953,5.953,0,0,0,1.508-.2" transform="translate(-188.564 -182.864)" fill="#d65863"/>
      <path id="Trazado_198492" data-name="Trazado 198492" d="M386.005,355.239a13.964,13.964,0,0,0,7.522,1.441,3.533,3.533,0,0,0,2.82-2.381l.648,2.089s32.258.919,38.818.625c6.485-.292,16.6-.439,17.921-4.334-.362,4.521-2.812,6.848-6.3,6.848-4.638,0-51.151-1.885-51.151-1.885-6.852,2.424-11.867-1.63-13.037-2.507a6.907,6.907,0,0,0-4-.868c1.78-.624,5.45.158,6.766.973" transform="translate(-197.194 -183.383)" fill="#d65863"/>
      <path id="Trazado_198493" data-name="Trazado 198493" d="M498.4,331.166s6.044-.821,7.256-.947l-.919-3.761-7.647,1.546Z" transform="translate(-258.475 -169.75)" fill="#d65863"/>
      <path id="Trazado_198494" data-name="Trazado 198494" d="M499.743,278.874a1.569,1.569,0,0,1-.368,1.692c-2.809,2.743-6.5,6.478-10.289,7.053-4.137.627-11.032.877-11.407,0s-1.755-12.034-4.262-17.675-4.137-8.524-4.763-11.784,5.014-10.906,7.521-11.532,8.274-1,10.655,1.128,4.137,10.279,6.895,16.421c2.225,4.957,5.022,12.117,6.019,14.7" transform="translate(-243.661 -127.985)" fill="#7e5ee3"/>
      <path id="Trazado_198495" data-name="Trazado 198495" d="M485.265,246.367c-.768-.088-1.535-.152-2.3-.169s-1.535-.028-2.3.017a19.6,19.6,0,0,0-2.271.257c-.376.06-.745.147-1.115.23a5.205,5.205,0,0,0-1.015.415,6.688,6.688,0,0,0-.939.6,11.092,11.092,0,0,0-.84.752A15.142,15.142,0,0,0,473,250.19a22.441,22.441,0,0,0-1.271,1.913c-.408.652-.77,1.332-1.123,2.019a19.243,19.243,0,0,1,2.093-4.146,12.749,12.749,0,0,1,1.465-1.833,10.033,10.033,0,0,1,.873-.8,7.044,7.044,0,0,1,1.005-.651,5.662,5.662,0,0,1,1.126-.445c.384-.081.766-.173,1.154-.223a15.472,15.472,0,0,1,2.333-.177,19.008,19.008,0,0,1,4.614.52" transform="translate(-244.7 -127.834)" fill="#314ec6"/>
      <path id="Trazado_198496" data-name="Trazado 198496" d="M518.3,286c-.021-2-4.25-20.365-7.986-30.6,1.588,3.5,3.073,9.084,5.1,13.593,2.225,4.956,5.022,12.116,6.019,14.7a1.567,1.567,0,0,1-.368,1.692c-1.076,1.051-2.282,2.246-3.571,3.354A3.728,3.728,0,0,0,518.3,286" transform="translate(-265.349 -132.802)" fill="#314ec6"/>
      <path id="Trazado_198497" data-name="Trazado 198497" d="M106.875,273.268a2.956,2.956,0,0,0,.353,1.786A12.828,12.828,0,0,1,108.8,281.6a14.674,14.674,0,0,0,.053,4.466c.7,2.484,3.324,4.02,4.168,6.46.748,2.163.052,4.883,1.607,6.563a1.453,1.453,0,0,0,1.51.524,1.836,1.836,0,0,0,.651-.541c1.782-2.024,3.69-4.484,3.141-7.125-.517-2.48-3.073-4.157-3.557-6.644-.4-2.032.643-4.376-.521-6.088-.321-.472-.781-.834-1.132-1.285-1.385-1.778-.872-4.611-2.467-6.2a3.679,3.679,0,0,0-1.88-.964A2.922,2.922,0,0,0,106.875,273.268Z" transform="translate(-55.561 -140.756)" fill="#ba5e5b"/>
      <path id="Trazado_198498" data-name="Trazado 198498" d="M120.8,308.38c.107-1.323.153-2.647.2-3.974-.06-1.323-.131-2.646-.244-3.968s-.262-2.644-.5-3.959a16.859,16.859,0,0,0-1.1-3.868c-.96-2.427-1.736-4.965-2.52-7.479l-1.137-3.792q-.7-1.857-1.364-3.729c.193,1.315.494,2.606.758,3.906l1.139,3.8c.789,2.527,1.558,5.049,2.541,7.537a16.2,16.2,0,0,1,1.062,3.736c.228,1.286.376,2.593.488,3.9s.187,2.625.238,3.941Z" transform="translate(-59.35 -144.35)" fill="#ffa6a4"/>
      <path id="Trazado_198499" data-name="Trazado 198499" d="M113.462,284.586a3.106,3.106,0,0,0,.8.8,4.669,4.669,0,0,0,.506.257,1.922,1.922,0,0,1,.46.318l.06.054.054-.082c.126-.193.279-.372.4-.567s.24-.392.343-.6a4.651,4.651,0,0,0,.428-1.321l-.037-.019a4.674,4.674,0,0,0-.793,1.14c-.1.206-.181.421-.268.634s-.132.445-.21.662l.114-.028a1.932,1.932,0,0,1-.44-.345,4.65,4.65,0,0,0-.394-.407,3.109,3.109,0,0,0-1-.53Z" transform="translate(-58.997 -147.374)" fill="#ffa6a4"/>
      <path id="Trazado_198500" data-name="Trazado 198500" d="M114.132,293.891c.227.187.461.39.707.559a5.911,5.911,0,0,0,.764.475c.272.131.561.234.823.382a5.078,5.078,0,0,1,.738.52l.083.067.084-.109a13.136,13.136,0,0,0,.966-1.5,9.434,9.434,0,0,0,.7-1.646l-.036-.021a9.448,9.448,0,0,0-1.051,1.447,13.18,13.18,0,0,0-.782,1.6l.166-.042a5.4,5.4,0,0,1-.793-.433c-.249-.168-.472-.381-.712-.564a5.218,5.218,0,0,0-.778-.459,3.472,3.472,0,0,0-.866-.32Z" transform="translate(-59.345 -152.155)" fill="#ffa6a4"/>
      <path id="Trazado_198501" data-name="Trazado 198501" d="M117.48,307.376a3.825,3.825,0,0,0,.814.6,3.076,3.076,0,0,0,.925.368,2.39,2.39,0,0,1,.895.429c.265.2.526.423.791.6l.2.132.149-.224a6.314,6.314,0,0,0,.575-1.035,5.509,5.509,0,0,0,.371-1.147l-.046-.025a5.492,5.492,0,0,0-.77.927,6.3,6.3,0,0,0-.566,1.039l.35-.092a6.085,6.085,0,0,0-.945-.375,2.723,2.723,0,0,1-.873-.486,2.835,2.835,0,0,0-.861-.512,3.486,3.486,0,0,0-.986-.248Z" transform="translate(-61.086 -159.671)" fill="#ffa6a4"/>
      <path id="Trazado_198502" data-name="Trazado 198502" d="M128.146,294.524c1.034-.17,4.911-1.41,4.64-2.423-1.163-4.345-2.325-9.275,1.7-11.4,1.936-1.022,4.367-1.542,5.47-3.435,1.136-1.949.3-4.426-.72-6.439s-2.247-4.167-1.81-6.38c.457-2.318,2.649-4.027,3-6.364.479-3.19-2.619-5.76-5.594-7.005a5.251,5.251,0,0,0-3.191-.528,3.92,3.92,0,0,0-1.945,1.256c-2.09,2.337-2,5.863-1.527,8.962s1.207,6.371.039,9.281c-.829,2.067-2.6,4.012-2.128,6.187.191.871.734,1.632.941,2.5.558,2.339-1.384,4.446-2.275,6.68a8.2,8.2,0,0,0,1.818,8.591,1.817,1.817,0,0,0,1.581.516" transform="translate(-64.591 -130.235)" fill="#ff9d00"/>
      <path id="Trazado_198503" data-name="Trazado 198503" d="M131.627,300.027c.24-1.72.479-3.434.785-5.135.073-.426.162-.849.231-1.274s.1-.855.173-1.281q.192-1.277.434-2.544a33.4,33.4,0,0,1,1.3-4.96,10.309,10.309,0,0,1,1.084-2.242,3.073,3.073,0,0,1,.784-.83,4.115,4.115,0,0,0,1.046-.973,4.3,4.3,0,0,0,.755-2.7,13.208,13.208,0,0,0-.387-2.647c-.4-1.706-.9-3.355-1.179-5.034a11.545,11.545,0,0,1,.1-4.983c.136-.391.242-.789.371-1.187a8.251,8.251,0,0,1,.494-1.159,11.576,11.576,0,0,1,1.448-2.125,9.776,9.776,0,0,0-1.848,1.874,8.857,8.857,0,0,0-.726,1.131,4.637,4.637,0,0,0-.5,1.257,12.323,12.323,0,0,0-.12,5.322c.29,1.742.8,3.415,1.188,5.08a12.474,12.474,0,0,1,.367,2.484,3.51,3.51,0,0,1-.6,2.216,3.311,3.311,0,0,1-.848.784,3.848,3.848,0,0,0-1,1.04,11.077,11.077,0,0,0-1.176,2.419,34.2,34.2,0,0,0-1.331,5.081q-.247,1.285-.44,2.576c-.059.431-.14.859-.192,1.291s-.063.869-.091,1.3c-.095,1.739-.159,3.476-.127,5.213" transform="translate(-68.438 -135.69)" fill="#ffa6a4"/>
      <path id="Trazado_198504" data-name="Trazado 198504" d="M141.674,271.686a2.658,2.658,0,0,0-.779.462,2.816,2.816,0,0,0-.609.64,4.132,4.132,0,0,1-.518.721,6.471,6.471,0,0,1-.677.574l.306.019c-.1-.223-.231-.431-.348-.645a6.43,6.43,0,0,0-.385-.618c-.134-.2-.288-.391-.433-.584s-.313-.372-.446-.577l-.052.009a2.04,2.04,0,0,0,.153.759,5.048,5.048,0,0,0,.314.681,4.7,4.7,0,0,0,.406.62,6.953,6.953,0,0,0,.469.577l.192.2.115-.182a5.168,5.168,0,0,1,.5-.724,3.5,3.5,0,0,1,.684-.559,3.387,3.387,0,0,0,.621-.611,5.418,5.418,0,0,0,.516-.723Z" transform="translate(-71.618 -141.265)" fill="#ffa6a4"/>
      <path id="Trazado_198505" data-name="Trazado 198505" d="M138.112,284.835a4.223,4.223,0,0,0,.463.819,5.925,5.925,0,0,0,.592.711c.224.213.48.395.72.591a4.339,4.339,0,0,1,.631.672l.06.078.084-.068a7.022,7.022,0,0,0,.808-.742c.234-.267.482-.52.7-.8s.424-.563.619-.857.372-.6.577-.887l-.03-.043a3.689,3.689,0,0,0-.876.653,8.322,8.322,0,0,0-.727.781c-.227.272-.419.571-.629.854s-.379.621-.574.864l.145.011a3.8,3.8,0,0,1-.637-.662c-.18-.251-.341-.519-.53-.76a8.009,8.009,0,0,0-.635-.661,6.813,6.813,0,0,0-.72-.591Z" transform="translate(-71.814 -147.834)" fill="#ffa6a4"/>
      <path id="Trazado_198506" data-name="Trazado 198506" d="M144.73,294.948c-.326.384-.665.736-1.011,1.073s-.72.634-1.082.959a3.521,3.521,0,0,1-1.264.734,4.655,4.655,0,0,1-1.453.162l.216.152a9.72,9.72,0,0,0-.344-1.175,6.525,6.525,0,0,0-.5-1.12,5.478,5.478,0,0,0-.716-1.012,2.675,2.675,0,0,0-1.007-.726l-.026.045a3.936,3.936,0,0,1,.726.913,11.272,11.272,0,0,1,.543,1.028l.484,1.068c.159.358.3.731.438,1.093l.067.175.148-.023a8.381,8.381,0,0,0,1.476-.421,15.022,15.022,0,0,0,1.416-.581,3.706,3.706,0,0,0,1.19-.978,3.808,3.808,0,0,0,.745-1.34Z" transform="translate(-71.519 -152.869)" fill="#ffa6a4"/>
      <path id="Trazado_198507" data-name="Trazado 198507" d="M132.818,304.079a2.937,2.937,0,0,0-.2,1.206,3.963,3.963,0,0,0,.226,1.211,4.329,4.329,0,0,0,.621,1.057l.723.961.051.069.084-.06a10.689,10.689,0,0,1,1.261-.711c.424-.228.863-.422,1.3-.609s.878-.381,1.329-.55.908-.33,1.375-.505l-.008-.052a6.925,6.925,0,0,0-2.921.594,9.1,9.1,0,0,0-1.311.73,8.831,8.831,0,0,0-1.154.959l.135.009a3.364,3.364,0,0,1-.668-.954,8.257,8.257,0,0,1-.378-1.088,8.58,8.58,0,0,1-.414-2.255Z" transform="translate(-68.956 -158.113)" fill="#ffa6a4"/>
      <path id="Trazado_198508" data-name="Trazado 198508" d="M113.6,345.529h11.068a2.224,2.224,0,0,0,2.055-2.09l1.752-13.615a2.359,2.359,0,0,0-2.055-2.831H111.852a2.359,2.359,0,0,0-2.055,2.831l1.752,13.615a2.224,2.224,0,0,0,2.055,2.09" transform="translate(-57.079 -170.028)" fill="#504984"/>
      <path id="Trazado_198509" data-name="Trazado 198509" d="M111.853,326.993h7.45a2.359,2.359,0,0,0-2.055,2.831L119,343.438a2.224,2.224,0,0,0,2.055,2.09H113.6a2.224,2.224,0,0,1-2.055-2.09L109.8,329.824a2.359,2.359,0,0,1,2.055-2.831" transform="translate(-57.079 -170.027)" fill="#372d5b"/>
      <path id="Trazado_198510" data-name="Trazado 198510" d="M273.23,357.818H226.941a.844.844,0,0,0-.844.844v2.051a.844.844,0,0,0,.844.844H273.23Z" transform="translate(-117.564 -186.055)" fill="#282142"/>
      <path id="Trazado_198511" data-name="Trazado 198511" d="M335.406,360.393v.834a.326.326,0,0,1-.326.326H323.42a.657.657,0,0,1-.657-.657v-2.429a.657.657,0,0,1,.731-.653l11.623,2.255a.326.326,0,0,1,.289.324" transform="translate(-167.828 -186.051)" fill="#504984"/>
      <path id="Trazado_198512" data-name="Trazado 198512" d="M150.931,193.921h86.513a4.151,4.151,0,0,1,3.906,2.745l18.92,52.543c.791,2.71-1.191,4.74-4.377,5.084-.489.053-2.812-.992-6.462-2.708H172.088a4.151,4.151,0,0,1-3.906-2.745l-17.091-47.464c-2.89-1.509-4.537-2.37-4.537-2.37s-1.07-5.083,4.377-5.083" transform="translate(-76.16 -100.834)" fill="#504984"/>
      <path id="Trazado_198513" data-name="Trazado 198513" d="M234.712,199.563H148.2a1.774,1.774,0,0,0-1.669,2.375l18.92,52.543a4.151,4.151,0,0,0,3.906,2.745h86.513a1.774,1.774,0,0,0,1.669-2.375l-18.92-52.543a4.151,4.151,0,0,0-3.906-2.745" transform="translate(-76.136 -103.767)" fill="#372d5b"/>
      <path id="Trazado_198514" data-name="Trazado 198514" d="M269.735,304.259l-3.84-14.243L251.34,304.259Z" transform="translate(-130.69 -150.8)" fill="#282142"/>
      <path id="Trazado_198515" data-name="Trazado 198515" d="M245.738,234.434a3.533,3.533,0,0,0,3.72,3.3,2.806,2.806,0,0,0,2.871-3.3,3.962,3.962,0,0,0-3.721-3.3,2.817,2.817,0,0,0-2.871,3.3" transform="translate(-127.756 -120.185)" fill="#504984"/>
      <path id="Trazado_198516" data-name="Trazado 198516" d="M329.276,298.127l-1.113-3.089h1.4l1.112,3.089Z" transform="translate(-170.636 -153.411)" fill="#282142"/>
      <path id="Trazado_198517" data-name="Trazado 198517" d="M323.142,298.127l-1.112-3.089h1.4l1.112,3.089Z" transform="translate(-167.446 -153.411)" fill="#282142"/>
      <path id="Trazado_198518" data-name="Trazado 198518" d="M317.006,298.127l-1.113-3.089h1.4l1.112,3.089Z" transform="translate(-164.256 -153.411)" fill="#282142"/>
      <path id="Trazado_198519" data-name="Trazado 198519" d="M310.872,298.127l-1.113-3.089h1.4l1.112,3.089Z" transform="translate(-161.066 -153.411)" fill="#282142"/>
      <path id="Trazado_198520" data-name="Trazado 198520" d="M223.737,298.127l-1.113-3.089h1.4l1.112,3.089Z" transform="translate(-115.758 -153.411)" fill="#282142"/>
      <path id="Trazado_198521" data-name="Trazado 198521" d="M217.6,298.127l-1.113-3.089h1.4L219,298.127Z" transform="translate(-112.569 -153.411)" fill="#282142"/>
      <path id="Trazado_198522" data-name="Trazado 198522" d="M211.468,298.127l-1.113-3.089h1.4l1.112,3.089Z" transform="translate(-109.379 -153.411)" fill="#282142"/>
      <path id="Trazado_198523" data-name="Trazado 198523" d="M205.334,298.127l-1.112-3.089h1.4l1.112,3.089Z" transform="translate(-106.19 -153.411)" fill="#282142"/>
      <path id="Trazado_198524" data-name="Trazado 198524" d="M228.219,316.183c.853-2.455,11.206-35.86,11.206-35.86h13.289l.878,4.652s-8.91,28.753-9.764,31.208q-.1.281-.185.563h0c-.781,2.4,1.28,2.39,3.6,2.39H270.68v2.125H231.634c-4.7,0-4.269-2.623-3.415-5.078" transform="translate(-118.388 -145.76)" fill="#372d5b"/>
      <path id="Trazado_198525" data-name="Trazado 198525" d="M250.2,280.324S239.849,313.73,239,316.184s-1.281,5.078,3.415,5.078H226.8c-4.7,0-4.269-2.623-3.415-5.078s11.206-35.86,11.206-35.86Z" transform="translate(-115.874 -145.761)" fill="#504984"/>
      <path id="Trazado_198526" data-name="Trazado 198526" d="M254.223,280.067c-1.03-.047-2.059-.071-3.089-.1s-2.059-.043-3.089-.066-2.059-.047-3.089-.047l-3.089-.019H241.7l-.053.167c-.431,1.345-.855,2.692-1.26,4.046l-1.231,4.055c-.793,2.712-1.586,5.423-2.311,8.157.951-2.663,1.833-5.347,2.716-8.031l1.282-4.039c.433-1.345.847-2.695,1.254-4.048l-.226.166,3.089-.019c1.03,0,2.059-.03,3.089-.047s2.059-.03,3.089-.066,2.059-.057,3.089-.1" transform="translate(-123.151 -145.504)" fill="#7f74d1"/>
      <path id="Trazado_198527" data-name="Trazado 198527" d="M80.009,373.807H309.148a4.1,4.1,0,0,0,0-8.2H80.009a4.1,4.1,0,0,0,0,8.2" transform="translate(-39.471 -190.105)" fill="#8e5058"/>
      <path id="Trazado_198528" data-name="Trazado 198528" d="M80.009,378.249H309.148a4.1,4.1,0,0,0,4.1-4.1H75.909a4.1,4.1,0,0,0,4.1,4.1" transform="translate(-39.471 -194.547)" fill="#64364a"/>
      <path id="Trazado_198529" data-name="Trazado 198529" d="M110.591,57.87A34.49,34.49,0,1,1,76.1,23.38a34.49,34.49,0,0,1,34.49,34.49" transform="translate(-21.637 -12.157)" fill="#7e5ee3"/>
    </g>
  </g>
  <g id="Grupo_137383" data-name="Grupo 137383" transform="translate(19.974 4.526)">
    <g id="Grupo_137382" data-name="Grupo 137382" clip-path="url(#clip-path-2)">
      <path id="Trazado_198530" data-name="Trazado 198530" d="M190.8,151.579c.655,3.292-2.392,6.216-3.346,6.765s-7.355,3.108-11.2,3.2-8.921-8.044-6.843-8.958,16.227-1.92,17.781-1.92a11.09,11.09,0,0,1,3.61.913" transform="translate(-107.811 -82.868)" fill="#ffc5c7"/>
      <path id="Trazado_198531" data-name="Trazado 198531" d="M166.835,135.875c-1.678,9.872-5.665,17.55-6.909,17.688s-13.195-3.977-16.489-5.485,1.011-24.678,3.062-24.27,6.546,4.859,10.258,6.994,10.078,5.073,10.078,5.073" transform="translate(-93.933 -68.9)" fill="#fff"/>
      <path id="Trazado_198532" data-name="Trazado 198532" d="M150.513,157.5c1.152,1.976,10.649,6.983,15.879,8.809-1.293,2.915-2.511,4.709-3.1,4.775-1.066.117-9.979-2.882-14.588-4.693a70.474,70.474,0,0,1,1.812-8.891" transform="translate(-97.295 -86.422)" fill="#dcedff"/>
      <path id="Trazado_198533" data-name="Trazado 198533" d="M172.383,106.153c.094,3.917-3.434,4.479-7.657,3.473s-11.118-10.512-14.188-14.808-8.8-11.952-9.981-12.637-3.9-1.049-6.224-4.913.733-11.952,1.831-12.912,10.508,2.245,11.6,3.865-.774,10.326-.443,11.423,8.341,10.055,11.837,12.249,13.154,11.426,13.222,14.26" transform="translate(-89.382 -37.898)" fill="#ffc5c7"/>
      <path id="Trazado_198534" data-name="Trazado 198534" d="M147.961,75.138c-1.107-.549-1.374-3.04-.678-2.6s1.914.43,3.562.407a13.892,13.892,0,0,0,2.323-.165,14.268,14.268,0,0,1,.16,1.964s-4.261.944-5.368.4" transform="translate(-96.358 -42.217)" fill="#fe8a8b"/>
      <path id="Trazado_198535" data-name="Trazado 198535" d="M133.662,76.815c.671-1.248,1.189-2.194,1.189-2.194l6.474,6.231a40.752,40.752,0,0,1,3.936-2.936l.57,1.016a20.542,20.542,0,0,0-1.981,6.434s-.994,1.1-1.549,1.188c0,0,6.925,10.969,11.378,16.362,4.426,5.361,7.458,10,9.544,11.489-4.21-2.427-9.952-10.342-12.679-14.159-3.069-4.3-8.8-11.952-9.981-12.637s-3.9-1.049-6.224-4.912c-.922-1.532-.991-3.729-.677-5.883" transform="translate(-89.387 -43.327)" fill="#fe8a8b"/>
      <path id="Trazado_198536" data-name="Trazado 198536" d="M143.291,64.073c-.078.639-6.512,6.216-7.185,6.856a.964.964,0,0,1-.691,0c-1.711-1.5-9.181-15.07-9.315-15.559-.124-.457,4.835-5.123,6.349-6.372a1.336,1.336,0,0,1,1.2.139c1.528,2.263,9.748,14.11,9.647,14.936" transform="translate(-85.541 -29.959)" fill="#0c0835"/>
      <path id="Trazado_198537" data-name="Trazado 198537" d="M141.851,64.127c-.078.639-6.512,6.216-7.185,6.856S124.8,55.953,124.66,55.424c-.125-.457,5.4-5.047,6.911-6.3a.425.425,0,0,1,.633.063c1.528,2.263,9.748,14.11,9.647,14.936" transform="translate(-84.793 -30.013)" fill="#252384"/>
      <path id="Trazado_198538" data-name="Trazado 198538" d="M140.8,63.273c-.073.6-6.092,5.815-6.721,6.414s-9.226-14.06-9.361-14.555c-.117-.427,5.048-4.722,6.465-5.89a.4.4,0,0,1,.593.06c1.43,2.117,9.12,13.2,9.025,13.972" transform="translate(-84.821 -30.075)" fill="#57aff7"/>
      <path id="Trazado_198539" data-name="Trazado 198539" d="M147.61,57.494a7.181,7.181,0,0,1-2.329-3.32c-.11-.685-.042-1.3.493-1.44s2.185,2.011,3.006,2.651,1.822,1.965,1.415,2.857-2.234.548-2.429.411-.156-1.159-.156-1.159" transform="translate(-95.493 -31.943)" fill="#ffc5c7"/>
      <path id="Trazado_198540" data-name="Trazado 198540" d="M145.466,53.116c-.316.779,1.742,3.907,3.546,4.807l-.671.767s-.3-.068-.7-.16a5.428,5.428,0,0,1-.036-.835,7.18,7.18,0,0,1-2.329-3.32,1.529,1.529,0,0,1,.185-1.259" transform="translate(-95.494 -32.145)" fill="#fe8a8b"/>
      <path id="Trazado_198541" data-name="Trazado 198541" d="M149.768,65.665c-1.715-.916-3.059-.813-3.991-1.19s-1.1-1.817-.467-2.057,4.5.377,5.493.823,1.472,2.5,1.472,2.5Z" transform="translate(-95.335 -36.954)" fill="#ffc5c7"/>
      <path id="Trazado_198542" data-name="Trazado 198542" d="M149.08,65.837a2.19,2.19,0,0,0,1.3,0c-.028.379.33.568.733,1.107l-1.285-.038c-1.714-.916-3.058-.813-3.99-1.19a1.388,1.388,0,0,1-.787-.964c.415.79,3.063.9,4.027,1.086" transform="translate(-95.398 -38.194)" fill="#fe8a8b"/>
      <path id="Trazado_198543" data-name="Trazado 198543" d="M154.906,70.845c-.915,1.266-5.4.717-6.3.58s-1.472-.708-1.379-1.284c.186-1.161,6.113-.956,6.6-.773s1.081,1.477,1.081,1.477" transform="translate(-96.521 -40.521)" fill="#ffc5c7"/>
      <path id="Trazado_198544" data-name="Trazado 198544" d="M147.3,71.714A6.645,6.645,0,0,0,151,72.8a15.048,15.048,0,0,0,2.377.042,18.479,18.479,0,0,1-4.723-.124,1.491,1.491,0,0,1-1.347-1" transform="translate(-96.567 -41.815)" fill="#fe8a8b"/>
      <path id="Trazado_198545" data-name="Trazado 198545" d="M87.389,105.951c9.519,4.844,11.081,4.657,15.17,6.855s2.872,25.321,2.613,28.886-1.245,17.733-.7,21.572,2.659,18.1,3.6,20.293,2.725,5.9-.04,8.089-8.615,3.7-21.315,2.88-26.392-8.638-27-9.735,6.071-21.253,6.351-25.092a51.625,51.625,0,0,1,1.441-8.5c.4-1.782-3.636-10.146-4.282-15.493s-6.455-20.1-5.354-22.8,11.221-5.712,18.111-9.149a9.285,9.285,0,0,1,11.408,2.2" transform="translate(-49.993 -57.898)" fill="#fff"/>
      <path id="Trazado_198546" data-name="Trazado 198546" d="M113.588,122.025a26.538,26.538,0,0,1-9,13.105,40.346,40.346,0,0,1-14.619-6.754,61.3,61.3,0,0,0,15.372,8.393,22.563,22.563,0,0,0,8.251-14.745" transform="translate(-66.754 -67.975)" fill="#dcedff"/>
      <path id="Trazado_198547" data-name="Trazado 198547" d="M106.175,109.5c-1.828-.78-4.178-1.856-7.494-3.544a9.285,9.285,0,0,0-11.408-2.2c-2.391,1.192-5.17,2.333-7.826,3.428a34.419,34.419,0,0,0,18.432,15.044,24.317,24.317,0,0,0,8.3-12.731" transform="translate(-61.284 -57.898)" fill="#ffc5c7"/>
      <path id="Trazado_198548" data-name="Trazado 198548" d="M61.819,213.315c-.606-1.1,6.071-21.252,6.351-25.092a51.544,51.544,0,0,1,1.442-8.5c.4-1.783-3.637-10.146-4.282-15.494a28.636,28.636,0,0,0-.743-3.531l4.292-3.2c2.517,7.021,4.087,19.361,6.473,22.378s8.329,4.25,8.329,4.25-5.87,1.371-8.43.823c0,0-2.733,10.832-2.764,16.179s.466,13.437.529,14.534c.024.41-.067,1.837-.19,3.465-6.151-2.435-10.664-5.2-11.007-5.815" transform="translate(-52.098 -86.422)" fill="#dcedff"/>
      <path id="Trazado_198549" data-name="Trazado 198549" d="M96.113,84.666c-.1,5.721-.476,9.652-1.744,10.749,0,0,2.18,9.494,10.886,8.684,2.945-.275,2.665-5.21,1.186-7.5l.876-7.018Z" transform="translate(-69.044 -48.55)" fill="#ffc5c7"/>
      <path id="Trazado_198550" data-name="Trazado 198550" d="M95.75,94.407h0c.745-1.755,1-5.175,1.081-9.741l11.2,4.92-.562,4.5c-1.985.891-11.722.321-11.722.321" transform="translate(-69.762 -48.55)" fill="#fe8a8b"/>
      <path id="Trazado_198551" data-name="Trazado 198551" d="M29.666,181.066c-1.93,2.651-4.511,9.232-3.542,12.249s10.96,16.453,15.53,21.481,5.607,5.85,6.4,7.5,4.688,8.432,5.71,9.46a5.158,5.158,0,0,0,2.863,1.166,4.869,4.869,0,0,0,4.012,1.234,15.153,15.153,0,0,0,4.117,1.988s.6,1.164,1.21,1.268,1.385-1.131.262-3.6-2.968-3.5-3.264-5.073a32.2,32.2,0,0,0-1.724-4.794s3.2,3.285,5.178,3.491,2.238-.96,1.155-1.92a25.049,25.049,0,0,1-3.791-4.251,7.537,7.537,0,0,0-5.441-3.427c-2.512-.343-4.274-.617-4.925-1.1s-3.934-5.142-6.179-10.169-4.254-11.452-9.959-17.093l2.513-4.387Z" transform="translate(-33.449 -98.675)" fill="#ffc5c7"/>
      <path id="Trazado_198552" data-name="Trazado 198552" d="M101.474,287.467a10.563,10.563,0,0,0-2.364-3.632l-.39-.383c-.115-.12-.318-.27-.363-.341-.2-.251-.367-.58-.556-.878-.362-.616-.714-1.245-1.114-1.85a15.3,15.3,0,0,0,.734,2.062,6.184,6.184,0,0,0,.51,1,4.129,4.129,0,0,0,.4.41l.367.379c.493.506.961,1.038,1.432,1.568s.906,1.091,1.341,1.67" transform="translate(-70.25 -150.317)" fill="#fe8a8b"/>
      <path id="Trazado_198553" data-name="Trazado 198553" d="M95.434,286.21c-.378-.738-.826-1.378-1.226-2.051-.419-.664-.79-1.329-1.171-2.062a4.257,4.257,0,0,0,.7,2.373,5.441,5.441,0,0,0,1.7,1.74" transform="translate(-68.349 -151.208)" fill="#fe8a8b"/>
      <path id="Trazado_198554" data-name="Trazado 198554" d="M86.221,285.185a4.486,4.486,0,0,1-1.9-1.052,5.161,5.161,0,0,1-2.863-1.165,26.6,26.6,0,0,1-2.285-3.406c.021.025,1.17,1.273,2,2.3a2.788,2.788,0,0,0,2.833.971l-.224-1.337s1.11,3.034,2.443,3.686" transform="translate(-61.142 -149.89)" fill="#fe8a8b"/>
      <path id="Trazado_198555" data-name="Trazado 198555" d="M26.084,199.6c.054,1.251.069,2.246,1.925,5.528,2.089,3.695,14.64,19.264,17.378,22.144s2.656,3.063,4.278,7.612c-.732-1.286-1.343-2.407-1.607-2.956-.794-1.645-1.831-2.468-6.4-7.5S27.1,205.969,26.127,202.953a7.506,7.506,0,0,1-.042-3.352" transform="translate(-33.452 -108.313)" fill="#fe8a8b"/>
      <path id="Trazado_198556" data-name="Trazado 198556" d="M45.654,191.817l-1.02,1.7a5.822,5.822,0,0,1,2.38,1.412L49,191.552Z" transform="translate(-43.183 -104.127)" fill="#fe8a8b"/>
      <path id="Trazado_198557" data-name="Trazado 198557" d="M45.711,147.3c2.621-5.154,3.671-13.522,1.3-17.927s-6.832-5.99-7.928-5.462-4.062,7.4-6.848,10.571S21.848,146.552,21.618,147.3s5.5,6.793,16.273,11.232c1.283.529,7.821-11.232,7.821-11.232" transform="translate(-31.212 -68.906)" fill="#fff"/>
      <path id="Trazado_198558" data-name="Trazado 198558" d="M49.86,168.827l-1.719,3.525s8.468-8.489,11.983-14.823a25.48,25.48,0,0,1-2.271,7.3s-6.538,11.761-7.821,11.232c-1.844-.76-3.528-1.567-5.071-2.386Z" transform="translate(-43.352 -86.436)" fill="#dcedff"/>
      <path id="Trazado_198559" data-name="Trazado 198559" d="M97.641,49.484a39.136,39.136,0,0,1-.71-7.183c-.105-1.8-.2-3.454-1.834-4.533a6.058,6.058,0,0,0-4.1-.765c-3.783.48-4.6,4.166-4.306,7.656a25.691,25.691,0,0,0,2.3,7.694,5.858,5.858,0,0,1-4.121-1.948,8.25,8.25,0,0,0,2.184,4c-4.031-.069-7.773-2.707-9.908-6.25a21.15,21.15,0,0,1-2.585-12.038A24.023,24.023,0,0,1,79.431,22.4a17.629,17.629,0,0,1,25.237-1.971,18.148,18.148,0,0,1,5.185,8.589,28.574,28.574,0,0,1,.237,13.344,45.922,45.922,0,0,0-.737,5.194c-.056.563-.738,7.094-.343,7.07-2.547.155-5.472-.36-7.2-2.306.773,1.337,1.441,2.625,2.214,3.962-3.216-.535-5.579-3.531-6.386-6.8" transform="translate(-58.721 -12.855)" fill="#372d5b"/>
      <path id="Trazado_198560" data-name="Trazado 198560" d="M90.755,50.458c-1.138-.673-2.505-1.037-3.56.033-1.554,1.577.654,8.912,4.006,7.13,0,0,4.854,6.787,8.416,8.707s6.1.96,7.434-.411,5.883-7,6.7-12.957c.292-2.125-.021-6.307.044-7.2.2-2.742,1.239-4.993-.924-7.145a12.521,12.521,0,0,0-8.292-3.6,13.391,13.391,0,0,0-10.328,4.518c-2.839,3.216-3.331,6.848-3.5,10.924" transform="translate(-65.049 -22.73)" fill="#ffc5c7"/>
      <path id="Trazado_198561" data-name="Trazado 198561" d="M88.892,70.108c.29-1.344,1.436-1.609,2.289-.672.874.96,1.021,4,.8,4.448s-1.726.416-2.011-.512.59-1.51,1.434-1.235a3.179,3.179,0,0,0-.454-2.227c-.69-.872-1.409-.538-1.585-.314a6.918,6.918,0,0,1-.469.512" transform="translate(-66.196 -40.342)" fill="#fe8a8b"/>
      <path id="Trazado_198562" data-name="Trazado 198562" d="M108.22,56.9a11.738,11.738,0,0,1,1.03-.849,7.186,7.186,0,0,1,1.163-.69,3.816,3.816,0,0,1,1.289-.434,2.688,2.688,0,0,1,1.309.173l-.006.061a6.5,6.5,0,0,1-.634.2l-.6.167c-.393.116-.8.151-1.2.283a8.864,8.864,0,0,0-1.172.494c-.388.189-.763.414-1.142.638Z" transform="translate(-76.246 -33.078)" fill="#3f1751"/>
      <path id="Trazado_198563" data-name="Trazado 198563" d="M134.482,54.6a4.419,4.419,0,0,0-1.16-.421,6.37,6.37,0,0,0-1.226-.146c-.415-.009-.828.076-1.238.073a11.914,11.914,0,0,1-1.282-.032l-.013-.059a3.17,3.17,0,0,1,1.277-.521,3.836,3.836,0,0,1,1.334.048,5.26,5.26,0,0,1,1.261.342,3.973,3.973,0,0,1,1.085.664Z" transform="translate(-87.344 -32.321)" fill="#3f1751"/>
      <path id="Trazado_198564" data-name="Trazado 198564" d="M115.347,63c-.015-.58-.307-1.022-.652-.989s-.612.532-.6,1.112.307,1.022.652.989.612-.532.6-1.112" transform="translate(-79.302 -36.769)" fill="#3f1751"/>
      <path id="Trazado_198565" data-name="Trazado 198565" d="M134.672,61.464c-.015-.58-.256-1.028-.538-1s-.5.52-.483,1.1.256,1.028.538,1,.5-.52.483-1.1" transform="translate(-89.468 -35.964)" fill="#3f1751"/>
      <path id="Trazado_198566" data-name="Trazado 198566" d="M122.675,75.785a2.59,2.59,0,0,0,2.828-.029,1.307,1.307,0,0,1-.733,1.041,1.745,1.745,0,0,1-1.314-.071c-.4-.183-.529-.585-.781-.941" transform="translate(-83.762 -43.917)" fill="#fe8a8b"/>
      <path id="Trazado_198567" data-name="Trazado 198567" d="M116.055,82.324a79.24,79.24,0,0,0,8.01-.535c-.591,1.937-2.141,3.851-4.306,3.852a4.057,4.057,0,0,1-3.7-3.317" transform="translate(-80.32 -47.054)" fill="#c31f2a"/>
      <path id="Trazado_198568" data-name="Trazado 198568" d="M119.71,88.042a3.422,3.422,0,0,1,1.846-.018,2.958,2.958,0,0,1,2.481-.243,3.75,3.75,0,0,1-2.378.893,3.287,3.287,0,0,1-1.949-.633" transform="translate(-82.22 -50.087)" fill="#fb8384"/>
      <path id="Trazado_198569" data-name="Trazado 198569" d="M123.616,83.495a9.345,9.345,0,0,1-5.873-.228c-.012-.286-.034-.574-.056-.863,1.89-.04,4.951-.269,6.588-.452a5.478,5.478,0,0,1-.66,1.542" transform="translate(-81.168 -47.139)" fill="#fff"/>
      <path id="Trazado_198570" data-name="Trazado 198570" d="M94.162,38.188a26.7,26.7,0,0,0,9.1-2.019,10.306,10.306,0,0,0,.649-3.775,10.949,10.949,0,0,1,1.33,4.684c1.817-.118,3.642-.216,5.458-.334a11.324,11.324,0,0,0,.49-4.446,19.263,19.263,0,0,1,1.131,4.779c1.1-.39,2.486.179,3.632.384,1.419-3.162,1.326-8.892-1.676-11.29-2.925-2.336-8-2.972-11.579-2.454-7.6,1.1-13.579,7.414-13.107,15.279a18.393,18.393,0,0,0,5.748,11.858,18.191,18.191,0,0,1-1.173-12.666" transform="translate(-66.544 -16.77)" fill="#372d5b"/>
    </g>
  </g>
  <g id="Grupo_137385" data-name="Grupo 137385">
    <g id="Grupo_137384" data-name="Grupo 137384" clip-path="url(#clip-path)">
      <path id="Trazado_198572" data-name="Trazado 198572" d="M214.827,78.279a20.057,20.057,0,1,0,20.057-20.057,20.057,20.057,0,0,0-20.057,20.057" transform="translate(-111.704 -30.274)" fill="#ff9d00"/>
      <path id="Trazado_198573" data-name="Trazado 198573" d="M234.216,99.351h19.79a1.645,1.645,0,0,0,1.645-1.645V85.293a1.645,1.645,0,0,0-1.645-1.645h-19.79a1.645,1.645,0,0,0-1.645,1.645V97.707a1.645,1.645,0,0,0,1.645,1.645" transform="translate(-120.93 -43.495)" fill="#8cbcfa"/>
      <path id="Trazado_198574" data-name="Trazado 198574" d="M234.216,106.719h19.79a1.645,1.645,0,0,0,1.645-1.645L244.11,97.818l-11.539,7.257a1.645,1.645,0,0,0,1.645,1.645" transform="translate(-120.93 -50.863)" fill="#cddcf4"/>
      <path id="Trazado_198575" data-name="Trazado 198575" d="M234.216,83.648h19.79a1.645,1.645,0,0,1,1.645,1.645L244.11,92.549l-11.539-7.257a1.645,1.645,0,0,1,1.645-1.645" transform="translate(-120.93 -43.495)" fill="#7e5ee3"/>
      <path id="Trazado_198576" data-name="Trazado 198576" d="M511.052,138.4a20.057,20.057,0,1,0,20.057-20.057A20.057,20.057,0,0,0,511.052,138.4" transform="translate(-265.733 -61.537)" fill="#ff9d00"/>
      <path id="Trazado_198577" data-name="Trazado 198577" d="M544.4,143.366h-2.017a7.172,7.172,0,0,0-.917-2.21l1.427-1.427a.5.5,0,0,0,0-.705l-1.586-1.586a.5.5,0,0,0-.7,0l-1.427,1.427a7.177,7.177,0,0,0-2.21-.917v-2.016a.5.5,0,0,0-.5-.5h-2.243a.5.5,0,0,0-.5.5v2.016a7.172,7.172,0,0,0-2.21.917l-1.428-1.427a.5.5,0,0,0-.7,0l-1.586,1.586a.5.5,0,0,0,0,.705l1.427,1.427a7.171,7.171,0,0,0-.917,2.21h-2.016a.5.5,0,0,0-.5.5v2.243a.5.5,0,0,0,.5.5H528.3a7.176,7.176,0,0,0,.917,2.21l-1.427,1.427a.5.5,0,0,0,0,.7l1.586,1.586a.5.5,0,0,0,.7,0l1.428-1.427a7.167,7.167,0,0,0,2.21.917v2.017a.5.5,0,0,0,.5.5h2.243a.5.5,0,0,0,.5-.5v-2.017a7.177,7.177,0,0,0,2.21-.917l1.427,1.427a.5.5,0,0,0,.7,0l1.586-1.586a.5.5,0,0,0,0-.7l-1.427-1.427a7.177,7.177,0,0,0,.917-2.21H544.4a.5.5,0,0,0,.5-.5v-2.243a.5.5,0,0,0-.5-.5m-9.055,4.714a3.094,3.094,0,1,1,3.095-3.095,3.095,3.095,0,0,1-3.095,3.095" transform="translate(-273.396 -70.421)" fill="#8cbcfa"/>
      <path id="Trazado_198578" data-name="Trazado 198578" d="M541.025,146.36a4.308,4.308,0,1,0,4.308,4.308,4.308,4.308,0,0,0-4.308-4.308m0,6.938a2.631,2.631,0,1,1,2.631-2.631,2.631,2.631,0,0,1-2.631,2.631" transform="translate(-279.078 -76.103)" fill="#7e5ee3"/>
      <path id="Trazado_198579" data-name="Trazado 198579" d="M572.2,165.973h-1.03a3.658,3.658,0,0,0-.468-1.129l.729-.729a.255.255,0,0,0,0-.36l-.81-.81a.255.255,0,0,0-.36,0l-.729.729a3.677,3.677,0,0,0-1.129-.469v-1.03a.255.255,0,0,0-.254-.255H567a.255.255,0,0,0-.255.255v1.03a3.681,3.681,0,0,0-1.129.469l-.729-.729a.255.255,0,0,0-.36,0l-.81.81a.255.255,0,0,0,0,.36l.729.729a3.658,3.658,0,0,0-.469,1.129h-1.03a.254.254,0,0,0-.254.254v1.146a.254.254,0,0,0,.254.254h1.03a3.666,3.666,0,0,0,.469,1.13l-.729.729a.255.255,0,0,0,0,.36l.81.81a.254.254,0,0,0,.36,0l.729-.729a3.669,3.669,0,0,0,1.129.469v1.03a.255.255,0,0,0,.255.254h1.146a.254.254,0,0,0,.254-.254V170.4a3.659,3.659,0,0,0,1.129-.469l.729.729a.254.254,0,0,0,.36,0l.81-.81a.255.255,0,0,0,0-.36l-.729-.729a3.666,3.666,0,0,0,.468-1.13h1.03a.255.255,0,0,0,.255-.254v-1.146a.255.255,0,0,0-.255-.254m-4.626,2.408a1.581,1.581,0,1,1,1.581-1.581,1.581,1.581,0,0,1-1.581,1.581" transform="translate(-292.585 -84.194)" fill="#8cbcfa"/>
      <path id="Trazado_198580" data-name="Trazado 198580" d="M570.476,167.5a2.2,2.2,0,1,0,2.2,2.2,2.2,2.2,0,0,0-2.2-2.2m0,3.545a1.344,1.344,0,1,1,1.344-1.344,1.344,1.344,0,0,1-1.344,1.344" transform="translate(-295.488 -87.096)" fill="#7e5ee3"/>
      <path id="Trazado_198581" data-name="Trazado 198581" d="M322.555,20.057A20.057,20.057,0,1,0,342.612,0a20.057,20.057,0,0,0-20.057,20.057" transform="translate(-167.72)" fill="#ff9d00"/>
      <path id="Trazado_198582" data-name="Trazado 198582" d="M341.885,41.878h19.908a1.586,1.586,0,0,0,1.586-1.586V23.73a1.586,1.586,0,0,0-1.586-1.586H341.885A1.586,1.586,0,0,0,340.3,23.73V40.293a1.586,1.586,0,0,0,1.586,1.586" transform="translate(-176.946 -11.514)" fill="#fff"/>
      <path id="Trazado_198583" data-name="Trazado 198583" d="M340.3,26.275h23.079V23.731a1.586,1.586,0,0,0-1.586-1.586H341.885a1.586,1.586,0,0,0-1.586,1.586Z" transform="translate(-176.946 -11.515)" fill="#7e5ee3"/>
      <path id="Trazado_198584" data-name="Trazado 198584" d="M376.385,22.071h0a.468.468,0,0,0,.468-.468v-.825a.468.468,0,1,0-.936,0V21.6a.468.468,0,0,0,.468.468" transform="translate(-195.466 -10.561)" fill="#fff"/>
      <path id="Trazado_198585" data-name="Trazado 198585" d="M379.173,22.071h0a.468.468,0,0,0,.468-.468v-.825a.468.468,0,0,0-.936,0V21.6a.468.468,0,0,0,.468.468" transform="translate(-196.916 -10.561)" fill="#fff"/>
      <path id="Trazado_198586" data-name="Trazado 198586" d="M348.489,22.071h0a.468.468,0,0,0,.468-.468v-.825a.468.468,0,0,0-.936,0V21.6a.468.468,0,0,0,.468.468" transform="translate(-180.961 -10.561)" fill="#fff"/>
      <path id="Trazado_198587" data-name="Trazado 198587" d="M351.276,22.071h0a.468.468,0,0,0,.468-.468v-.825a.468.468,0,1,0-.936,0V21.6a.468.468,0,0,0,.468.468" transform="translate(-182.411 -10.561)" fill="#fff"/>
      <path id="Trazado_198588" data-name="Trazado 198588" d="M366.96,37.863H368.2a.381.381,0,0,0,.38-.381V36.245a.381.381,0,0,0-.38-.381H366.96a.381.381,0,0,0-.381.381v1.238a.381.381,0,0,0,.381.381" transform="translate(-190.611 -18.648)" fill="#8cbcfa"/>
      <path id="Trazado_198589" data-name="Trazado 198589" d="M357.049,37.863h1.238a.381.381,0,0,0,.38-.381V36.245a.381.381,0,0,0-.38-.381h-1.238a.381.381,0,0,0-.381.381v1.238a.381.381,0,0,0,.381.381" transform="translate(-185.458 -18.648)" fill="#8cbcfa"/>
      <path id="Trazado_198590" data-name="Trazado 198590" d="M347.139,37.863h1.238a.381.381,0,0,0,.38-.381V36.245a.381.381,0,0,0-.38-.381h-1.238a.381.381,0,0,0-.381.381v1.238a.381.381,0,0,0,.381.381" transform="translate(-180.305 -18.648)" fill="#8cbcfa"/>
      <path id="Trazado_198591" data-name="Trazado 198591" d="M376.871,46.4h1.238a.381.381,0,0,0,.38-.381V44.779a.381.381,0,0,0-.381-.381h-1.238a.381.381,0,0,0-.381.381v1.238a.381.381,0,0,0,.381.381" transform="translate(-195.764 -23.086)" fill="#8cbcfa"/>
      <path id="Trazado_198592" data-name="Trazado 198592" d="M366.96,46.4H368.2a.381.381,0,0,0,.38-.381V44.779a.381.381,0,0,0-.38-.381H366.96a.381.381,0,0,0-.381.381v1.238a.381.381,0,0,0,.381.381" transform="translate(-190.611 -23.086)" fill="#8cbcfa"/>
      <path id="Trazado_198593" data-name="Trazado 198593" d="M357.049,46.4h1.238a.381.381,0,0,0,.381-.381V44.779a.381.381,0,0,0-.38-.381h-1.238a.381.381,0,0,0-.381.381v1.238a.381.381,0,0,0,.381.381" transform="translate(-185.458 -23.086)" fill="#8cbcfa"/>
      <path id="Trazado_198594" data-name="Trazado 198594" d="M347.139,46.4h1.238a.381.381,0,0,0,.38-.381V44.779a.381.381,0,0,0-.38-.381h-1.238a.381.381,0,0,0-.381.381v1.238a.381.381,0,0,0,.381.381" transform="translate(-180.305 -23.086)" fill="#8cbcfa"/>
      <path id="Trazado_198595" data-name="Trazado 198595" d="M376.871,54.931h1.238a.381.381,0,0,0,.38-.381V53.313a.381.381,0,0,0-.381-.381h-1.238a.381.381,0,0,0-.381.381v1.238a.381.381,0,0,0,.381.381" transform="translate(-195.764 -27.523)" fill="#8cbcfa"/>
      <path id="Trazado_198596" data-name="Trazado 198596" d="M366.96,54.931H368.2a.381.381,0,0,0,.38-.381V53.313a.381.381,0,0,0-.38-.381H366.96a.381.381,0,0,0-.381.381v1.238a.381.381,0,0,0,.381.381" transform="translate(-190.611 -27.523)" fill="#8cbcfa"/>
      <path id="Trazado_198597" data-name="Trazado 198597" d="M357.049,54.931h1.238a.381.381,0,0,0,.381-.381V53.313a.381.381,0,0,0-.381-.381h-1.238a.381.381,0,0,0-.381.381v1.238a.381.381,0,0,0,.381.381" transform="translate(-185.458 -27.523)" fill="#8cbcfa"/>
      <path id="Trazado_198598" data-name="Trazado 198598" d="M482.28,41.53a20.057,20.057,0,1,1-20.057-20.057A20.057,20.057,0,0,1,482.28,41.53" transform="translate(-229.914 -11.165)" fill="#ff9d00"/>
      <path id="Trazado_198599" data-name="Trazado 198599" d="M482.806,48.375a13.737,13.737,0,1,1-13.737-13.737,13.738,13.738,0,0,1,13.737,13.737" transform="translate(-236.76 -18.011)" fill="#fff"/>
      <path id="Trazado_198600" data-name="Trazado 198600" d="M469.067,34.637a13.738,13.738,0,1,0,13.738,13.738,13.738,13.738,0,0,0-13.738-13.738m1.152,25.442V58.2a.632.632,0,0,0-.632-.632h-1.04a.632.632,0,0,0-.632.632v1.876a11.763,11.763,0,0,1-10.552-10.552h1.876a.632.632,0,0,0,.632-.632v-1.04a.632.632,0,0,0-.632-.632h-1.876A11.763,11.763,0,0,1,467.916,36.67v1.876a.632.632,0,0,0,.632.632h1.04a.632.632,0,0,0,.632-.632V36.67a11.763,11.763,0,0,1,10.552,10.552H478.9a.632.632,0,0,0-.632.632v1.04a.632.632,0,0,0,.632.632h1.876a11.763,11.763,0,0,1-10.552,10.552" transform="translate(-236.759 -18.01)" fill="#7e5ee3"/>
    </g>
  </g>
  <text id="_24_7" data-name="24/7" transform="translate(225.52 32.518)" fill="#7e5ee3" font-size="8" font-family="BebasKai, Bebas Kai"><tspan x="0" y="0" letter-spacing="0.007em">2</tspan><tspan y="0" letter-spacing="-0.003em">4</tspan><tspan y="0" letter-spacing="0.02em">/</tspan><tspan y="0">7</tspan></text>
</svg>
