<svg id="Grupo_137418" data-name="Grupo 137418" xmlns="http://www.w3.org/2000/svg" xmlns:xlink="http://www.w3.org/1999/xlink" width="295" height="178.167" viewBox="0 0 295 178.167">
  <defs>
    <clipPath id="clip-path">
      <rect id="Rectángulo_43848" data-name="Rectángulo 43848" width="295" height="178.167" fill="none"/>
    </clipPath>
    <clipPath id="clip-path-5">
      <rect id="Rectángulo_43838" data-name="Rectángulo 43838" width="14.913" height="4.629" fill="none"/>
    </clipPath>
    <clipPath id="clip-path-6">
      <rect id="Rectángulo_43839" data-name="Rectángulo 43839" width="31.818" height="15.867" fill="none"/>
    </clipPath>
    <clipPath id="clip-path-7">
      <rect id="Rectángulo_43840" data-name="Rectángulo 43840" width="22.406" height="5.423" fill="none"/>
    </clipPath>
    <clipPath id="clip-path-9">
      <rect id="Rectángulo_43842" data-name="Rectángulo 43842" width="23.641" height="19.627" fill="none"/>
    </clipPath>
    <clipPath id="clip-path-10">
      <rect id="Rectángulo_43843" data-name="Rectángulo 43843" width="15.789" height="6.019" fill="none"/>
    </clipPath>
    <clipPath id="clip-path-11">
      <rect id="Rectángulo_43844" data-name="Rectángulo 43844" width="13.431" height="11.061" fill="none"/>
    </clipPath>
  </defs>
  <g id="Grupo_137417" data-name="Grupo 137417" clip-path="url(#clip-path)">
    <g id="Grupo_137388" data-name="Grupo 137388">
      <g id="Grupo_137387" data-name="Grupo 137387" clip-path="url(#clip-path)">
        <path id="Trazado_198601" data-name="Trazado 198601" d="M564.443,311.118c-10.559-6.467-13.65-19.467-13.963-31.3-.052-1.976-.394-4.041.439-5.828s2.951-3.1,4.766-2.376c1.505.6,2.246,2.265,3.15,3.624a11.555,11.555,0,0,0,4.89,4.137,4.4,4.4,0,0,0,4.07.122c1.644-1.041,1.7-3.4,1.572-5.363q-.365-5.48-.73-10.959a18.319,18.319,0,0,1,.24-5.86,6.093,6.093,0,0,1,3.575-4.343,3.7,3.7,0,0,1,4.715,2.2,18.151,18.151,0,0,1,.2,2.438,2.067,2.067,0,0,0,1.324,1.869,2.376,2.376,0,0,0,2.1-1.03,26.123,26.123,0,0,0,4.254-7.349,36.257,36.257,0,0,1,3.926-7.556,10.624,10.624,0,0,1,6.941-4.463c2.8-.328,5.9,1.224,6.771,3.938s-.565,5.624-2.185,7.967a43.844,43.844,0,0,1-8.589,9.237,3.607,3.607,0,0,0-1.425,1.731c-.347,1.333.97,2.556,2.287,2.908a22.728,22.728,0,0,0,4.607.239c1.539.088,3.237.662,3.9,2.072.924,1.955-.625,4.157-2.191,5.632a37.557,37.557,0,0,1-10.71,7.075,12.678,12.678,0,0,0-4,2.253,3.636,3.636,0,0,0-.911,4.227c.787,1.34,2.617,1.673,4.111,1.3a26.143,26.143,0,0,0,4.2-1.9c2.633-1.179,6.124-1.2,7.99,1.021a6.215,6.215,0,0,1,.991,5.447,14.32,14.32,0,0,1-2.68,5.025,37.766,37.766,0,0,1-15.416,12.285c-6.12,2.545-11.876,3.481-18.225,1.584" transform="translate(-309.451 -134.4)" fill="#f5f5f5"/>
        <path id="Trazado_198602" data-name="Trazado 198602" d="M588.467,305.409a175.938,175.938,0,0,1,5.832-19.337l1.789-4.99c.591-1.637,1.177-3.259,1.848-4.811a87.813,87.813,0,0,1,4.369-8.7c1.523-2.7,3.067-5.2,4.527-7.537s2.874-4.476,4.24-6.378a69.768,69.768,0,0,1,7.109-8.483c.914-.932,1.647-1.632,2.151-2.1l.576-.528a1.489,1.489,0,0,1,.2-.171,1.334,1.334,0,0,1-.179.2l-.551.555c-.486.485-1.2,1.2-2.1,2.146a73.777,73.777,0,0,0-7,8.535c-1.349,1.905-2.741,4.055-4.194,6.389s-2.981,4.845-4.493,7.542a88.924,88.924,0,0,0-4.331,8.672c-.665,1.544-1.244,3.153-1.836,4.794s-1.183,3.3-1.787,4.988a180.335,180.335,0,0,0-5.849,19.29" transform="translate(-330.873 -136.279)" fill="#d7e8fd"/>
        <path id="Trazado_198603" data-name="Trazado 198603" d="M604.979,292.274a4,4,0,0,1-.242-.825c-.136-.536-.307-1.317-.5-2.285-.395-1.935-.85-4.627-1.339-7.6s-.981-5.649-1.4-7.572c-.209-.963-.386-1.74-.516-2.276a3.929,3.929,0,0,1-.161-.844,3.945,3.945,0,0,1,.3.807c.171.526.387,1.3.628,2.254.489,1.916,1.023,4.6,1.512,7.571l1.235,7.61c.154.914.285,1.685.39,2.3a3.9,3.9,0,0,1,.1.854" transform="translate(-337.812 -152.303)" fill="#d7e8fd"/>
        <path id="Trazado_198604" data-name="Trazado 198604" d="M635.26,305.507a5.376,5.376,0,0,1-1,.182c-.643.1-1.575.231-2.72.435-2.294.389-5.444,1.036-8.888,1.9s-6.526,1.8-8.736,2.528c-1.108.358-2,.672-2.613.885a5.507,5.507,0,0,1-.969.3,5.349,5.349,0,0,1,.919-.434c.6-.255,1.48-.606,2.58-1,2.2-.8,5.277-1.761,8.731-2.638a89.028,89.028,0,0,1,8.936-1.8c1.154-.172,2.094-.268,2.745-.321a5.429,5.429,0,0,1,1.014-.04" transform="translate(-343.169 -171.769)" fill="#d7e8fd"/>
        <path id="Trazado_198605" data-name="Trazado 198605" d="M570.31,344.9a1.282,1.282,0,0,1-.191-.3l-.486-.886c-.418-.771-1-1.9-1.69-3.311-1.391-2.814-3.189-6.763-5.115-11.146s-3.686-8.345-5.016-11.185l-1.585-3.359-.426-.917a1.281,1.281,0,0,1-.127-.331,1.334,1.334,0,0,1,.192.3l.486.885c.419.771,1,1.9,1.69,3.311,1.391,2.815,3.189,6.763,5.115,11.148s3.685,8.343,5.015,11.183l1.585,3.358.426.917a1.305,1.305,0,0,1,.126.331" transform="translate(-312.434 -176.251)" fill="#d7e8fd"/>
        <path id="Trazado_198606" data-name="Trazado 198606" d="M621.959,355.985a1.37,1.37,0,0,1-.324.157l-.953.385-3.517,1.379c-2.97,1.165-7.052,2.821-11.562,4.658s-8.613,3.457-11.607,4.561c-1.5.552-2.713.987-3.559,1.27l-.976.32a1.328,1.328,0,0,1-.349.088,1.377,1.377,0,0,1,.324-.158l.953-.384,3.516-1.379c2.97-1.165,7.053-2.821,11.563-4.658s8.611-3.456,11.605-4.56c1.5-.552,2.713-.987,3.56-1.27l.977-.32a1.315,1.315,0,0,1,.349-.088" transform="translate(-331.236 -200.156)" fill="#d7e8fd"/>
        <path id="Trazado_198607" data-name="Trazado 198607" d="M586.607,90.854c-1.8,4.508-4.684,11.8-6.007,15.145a1.925,1.925,0,0,0,1.079,2.5L594,113.4a1.926,1.926,0,0,0,2.5-1.077l5.976-15a4.276,4.276,0,0,0-2.39-5.555l.879-2.207L592.9,86.345l-.831,2.087-.03-.011a4.276,4.276,0,0,0-5.429,2.433" transform="translate(-326.373 -48.549)" fill="#f5f5f5"/>
        <path id="Trazado_198608" data-name="Trazado 198608" d="M608.1,86.986l-.4,1,7.952,3.5.513-1.29Z" transform="translate(-341.685 -48.909)" fill="#d7e8fd"/>
        <path id="Trazado_198609" data-name="Trazado 198609" d="M615.4,86.627l-8.381-3.338a.845.845,0,0,1-.472-1.1l.8-2a1.31,1.31,0,0,1,1.7-.732l7.518,2.995a1.309,1.309,0,0,1,.732,1.7l-.8,2a.845.845,0,0,1-1.1.472" transform="translate(-341.004 -44.623)" fill="#eef5ff"/>
        <path id="Trazado_198610" data-name="Trazado 198610" d="M608.795,83.69a10.113,10.113,0,0,1,.688-2.035,10.241,10.241,0,0,1,.9-1.951,10.221,10.221,0,0,1-.688,2.035,10.2,10.2,0,0,1-.9,1.951" transform="translate(-342.298 -44.815)" fill="#d7e8fd"/>
        <path id="Trazado_198611" data-name="Trazado 198611" d="M611.223,84.657a10.19,10.19,0,0,1,.688-2.035,10.187,10.187,0,0,1,.9-1.951,10.23,10.23,0,0,1-.688,2.035,10.2,10.2,0,0,1-.9,1.951" transform="translate(-343.664 -45.358)" fill="#d7e8fd"/>
        <path id="Trazado_198612" data-name="Trazado 198612" d="M613.651,85.624a10.188,10.188,0,0,1,.688-2.035,10.18,10.18,0,0,1,.9-1.951,10.209,10.209,0,0,1-.688,2.035,10.2,10.2,0,0,1-.9,1.951" transform="translate(-345.029 -45.902)" fill="#d7e8fd"/>
        <path id="Trazado_198613" data-name="Trazado 198613" d="M616.079,86.592a10.189,10.189,0,0,1,.688-2.035,10.171,10.171,0,0,1,.9-1.951,10.218,10.218,0,0,1-.688,2.035,10.156,10.156,0,0,1-.9,1.95" transform="translate(-346.394 -46.446)" fill="#d7e8fd"/>
        <path id="Trazado_198614" data-name="Trazado 198614" d="M618.508,87.559a10.184,10.184,0,0,1,.688-2.035,10.2,10.2,0,0,1,.9-1.951,10.209,10.209,0,0,1-.688,2.035,10.169,10.169,0,0,1-.9,1.951" transform="translate(-347.76 -46.99)" fill="#d7e8fd"/>
        <path id="Trazado_198615" data-name="Trazado 198615" d="M620.936,88.526a10.188,10.188,0,0,1,.688-2.035,10.184,10.184,0,0,1,.9-1.951,10.219,10.219,0,0,1-.688,2.035,10.2,10.2,0,0,1-.9,1.951" transform="translate(-349.125 -47.534)" fill="#d7e8fd"/>
        <path id="Trazado_198616" data-name="Trazado 198616" d="M623.364,89.493a10.191,10.191,0,0,1,.688-2.035,10.186,10.186,0,0,1,.9-1.951,10.211,10.211,0,0,1-.688,2.035,10.194,10.194,0,0,1-.9,1.951" transform="translate(-350.49 -48.077)" fill="#d7e8fd"/>
        <path id="Trazado_198617" data-name="Trazado 198617" d="M625.793,90.46a10.131,10.131,0,0,1,.687-2.035,10.222,10.222,0,0,1,.9-1.951,10.234,10.234,0,0,1-.688,2.035,10.236,10.236,0,0,1-.9,1.951" transform="translate(-351.856 -48.621)" fill="#d7e8fd"/>
        <path id="Trazado_198618" data-name="Trazado 198618" d="M601.916,115.916l-10.351-4.123a.649.649,0,0,1-.363-.843l2.564-6.439a.649.649,0,0,1,.843-.362l10.352,4.123a.649.649,0,0,1,.362.843l-2.564,6.439a.649.649,0,0,1-.843.363" transform="translate(-332.385 -58.533)" fill="#eef5ff"/>
        <path id="Trazado_198619" data-name="Trazado 198619" d="M602.635,115.893a.867.867,0,0,1,.042-.131l.132-.36.513-1.35,1.872-4.828.05.118-10.138-4.013c-.033.013.279-.121.147-.063v.005l0,.007-.005.014-.011.028-.022.055-.044.11-.088.22-.175.438-.346.868-.677,1.694L592.6,111.9l-.059-.136,7.25,2.943,2.085.861.559.236a1.6,1.6,0,0,1,.2.092,1.079,1.079,0,0,1-.184-.06l-.548-.2-2.084-.8-7.352-2.873-.1-.038.039-.1,1.266-3.2q.33-.833.673-1.7l.345-.868.175-.438.088-.221.044-.11.022-.055.011-.028.005-.014,0-.007v0l.149-.064,10.121,4.056.085.034-.034.084-1.981,4.845-.548,1.314-.145.337a.491.491,0,0,1-.053.106" transform="translate(-333.067 -59.103)" fill="#d7e8fd"/>
        <path id="Trazado_198620" data-name="Trazado 198620" d="M607.482,114.529a60.333,60.333,0,0,1-6.884-2.742,60.467,60.467,0,0,1,6.884,2.742" transform="translate(-337.693 -62.851)" fill="#d7e8fd"/>
        <path id="Trazado_198621" data-name="Trazado 198621" d="M606.417,117.2a60.314,60.314,0,0,1-6.884-2.742,60.243,60.243,0,0,1,6.884,2.742" transform="translate(-337.095 -64.354)" fill="#d7e8fd"/>
        <path id="Trazado_198622" data-name="Trazado 198622" d="M605.394,119.771a60.333,60.333,0,0,1-6.884-2.742,60.257,60.257,0,0,1,6.884,2.742" transform="translate(-336.52 -65.799)" fill="#d7e8fd"/>
        <path id="Trazado_198623" data-name="Trazado 198623" d="M614.643,94.3a35.981,35.981,0,0,1-3.8-1.39,36.053,36.053,0,0,1-3.715-1.6,71.645,71.645,0,0,1,7.514,2.992" transform="translate(-341.366 -51.336)" fill="#d7e8fd"/>
        <path id="Trazado_198624" data-name="Trazado 198624" d="M583.081,109.048a4.987,4.987,0,0,1,.244-.726l.743-1.947c.637-1.641,1.531-3.9,2.532-6.392l1.42-3.51a7.565,7.565,0,0,1,1.6-2.662,3.367,3.367,0,0,1,1.86-.95,2.354,2.354,0,0,1,.573,0,.657.657,0,0,1,.194.046,4.665,4.665,0,0,0-.754.043,3.393,3.393,0,0,0-1.761.977,7.617,7.617,0,0,0-1.518,2.626l-1.4,3.515c-1,2.491-1.919,4.742-2.594,6.367l-.81,1.92a4.935,4.935,0,0,1-.326.692" transform="translate(-327.844 -52.202)" fill="#fff"/>
        <path id="Trazado_198625" data-name="Trazado 198625" d="M596.291,140.569a3.256,3.256,0,0,1-.485-.392c-.149-.133-.333-.294-.557-.468s-.466-.388-.758-.594a21.2,21.2,0,0,0-2.087-1.382,20.812,20.812,0,0,0-5.675-2.26,21.284,21.284,0,0,0-2.466-.43c-.353-.052-.676-.065-.959-.09s-.527-.037-.727-.043a3.3,3.3,0,0,1-.622-.048,3.251,3.251,0,0,1,.623-.04c.2-.008.446-.011.732,0s.611.015.968.056a18.87,18.87,0,0,1,2.5.386,19.537,19.537,0,0,1,5.734,2.283,18.843,18.843,0,0,1,2.079,1.436c.288.216.527.438.742.625s.394.356.534.5a3.256,3.256,0,0,1,.425.457" transform="translate(-327.212 -75.801)" fill="#fff"/>
        <path id="Trazado_198626" data-name="Trazado 198626" d="M67.589,189.377l-33.9,16.316a1.054,1.054,0,0,1-1.407-.493L9.532,157.928a1.054,1.054,0,0,1,.493-1.407l33.9-16.316a1.054,1.054,0,0,1,1.407.493L68.081,187.97a1.054,1.054,0,0,1-.492,1.407" transform="translate(-5.301 -78.774)" fill="#d7e8fd"/>
        <rect id="Rectángulo_43833" data-name="Rectángulo 43833" width="35.29" height="50.797" transform="translate(6.277 78.29) rotate(-25.704)" fill="#fafafa"/>
        <path id="Trazado_198627" data-name="Trazado 198627" d="M49.561,150.591a4.324,4.324,0,0,0-4.523-.472l-.975-1.934a2.97,2.97,0,1,0-5.353,2.577l.977,2.031-.677.34a4.325,4.325,0,0,0-2.385,3.808l-.014,1.006,13.844-6.664Zm-7.389.315a1.6,1.6,0,1,1,.747-2.134,1.6,1.6,0,0,1-.747,2.134" transform="translate(-20.586 -82.372)" fill="#eef5ff"/>
        <path id="Trazado_198628" data-name="Trazado 198628" d="M37.32,180.7c.027.057-1.881,1.032-4.261,2.178s-4.334,2.029-4.361,1.972,1.881-1.032,4.262-2.178,4.333-2.029,4.36-1.973" transform="translate(-16.135 -101.601)" fill="#d7e8fd"/>
        <path id="Trazado_198629" data-name="Trazado 198629" d="M34.451,188.934a11.733,11.733,0,0,1-2.028,1.1,11.75,11.75,0,0,1-2.127.9,11.763,11.763,0,0,1,2.028-1.1,11.741,11.741,0,0,1,2.127-.9" transform="translate(-17.034 -106.228)" fill="#d7e8fd"/>
        <path id="Trazado_198630" data-name="Trazado 198630" d="M59.7,175.92c.027.057-5.323,2.689-11.948,5.878s-12.021,5.73-12.048,5.673,5.322-2.688,11.949-5.878,12.02-5.729,12.047-5.672" transform="translate(-20.074 -98.913)" fill="#d7e8fd"/>
        <path id="Trazado_198631" data-name="Trazado 198631" d="M62.214,181.148c.027.057-5.323,2.689-11.948,5.878s-12.021,5.73-12.048,5.673,5.322-2.688,11.949-5.878,12.02-5.729,12.047-5.672" transform="translate(-21.488 -101.852)" fill="#d7e8fd"/>
        <path id="Trazado_198632" data-name="Trazado 198632" d="M64.73,186.375c.027.057-5.323,2.689-11.948,5.878s-12.021,5.73-12.048,5.673,5.322-2.688,11.949-5.878,12.02-5.729,12.047-5.672" transform="translate(-22.903 -104.791)" fill="#d7e8fd"/>
        <path id="Trazado_198633" data-name="Trazado 198633" d="M67.246,191.6c.027.057-5.323,2.689-11.948,5.878s-12.021,5.73-12.048,5.673,5.322-2.688,11.949-5.878,12.02-5.729,12.047-5.672" transform="translate(-24.318 -107.731)" fill="#d7e8fd"/>
        <path id="Trazado_198634" data-name="Trazado 198634" d="M69.762,196.83c.027.057-5.323,2.689-11.948,5.878s-12.021,5.73-12.048,5.673,5.322-2.688,11.949-5.878,12.02-5.729,12.047-5.672" transform="translate(-25.732 -110.67)" fill="#d7e8fd"/>
        <path id="Trazado_198635" data-name="Trazado 198635" d="M72.279,202.058c.027.057-5.323,2.689-11.948,5.877s-12.021,5.73-12.048,5.673,5.322-2.688,11.95-5.878,12.02-5.729,12.047-5.672" transform="translate(-27.147 -113.609)" fill="#d7e8fd"/>
        <path id="Trazado_198636" data-name="Trazado 198636" d="M62.549,219.964a2.326,2.326,0,0,1-.452.267l-1.27.651c-1.077.541-2.571,1.275-4.227,2.072s-3.163,1.508-4.257,2.012l-1.3.587a2.356,2.356,0,0,1-.491.187,2.32,2.32,0,0,1,.452-.267l1.27-.651c1.077-.541,2.571-1.275,4.228-2.072s3.162-1.508,4.256-2.012l1.3-.586a2.327,2.327,0,0,1,.491-.187" transform="translate(-28.423 -123.676)" fill="#d7e8fd"/>
        <path id="Trazado_198637" data-name="Trazado 198637" d="M81.673,161.72a10.074,10.074,0,0,1-1.872,1.028,10.1,10.1,0,0,1-1.972.823,10.07,10.07,0,0,1,1.873-1.028,10.072,10.072,0,0,1,1.971-.823" transform="translate(-43.76 -90.926)" fill="#d7e8fd"/>
        <path id="Trazado_198638" data-name="Trazado 198638" d="M62.978,237.349a26.326,26.326,0,0,1-3.067,1.6,26.4,26.4,0,0,1-3.166,1.4,26.3,26.3,0,0,1,3.067-1.6,26.323,26.323,0,0,1,3.166-1.4" transform="translate(-31.906 -133.451)" fill="#d7e8fd"/>
        <path id="Trazado_198639" data-name="Trazado 198639" d="M65.6,241.867a27.149,27.149,0,0,1-3.119,1.627,27.165,27.165,0,0,1-3.218,1.423,27.227,27.227,0,0,1,3.119-1.628,27.174,27.174,0,0,1,3.218-1.422" transform="translate(-33.324 -135.991)" fill="#d7e8fd"/>
        <path id="Trazado_198640" data-name="Trazado 198640" d="M108.064,216.757a12.32,12.32,0,0,1-3.012,1.45,12.319,12.319,0,0,1,3.012-1.45" transform="translate(-59.066 -121.87)" fill="#d7e8fd"/>
        <path id="Trazado_198641" data-name="Trazado 198641" d="M110.357,220.914a12.32,12.32,0,0,1-3.013,1.45,12.321,12.321,0,0,1,3.013-1.45" transform="translate(-60.356 -124.207)" fill="#d7e8fd"/>
        <path id="Trazado_198642" data-name="Trazado 198642" d="M65.761,250.044a5.81,5.81,0,0,1-1.4.8,5.8,5.8,0,0,1-1.5.6,5.842,5.842,0,0,1,1.405-.8,5.807,5.807,0,0,1,1.5-.6" transform="translate(-35.339 -140.586)" fill="#d7e8fd"/>
        <path id="Trazado_198643" data-name="Trazado 198643" d="M114.06,225.78a6.488,6.488,0,0,1-2.182,1.05,6.488,6.488,0,0,1,2.182-1.05" transform="translate(-62.904 -126.942)" fill="#d7e8fd"/>
        <path id="Trazado_198644" data-name="Trazado 198644" d="M67.832,258.939a.59.59,0,0,1,.121-.093l.369-.246,1.416-.907,5.081-3.191.1-.063.043.11a2.862,2.862,0,0,1,.056,1.929,2.36,2.36,0,0,1-1.4,1.516,2.334,2.334,0,0,1-2.166-.244,2.035,2.035,0,0,1-.725-2.132,1.843,1.843,0,0,1,.418-.795,1.133,1.133,0,0,1,.164-.156.774.774,0,0,1,.2-.136.326.326,0,0,1,.306.011.516.516,0,0,1,.173.2,3.929,3.929,0,0,1,.2,3.22,2.44,2.44,0,0,1-.942,1.248,1.4,1.4,0,0,1-1.478-.033,2.113,2.113,0,0,1-.878-1.1,5.082,5.082,0,0,1,.014-2.471l.028-.167.112.126a3.429,3.429,0,0,1,.834,1.887,3.647,3.647,0,0,1-.147,1.552,3.234,3.234,0,0,1-.44.881c-.067.091-.126.154-.163.2s-.059.064-.062.061a4.093,4.093,0,0,0,.58-1.166,3.638,3.638,0,0,0,.1-1.51,3.321,3.321,0,0,0-.826-1.794l.139-.041a4.965,4.965,0,0,0,.006,2.382,1.922,1.922,0,0,0,.8.988,1.191,1.191,0,0,0,1.266.025,2.239,2.239,0,0,0,.847-1.145,3.716,3.716,0,0,0-.19-3.034.31.31,0,0,0-.092-.116.1.1,0,0,0-.1,0,1.129,1.129,0,0,0-.287.238,1.623,1.623,0,0,0-.366.7,1.812,1.812,0,0,0,.637,1.894,2.116,2.116,0,0,0,1.955.221,2.149,2.149,0,0,0,1.277-1.376,2.67,2.67,0,0,0-.039-1.79l.143.047L69.8,257.79l-1.444.861-.384.22a.586.586,0,0,1-.137.067" transform="translate(-38.139 -143.062)" fill="#d7e8fd"/>
        <path id="Trazado_198645" data-name="Trazado 198645" d="M112.882,236.588a1.418,1.418,0,0,1-.073.411,1.686,1.686,0,0,1-.2.464.979.979,0,0,1-.549.418.68.68,0,0,1-.426-.014.861.861,0,0,1-.364-.284,8.283,8.283,0,0,1-.491-.835l-1.088-1.986.2-.046c-.035,1-.074,2.1-.114,3.247q-.015.41-.031.809l-.018.453-.2-.407-1.644-3.379.182-.018a11.631,11.631,0,0,0-.416,3.053c0,.747.051,1.173.025,1.176a1.161,1.161,0,0,1-.063-.3,8.73,8.73,0,0,1-.076-.871,10.715,10.715,0,0,1,.342-3.106l.066-.252.116.234,1.673,3.366-.215.046c.01-.265.02-.536.03-.809.046-1.147.09-2.243.13-3.246l.015-.394.184.347,1.058,2a8.86,8.86,0,0,0,.457.824.586.586,0,0,0,.634.267,1.114,1.114,0,0,0,.714-.778,2.785,2.785,0,0,1,.139-.39" transform="translate(-60.461 -131.747)" fill="#d7e8fd"/>
        <path id="Trazado_198646" data-name="Trazado 198646" d="M109.117,235.759c.035.052-1.771,1.343-4.034,2.882s-4.127,2.745-4.163,2.693,1.771-1.342,4.035-2.882,4.127-2.745,4.162-2.693" transform="translate(-56.743 -132.557)" fill="#d7e8fd"/>
        <path id="Trazado_198647" data-name="Trazado 198647" d="M116.926,236.635a34.971,34.971,0,0,1-2.958,2.693,35.278,35.278,0,0,1-3.107,2.521,35.026,35.026,0,0,1,2.959-2.693,35.279,35.279,0,0,1,3.107-2.521" transform="translate(-62.332 -133.05)" fill="#d7e8fd"/>
        <path id="Trazado_198648" data-name="Trazado 198648" d="M141.335,9.281h-1.842l-4.02-5.6V0s-2.847-.175-2.513,4.64-.027,3.589-.027,3.589-6.046.023-6.548.548c-.366.382-.531,6.387-.594,9.644a3.525,3.525,0,0,0,2.5,3.552,2.627,2.627,0,0,0,.65.088c1.508,0,9.213-1.226,9.213-1.226h3.182Z" transform="translate(-70.727 0)" fill="#8cbcfa"/>
        <path id="Trazado_198649" data-name="Trazado 198649" d="M167.841,18.895l-1.133,12.6h-3.155V19.148Z" transform="translate(-91.96 -10.624)" fill="#8cbcfa"/>
      </g>
    </g>
    <g id="Grupo_137390" data-name="Grupo 137390">
      <g id="Grupo_137389" data-name="Grupo 137389" clip-path="url(#clip-path)">
        <path id="Trazado_198650" data-name="Trazado 198650" d="M446.1,12.289c-.475-3.833-3.719-7.407-7.581-7.41a8.468,8.468,0,0,0-6.009,2.857,15.685,15.685,0,0,0-1.524,1.807,15.656,15.656,0,0,0-1.138-2.071,8.469,8.469,0,0,0-5.329-3.984c-3.788-.758-7.67,2.108-8.891,5.772s-.2,7.779,1.8,11.079a21.727,21.727,0,0,0,11.833,9.754c4.39-.562,10.271-4.457,12.889-7.3s4.424-6.674,3.948-10.507" transform="translate(-233.396 -1.892)" fill="#e70041"/>
        <path id="Trazado_198651" data-name="Trazado 198651" d="M445.4,29.932a.468.468,0,0,1-.128,0l-.373-.024-1.43-.117-5.254-.481.095-.058-2.189,5.706-.132.344-.087-.359L433.7,25.8c-.242-1.012-.48-2.008-.713-2.981l.222.044L429.2,28.38l-.039.053-.064-.007-9.23-.963-2.613-.292-.691-.087a1.193,1.193,0,0,1-.236-.042,1.144,1.144,0,0,1,.24.005l.694.052,2.619.228,9.239.872-.1.046,3.991-5.527.159-.22.063.264c.233.972.472,1.968.715,2.98l2.18,9.146-.218-.015,2.231-5.69.026-.065.069.007,5.246.562,1.425.166.37.05a.477.477,0,0,1,.125.026" transform="translate(-234.087 -12.651)" fill="#fafafa"/>
        <rect id="Rectángulo_43835" data-name="Rectángulo 43835" width="2.89" height="12.952" transform="translate(114.773 34.331)" fill="#7e5ee3"/>
        <rect id="Rectángulo_43836" data-name="Rectángulo 43836" width="12.952" height="2.89" transform="translate(109.742 39.362)" fill="#7e5ee3"/>
        <path id="Trazado_198652" data-name="Trazado 198652" d="M262.189,79.316a1,1,0,0,1-.021-.175c-.009-.126-.021-.3-.037-.512-.007-.114-.015-.239-.025-.377s-.046-.288-.07-.45a7.835,7.835,0,0,0-.228-1.111,10.3,10.3,0,0,0-1.2-2.855,10.7,10.7,0,0,0-12.858-4.561,9.818,9.818,0,0,0-2.7,1.456A9.776,9.776,0,0,0,242.788,73a10.367,10.367,0,0,0-1.527,2.944,10.589,10.589,0,0,0,0,6.742,10.349,10.349,0,0,0,1.527,2.945,9.768,9.768,0,0,0,2.259,2.27,9.816,9.816,0,0,0,2.7,1.456A10.732,10.732,0,0,0,260.608,84.8a10.307,10.307,0,0,0,1.2-2.855,7.906,7.906,0,0,0,.229-1.112c.025-.162.055-.312.07-.45s.017-.263.025-.377c.016-.216.028-.386.037-.512a.088.088,0,1,1,.024,0c0,.127-.009.3-.015.514,0,.114-.009.241-.014.38s-.039.29-.06.454a7.642,7.642,0,0,1-.209,1.124,10.231,10.231,0,0,1-1.176,2.9,10.868,10.868,0,0,1-7.315,5.153,10.907,10.907,0,0,1-5.724-.459,10.01,10.01,0,0,1-2.763-1.479,9.973,9.973,0,0,1-2.309-2.313,10.559,10.559,0,0,1-1.562-3.006,10.792,10.792,0,0,1,0-6.885,10.545,10.545,0,0,1,1.562-3,9.983,9.983,0,0,1,2.309-2.313,10.014,10.014,0,0,1,2.762-1.478,10.9,10.9,0,0,1,5.723-.459,10.868,10.868,0,0,1,7.315,5.152,10.226,10.226,0,0,1,1.177,2.9,7.7,7.7,0,0,1,.209,1.124c.021.164.048.315.06.454s.01.265.014.38c.006.217.011.387.015.514a1,1,0,0,1,0,.175" transform="translate(-135.214 -38.478)" fill="#7e5ee3"/>
      </g>
    </g>
    <g id="Grupo_137401" data-name="Grupo 137401">
      <g id="Grupo_137400" data-name="Grupo 137400" clip-path="url(#clip-path)">
        <path id="Trazado_198653" data-name="Trazado 198653" d="M498.279,238.551s12.811-3.054,13.233-3.593l-10.535-27.134a19.851,19.851,0,0,0-12.287-11.976,34.838,34.838,0,0,0-12.443-1.921l-17.785-.944a35.214,35.214,0,0,0-14.031,3.884,28.306,28.306,0,0,0-13.174,14.52l-7.973,19.924,20.117,4.206.764,21.4-3.034,29.535h55.552l-.387-46.814Z" transform="translate(-237.997 -108.507)" fill="#00bcd4"/>
        <g id="Grupo_137393" data-name="Grupo 137393" transform="translate(256.412 122.904)" opacity="0.3">
          <g id="Grupo_137392" data-name="Grupo 137392">
            <g id="Grupo_137391" data-name="Grupo 137391" clip-path="url(#clip-path-5)">
              <path id="Trazado_198654" data-name="Trazado 198654" d="M600.679,280.775c.019.06-3.3,1.144-7.422,2.421s-7.472,2.264-7.491,2.2,3.3-1.144,7.423-2.421,7.471-2.263,7.49-2.2" transform="translate(-585.766 -280.772)" fill="#fff"/>
            </g>
          </g>
        </g>
        <path id="Trazado_198655" data-name="Trazado 198655" d="M472.7,225.6a2.805,2.805,0,0,1-.342-.466c-.2-.31-.515-.747-.917-1.272a22.383,22.383,0,0,0-1.508-1.765,21.522,21.522,0,0,0-4.41-3.56,22.25,22.25,0,0,0-2.043-1.1c-.6-.282-1.091-.495-1.437-.628a2.872,2.872,0,0,1-.528-.236,2.8,2.8,0,0,1,.558.152,14.507,14.507,0,0,1,1.473.565,19.189,19.189,0,0,1,2.085,1.068,19.893,19.893,0,0,1,4.454,3.6,19.158,19.158,0,0,1,1.484,1.812,14.594,14.594,0,0,1,.862,1.321,2.872,2.872,0,0,1,.267.513" transform="translate(-259.491 -121.767)" fill="#263238"/>
        <path id="Trazado_198656" data-name="Trazado 198656" d="M477.213,251.992c.063.007-.558,6.542-1.385,14.6s-1.55,14.581-1.612,14.574.558-6.541,1.385-14.6,1.55-14.579,1.612-14.573" transform="translate(-266.631 -141.686)" fill="#263238"/>
        <path id="Trazado_198657" data-name="Trazado 198657" d="M576.991,213.213a12.285,12.285,0,0,1-.286-1.326,23.362,23.362,0,0,0-2.194-6.117,12.255,12.255,0,0,1-.622-1.206c.013-.009.094.093.23.286s.32.479.533.842a18.263,18.263,0,0,1,2.211,6.166c.067.415.108.754.123.989a1.123,1.123,0,0,1,0,.367" transform="translate(-322.675 -115.019)" fill="#263238"/>
        <path id="Trazado_198658" data-name="Trazado 198658" d="M582.568,255.322a3.585,3.585,0,0,1-.108-.642c-.055-.415-.122-1.017-.194-1.762-.145-1.49-.3-3.553-.378-5.836s-.073-4.353-.033-5.849c.02-.748.044-1.353.07-1.771a3.623,3.623,0,0,1,.062-.648,3.542,3.542,0,0,1,.027.65c0,.461,0,1.056,0,1.771,0,1.495.02,3.56.1,5.839s.207,4.34.31,5.831c.049.713.09,1.307.122,1.766a3.562,3.562,0,0,1,.019.651" transform="translate(-327.139 -134.276)" fill="#263238"/>
        <path id="Trazado_198659" data-name="Trazado 198659" d="M504.087,267.46a91.472,91.472,0,0,1-14.011-.261v1.82h14.011Z" transform="translate(-275.551 -150.236)" fill="#fff"/>
        <g id="Grupo_137396" data-name="Grupo 137396" transform="translate(211.599 86.187)" opacity="0.3">
          <g id="Grupo_137395" data-name="Grupo 137395">
            <g id="Grupo_137394" data-name="Grupo 137394" clip-path="url(#clip-path-6)">
              <path id="Trazado_198660" data-name="Trazado 198660" d="M514.263,197.663a1.74,1.74,0,0,1,.054.276c.03.2.07.466.122.808.089.708.211,1.745.312,3.061.21,2.631.393,6.37.457,10.784l0,.169-.151-.074c-2.793-1.358-5.926-2.838-9.185-4.467l-15.921-7.967-4.812-2.437-1.3-.673-.336-.18a.551.551,0,0,1-.111-.068.546.546,0,0,1,.122.048l.347.16,1.323.635,4.846,2.373,15.949,7.906c3.258,1.629,6.384,3.113,9.17,4.482l-.149.1c-.046-4.409-.2-8.147-.374-10.777-.083-1.315-.185-2.352-.253-3.062-.038-.342-.068-.612-.09-.81a1.782,1.782,0,0,1-.02-.281" transform="translate(-483.392 -196.893)" fill="#fff"/>
            </g>
          </g>
        </g>
        <g id="Grupo_137399" data-name="Grupo 137399" transform="translate(186.619 119.352)" opacity="0.3">
          <g id="Grupo_137398" data-name="Grupo 137398">
            <g id="Grupo_137397" data-name="Grupo 137397" clip-path="url(#clip-path-7)">
              <path id="Trazado_198661" data-name="Trazado 198661" d="M448.732,278.077a.912.912,0,0,1-.232-.04l-.654-.157-2.394-.608c-2.021-.517-4.813-1.226-7.906-1.974s-5.9-1.394-7.936-1.857l-2.408-.553-.653-.159a.9.9,0,0,1-.225-.071.929.929,0,0,1,.234.026l.662.117c.574.106,1.4.27,2.424.482,2.043.423,4.859,1.045,7.955,1.793s5.883,1.482,7.894,2.04c1.006.278,1.818.51,2.376.678l.642.2a.92.92,0,0,1,.22.084" transform="translate(-426.326 -272.656)" fill="#fff"/>
            </g>
          </g>
        </g>
        <path id="Trazado_198662" data-name="Trazado 198662" d="M548.328,191.078a5.9,5.9,0,0,1,2.365,2.285,21.422,21.422,0,0,1,2.816,7.429,30.49,30.49,0,0,1,.51,4.356c.01.674.029,1.315.009,1.913s-.039,1.157-.092,1.663-.1.958-.147,1.365-.124.742-.173,1.022a3.289,3.289,0,0,1-.207.86,3.359,3.359,0,0,1,.031-.884q.041-.438.1-1.024c.024-.406.05-.86.079-1.359s.02-1.055.036-1.647-.03-1.224-.05-1.888a34.258,34.258,0,0,0-.538-4.288,23.475,23.475,0,0,0-2.639-7.342,10.307,10.307,0,0,0-1.459-1.856c-.4-.4-.654-.573-.635-.6" transform="translate(-308.304 -107.434)" fill="#263238"/>
        <path id="Trazado_198663" data-name="Trazado 198663" d="M495.213,191.368a9.791,9.791,0,0,1-.925,1.332,18.472,18.472,0,0,0-2.06,3.848,26.326,26.326,0,0,0-1.53,6.291c-.319,2.429-.455,5.142-.633,7.98-.148,2.834-.155,5.547-.158,8.014s0,4.688,0,6.562-.048,3.382-.1,4.427a7.159,7.159,0,0,1-.161,1.621,7.74,7.74,0,0,1-.105-1.624c-.027-1.063-.066-2.568-.113-4.42s-.11-4.09-.144-6.562-.043-5.194.106-8.054c.179-2.848.334-5.564.692-8.03a25.028,25.028,0,0,1,1.708-6.389,16.059,16.059,0,0,1,2.3-3.824,6.028,6.028,0,0,1,1.138-1.171" transform="translate(-275.09 -107.598)" fill="#263238"/>
        <path id="Trazado_198664" data-name="Trazado 198664" d="M555.679,254.168a8.829,8.829,0,0,1-.086-1.446c-.026-.931-.048-2.278-.066-3.943-.007-.834-.015-1.745-.023-2.722s.018-2.032-.059-3.107a5.121,5.121,0,0,0-1.117-3.058,4.207,4.207,0,0,0-3.086-1.459,4.826,4.826,0,0,0-3.225,1.251,5.543,5.543,0,0,0-1.63,2.84c-.271,1.041-.385,2.088-.547,3.053s-.3,1.865-.426,2.689c-.264,1.644-.485,2.972-.649,3.889a8.837,8.837,0,0,1-.3,1.417,8.833,8.833,0,0,1,.124-1.443c.109-.924.282-2.26.506-3.91.113-.826.238-1.729.371-2.7s.244-2.008.515-3.1a5.927,5.927,0,0,1,1.739-3.068,5.241,5.241,0,0,1,3.53-1.374,4.633,4.633,0,0,1,3.417,1.623,5.506,5.506,0,0,1,1.2,3.317c.068,1.122.017,2.16.018,3.14s-.023,1.888-.032,2.722c-.024,1.664-.05,3.011-.079,3.942a8.8,8.8,0,0,1-.091,1.445" transform="translate(-306.126 -133.806)" fill="#263238"/>
        <path id="Trazado_198665" data-name="Trazado 198665" d="M558.266,229.242a7.417,7.417,0,0,1-1.7,4.366,6.143,6.143,0,0,1,2.825.054,9.711,9.711,0,0,1-.752-4.42" transform="translate(-312.937 -128.894)" fill="#263238"/>
        <path id="Trazado_198666" data-name="Trazado 198666" d="M558.065,245.829a13.892,13.892,0,0,0-.695-1.737,5.391,5.391,0,0,0-1.272-1.522,4.719,4.719,0,0,0-2.155-1.025,4.62,4.62,0,0,0-2.371.237,5.209,5.209,0,0,0-1.695,1.024,12.948,12.948,0,0,0-1.2,1.43,3.142,3.142,0,0,1,.98-1.662,5.083,5.083,0,0,1,1.767-1.184,4.809,4.809,0,0,1,2.6-.294,4.893,4.893,0,0,1,2.348,1.155,5.214,5.214,0,0,1,1.285,1.693,3.184,3.184,0,0,1,.409,1.885" transform="translate(-308.496 -135.523)" fill="#263238"/>
        <path id="Trazado_198667" data-name="Trazado 198667" d="M589.047,323.92a7.421,7.421,0,0,0,6.164-4.178,17.7,17.7,0,0,0,1.659-7.575,61.534,61.534,0,0,0-2.506-20.444l-11.425,2,3.111,30.767Z" transform="translate(-327.765 -164.025)" fill="#ffbe9d"/>
        <path id="Trazado_198668" data-name="Trazado 198668" d="M491.331,316.3l37.2-1.356,9.022-43.589-39.178,2.177Z" transform="translate(-276.257 -152.573)" fill="#263238"/>
        <path id="Trazado_198669" data-name="Trazado 198669" d="M535.073,270.14l.56-1.111,2.968-.218s.754-1.948,5-2.146c3.8-.178,3.958,1.735,3.958,1.735h2.051v.933Z" transform="translate(-300.852 -149.929)" fill="#455a64"/>
        <path id="Trazado_198670" data-name="Trazado 198670" d="M568.312,340.707l2.82-.822a3.447,3.447,0,0,1,3.382.852,23.392,23.392,0,0,1,2.652,2.891,2.738,2.738,0,0,1,0,2.231c-.316.422.692,2.592.566,3.315a4.449,4.449,0,0,1-.566,1.748c-.253.3,0,1.333-.63,2.113a10.318,10.318,0,0,1-1.2,1.263s-7.744.362-8.5,0a11.177,11.177,0,0,1-2.078-1.748s-.693-1.266.378-1.386l-4.408-1.688a1.047,1.047,0,0,1-.64-1.322.73.73,0,0,1,.389-.427s-1.979-.626-2.436-.828c-.915-.4-1.26-2.533.633-2.26,1,.144,2.351.436,2.351.436a1.4,1.4,0,0,1,.288-1.875c.613-.425,3.372.093,3.372.093Z" transform="translate(-313.352 -191.027)" fill="#ffbe9d"/>
        <path id="Trazado_198671" data-name="Trazado 198671" d="M579.039,366.827a6.515,6.515,0,0,1-2.29-.342,5.667,5.667,0,0,1-2.11-.953c.031-.054.952.4,2.173.734,1.215.35,2.235.5,2.228.561" transform="translate(-323.097 -205.523)" fill="#eb996e"/>
        <path id="Trazado_198672" data-name="Trazado 198672" d="M571.682,359.86a59.563,59.563,0,0,1-7.134-1.821,59.555,59.555,0,0,1,7.134,1.821" transform="translate(-317.424 -201.308)" fill="#eb996e"/>
        <path id="Trazado_198673" data-name="Trazado 198673" d="M573.064,353.628a68.276,68.276,0,0,1-7.688-1.8,68.561,68.561,0,0,1,7.688,1.8" transform="translate(-317.89 -197.817)" fill="#eb996e"/>
        <path id="Trazado_198674" data-name="Trazado 198674" d="M580.555,347.877a4.741,4.741,0,0,1-.995.316l-1.092.282-.649.161a2.383,2.383,0,0,1-.744.071,4.039,4.039,0,0,1-.726-.119l-.65-.148-1.1-.264a4.772,4.772,0,0,1-1-.3,4.773,4.773,0,0,1,1.035.142l1.111.217a13.04,13.04,0,0,0,1.342.244,4.949,4.949,0,0,0,1.326-.207l1.108-.235a4.773,4.773,0,0,1,1.033-.16" transform="translate(-322.514 -195.594)" fill="#eb996e"/>
        <path id="Trazado_198675" data-name="Trazado 198675" d="M589.834,351.274c.024-.016.128.08.214.287a1.306,1.306,0,0,1-.489,1.559c-.189.122-.329.14-.339.113-.034-.054.459-.3.64-.875a2.5,2.5,0,0,0-.026-1.084" transform="translate(-331.295 -197.507)" fill="#eb996e"/>
        <path id="Trazado_198676" data-name="Trazado 198676" d="M590.132,358.111c.055-.025.23.286.205.711s-.231.716-.283.684.037-.326.055-.7-.039-.676.022-.7" transform="translate(-331.755 -201.352)" fill="#eb996e"/>
        <path id="Trazado_198677" data-name="Trazado 198677" d="M590.121,365.536c.058-.021.174.189.119.464s-.243.425-.288.383.024-.213.064-.427.042-.4.1-.419" transform="translate(-331.699 -205.526)" fill="#eb996e"/>
        <path id="Trazado_198678" data-name="Trazado 198678" d="M586.247,346.922a2.462,2.462,0,0,1-.745-.038l-.8-.1a3.024,3.024,0,0,0-.948-.046,2.317,2.317,0,0,0-.842.379c-.242.164-.454.344-.658.464a1.248,1.248,0,0,1-.714.245c-.013-.038.265-.115.624-.379a3.822,3.822,0,0,1,1.56-.935,2.656,2.656,0,0,1,.532-.012c.179.018.324.053.477.077l.792.152a2.434,2.434,0,0,1,.718.2" transform="translate(-326.98 -194.817)" fill="#eb996e"/>
        <path id="Trazado_198679" data-name="Trazado 198679" d="M595.038,351a3.845,3.845,0,0,1,.2-.557,4.278,4.278,0,0,0,.311-1.544,4.416,4.416,0,0,0-.165-1.075c-.091-.385-.267-.768-.365-1.228a3.942,3.942,0,0,1,.1-1.431,2.523,2.523,0,0,0-.253-1.408,6.718,6.718,0,0,0-.806-1.248c-.3-.382-.6-.751-.89-1.085a5.178,5.178,0,0,0-1.832-1.433,2.97,2.97,0,0,0-1.539-.233c-.371.049-.562.15-.57.128s.042-.034.133-.08a1.911,1.911,0,0,1,.423-.135,2.9,2.9,0,0,1,1.614.171,5.175,5.175,0,0,1,1.928,1.443c.305.337.6.7.909,1.087a6.734,6.734,0,0,1,.837,1.289,2.721,2.721,0,0,1,.267,1.532,3.858,3.858,0,0,0-.111,1.364c.083.421.257.826.343,1.222a4.408,4.408,0,0,1,.143,1.121,3.991,3.991,0,0,1-.39,1.577,2.4,2.4,0,0,1-.28.523" transform="translate(-331.297 -190.954)" fill="#eb996e"/>
        <path id="Trazado_198680" data-name="Trazado 198680" d="M480.578,297.895l-30.542,4.851,1.357-15.941-16.985-3.282-2.066,23.6-.358,5.409a10.559,10.559,0,0,0,13.809,10.736l6.563-2.139,32.007-11.387" transform="translate(-242.876 -159.415)" fill="#ffbe9d"/>
        <path id="Trazado_198681" data-name="Trazado 198681" d="M561.5,307.533a.867.867,0,0,0-.871-1.02c-1.722-.007-6.37.019-8.011.485-2.031.576-9.6,3.822-9.6,3.822l3.207,11.843,11.614.123s4.242-1.95,4.3-2.793a14.436,14.436,0,0,0-.105-1.581l1.28-.686c1.908-1.211.685-3.534.685-3.534a2.824,2.824,0,0,0,1.382-2.066,2.075,2.075,0,0,0-1.025-1.958s.527-1.873-.451-2.377a3.979,3.979,0,0,0-2.633.144.7.7,0,0,0,.231-.4" transform="translate(-305.322 -172.34)" fill="#ffbe9d"/>
        <path id="Trazado_198682" data-name="Trazado 198682" d="M574.759,309.282a1.21,1.21,0,0,1-.356.125c-.234.066-.577.142-1,.215-.853.152-2.041.281-3.348.421a27.528,27.528,0,0,0-3.317.506c-.836.2-1.3.455-1.322.421-.008-.014.1-.086.318-.206a5.832,5.832,0,0,1,.962-.37,20.185,20.185,0,0,1,3.334-.577c1.311-.141,2.5-.243,3.349-.354s1.375-.215,1.384-.181" transform="translate(-317.91 -173.894)" fill="#eb996e"/>
        <path id="Trazado_198683" data-name="Trazado 198683" d="M584.036,314.7a2.763,2.763,0,0,1-.815.418,13.145,13.145,0,0,1-2.117.616c-.843.177-1.612.289-2.168.362a3.709,3.709,0,0,1-.91.071,27.454,27.454,0,0,1,3.031-.656c.834-.176,1.579-.373,2.11-.545a5.364,5.364,0,0,1,.869-.266" transform="translate(-325.002 -176.941)" fill="#eb996e"/>
        <path id="Trazado_198684" data-name="Trazado 198684" d="M584.455,324.1a12.555,12.555,0,0,1-5.1,1.155c-.007-.067,1.155-.211,2.559-.532s2.515-.686,2.538-.623" transform="translate(-325.751 -182.223)" fill="#eb996e"/>
        <path id="Trazado_198685" data-name="Trazado 198685" d="M584.332,332.119a8.805,8.805,0,0,1-3.929.948,19.214,19.214,0,0,1,1.966-.467,18.987,18.987,0,0,1,1.963-.481" transform="translate(-326.339 -186.733)" fill="#eb996e"/>
        <path id="Trazado_198686" data-name="Trazado 198686" d="M573.251,325.736c.009.027-.119.1-.355.126a1.339,1.339,0,0,1-1.4-.992c-.057-.229-.026-.376,0-.376.062-.016.126.567.649.939a2.375,2.375,0,0,0,1.1.3" transform="translate(-321.315 -182.45)" fill="#eb996e"/>
        <path id="Trazado_198687" data-name="Trazado 198687" d="M573.395,334.325c.01.062-.454.09-.851-.267s-.425-.817-.363-.815c.064-.014.177.352.515.645s.706.372.7.437" transform="translate(-321.701 -187.37)" fill="#eb996e"/>
        <path id="Trazado_198688" data-name="Trazado 198688" d="M570.818,317.894c.025.06-.3.162-.593-.063s-.288-.561-.223-.553.142.213.361.371.445.182.456.246" transform="translate(-320.47 -178.393)" fill="#eb996e"/>
        <path id="Trazado_198689" data-name="Trazado 198689" d="M543.024,310.682a.417.417,0,0,1,.091-.05l.276-.128,1.077-.476c.942-.41,2.316-1,4.05-1.711.868-.354,1.824-.741,2.872-1.13a10.984,10.984,0,0,1,1.667-.517,17.844,17.844,0,0,1,1.846-.228c1.27-.1,2.614-.143,4.019-.163l1.065-.009h.541a1.114,1.114,0,0,1,.578.12.934.934,0,0,1,.5,1.055.343.343,0,0,1-.134.152,1.311,1.311,0,0,1-.131.081c-.087.047-.175.086-.264.124a4.167,4.167,0,0,1-.551.191.11.11,0,0,1-.135-.079.112.112,0,0,1,.077-.135,11.921,11.921,0,0,1,1.448-.323,5.286,5.286,0,0,1,1.532-.054,1.384,1.384,0,0,1,.75.325,1.362,1.362,0,0,1,.372.738,3.819,3.819,0,0,1-.1,1.6l-.059-.133a2.119,2.119,0,0,1,.643.566,2.276,2.276,0,0,1,.334,2.072,3.061,3.061,0,0,1-1.331,1.587L564.1,314a3.647,3.647,0,0,1,.369,2.022,2.329,2.329,0,0,1-1.095,1.656l-.007,0-1.281.685.056-.107c.034.307.062.61.084.912.011.151.019.3.022.454,0,.076,0,.153,0,.232a.588.588,0,0,1-.095.253,2.75,2.75,0,0,1-.66.629c-.237.173-.48.33-.723.479a30.534,30.534,0,0,1-2.883,1.51.09.09,0,0,1-.039.009l-8.452-.13-2.338-.05-.613-.02a1.135,1.135,0,0,1-.209-.016,1.167,1.167,0,0,1,.21-.012l.613-.007h2.339l8.453.05-.039.008a30.813,30.813,0,0,0,2.854-1.514c.24-.148.478-.3.707-.473a2.6,2.6,0,0,0,.6-.574.4.4,0,0,0,.063-.157c0-.07,0-.141,0-.214,0-.146-.012-.295-.023-.443-.022-.3-.052-.6-.086-.9a.108.108,0,0,1,.056-.107l1.279-.688-.007,0a2.107,2.107,0,0,0,.991-1.5,3.444,3.444,0,0,0-.348-1.886.118.118,0,0,1,.045-.151,2.845,2.845,0,0,0,1.225-1.461,2.051,2.051,0,0,0-.3-1.863,1.918,1.918,0,0,0-.564-.5.12.12,0,0,1-.058-.133,3.619,3.619,0,0,0,.095-1.493,1.14,1.14,0,0,0-.3-.617,1.167,1.167,0,0,0-.629-.266,5.083,5.083,0,0,0-1.463.052,11.667,11.667,0,0,0-1.418.313l-.057-.214a4.046,4.046,0,0,0,.517-.178c.084-.035.168-.072.245-.114s.151-.115.181-.107a.893.893,0,0,0-.073-.459.785.785,0,0,0-.336-.338.892.892,0,0,0-.478-.1h-.54l-1.063.006c-1.4.016-2.743.054-4.007.145a17.856,17.856,0,0,0-1.826.215,10.9,10.9,0,0,0-1.644.5c-1.046.38-2.006.758-2.876,1.1L544.5,310.1l-1.091.443-.284.111a.435.435,0,0,1-.1.032" transform="translate(-305.322 -172.202)" fill="#eb996e"/>
        <path id="Trazado_198690" data-name="Trazado 198690" d="M468.7,327.366a9.056,9.056,0,0,0-3.762,4.52,2.465,2.465,0,0,1,.228-.864,6.828,6.828,0,0,1,2.727-3.276,2.449,2.449,0,0,1,.808-.381" transform="translate(-261.411 -184.064)" fill="#eb996e"/>
        <path id="Trazado_198691" data-name="Trazado 198691" d="M528.011,93.363a15.428,15.428,0,0,0-15.35-14.219l-.8,0c-8.615.486-13.016,8.074-12.293,16.673l1.487,34.472a1.556,1.556,0,0,0,.893,1.341l19.335,9.074-.6-18.092s8.284-1.27,8.4-9.55c.057-4-.494-12.243-1.08-19.7" transform="translate(-280.846 -44.499)" fill="#ffbe9d"/>
        <path id="Trazado_198692" data-name="Trazado 198692" d="M534.141,174.313a20.084,20.084,0,0,1-10.843-3.2s2.539,5.964,10.8,5.236Z" transform="translate(-294.231 -96.212)" fill="#eb996e"/>
        <path id="Trazado_198693" data-name="Trazado 198693" d="M554.9,122a1.182,1.182,0,0,1-1.142,1.191,1.131,1.131,0,0,1-1.217-1.069,1.182,1.182,0,0,1,1.141-1.192A1.132,1.132,0,0,1,554.9,122" transform="translate(-310.675 -67.994)" fill="#263238"/>
        <path id="Trazado_198694" data-name="Trazado 198694" d="M554.554,119.273c-.147.154-1.041-.511-2.314-.51-1.271-.018-2.206.635-2.344.479-.068-.069.082-.347.489-.643a3.244,3.244,0,0,1,1.877-.574,3.114,3.114,0,0,1,1.842.6c.391.3.522.58.45.649" transform="translate(-309.178 -66.362)" fill="#263238"/>
        <path id="Trazado_198695" data-name="Trazado 198695" d="M526.33,122.883a1.183,1.183,0,0,1-1.143,1.191,1.131,1.131,0,0,1-1.217-1.069,1.184,1.184,0,0,1,1.142-1.192,1.132,1.132,0,0,1,1.218,1.069" transform="translate(-294.609 -68.49)" fill="#263238"/>
        <path id="Trazado_198696" data-name="Trazado 198696" d="M525.981,119.757c-.147.154-1.043-.511-2.314-.51-1.271-.018-2.206.635-2.344.479-.067-.069.081-.347.489-.642a3.244,3.244,0,0,1,1.877-.574,3.118,3.118,0,0,1,1.842.6c.39.3.522.58.45.649" transform="translate(-293.112 -66.633)" fill="#263238"/>
        <path id="Trazado_198697" data-name="Trazado 198697" d="M541.751,129.318a8.42,8.42,0,0,1,2.067-.369c.325-.033.633-.1.688-.319a1.654,1.654,0,0,0-.215-.963l-.956-2.476a42.547,42.547,0,0,1-2.145-6.476A42.6,42.6,0,0,1,543.852,125q.479,1.3.915,2.491a1.881,1.881,0,0,1,.166,1.276.814.814,0,0,1-.535.474,2.184,2.184,0,0,1-.552.076,8.3,8.3,0,0,1-2.095,0" transform="translate(-304.284 -66.749)" fill="#263238"/>
        <path id="Trazado_198698" data-name="Trazado 198698" d="M533.663,144.931c.207-.011.207,1.37,1.387,2.352s2.651.834,2.661,1.027c.019.087-.328.267-.95.283a3.441,3.441,0,0,1-2.222-.779,3,3,0,0,1-1.074-1.972c-.051-.578.1-.92.2-.911" transform="translate(-299.942 -81.489)" fill="#263238"/>
        <path id="Trazado_198699" data-name="Trazado 198699" d="M525.3,108.739c-.126.346-1.4.179-2.889.356-1.5.147-2.7.581-2.9.271-.088-.149.123-.474.61-.808a5.061,5.061,0,0,1,4.41-.478c.548.222.823.494.769.658" transform="translate(-292.09 -60.601)" fill="#263238"/>
        <path id="Trazado_198700" data-name="Trazado 198700" d="M553.942,110.762c-.225.288-1.1-.013-2.155-.029-1.053-.053-1.947.19-2.151-.113-.09-.147.051-.436.442-.709a3.119,3.119,0,0,1,3.47.115c.372.3.493.6.394.736" transform="translate(-309.025 -61.534)" fill="#263238"/>
        <path id="Trazado_198701" data-name="Trazado 198701" d="M495.408,130.9c-.141-.061-5.686-1.694-5.517,3.967s5.818,4.324,5.823,4.161-.306-8.127-.306-8.127" transform="translate(-275.445 -73.452)" fill="#ffbe9d"/>
        <path id="Trazado_198702" data-name="Trazado 198702" d="M496.909,139.313c-.025-.018-.1.072-.261.153a.984.984,0,0,1-.736.037,2.44,2.44,0,0,1-1.195-2.155,3.259,3.259,0,0,1,.234-1.42,1.141,1.141,0,0,1,.719-.779.5.5,0,0,1,.59.253c.081.156.048.27.078.279s.119-.1.066-.331a.627.627,0,0,0-.233-.348.741.741,0,0,0-.55-.128,1.386,1.386,0,0,0-1,.908,3.349,3.349,0,0,0-.3,1.588,2.561,2.561,0,0,0,1.512,2.4,1.055,1.055,0,0,0,.9-.176c.171-.145.2-.273.177-.282" transform="translate(-277.936 -75.83)" fill="#eb996e"/>
        <path id="Trazado_198703" data-name="Trazado 198703" d="M501.609,83.371l23.606.52a10.806,10.806,0,0,0-3.468-4.012,18.446,18.446,0,0,0-10.689-3.847c-3.85-.067-11.687,4.622-14.476,7.277-2.232,2.124-2.218,3.962-2.218,3.962-.355,3.061,1.359,6.54,2.04,9.545.351,1.55,1.029,6.239,1.029,6.239h0c1.3,0,1.784-1.04,1.586-2.326l-.243-5.045a7.618,7.618,0,0,0,2.327-8.9c-.337-.458-1.054-2.56.5-3.417" transform="translate(-277.936 -42.75)" fill="#263238"/>
        <path id="Trazado_198704" data-name="Trazado 198704" d="M522.081,133.308a.154.154,0,1,1,.108-.178.148.148,0,0,1-.108.178" transform="translate(-293.45 -74.783)" fill="#eb996e"/>
        <path id="Trazado_198705" data-name="Trazado 198705" d="M527.63,132a.181.181,0,1,1,.1-.2.161.161,0,0,1-.1.2" transform="translate(-296.568 -74.025)" fill="#eb996e"/>
        <path id="Trazado_198706" data-name="Trazado 198706" d="M531.378,131.779c-.077.01-.152-.085-.167-.211s.034-.236.111-.245.152.085.168.21-.034.235-.111.245" transform="translate(-298.678 -73.838)" fill="#eb996e"/>
        <path id="Trazado_198707" data-name="Trazado 198707" d="M524.843,136.958c-.077,0-.14-.04-.14-.09s.063-.089.141-.089.14.041.14.09-.063.089-.141.089" transform="translate(-295.021 -76.906)" fill="#eb996e"/>
        <path id="Trazado_198708" data-name="Trazado 198708" d="M529.921,135.61a.161.161,0,1,1,.127-.171.151.151,0,0,1-.127.171" transform="translate(-297.868 -76.07)" fill="#eb996e"/>
        <path id="Trazado_198709" data-name="Trazado 198709" d="M556.411,132.506a.16.16,0,1,1,.107-.182.15.15,0,0,1-.107.182" transform="translate(-312.753 -74.327)" fill="#eb996e"/>
        <path id="Trazado_198710" data-name="Trazado 198710" d="M560.215,132.117a.181.181,0,1,1,.123-.189.161.161,0,0,1-.123.189" transform="translate(-314.9 -74.086)" fill="#eb996e"/>
        <path id="Trazado_198711" data-name="Trazado 198711" d="M553.079,132.681a.124.124,0,1,1,.114-.148.133.133,0,0,1-.114.148" transform="translate(-310.884 -74.464)" fill="#eb996e"/>
        <path id="Trazado_198712" data-name="Trazado 198712" d="M555.819,136.391a.164.164,0,1,1,.063-.2.152.152,0,0,1-.063.2" transform="translate(-312.399 -76.515)" fill="#eb996e"/>
        <path id="Trazado_198713" data-name="Trazado 198713" d="M559.184,135.847a.12.12,0,1,1,.166-.077.13.13,0,0,1-.166.077" transform="translate(-314.348 -76.25)" fill="#eb996e"/>
        <path id="Trazado_198714" data-name="Trazado 198714" d="M498.836,78.5a6.98,6.98,0,0,1,6.973-8.676,22.179,22.179,0,0,0,3.295.238c2.042-.223,3.617-1.861,5.512-2.656A7.194,7.194,0,0,1,523.1,69.95c.718,1.072,1.19,2.4,2.29,3.072.951.584,2.15.535,3.219.857a5.254,5.254,0,0,1,3.529,5.2,6.189,6.189,0,0,1-3.769,5.2,7.56,7.56,0,0,1-6.524-.46c-1.781-.991-3.376-2.682-5.414-2.622-2.11.062-3.954,2.052-6.025,1.639a5.851,5.851,0,0,1-2.717-1.823,4.732,4.732,0,0,0-2.814-1.62c-1.1-.065-1.68,1.453-1.285,2.487Z" transform="translate(-280.345 -37.616)" fill="#263238"/>
        <path id="Trazado_198715" data-name="Trazado 198715" d="M530.792,82.832s-.009.03-.038.083a2.218,2.218,0,0,1-.137.228,3.854,3.854,0,0,1-.677.769,4.194,4.194,0,0,1-1.4.813,4.006,4.006,0,0,1-2.142.128,4.235,4.235,0,0,1-2.259-1.285,27.927,27.927,0,0,1-1.628-2.488A3.065,3.065,0,0,0,519.8,79.7a3.561,3.561,0,0,0-1.607.433,3.007,3.007,0,0,0-1.184,1.218c-.285.518-.489,1.088-.833,1.592a1.958,1.958,0,0,1-1.512.92,2.936,2.936,0,0,1-1.648-.476,6.2,6.2,0,0,1-1.253-1.037,5.252,5.252,0,0,0-2.341-1.667,2.972,2.972,0,0,0-2.371.557,4.081,4.081,0,0,0-1.3,1.613,6.708,6.708,0,0,0-.487,1.518c-.088.431-.129.772-.157,1a2.3,2.3,0,0,1-.05.352.273.273,0,0,1-.005-.091c0-.06,0-.149.01-.265a8.869,8.869,0,0,1,.115-1.015,6.527,6.527,0,0,1,.458-1.554,4.178,4.178,0,0,1,1.324-1.69,3.127,3.127,0,0,1,2.508-.611,5.387,5.387,0,0,1,2.446,1.7,6.025,6.025,0,0,0,1.217,1,2.735,2.735,0,0,0,1.522.44,1.732,1.732,0,0,0,1.339-.826c.32-.471.524-1.034.819-1.574a3.236,3.236,0,0,1,1.273-1.306,3.777,3.777,0,0,1,1.713-.458,3.273,3.273,0,0,1,2.883,1.478,29.453,29.453,0,0,0,1.6,2.485,4.089,4.089,0,0,0,2.152,1.253A3.907,3.907,0,0,0,528.5,84.6a4.215,4.215,0,0,0,1.386-.759,5.366,5.366,0,0,0,.909-1.012" transform="translate(-283.971 -44.687)" fill="#455a64"/>
        <path id="Trazado_198716" data-name="Trazado 198716" d="M562.624,87.333a1.288,1.288,0,0,1,.1.455,3.627,3.627,0,0,1-.12,1.265,4.4,4.4,0,0,1-.885,1.666,5.163,5.163,0,0,1-1.867,1.359,7.665,7.665,0,0,1-4.118.466,11.038,11.038,0,0,1-1.237-.246,1.672,1.672,0,0,1-.439-.147c.008-.038.647.122,1.695.233a8,8,0,0,0,4.007-.514,5.128,5.128,0,0,0,1.8-1.287,4.434,4.434,0,0,0,.889-1.575,5.013,5.013,0,0,0,.178-1.675" transform="translate(-311.524 -49.104)" fill="#455a64"/>
        <path id="Trazado_198717" data-name="Trazado 198717" d="M481.6,286.1a4.735,4.735,0,0,0,.992,2.453,3.229,3.229,0,0,0,2.365,1.255,3.6,3.6,0,0,0,3.181-1.6,9.062,9.062,0,0,0,.448-6.919,4,4,0,0,0-3.272-2.655,3.618,3.618,0,0,0-3.545,2.755" transform="translate(-270.785 -156.667)" fill="#d7e8fd"/>
        <path id="Trazado_198718" data-name="Trazado 198718" d="M481.76,281.281a2.95,2.95,0,0,1,.356-.944,3.882,3.882,0,0,1,.723-.947,3.366,3.366,0,0,1,1.363-.8,3.44,3.44,0,0,1,.916-.146,2.779,2.779,0,0,1,1,.132,3.945,3.945,0,0,1,1.788,1.282,5.161,5.161,0,0,1,1.051,2.189,9.434,9.434,0,0,1,.2,2.594,7.17,7.17,0,0,1-1.117,3.778,3.383,3.383,0,0,1-1.453,1.1,3.951,3.951,0,0,1-1.645.277h.013a2.476,2.476,0,0,1-1.179-.292,3.882,3.882,0,0,1-.886-.618,4.407,4.407,0,0,1-.966-1.439,4.223,4.223,0,0,1-.306-1.063,2.741,2.741,0,0,1-.028-.288c0-.066,0-.1,0-.1a5.882,5.882,0,0,0,.427,1.408,4.443,4.443,0,0,0,.97,1.371,3.789,3.789,0,0,0,.86.577,2.318,2.318,0,0,0,1.093.259h.013a3.5,3.5,0,0,0,2.91-1.318,7.035,7.035,0,0,0,1.062-3.659,6.644,6.644,0,0,0-1.181-4.638,3.775,3.775,0,0,0-1.684-1.235,2.6,2.6,0,0,0-.938-.136,3.283,3.283,0,0,0-2.2.865,3.971,3.971,0,0,0-.732.9,8.149,8.149,0,0,0-.433.9" transform="translate(-270.778 -156.556)" fill="#263238"/>
        <path id="Trazado_198719" data-name="Trazado 198719" d="M479.257,286.3a4.735,4.735,0,0,0,.991,2.453A3.228,3.228,0,0,0,482.613,290a3.6,3.6,0,0,0,3.181-1.6,9.062,9.062,0,0,0,.448-6.919,4,4,0,0,0-3.272-2.655,3.617,3.617,0,0,0-3.544,2.755" transform="translate(-269.468 -156.778)" fill="#d7e8fd"/>
        <path id="Trazado_198720" data-name="Trazado 198720" d="M479.419,281.479a2.951,2.951,0,0,1,.356-.944,3.875,3.875,0,0,1,.723-.947,3.36,3.36,0,0,1,1.363-.8,3.426,3.426,0,0,1,.916-.147,2.78,2.78,0,0,1,1,.132,3.944,3.944,0,0,1,1.788,1.282,5.161,5.161,0,0,1,1.051,2.189,9.435,9.435,0,0,1,.2,2.594,7.168,7.168,0,0,1-1.117,3.777,3.381,3.381,0,0,1-1.453,1.1,3.951,3.951,0,0,1-1.645.277h.013a2.476,2.476,0,0,1-1.179-.292,3.885,3.885,0,0,1-.886-.618,4.407,4.407,0,0,1-.966-1.439,4.223,4.223,0,0,1-.306-1.063,2.733,2.733,0,0,1-.028-.288c0-.066,0-.1,0-.1a5.886,5.886,0,0,0,.427,1.408,4.444,4.444,0,0,0,.97,1.371,3.792,3.792,0,0,0,.86.577,2.319,2.319,0,0,0,1.093.259h.013a3.5,3.5,0,0,0,2.91-1.318,7.035,7.035,0,0,0,1.062-3.659,6.643,6.643,0,0,0-1.181-4.638,3.777,3.777,0,0,0-1.684-1.235,2.6,2.6,0,0,0-.939-.136,3.283,3.283,0,0,0-2.2.865,3.971,3.971,0,0,0-.732.9,8.157,8.157,0,0,0-.433.9" transform="translate(-269.462 -156.667)" fill="#263238"/>
        <path id="Trazado_198721" data-name="Trazado 198721" d="M480.134,283.962a2.254,2.254,0,0,0-2.351,1.354,3.886,3.886,0,0,0,.005,2.857,3.54,3.54,0,0,0,.729,1.287,1.924,1.924,0,0,0,1.306.635,2.274,2.274,0,0,0,1.807-1.068,4.074,4.074,0,0,0,.617-3.358c-.2-.759-.758-1.537-1.543-1.557" transform="translate(-268.488 -159.642)" fill="#d7e8fd"/>
        <path id="Trazado_198722" data-name="Trazado 198722" d="M480.579,284.069a.417.417,0,0,1,.174,0,1.217,1.217,0,0,1,.475.161,2.331,2.331,0,0,1,1,1.507,4.137,4.137,0,0,1-.27,2.679,3.5,3.5,0,0,1-.981,1.288,1.9,1.9,0,0,1-1.689.4,2.355,2.355,0,0,1-1.35-1.1,4.933,4.933,0,0,1-.562-1.512,3.367,3.367,0,0,1,.437-2.644,2.353,2.353,0,0,1,1.527-.971,1.7,1.7,0,0,1,.5,0,.5.5,0,0,1,.167.047,3.233,3.233,0,0,0-.651.042,2.325,2.325,0,0,0-1.411.976,3.243,3.243,0,0,0-.363,2.509,4.8,4.8,0,0,0,.548,1.439,2.149,2.149,0,0,0,1.219,1,1.682,1.682,0,0,0,1.491-.361,3.318,3.318,0,0,0,.928-1.2,4.045,4.045,0,0,0,.3-2.555,2.3,2.3,0,0,0-.891-1.467,1.861,1.861,0,0,0-.6-.232" transform="translate(-268.361 -159.601)" fill="#263238"/>
        <path id="Trazado_198723" data-name="Trazado 198723" d="M485.592,299.018c-.035.009-.083-.137-.233-.313a1.625,1.625,0,0,0-.747-.479,4.106,4.106,0,0,0-.919-.143c-.244-.017-.4-.038-.4-.07s.15-.068.4-.091a2.59,2.59,0,0,1,.989.086,1.455,1.455,0,0,1,.81.6c.137.231.128.4.1.407" transform="translate(-271.738 -167.502)" fill="#263238"/>
        <path id="Trazado_198724" data-name="Trazado 198724" d="M486.035,282.637c.02.019-.067.156-.271.317a2.178,2.178,0,0,1-1.928.348c-.247-.08-.377-.177-.365-.2a3.288,3.288,0,0,0,2.564-.463" transform="translate(-271.837 -158.914)" fill="#263238"/>
      </g>
    </g>
    <g id="Grupo_137412" data-name="Grupo 137412">
      <g id="Grupo_137411" data-name="Grupo 137411" clip-path="url(#clip-path)">
        <path id="Trazado_198725" data-name="Trazado 198725" d="M172.2,90.782c.055-1.907-1.709-3.38-3.484-4.079s-3.748-.962-5.33-2.027c-1.4-.943-2.343-2.414-3.529-3.617a11.742,11.742,0,0,0-19.749,5.388c-.682,2.716-.216,5.926,1.924,7.731,2.485,2.095,6.168,1.629,9.351.978s6.787-1.294,9.445.575c1.6,1.128,2.522,2.961,3.5,4.659s2.21,3.43,4.063,4.068,4.369-.464,4.441-2.422" transform="translate(-78.615 -43.623)" fill="#263238"/>
        <path id="Trazado_198726" data-name="Trazado 198726" d="M164.343,99.178c-.21,1.6.947,3.029,2.1,4.158s2.452,2.325,2.655,3.924c.238,1.868-1.126,3.708-.731,5.549.251,1.169,1.16,2.069,1.711,3.129a6.649,6.649,0,0,1,.339,4.9c-.475,1.61-1.23,5.2-2.349,6.455a25.836,25.836,0,0,1-12.544,7.484,48.56,48.56,0,0,1-13.854.76c-3.792-.233-8.153-.059-11.313-5.276-1.637-2.7-2.447-6.3-3.317-9.332-.749-2.615-1.4-5.415-.618-8.022.454-1.519,1.367-2.868,1.814-4.389.559-1.9.355-3.93.58-5.9a13.531,13.531,0,0,1,19.251-10.684" transform="translate(-70.883 -50.972)" fill="#263238"/>
        <path id="Trazado_198727" data-name="Trazado 198727" d="M136,110.245c.355-5.442,3.976-12.112,9.4-11.526l16.924,4.318a3.191,3.191,0,0,1,2.848,3.243l-1.9,40.83.117.025s-3.857,11.517-15.049,8c-2.219-.7-3.232-3.125-3.672-5.621l-.115.014c0-.3-.008-.573-.012-.855a26.726,26.726,0,0,1-.067-5.607c-.032-3.3-.028-4.649-.03-4.618,0,0-6.951-1.17-8.371-10.246-.707-4.513-.464-11.91-.069-17.956" transform="translate(-76.253 -55.486)" fill="#ffbe9d"/>
        <path id="Trazado_198728" data-name="Trazado 198728" d="M142.715,136.239a1.163,1.163,0,0,0,1.119,1.177,1.113,1.113,0,0,0,1.2-1.047,1.164,1.164,0,0,0-1.118-1.177,1.114,1.114,0,0,0-1.2,1.047" transform="translate(-80.243 -76.012)" fill="#263238"/>
        <path id="Trazado_198729" data-name="Trazado 198729" d="M140.111,132.33c.144.152,1.027-.5,2.279-.492,1.251-.012,2.168.635,2.3.482.067-.068-.08-.342-.479-.634a3.2,3.2,0,0,0-1.844-.573,3.068,3.068,0,0,0-1.814.581c-.386.295-.517.569-.446.637" transform="translate(-78.769 -73.719)" fill="#263238"/>
        <path id="Trazado_198730" data-name="Trazado 198730" d="M170.829,136.239a1.163,1.163,0,0,0,1.119,1.176,1.113,1.113,0,0,0,1.2-1.046,1.164,1.164,0,0,0-1.118-1.177,1.113,1.113,0,0,0-1.2,1.047" transform="translate(-96.05 -76.012)" fill="#263238"/>
        <path id="Trazado_198731" data-name="Trazado 198731" d="M168.225,132.926c.144.152,1.028-.5,2.279-.492,1.251-.012,2.168.634,2.3.481.067-.068-.078-.342-.479-.634a3.19,3.19,0,0,0-1.844-.573,3.07,3.07,0,0,0-1.814.581c-.384.295-.517.569-.446.637" transform="translate(-94.576 -74.054)" fill="#263238"/>
        <path id="Trazado_198732" data-name="Trazado 198732" d="M153.726,142.281a8.336,8.336,0,0,0-2.033-.371c-.32-.034-.622-.1-.675-.316a1.629,1.629,0,0,1,.215-.947l.951-2.433a41.928,41.928,0,0,0,2.137-6.363,41.935,41.935,0,0,0-2.645,6.176c-.318.854-.622,1.668-.911,2.447a1.852,1.852,0,0,0-.169,1.255.8.8,0,0,0,.525.468,2.159,2.159,0,0,0,.543.077,8.129,8.129,0,0,0,2.062.007" transform="translate(-84.642 -74.135)" fill="#263238"/>
        <path id="Trazado_198733" data-name="Trazado 198733" d="M155.771,185.393a23.081,23.081,0,0,0,12.157-3.214s-3.069,6.273-12.147,5.4Z" transform="translate(-87.584 -102.432)" fill="#eb996e"/>
        <path id="Trazado_198734" data-name="Trazado 198734" d="M158.855,161.487a2.256,2.256,0,0,1,2.025-.833,2.06,2.06,0,0,1,1.42.766,1.3,1.3,0,0,1,.1,1.493,1.514,1.514,0,0,1-1.642.411,4.734,4.734,0,0,1-1.6-.959,1.382,1.382,0,0,1-.357-.371.418.418,0,0,1,0-.466" transform="translate(-89.247 -90.322)" fill="#eb996e"/>
        <path id="Trazado_198735" data-name="Trazado 198735" d="M161.1,157.676c-.2-.012-.209,1.347-1.374,2.309s-2.612.809-2.622,1c-.019.085.322.265.933.283a3.385,3.385,0,0,0,2.189-.757,2.948,2.948,0,0,0,1.065-1.936c.053-.568-.1-.9-.191-.9" transform="translate(-88.332 -88.655)" fill="#263238"/>
        <path id="Trazado_198736" data-name="Trazado 198736" d="M166.965,128.281c.123.341,1.373.182,2.841.362,1.473.151,2.656.583,2.851.278.088-.146-.118-.467-.6-.8a4.981,4.981,0,0,0-4.337-.489c-.54.216-.812.483-.759.645" transform="translate(-93.874 -71.603)" fill="#263238"/>
        <path id="Trazado_198737" data-name="Trazado 198737" d="M141.164,123.96c.22.285,1.083-.008,2.12-.02,1.037-.048,1.915.2,2.118-.1.089-.144-.049-.429-.432-.7a3.07,3.07,0,0,0-3.414.1c-.367.292-.488.584-.391.723" transform="translate(-79.353 -68.972)" fill="#263238"/>
        <path id="Trazado_198738" data-name="Trazado 198738" d="M178.523,130.4a8.056,8.056,0,0,1-9.584-8.909c.282-2.228,1.484-4.5.711-6.6-1.021-2.788-4.93-3.646-5.967-6.428-.6-1.617-.062-3.509-.745-5.094a6.05,6.05,0,0,0-3.737-2.9,15.592,15.592,0,0,1-4.444-1.929c-1.281-1-2.081-2.876-1.254-4.272a85.972,85.972,0,0,1,19.825,4.817,7.646,7.646,0,0,1,3.911,2.534c.926,1.392.882,3.192.8,4.862q-.57,12.219-1.14,24.438" transform="translate(-86.12 -53.001)" fill="#263238"/>
        <path id="Trazado_198739" data-name="Trazado 198739" d="M177.211,127.585a.578.578,0,0,0,.146-.094l.4-.307c.351-.275.866-.684,1.5-1.245a15.965,15.965,0,0,0,2.133-2.245,8.369,8.369,0,0,0,1.7-3.734,5.681,5.681,0,0,0-1.17-4.774,18.425,18.425,0,0,0-2.114-1.8,4.932,4.932,0,0,1-1.649-2.249c-.671-1.849-.372-3.991-.631-6.18a12.3,12.3,0,0,0-2.572-6.251,8.48,8.48,0,0,0-2.69-2.2,16.555,16.555,0,0,0-3.175-1.072,7.392,7.392,0,0,1-2.786-1.373,10.948,10.948,0,0,1-2.022-2.23c-1.139-1.618-1.982-3.343-3.068-4.781a10.382,10.382,0,0,0-1.788-1.9A6.835,6.835,0,0,0,157.309,84a4.518,4.518,0,0,0-4.029.4,3.71,3.71,0,0,0-1.431,2.716,2.706,2.706,0,0,0,.545,1.869,1.687,1.687,0,0,0,.37.354c.092.07.141.1.145.1s-.037-.049-.119-.127a1.985,1.985,0,0,1-.332-.372A2.688,2.688,0,0,1,152,87.125a3.569,3.569,0,0,1,1.406-2.545,4.294,4.294,0,0,1,3.81-.316,6.576,6.576,0,0,1,2.016,1.127,10.129,10.129,0,0,1,1.715,1.856c1.052,1.415,1.878,3.135,3.033,4.8a11.275,11.275,0,0,0,2.084,2.314,7.761,7.761,0,0,0,2.914,1.451,16.422,16.422,0,0,1,3.1,1.05,8.113,8.113,0,0,1,2.564,2.1A11.964,11.964,0,0,1,177.142,105c.264,2.116-.042,4.289.674,6.257a5.287,5.287,0,0,0,1.77,2.393,18.431,18.431,0,0,1,2.091,1.753,5.4,5.4,0,0,1,1.138,4.508,8.2,8.2,0,0,1-1.6,3.646,16.7,16.7,0,0,1-2.059,2.264c-.617.576-1.116,1-1.45,1.3a4.435,4.435,0,0,0-.5.463" transform="translate(-85.377 -47.067)" fill="#455a64"/>
        <path id="Trazado_198740" data-name="Trazado 198740" d="M207.253,185.5c1.865-1.8,5.051-.235,6.616,1.833s2.674,4.734,5.05,5.775,5.467.146,7.461,1.8c2.749,2.284,1.206,7.578,4.178,9.563,1.18.788,2.737.76,4,1.41,2.973,1.533,2.937,5.726,2.478,9.039-.644,4.649-1.351,9.468-3.916,13.4s-7.56,6.7-12,5.179c-4.268-1.457-6.459-6.063-8.2-10.226l-7.206-17.279a40.25,40.25,0,0,1-3.245-10.3c-.453-3.582.156-7.45,2.434-10.25" transform="translate(-113.762 -103.853)" fill="#263238"/>
        <path id="Trazado_198741" data-name="Trazado 198741" d="M209.969,177.422c1.356-.163,2.389,1.5,2.033,2.815a5.076,5.076,0,0,1-5.16,2.907,2.216,2.216,0,0,1-1.7-1.37,1.29,1.29,0,0,1,.623-1.7c.891-.557,1.414-1,2.117-1.383,1.076-.594,1.012-.673,2.088-1.267" transform="translate(-115.282 -99.751)" fill="#00bcd4"/>
        <path id="Trazado_198742" data-name="Trazado 198742" d="M141.047,204.036l5.264-3.989,19.832-1.268.8,2.659-6.451,40.256,5.089,48.028H137.911Z" transform="translate(-77.542 -111.766)" fill="#00bcd4"/>
        <g id="Grupo_137404" data-name="Grupo 137404" transform="translate(61.599 158.338)" opacity="0.3">
          <g id="Grupo_137403" data-name="Grupo 137403">
            <g id="Grupo_137402" data-name="Grupo 137402" clip-path="url(#clip-path-9)">
              <path id="Trazado_198743" data-name="Trazado 198743" d="M163.862,364.3a4.53,4.53,0,0,0-2.6-1.625c-6.624-.146-13.392-.808-20.016-.954l-.531,19.627a24.952,24.952,0,0,0,3.5-8.886c.183-1.391.416-3.054,1.686-3.649a3.8,3.8,0,0,1,2.339-.051,55.012,55.012,0,0,0,7.2,1.243,11.558,11.558,0,0,0,7.027-1.534,4.288,4.288,0,0,0,1.681-1.816,2.223,2.223,0,0,0-.3-2.354" transform="translate(-140.72 -361.719)"/>
            </g>
          </g>
        </g>
        <path id="Trazado_198744" data-name="Trazado 198744" d="M153.915,200.542l-.613-5.756a1.825,1.825,0,0,1,1.65-2.011l18.258-1.65a.862.862,0,0,1,.939.833l.206,6.848-5.287,8.971-5.435,1.729h-6.645l-3.822-4.081Z" transform="translate(-86.12 -107.46)" fill="#00bcd4"/>
        <path id="Trazado_198745" data-name="Trazado 198745" d="M172.047,203.3c0,.019-.262-.027-.73-.075a12.861,12.861,0,0,0-1.99-.034,19.61,19.61,0,0,0-2.923.421c-1.091.229-2.276.55-3.532.855a23.133,23.133,0,0,1-3.595.64,9.29,9.29,0,0,1-2.98-.2,6.3,6.3,0,0,1-1.859-.773,4.466,4.466,0,0,1-.444-.321c-.1-.081-.143-.127-.138-.133s.218.147.627.378a6.827,6.827,0,0,0,1.851.692,9.5,9.5,0,0,0,2.926.149,24.53,24.53,0,0,0,3.558-.652c1.251-.3,2.442-.62,3.543-.84a18.158,18.158,0,0,1,2.958-.376,10.848,10.848,0,0,1,2.008.107c.235.039.416.074.537.105a.6.6,0,0,1,.183.057" transform="translate(-86.507 -114.154)" fill="#00717f"/>
        <g id="Grupo_137407" data-name="Grupo 137407" transform="translate(67.905 88.981)" opacity="0.3">
          <g id="Grupo_137406" data-name="Grupo 137406">
            <g id="Grupo_137405" data-name="Grupo 137405" clip-path="url(#clip-path-10)">
              <path id="Trazado_198746" data-name="Trazado 198746" d="M155.453,204.346a3.939,3.939,0,0,0,.489,4.039,3.56,3.56,0,0,0,3.249.822,10.316,10.316,0,0,0,3.174-1.426,27.659,27.659,0,0,1,7.923-3.679,1.033,1.033,0,0,0,.513-.214.339.339,0,0,0,.016-.494.467.467,0,0,0-.236-.068c-2.525-.253-5.032.46-7.508,1.016s-5.12.949-7.507.088" transform="translate(-155.128 -203.274)"/>
            </g>
          </g>
        </g>
        <path id="Trazado_198747" data-name="Trazado 198747" d="M162.414,194.466a1.674,1.674,0,0,0-.625.6,4.2,4.2,0,0,0-.25,2.1c.047,1.7.328,3.066.261,3.079a3.025,3.025,0,0,1-.247-.88,13.576,13.576,0,0,1-.243-2.192,10.1,10.1,0,0,1,.025-1.22,2.13,2.13,0,0,1,.316-.969,1.263,1.263,0,0,1,.515-.459c.151-.067.244-.067.246-.054" transform="translate(-90.696 -109.338)" fill="#00717f"/>
        <path id="Trazado_198748" data-name="Trazado 198748" d="M173.849,198.843a26.978,26.978,0,0,0-.131-2.787,26.881,26.881,0,0,0-.649-2.714,2.409,2.409,0,0,1,.373.742,8.973,8.973,0,0,1,.559,3.943,2.406,2.406,0,0,1-.153.816" transform="translate(-97.307 -108.709)" fill="#00717f"/>
        <path id="Trazado_198749" data-name="Trazado 198749" d="M187.861,192.24a1.743,1.743,0,0,1,.348.678,4.718,4.718,0,0,1-.24,3.6,1.752,1.752,0,0,1-.435.626,6.035,6.035,0,0,0,.327-4.907" transform="translate(-105.441 -108.089)" fill="#00717f"/>
        <path id="Trazado_198750" data-name="Trazado 198750" d="M105.616,216.7a20.625,20.625,0,0,0-7.859,11.7c-1.286,5.919-4.808,37.18-4.808,37.18l-6.166,12.006,4.026,9.577a14.7,14.7,0,0,0,9.673-2.766l2.71-1.966,4.968-7.371Z" transform="translate(-48.795 -121.843)" fill="#eef5ff"/>
        <path id="Trazado_198751" data-name="Trazado 198751" d="M130.264,204.09l-10.553,5.52-2.49,8.184L115,241.515l4.178,27.809-7.328,23.3,12.637.094.3-13.659,1.262-44.211,1.24-28.163Z" transform="translate(-62.89 -114.752)" fill="#eef5ff"/>
        <path id="Trazado_198752" data-name="Trazado 198752" d="M137.492,244.1a2.39,2.39,0,0,1-.2-.329l-.524-.968c-.218-.425-.43-.972-.7-1.594-.13-.314-.236-.662-.367-1.024s-.267-.747-.373-1.162a43.725,43.725,0,0,1-1.512-13.226c.014-.4.029-.8.057-1.2l0-.069.064-.028,1.847-.776-.026.191-1.845-1.482-.039-.031,0-.045a16.04,16.04,0,0,1,.84-5.276c.464-1.544.973-2.874,1.418-3.967s.835-1.948,1.112-2.529c.139-.291.248-.513.326-.661a1.255,1.255,0,0,1,.127-.222,1.426,1.426,0,0,1-.093.238l-.293.675c-.256.59-.624,1.452-1.052,2.549s-.917,2.43-1.366,3.969a16.12,16.12,0,0,0-.8,5.206l-.041-.076,1.849,1.477.147.118-.174.074-1.846.779.069-.1c-.027.391-.042.79-.056,1.192a45.219,45.219,0,0,0,1.439,13.175c.1.414.236.8.355,1.16s.225.71.348,1.025c.261.623.46,1.172.665,1.6l.485.984a2.448,2.448,0,0,1,.156.351" transform="translate(-75.229 -117.904)" fill="#00717f"/>
        <path id="Trazado_198753" data-name="Trazado 198753" d="M120.515,281.461a2.085,2.085,0,0,1-.1-.343l-.249-.995c-.109-.432-.235-.963-.356-1.584s-.284-1.324-.408-2.111-.285-1.645-.4-2.575c-.141-.927-.238-1.924-.35-2.972-.19-2.1-.317-4.415-.319-6.848s.148-4.75.345-6.848c.116-1.048.216-2.045.36-2.971.122-.93.272-1.789.413-2.574s.289-1.49.416-2.11.251-1.151.362-1.582l.253-.994a2.131,2.131,0,0,1,.1-.343,2.081,2.081,0,0,1-.058.354l-.211,1c-.1.434-.212.966-.324,1.588s-.265,1.325-.382,2.112-.271,1.644-.385,2.572c-.136.925-.229,1.92-.339,2.965-.185,2.094-.314,4.4-.326,6.829s.123,4.735.3,6.829c.106,1.045.2,2.04.328,2.966.11.928.247,1.788.375,2.573s.262,1.492.374,2.113.222,1.155.318,1.589.155.754.207,1a2.125,2.125,0,0,1,.057.354" transform="translate(-66.531 -138.66)" fill="#00717f"/>
        <path id="Trazado_198754" data-name="Trazado 198754" d="M123.361,375.008a4.78,4.78,0,0,1-.513,1.062,17.346,17.346,0,0,1-3.595,4.388,4.8,4.8,0,0,1-.94.711,8.214,8.214,0,0,1,.831-.83,24.042,24.042,0,0,0,3.566-4.353,8.2,8.2,0,0,1,.65-.978" transform="translate(-66.523 -210.853)" fill="#00717f"/>
        <path id="Trazado_198755" data-name="Trazado 198755" d="M203.023,214.284a14.522,14.522,0,0,1,8.922,10.33c3.451,15.218,9.358,35.46,9.451,41.99.118,8.317-3.519,14.011-8.267,15.061-3.754.83-37.787-1.032-37.787-1.032l-1.592-12.68L201.31,263.9l-3.774-21.086,3.735-29.2Z" transform="translate(-97.694 -120.103)" fill="#eef5ff"/>
        <path id="Trazado_198756" data-name="Trazado 198756" d="M209.091,203.561l-7.62-3.114-8.033-4.707-.05,1.377a8.068,8.068,0,0,1,.956,5.584l-6.685,34.874,1.517,25.479,3.11,24.969h24.168l-11.1-26.112,3.917-35.187Z" transform="translate(-105.513 -110.058)" fill="#eef5ff"/>
        <path id="Trazado_198757" data-name="Trazado 198757" d="M208.172,346.115a.9.9,0,0,1-.164.023l-.487.047c-.429.047-1.064.042-1.884.064-1.64.008-4.021-.035-6.982-.132-5.923-.2-14.169-.594-23.477-1.134l-.094-.005-.011-.093c-.19-1.511-.39-3.1-.594-4.721-.343-2.736-.677-5.4-1-7.959l-.014-.109.108-.016,21.044-3.059,6.179-.876,1.661-.226.43-.053a.856.856,0,0,1,.147-.012.8.8,0,0,1-.144.031l-.427.073-1.655.263-6.169.942L173.609,332.3l.095-.124c.321,2.554.657,5.222,1,7.958.2,1.617.4,3.211.592,4.721l-.105-.1c9.305.547,17.55.97,23.469,1.208,2.96.117,5.338.183,6.976.2.818-.009,1.454.009,1.881-.024l.487-.025a.986.986,0,0,1,.167,0" transform="translate(-97.535 -184.339)" fill="#00717f"/>
        <path id="Trazado_198758" data-name="Trazado 198758" d="M227.578,275.456a1.022,1.022,0,0,1,.059.234l.133.675c.113.62.268,1.463.456,2.491.372,2.136.876,5.031,1.434,8.23.534,3.2,1.017,6.1,1.374,8.242.161,1.033.294,1.879.391,2.5.038.275.07.5.1.682a.121.121,0,1,1-.045.007c-.037-.179-.082-.4-.137-.675l-.462-2.489c-.381-2.1-.891-5.014-1.44-8.231s-1.031-6.13-1.368-8.242l-.384-2.5c-.037-.276-.067-.5-.091-.684a.941.941,0,0,1-.014-.24" transform="translate(-127.957 -154.879)" fill="#00717f"/>
        <path id="Trazado_198759" data-name="Trazado 198759" d="M197.915,201.351a.3.3,0,0,1,.031.085c.019.069.042.152.07.255.056.225.154.556.244.991a31.1,31.1,0,0,1,.581,3.753,42.557,42.557,0,0,1,.145,5.726c-.074,2.176-.305,4.584-.633,7.135l-.01.081-.081.015-2.491.462.085-.154c.141.383.289.794.4,1.22a15.528,15.528,0,0,1-.285,8.454,26.65,26.65,0,0,1-2.926,6.3c-1.04,1.687-1.98,2.985-2.626,3.882l-.756,1.025-.2.263a.413.413,0,0,1-.075.085.433.433,0,0,1,.056-.1l.183-.276.721-1.049c.623-.913,1.543-2.223,2.561-3.914a27.1,27.1,0,0,0,2.863-6.28,15.434,15.434,0,0,0,.266-8.335c-.112-.418-.256-.821-.394-1.2l-.048-.129.133-.025,2.492-.459-.091.1c.333-2.546.572-4.946.659-7.114a44.292,44.292,0,0,0-.095-5.705,34.9,34.9,0,0,0-.513-3.75c-.077-.437-.163-.77-.206-1-.021-.1-.037-.189-.051-.26a.308.308,0,0,1-.011-.09" transform="translate(-106.487 -113.212)" fill="#00717f"/>
        <path id="Trazado_198760" data-name="Trazado 198760" d="M206.207,274.479v-5.563s.072-1.373-1.084-1.084-.939,2.457-.939,2.457-.217,8.454.289,8.381.7-.722.7-.722V274.7Z" transform="translate(-114.779 -150.569)" fill="#00bcd4"/>
        <path id="Trazado_198761" data-name="Trazado 198761" d="M212.194,283.714a39.079,39.079,0,0,1-5.961,0,39.089,39.089,0,0,1,5.961,0" transform="translate(-115.957 -159.458)" fill="#00717f"/>
        <path id="Trazado_198762" data-name="Trazado 198762" d="M233.708,222.693a4.164,4.164,0,0,1-.623.231,14.491,14.491,0,0,0-1.653.716,12.857,12.857,0,0,0-4.472,3.811,9.457,9.457,0,0,0-.879,1.432,9.042,9.042,0,0,0-.529,1.473,14.8,14.8,0,0,0-.444,2.629c-.065.759-.077,1.377-.082,1.8a5.285,5.285,0,0,1-.016.664,2.875,2.875,0,0,1-.073-.663,16.623,16.623,0,0,1,.011-1.818,13.791,13.791,0,0,1,.4-2.671,8.987,8.987,0,0,1,.53-1.515,9.377,9.377,0,0,1,.9-1.471,12.389,12.389,0,0,1,4.584-3.821,11.5,11.5,0,0,1,1.7-.655,3.366,3.366,0,0,1,.651-.147" transform="translate(-126.462 -125.211)" fill="#00717f"/>
        <path id="Trazado_198763" data-name="Trazado 198763" d="M20.9,328.362l39.815,14.746,33.563,5.131-39.9-19.453Z" transform="translate(-11.749 -184.626)" fill="#263238"/>
        <path id="Trazado_198764" data-name="Trazado 198764" d="M56.336,353.543a16.963,16.963,0,0,0-2.12-6.032,4.519,4.519,0,0,1-.543-1.133,1.3,1.3,0,0,1,.225-1.188c.511-.556,1.445-.309,2.073.112a7.308,7.308,0,0,1,2.681,3.753,21.755,21.755,0,0,1,.876,4.6" transform="translate(-30.149 -193.906)" fill="#ffbe9d"/>
        <path id="Trazado_198765" data-name="Trazado 198765" d="M73.184,346.953H71.2a3.858,3.858,0,0,0-1.736-1,1.379,1.379,0,0,0-1.31.51c.885-1.458,1.839-3.063,2.022-3.5.356-.855-.428-1.5-1.71-1.5s-6.912,7.981-6.912,7.981,3.5-6.419,3.837-7.4c.847-2.451-1.832-2.634-2.806-1.452-1.208,1.468-6.091,8.851-6.091,8.851a3.439,3.439,0,0,0-.285,2.922c.641,1.425,2.494.855,2.494.855a2.39,2.39,0,0,0,1.307,1.981,4.073,4.073,0,0,0,3.311-.127l7.282,1.638s1.156-.117,2.636-.264a8.084,8.084,0,0,0,7.2-6.862Z" transform="translate(-31.48 -191.106)" fill="#ffbe9d"/>
        <path id="Trazado_198766" data-name="Trazado 198766" d="M78.244,354.661a24.266,24.266,0,0,1-2.145,3.4c-.629.915-1.212,1.734-1.643,2.321a6.013,6.013,0,0,1-.738.921,6.14,6.14,0,0,1,.6-1.013c.4-.61.959-1.444,1.588-2.358s1.206-1.737,1.629-2.328l.505-.7a1.489,1.489,0,0,1,.2-.247" transform="translate(-41.448 -199.413)" fill="#eb996e"/>
        <path id="Trazado_198767" data-name="Trazado 198767" d="M83.061,362.923a6.642,6.642,0,0,1,.646-1.193c.43-.717,1.044-1.7,1.718-2.778.335-.542.658-1.058.923-1.535a1.767,1.767,0,0,0,.16-1.351,3.358,3.358,0,0,0-.622-1.16c.008-.01.121.06.283.236a2.341,2.341,0,0,1,.494.88,1.9,1.9,0,0,1-.13,1.492c-.262.5-.579,1.013-.915,1.557-.675,1.084-1.31,2.049-1.775,2.744a10.033,10.033,0,0,1-.782,1.106" transform="translate(-46.701 -199.55)" fill="#eb996e"/>
        <path id="Trazado_198768" data-name="Trazado 198768" d="M90.61,367.3A4.2,4.2,0,0,1,91,366.163l.521-1.187a9.429,9.429,0,0,0,.534-1.47,1.715,1.715,0,0,0-.23-1.423,1.364,1.364,0,0,0-.52-.371,1.452,1.452,0,0,0-.543-.151,2.149,2.149,0,0,0-.784.274c-.185.092-.292.136-.3.122s.084-.083.255-.2a3.757,3.757,0,0,1,.327-.2,1.21,1.21,0,0,1,.5-.162,1.549,1.549,0,0,1,.621.14,1.518,1.518,0,0,1,.607.412,1.884,1.884,0,0,1,.288,1.606,8.447,8.447,0,0,1-.565,1.505c-.206.445-.4.837-.566,1.168-.33.659-.5,1.079-.534,1.069" transform="translate(-50.421 -203.201)" fill="#eb996e"/>
        <path id="Trazado_198769" data-name="Trazado 198769" d="M94.876,359.129a.8.8,0,0,1,.31.094,3.6,3.6,0,0,1,.761.447,4.154,4.154,0,0,1,1.178,5.28,3.588,3.588,0,0,1-.5.728c-.14.154-.231.226-.241.217-.032-.027.292-.359.595-1.016a4.22,4.22,0,0,0-1.135-5.083c-.554-.466-.988-.628-.97-.667" transform="translate(-53.345 -201.923)" fill="#eb996e"/>
        <path id="Trazado_198770" data-name="Trazado 198770" d="M61.1,349.567a21.27,21.27,0,0,1-1.649,2.639,21.174,21.174,0,0,1-1.838,2.511,21.323,21.323,0,0,1,1.649-2.639,21.249,21.249,0,0,1,1.837-2.511" transform="translate(-32.393 -196.548)" fill="#eb996e"/>
        <path id="Trazado_198771" data-name="Trazado 198771" d="M139.189,330.563l-4.552-1.032-4.371-4.117a3.106,3.106,0,0,0-1.95-.839l-7.955-.458a3.106,3.106,0,0,0-2.181.727l-5.688,4.805L137.3,341.743l3.4.3Z" transform="translate(-63.251 -182.236)" fill="#ffbe9d"/>
        <path id="Trazado_198772" data-name="Trazado 198772" d="M130.367,333.376c-.007.036-.59-.072-1.533-.191a6.646,6.646,0,0,0-3.6.374,9.359,9.359,0,0,0-1.717,1.073c-.5.377-.954.728-1.353,1a7.4,7.4,0,0,1-.984.573,1.361,1.361,0,0,1-.393.143c-.015-.035.524-.276,1.283-.847.382-.282.819-.642,1.319-1.032a8.822,8.822,0,0,1,1.751-1.113,5.136,5.136,0,0,1,2.032-.454,9,9,0,0,1,1.687.129c.474.077.852.164,1.112.227a1.439,1.439,0,0,1,.4.123" transform="translate(-67.913 -187.174)" fill="#eb996e"/>
        <path id="Trazado_198773" data-name="Trazado 198773" d="M139.268,343.63c-.015.036-.326-.106-.858-.163a4.631,4.631,0,0,0-2.046.285,10.745,10.745,0,0,0-1.873.961,3.757,3.757,0,0,1-.774.432,3.2,3.2,0,0,1,.685-.566,8.069,8.069,0,0,1,1.884-1.041,4.188,4.188,0,0,1,2.147-.23,1.679,1.679,0,0,1,.835.322" transform="translate(-75.184 -192.999)" fill="#eb996e"/>
        <path id="Trazado_198774" data-name="Trazado 198774" d="M165.853,340.513a239.739,239.739,0,0,1-3.063-4.109,15.429,15.429,0,0,1,3.063,4.109" transform="translate(-91.529 -189.147)" fill="#eb996e"/>
        <path id="Trazado_198775" data-name="Trazado 198775" d="M137.268,310.992l10.084-9.393a.963.963,0,0,0-1.3-1.421l-11.825,10.6" transform="translate(-75.471 -168.64)" fill="#00bcd4"/>
        <g id="Grupo_137410" data-name="Grupo 137410" transform="translate(58.757 131.291)" opacity="0.3">
          <g id="Grupo_137409" data-name="Grupo 137409">
            <g id="Grupo_137408" data-name="Grupo 137408" clip-path="url(#clip-path-11)">
              <path id="Trazado_198776" data-name="Trazado 198776" d="M137.268,310.992l10.084-9.393a.963.963,0,0,0-1.3-1.421l-11.825,10.6" transform="translate(-134.228 -299.931)"/>
            </g>
          </g>
        </g>
      </g>
    </g>
    <g id="Grupo_137414" data-name="Grupo 137414">
      <g id="Grupo_137413" data-name="Grupo 137413" clip-path="url(#clip-path)">
        <path id="Trazado_198777" data-name="Trazado 198777" d="M321.806,118.163c-.156-.063-6.262-1.664-5.893,4.51s6.493,4.53,6.493,4.352-.6-8.863-.6-8.863" transform="translate(-177.617 -66.308)" fill="#b78876"/>
        <path id="Trazado_198778" data-name="Trazado 198778" d="M322.409,127.433c-.028-.018-.1.081-.28.176a1.078,1.078,0,0,1-.8.064,2.665,2.665,0,0,1-1.374-2.314,3.56,3.56,0,0,1,.208-1.558,1.244,1.244,0,0,1,.76-.874.548.548,0,0,1,.653.257c.093.168.061.293.095.3.018.015.126-.111.061-.363a.686.686,0,0,0-.266-.373.814.814,0,0,0-.6-.122,1.514,1.514,0,0,0-1.066,1.025,3.656,3.656,0,0,0-.27,1.743,2.8,2.8,0,0,0,1.729,2.573,1.155,1.155,0,0,0,.974-.222c.182-.164.206-.3.184-.314" transform="translate(-179.648 -68.942)" fill="#aa6550"/>
        <path id="Trazado_198779" data-name="Trazado 198779" d="M364.621,68.066c3.137,0,6.332,0,10.26,2.051a12.678,12.678,0,0,1,5.312,5.821,13.4,13.4,0,0,1,1.459,6.517,14.292,14.292,0,0,1-.974,5.589" transform="translate(-205.013 -38.271)" fill="#263238"/>
        <path id="Trazado_198780" data-name="Trazado 198780" d="M341.854,69.12a16.648,16.648,0,0,1,17.791,15.731c.4,7.735.76,16.1.675,20.315-.184,9.042-9.24,10.376-9.24,10.376s.2,2.682.423,6.008a11.91,11.91,0,1,1-23.785,1.241l-1.345-36.445A16.654,16.654,0,0,1,341.854,69.12" transform="translate(-183.5 -38.841)" fill="#b78876"/>
        <path id="Trazado_198781" data-name="Trazado 198781" d="M367.928,170.633a21.515,21.515,0,0,1-11.6-3.575s2.735,6.579,11.765,5.836Z" transform="translate(-200.349 -93.93)" fill="#aa6550"/>
        <path id="Trazado_198782" data-name="Trazado 198782" d="M391.174,115.092a1.292,1.292,0,0,1-1.256,1.293,1.235,1.235,0,0,1-1.322-1.175,1.292,1.292,0,0,1,1.254-1.294,1.236,1.236,0,0,1,1.323,1.176" transform="translate(-218.493 -64.05)" fill="#263238"/>
        <path id="Trazado_198783" data-name="Trazado 198783" d="M390.79,110.659c-.162.167-1.134-.565-2.524-.573-1.388-.027-2.413.679-2.563.508-.074-.076.092-.379.539-.7a3.54,3.54,0,0,1,2.053-.615,3.4,3.4,0,0,1,2.007.665c.425.331.567.637.488.712" transform="translate(-216.857 -61.445)" fill="#263238"/>
        <path id="Trazado_198784" data-name="Trazado 198784" d="M360.04,115.093a1.291,1.291,0,0,1-1.255,1.293,1.235,1.235,0,0,1-1.322-1.174,1.292,1.292,0,0,1,1.255-1.294,1.236,1.236,0,0,1,1.323,1.176" transform="translate(-200.987 -64.051)" fill="#263238"/>
        <path id="Trazado_198785" data-name="Trazado 198785" d="M359.58,111c-.161.167-1.135-.565-2.524-.572-1.388-.027-2.414.68-2.563.508-.073-.076.091-.379.539-.7a3.538,3.538,0,0,1,2.053-.615,3.4,3.4,0,0,1,2.007.665c.424.331.567.637.488.712" transform="translate(-199.308 -61.638)" fill="#263238"/>
        <path id="Trazado_198786" data-name="Trazado 198786" d="M376.751,121.527a9.185,9.185,0,0,1,2.26-.389c.355-.034.692-.1.753-.343a1.8,1.8,0,0,0-.229-1.054q-.49-1.292-1.028-2.71c-1.427-3.859-2.456-7.031-2.3-7.087s1.439,3.027,2.865,6.885q.515,1.427.984,2.727a2.052,2.052,0,0,1,.173,1.394.89.89,0,0,1-.588.514,2.418,2.418,0,0,1-.6.079,9.062,9.062,0,0,1-2.288-.015" transform="translate(-211.519 -61.816)" fill="#263238"/>
        <path id="Trazado_198787" data-name="Trazado 198787" d="M367.811,138.529c.226-.011.217,1.5,1.5,2.578s2.889.928,2.9,1.139c.02.095-.361.29-1.039.3a3.754,3.754,0,0,1-2.421-.865,3.272,3.272,0,0,1-1.161-2.161c-.053-.631.119-1,.222-.994" transform="translate(-206.676 -77.889)" fill="#263238"/>
        <path id="Trazado_198788" data-name="Trazado 198788" d="M358.9,98.971c-.14.376-1.526.186-3.158.37-1.636.151-2.955.618-3.168.277-.1-.163.137-.517.671-.879a5.529,5.529,0,0,1,4.82-.493c.6.246.9.545.835.724" transform="translate(-198.229 -55.05)" fill="#263238"/>
        <path id="Trazado_198789" data-name="Trazado 198789" d="M390.825,99.252c-.247.313-1.2-.022-2.353-.046-1.15-.065-2.127.195-2.349-.137-.1-.161.059-.476.488-.772a3.408,3.408,0,0,1,3.789.148c.4.328.535.654.426.807" transform="translate(-217.087 -54.985)" fill="#263238"/>
        <path id="Trazado_198790" data-name="Trazado 198790" d="M326.2,88.6s.393,2.091.5,3.035c.039.344-.007,4.176.924,4.368a3.374,3.374,0,0,0,3.1-2.149c.708-1.585,2.056-5.387,1.91-7.116a25.018,25.018,0,0,1,.162-7.074,10.155,10.155,0,0,1,3.445-6.04,6.439,6.439,0,0,1,6.668-.907,36.359,36.359,0,0,1,3.5,2.624,5.43,5.43,0,0,0,3.729.97,3.51,3.51,0,0,0,2.883-2.363,3.823,3.823,0,0,0-1.428-3.806,8.733,8.733,0,0,0-3.938-1.613,21.184,21.184,0,0,0-11.74.82,15.306,15.306,0,0,0-8.578,7.853c-1.831,4.217-1.618,6.8-1.135,11.4" transform="translate(-183.218 -38.271)" fill="#263238"/>
        <path id="Trazado_198791" data-name="Trazado 198791" d="M357.92,108.728a10.92,10.92,0,0,0-.236-1.49,6.123,6.123,0,0,0-2.24-3.331,6.045,6.045,0,0,0-5.726-.852,6.048,6.048,0,0,0-2.8,2.106,6.009,6.009,0,0,0,0,7.132,6.049,6.049,0,0,0,2.8,2.107,6.091,6.091,0,0,0,7.967-4.183,10.909,10.909,0,0,0,.236-1.489.358.358,0,0,1,.006.1c0,.08,0,.176,0,.293a2.8,2.8,0,0,1-.037.476,4.35,4.35,0,0,1-.115.642,6.186,6.186,0,0,1-4.844,4.618,6.241,6.241,0,0,1-3.28-.259,6.255,6.255,0,0,1-2.911-2.172,6.216,6.216,0,0,1,0-7.4,6.246,6.246,0,0,1,2.91-2.172,6.239,6.239,0,0,1,3.28-.259,6.188,6.188,0,0,1,4.845,4.618,4.34,4.34,0,0,1,.115.642,2.794,2.794,0,0,1,.037.476c0,.117,0,.214,0,.293a.358.358,0,0,1-.006.1" transform="translate(-194.271 -57.627)" fill="#263238"/>
        <path id="Trazado_198792" data-name="Trazado 198792" d="M394.282,108.728a10.767,10.767,0,0,0-.235-1.49,6.124,6.124,0,0,0-2.241-3.331,6.045,6.045,0,0,0-5.727-.852,6.056,6.056,0,0,0-2.8,2.106,6.011,6.011,0,0,0,0,7.132,6.056,6.056,0,0,0,2.8,2.107,6.092,6.092,0,0,0,7.968-4.183,10.757,10.757,0,0,0,.235-1.489.324.324,0,0,1,.007.1c0,.08,0,.176,0,.293a2.8,2.8,0,0,1-.037.476,4.287,4.287,0,0,1-.115.642,6.186,6.186,0,0,1-4.844,4.618,6.242,6.242,0,0,1-3.281-.259,6.25,6.25,0,0,1-2.91-2.172,6.214,6.214,0,0,1,0-7.4,6.242,6.242,0,0,1,2.91-2.172,6.241,6.241,0,0,1,3.28-.259,6.186,6.186,0,0,1,4.844,4.618,4.277,4.277,0,0,1,.115.642,2.794,2.794,0,0,1,.037.476c0,.117,0,.214,0,.293a.324.324,0,0,1-.007.1" transform="translate(-214.716 -57.627)" fill="#263238"/>
        <path id="Trazado_198793" data-name="Trazado 198793" d="M377.518,114.46a3.078,3.078,0,0,1-.568-.2,3.661,3.661,0,0,0-2.75.183c-.327.159-.513.3-.536.27s.133-.2.458-.411a3.152,3.152,0,0,1,2.887-.192c.349.161.524.325.509.346" transform="translate(-210.097 -64.015)" fill="#263238"/>
        <path id="Trazado_198794" data-name="Trazado 198794" d="M387.017,77.29c.089-.469-.066-.732.2-.924.3-.219.871.356,1.08.585.067.073.279-.213.361-.267a1.569,1.569,0,0,0,.159-.6c-.039-.327-.552-.415-.794-.638a2.432,2.432,0,0,0-.852-.484.814.814,0,0,0-.816.048.787.787,0,0,0-.182.612,1.719,1.719,0,0,0,.124.637.9.9,0,0,0,.435.467" transform="translate(-217.128 -42.101)" fill="#263238"/>
        <path id="Trazado_198795" data-name="Trazado 198795" d="M325.861,101.15s4.433,1.626,6.741,2.6l-.13-2.267-6.45-2.552s-.164,1.685-.161,2.215" transform="translate(-183.219 -55.627)" fill="#eef5ff"/>
        <path id="Trazado_198796" data-name="Trazado 198796" d="M326.807,95.942A49.577,49.577,0,0,1,333,98.559a24.8,24.8,0,0,1-3.139-1.2,24.935,24.935,0,0,1-3.05-1.413" transform="translate(-183.751 -53.942)" fill="#eef5ff"/>
        <path id="Trazado_198797" data-name="Trazado 198797" d="M327.47,191.286l-.343-10.731a12.958,12.958,0,0,0,13.3,9.693C351.1,190.125,350.9,181.6,350.9,181.6l.381,4.325v17.472l-6.961,28.5-8.888,1.128-9.824-38.962Z" transform="translate(-183.078 -101.519)" fill="#00bcd4"/>
        <path id="Trazado_198798" data-name="Trazado 198798" d="M352.309,195.7a1.117,1.117,0,0,1-.129.228,6.126,6.126,0,0,1-.423.622,9.173,9.173,0,0,1-1.988,1.924,11.434,11.434,0,0,1-3.713,1.744,13.117,13.117,0,0,1-5.009.347,16.332,16.332,0,0,1-4.812-1.448A20.862,20.862,0,0,1,332.722,197a24.286,24.286,0,0,1-2.129-1.763c-.242-.219-.417-.4-.539-.523a1.136,1.136,0,0,1-.176-.195,1.158,1.158,0,0,1,.208.161l.567.49c.492.424,1.219,1.023,2.164,1.7a21.815,21.815,0,0,0,3.508,2.058,16.5,16.5,0,0,0,4.752,1.412A13.14,13.14,0,0,0,346,200.02a11.566,11.566,0,0,0,3.674-1.672,9.743,9.743,0,0,0,2.011-1.847c.407-.5.6-.809.622-.8" transform="translate(-185.478 -109.373)" fill="#00717f"/>
        <path id="Trazado_198799" data-name="Trazado 198799" d="M316.1,279.661l-.161-50.649-14.383-36.965-.483-11.125-8.764,6.629s-12.761,43.917-12.957,42.394,0,49.716,0,49.716Z" transform="translate(-157.02 -101.725)" fill="#eef5ff"/>
        <path id="Trazado_198800" data-name="Trazado 198800" d="M362.484,340.686c-.063,0-.114-11.413-.114-25.489s.051-25.491.114-25.491.114,11.41.114,25.491-.051,25.489-.114,25.489" transform="translate(-203.747 -162.891)" fill="#00717f"/>
        <path id="Trazado_198801" data-name="Trazado 198801" d="M309.361,212.591l1.779,1.346-1.251,8.194,21,21.991-19.069-25.041,1.625-6.491Z" transform="translate(-173.942 -119.532)" fill="#d7e8fd"/>
        <path id="Trazado_198802" data-name="Trazado 198802" d="M297.951,262.228l-32.221-9.447-1.067-24.474,8.837-32.243s-21.066,10.509-22.5,17.2-4.889,22.945-5.258,34.7c-.329,10.507-.377,17.531,2.022,20.884,6.871,9.6,52.15,11.32,70.24-.014" transform="translate(-138.081 -110.239)" fill="#eef5ff"/>
        <path id="Trazado_198803" data-name="Trazado 198803" d="M331.155,226.847a.828.828,0,0,1-.1-.118l-.289-.361-1.094-1.4-3.991-5.181-13.1-17.146-.985-1.295-.033-.043.013-.053,1.629-6.49.106.136-4.079-.006h-.1v-.1c.006-2.651.012-5.081.017-7.234v-.043l.034-.026,6.332-4.812,1.738-1.3.457-.335a.1.1,0,1,1,.016.02l-.442.355-1.71,1.342-6.286,4.873.034-.069c.005,2.153.011,4.584.017,7.234l-.1-.1,4.079-.005h.141l-.034.137-1.621,6.492-.02-.1.986,1.294L325.8,219.687l3.934,5.225,1.061,1.427.271.375a.842.842,0,0,1,.086.133" transform="translate(-173.808 -101.725)" fill="#00717f"/>
        <path id="Trazado_198804" data-name="Trazado 198804" d="M375.841,186.52c-2.57-4.494-3.9-4.027-3.9-4.027l.134,1.6,0,3.367L370.858,201.9l-7.807,31.382.161,47.251H392.72l3.673-57.679-.334-24.848Z" transform="translate(-204.13 -102.601)" fill="#eef5ff"/>
        <path id="Trazado_198805" data-name="Trazado 198805" d="M377.329,217.959s7.638,5.639,8.3,14.709c.537,7.368,1.771,27.542,1.993,31.934.348,6.84-4.978,22.856-18.845,18.319-8.315-2.721-39.039-13.164-39.039-13.164l2.044-13.048,36.466,2.172.724-30.415Z" transform="translate(-185.4 -122.55)" fill="#eef5ff"/>
        <path id="Trazado_198806" data-name="Trazado 198806" d="M309.98,309.013s-10.321-1.116-12.711-.539c-2.3.555-5.568,3.365-5.568,3.365l.046,4.078,16.605,4.641Z" transform="translate(-164.012 -173.35)" fill="#b78876"/>
        <path id="Trazado_198807" data-name="Trazado 198807" d="M363.05,228.585a.73.73,0,0,1,.046-.141l.155-.4.617-1.543,2.31-5.656,3.452-8.377c.327-.785.651-1.6,1.057-2.4.39-.808.849-1.6,1.322-2.4a52.877,52.877,0,0,1,3.277-4.73c.6-.768,1.2-1.516,1.816-2.232l-.02.116-1.286-3.269-.042-.109.11-.038,5.379-1.828-.055.151-6.1-10.182a8.012,8.012,0,0,0-2.037-2.628,2.684,2.684,0,0,0-.816-.33,2.992,2.992,0,0,1-.3-.073,2.25,2.25,0,0,1,.306.04,2.538,2.538,0,0,1,.843.307,3.7,3.7,0,0,1,1.035,1,18.259,18.259,0,0,1,1.072,1.613l6.172,10.144.067.109-.122.042-5.374,1.843.067-.146,1.29,3.268.025.064-.046.053c-.614.71-1.213,1.458-1.806,2.222a53.409,53.409,0,0,0-3.267,4.707c-.472.795-.93,1.581-1.318,2.381-.4.791-.726,1.6-1.058,2.387l-3.5,8.359-2.377,5.628-.657,1.526-.176.395a.712.712,0,0,1-.067.131" transform="translate(-204.129 -102.619)" fill="#00717f"/>
        <path id="Trazado_198808" data-name="Trazado 198808" d="M360.312,340.966a1.179,1.179,0,0,1-.128.135l-.393.381a11.537,11.537,0,0,1-1.676,1.271,11.344,11.344,0,0,1-3.069,1.286,12.417,12.417,0,0,1-4.394.279,14,14,0,0,1-2.516-.533c-.856-.273-1.713-.608-2.619-.926-1.8-.654-3.734-1.335-5.768-2.049-4.069-1.425-8.557-2.95-13.284-4.5-9.456-3.107-18.079-5.725-24.328-7.59l-7.406-2.191-2.013-.6-.522-.161a1.087,1.087,0,0,1-.176-.063,1.2,1.2,0,0,1,.182.04l.528.139,2.025.557c1.757.49,4.3,1.211,7.427,2.122,6.262,1.827,14.894,4.421,24.354,7.529,4.728,1.551,9.216,3.083,13.282,4.52,2.032.719,3.963,1.407,5.763,2.069.9.321,1.769.664,2.608.936a13.879,13.879,0,0,0,2.481.541,12.369,12.369,0,0,0,4.345-.243,11.443,11.443,0,0,0,3.054-1.238,12.534,12.534,0,0,0,1.691-1.23l.407-.364a1.185,1.185,0,0,1,.145-.119" transform="translate(-164.192 -183.133)" fill="#00717f"/>
        <path id="Trazado_198809" data-name="Trazado 198809" d="M281.359,325.6c-.007.048-.58-.077-1.5-.041a6.935,6.935,0,0,0-1.595.263,7.355,7.355,0,0,0-1.795.819,8.363,8.363,0,0,0-2.5,2.565c-.49.788-.7,1.331-.741,1.313a1.417,1.417,0,0,1,.122-.39,6.936,6.936,0,0,1,.481-1.006,7.827,7.827,0,0,1,2.511-2.674,7.106,7.106,0,0,1,1.861-.829,6.453,6.453,0,0,1,1.647-.222,5.418,5.418,0,0,1,1.112.1,1.4,1.4,0,0,1,.4.1" transform="translate(-153.624 -182.958)" fill="#00717f"/>
        <path id="Trazado_198810" data-name="Trazado 198810" d="M268.616,317.209c-.007,0,.007-.042.042-.115a1.091,1.091,0,0,1,.2-.286,2.067,2.067,0,0,1,1.145-.569,5.828,5.828,0,0,1,1.892,0,10.846,10.846,0,0,1,2.245.545,9.843,9.843,0,0,1,3.56,2.179,7.558,7.558,0,0,1,.825.966,1.8,1.8,0,0,1,.239.4c-.036.027-.4-.533-1.175-1.249A10.547,10.547,0,0,0,274.064,317a11.515,11.515,0,0,0-2.2-.552,6.065,6.065,0,0,0-1.835-.054,2.1,2.1,0,0,0-1.111.474c-.214.2-.286.349-.306.338" transform="translate(-151.032 -177.767)" fill="#00717f"/>
        <path id="Trazado_198811" data-name="Trazado 198811" d="M279.327,242.006a3.918,3.918,0,0,1-.147-.664c-.065-.207-.161-.457-.26-.749-.14-.276-.277-.6-.477-.935a13.233,13.233,0,0,0-1.642-2.185,17.613,17.613,0,0,0-2.517-2.214,15.139,15.139,0,0,0-5.5-2.527,11.405,11.405,0,0,0-1.832-.233,4.009,4.009,0,0,1-.681-.055,3.844,3.844,0,0,1,.683-.033,9.608,9.608,0,0,1,1.861.164,14.462,14.462,0,0,1,5.6,2.5,16.886,16.886,0,0,1,2.538,2.257,12.522,12.522,0,0,1,1.628,2.247c.195.345.324.682.455.967.09.3.175.561.227.776a3.874,3.874,0,0,1,.061.684" transform="translate(-149.713 -130.672)" fill="#00717f"/>
        <path id="Trazado_198812" data-name="Trazado 198812" d="M377.353,321.315a.805.805,0,0,1-.011-.156c0-.115-.006-.266-.01-.457-.012-.4-.028-1-.086-1.757a24.442,24.442,0,0,0-1.3-6.308,8.931,8.931,0,0,0-.884-1.927,3.776,3.776,0,0,0-1.708-1.448c-1.466-.632-3.231-.548-5.025-.65l-11.75-.494c-9.709-.423-18.346-.787-23.773-1.077l.073-.059c-.327,1.994-.587,3.575-.768,4.671q-.137.8-.213,1.238l-.06.318a.462.462,0,0,1-.027.107.5.5,0,0,1,.007-.109c.01-.083.024-.188.041-.321.042-.295.1-.71.177-1.243.165-1.1.4-2.685.7-4.684l.009-.061.064,0,23.775.988,11.75.512c.9.045,1.782.066,2.642.136a7.693,7.693,0,0,1,2.451.55,3.963,3.963,0,0,1,1.779,1.525,9.065,9.065,0,0,1,.889,1.97,23.723,23.723,0,0,1,1.232,6.356c.045.764.046,1.359.044,1.762-.005.192-.009.344-.013.459a.8.8,0,0,1-.012.155" transform="translate(-186.567 -172.558)" fill="#00717f"/>
        <path id="Trazado_198813" data-name="Trazado 198813" d="M419.814,274.614c.063,0,.114,3.532.114,7.888s-.051,7.889-.114,7.889-.114-3.532-.114-7.889.051-7.888.114-7.888" transform="translate(-235.982 -154.405)" fill="#00717f"/>
        <path id="Trazado_198814" data-name="Trazado 198814" d="M251.15,233.546s-.027.1-.09.291-.171.471-.264.854c-.213.758-.482,1.891-.784,3.366-.61,2.949-1.361,7.264-2.2,12.667-.418,2.7-.864,5.675-1.3,8.889-.223,1.6-.361,3.278-.477,5.01s-.207,3.52-.274,5.36c-.133,3.68-.211,7.568-.105,11.618.031,1.012.068,2.035.153,3.063.026.517.11,1.024.174,1.538a12.424,12.424,0,0,0,.373,1.511,8.6,8.6,0,0,0,1.45,2.772,6.254,6.254,0,0,0,2.489,1.917l.014.005,0,0a37.906,37.906,0,0,0,6.49,2.479c2.262.678,4.6,1.225,6.974,1.713a96.077,96.077,0,0,0,15.671,1.908,72.92,72.92,0,0,0,7.481-.2c2.438-.168,4.813-.423,7.112-.764a75.012,75.012,0,0,0,12.765-2.967,65.467,65.467,0,0,0,10.321-4.429l.011.142-14.16-5.013-3.813-1.361-.986-.358c-.221-.082-.333-.129-.333-.129s.116.033.34.108l.993.337,3.826,1.323,14.183,4.946.167.058-.156.084a65.222,65.222,0,0,1-10.337,4.468,74.861,74.861,0,0,1-12.793,3c-2.3.345-4.684.6-7.127.775a73.025,73.025,0,0,1-7.5.2,95.905,95.905,0,0,1-15.71-1.908c-2.38-.489-4.723-1.038-6.994-1.719a38.044,38.044,0,0,1-6.531-2.5l.018.008a6.451,6.451,0,0,1-2.593-1.991,8.822,8.822,0,0,1-1.486-2.844,12.5,12.5,0,0,1-.379-1.541c-.065-.522-.15-1.041-.175-1.558-.084-1.034-.12-2.059-.15-3.073-.1-4.059-.018-7.948.122-11.632q.105-2.762.285-5.365c.12-1.733.263-3.413.491-5.021.447-3.214.9-6.187,1.329-8.888.861-5.4,1.635-9.714,2.269-12.661.314-1.473.6-2.6.823-3.361.1-.382.218-.659.283-.85s.109-.284.109-.284" transform="translate(-137.976 -131.314)" fill="#00717f"/>
        <path id="Trazado_198815" data-name="Trazado 198815" d="M291.7,287.991c5.388-5.965,5.151-16.573,2.059-24.1-.285,8.154-1.248,15.385-1.985,23.308" transform="translate(-164.012 -148.376)" fill="#d7e8fd"/>
        <path id="Trazado_198816" data-name="Trazado 198816" d="M293.818,267.381a1.122,1.122,0,0,1,0,.261c-.013.2-.029.442-.049.745-.053.676-.126,1.6-.215,2.735-.192,2.336-.454,5.512-.743,9.021s-.524,6.688-.707,9.024c-.085,1.132-.155,2.06-.206,2.736-.026.3-.048.548-.064.743a1.135,1.135,0,0,1-.038.258,1.111,1.111,0,0,1-.008-.261c.006-.2.013-.442.022-.746.021-.648.069-1.584.133-2.741.133-2.313.353-5.508.641-9.032s.58-6.711.809-9.017c.119-1.13.216-2.055.288-2.729.037-.3.067-.547.091-.741a1.1,1.1,0,0,1,.047-.257" transform="translate(-164.06 -150.338)" fill="#00717f"/>
        <path id="Trazado_198817" data-name="Trazado 198817" d="M326.627,242.758c.063,0,.114,2.071.114,4.625s-.051,4.626-.114,4.626-.114-2.071-.114-4.626.051-4.625.114-4.625" transform="translate(-183.586 -136.494)" fill="#00717f"/>
        <path id="Trazado_198818" data-name="Trazado 198818" d="M318.755,268.279a4.736,4.736,0,0,0,.991,2.453,3.229,3.229,0,0,0,2.365,1.255,3.6,3.6,0,0,0,3.181-1.6,9.062,9.062,0,0,0,.448-6.919,4,4,0,0,0-3.272-2.655,3.618,3.618,0,0,0-3.545,2.755" transform="translate(-179.224 -146.647)" fill="#d7e8fd"/>
        <path id="Trazado_198819" data-name="Trazado 198819" d="M318.917,263.461a2.951,2.951,0,0,1,.356-.944,3.88,3.88,0,0,1,.723-.947,3.365,3.365,0,0,1,1.363-.8,3.44,3.44,0,0,1,.916-.146,2.779,2.779,0,0,1,1,.132,3.946,3.946,0,0,1,1.788,1.282,5.156,5.156,0,0,1,1.051,2.189,9.417,9.417,0,0,1,.2,2.594,7.166,7.166,0,0,1-1.117,3.777,3.38,3.38,0,0,1-1.453,1.1,3.951,3.951,0,0,1-1.645.277h.013a2.476,2.476,0,0,1-1.179-.292,3.893,3.893,0,0,1-.886-.618,4.406,4.406,0,0,1-.966-1.439,4.225,4.225,0,0,1-.306-1.063,2.742,2.742,0,0,1-.028-.288c0-.066,0-.1,0-.1a5.885,5.885,0,0,0,.427,1.408,4.444,4.444,0,0,0,.97,1.371,3.792,3.792,0,0,0,.86.577,2.319,2.319,0,0,0,1.093.259h.013a3.5,3.5,0,0,0,2.91-1.318,7.035,7.035,0,0,0,1.062-3.659,6.643,6.643,0,0,0-1.181-4.638,3.776,3.776,0,0,0-1.684-1.235,2.6,2.6,0,0,0-.938-.136,3.283,3.283,0,0,0-2.2.865,3.971,3.971,0,0,0-.732.9,8.178,8.178,0,0,0-.433.9" transform="translate(-179.218 -146.536)" fill="#00717f"/>
        <path id="Trazado_198820" data-name="Trazado 198820" d="M316.414,268.477a4.731,4.731,0,0,0,.991,2.453,3.229,3.229,0,0,0,2.365,1.255,3.6,3.6,0,0,0,3.181-1.6,9.06,9.06,0,0,0,.448-6.919,4,4,0,0,0-3.272-2.655,3.618,3.618,0,0,0-3.545,2.755" transform="translate(-177.908 -146.758)" fill="#d7e8fd"/>
        <path id="Trazado_198821" data-name="Trazado 198821" d="M316.576,263.659a2.951,2.951,0,0,1,.356-.944,3.879,3.879,0,0,1,.723-.947,3.363,3.363,0,0,1,1.363-.8,3.424,3.424,0,0,1,.916-.147,2.779,2.779,0,0,1,1,.132,3.949,3.949,0,0,1,1.788,1.282,5.16,5.16,0,0,1,1.051,2.189,9.417,9.417,0,0,1,.2,2.594,7.168,7.168,0,0,1-1.117,3.777,3.385,3.385,0,0,1-1.453,1.1,3.956,3.956,0,0,1-1.645.277h.013a2.476,2.476,0,0,1-1.179-.292,3.894,3.894,0,0,1-.886-.618,4.41,4.41,0,0,1-.966-1.439,4.251,4.251,0,0,1-.306-1.063,2.732,2.732,0,0,1-.028-.288.27.27,0,0,1,0-.1,5.914,5.914,0,0,0,.427,1.408,4.443,4.443,0,0,0,.97,1.371,3.79,3.79,0,0,0,.86.577,2.32,2.32,0,0,0,1.093.259h.013a3.5,3.5,0,0,0,2.91-1.318A7.035,7.035,0,0,0,323.743,267a6.643,6.643,0,0,0-1.181-4.638,3.773,3.773,0,0,0-1.684-1.235,2.6,2.6,0,0,0-.939-.136,3.283,3.283,0,0,0-2.2.865,3.97,3.97,0,0,0-.732.9,8.166,8.166,0,0,0-.433.9" transform="translate(-177.901 -146.648)" fill="#00717f"/>
        <path id="Trazado_198822" data-name="Trazado 198822" d="M317.291,266.142a2.254,2.254,0,0,0-2.351,1.355,3.885,3.885,0,0,0,.005,2.856,3.54,3.54,0,0,0,.729,1.287,1.924,1.924,0,0,0,1.306.635,2.273,2.273,0,0,0,1.807-1.068,4.076,4.076,0,0,0,.617-3.358c-.2-.759-.758-1.537-1.543-1.557" transform="translate(-176.927 -149.623)" fill="#d7e8fd"/>
        <path id="Trazado_198823" data-name="Trazado 198823" d="M317.736,266.248a.424.424,0,0,1,.174,0,1.219,1.219,0,0,1,.475.161,2.33,2.33,0,0,1,1,1.507,4.137,4.137,0,0,1-.27,2.679,3.486,3.486,0,0,1-.981,1.288,1.9,1.9,0,0,1-1.689.4,2.352,2.352,0,0,1-1.35-1.1,4.93,4.93,0,0,1-.562-1.512,3.367,3.367,0,0,1,.437-2.644,2.351,2.351,0,0,1,1.527-.971,1.675,1.675,0,0,1,.5,0,.5.5,0,0,1,.167.047,3.268,3.268,0,0,0-.651.042,2.322,2.322,0,0,0-1.411.977,3.241,3.241,0,0,0-.363,2.509,4.792,4.792,0,0,0,.548,1.439,2.144,2.144,0,0,0,1.219,1A1.679,1.679,0,0,0,318,271.7a3.313,3.313,0,0,0,.928-1.2,4.044,4.044,0,0,0,.3-2.555,2.3,2.3,0,0,0-.891-1.467,1.841,1.841,0,0,0-.6-.232" transform="translate(-176.801 -149.58)" fill="#00717f"/>
        <path id="Trazado_198824" data-name="Trazado 198824" d="M322.749,281.2c-.035.009-.083-.137-.233-.313a1.621,1.621,0,0,0-.747-.479,4.1,4.1,0,0,0-.919-.143c-.244-.017-.4-.038-.4-.07s.15-.067.4-.091a2.6,2.6,0,0,1,.989.086,1.458,1.458,0,0,1,.81.6c.137.231.128.4.1.407" transform="translate(-180.177 -157.483)" fill="#00717f"/>
        <path id="Trazado_198825" data-name="Trazado 198825" d="M323.192,264.817c.02.019-.067.156-.271.317a2.178,2.178,0,0,1-1.928.348c-.247-.08-.377-.177-.365-.2a3.289,3.289,0,0,0,2.564-.463" transform="translate(-180.277 -148.894)" fill="#00717f"/>
        <path id="Trazado_198826" data-name="Trazado 198826" d="M395.2,193.19c0-.007.053.011.144.053a4.172,4.172,0,0,1,.39.2,7.932,7.932,0,0,1,1.311.938,9.413,9.413,0,0,1,2.818,4.458,28.49,28.49,0,0,1,1.073,5.19c.076.674.117,1.221.142,1.6a2.9,2.9,0,0,1,.011.59,2.933,2.933,0,0,1-.1-.581c-.056-.419-.128-.952-.214-1.588a33.5,33.5,0,0,0-1.132-5.146,9.7,9.7,0,0,0-2.707-4.4,14.928,14.928,0,0,0-1.737-1.312" transform="translate(-222.205 -108.623)" fill="#00717f"/>
        <path id="Trazado_198827" data-name="Trazado 198827" d="M382.532,301.664c1.269-.049,2.282-1.314,3.55-1.246a1.764,1.764,0,1,1-.3,3.514c-1.332-.155-2.111-1.716-3.418-2.016" transform="translate(-214.991 -168.913)" fill="#00717f"/>
        <path id="Trazado_198828" data-name="Trazado 198828" d="M389.173,258.862a7.553,7.553,0,0,1-1.188-.1l.069-.433a5.039,5.039,0,0,0,3.915-.764c1.3-.952,2.13-2.655,2.482-5.063l.014-.091c.143-.954.341-19.677.341-23.231a6.062,6.062,0,0,0-5.081-6.339c-.2-.036-4.627-.777-6.978,5.288-2.461,6.351-6.4,18.589-6.656,20.023-.032.176-.08.393-.136.646-.409,1.836-1.26,5.657,1.288,7.859,2.841,2.453,5.082,1.5,5.175,1.463l.179.4c-.1.046-2.577,1.115-5.641-1.531-2.747-2.372-1.857-6.366-1.43-8.285.055-.246.1-.457.133-.629.262-1.445,4.211-13.735,6.679-20.1,2.486-6.417,7.407-5.572,7.456-5.562a6.586,6.586,0,0,1,5.448,6.771c0,2.928-.194,22.283-.347,23.3l-.013.09c-.369,2.527-1.262,4.328-2.656,5.352a5.031,5.031,0,0,1-3.055.942" transform="translate(-210.873 -125.029)" fill="#00717f"/>
        <path id="Trazado_198829" data-name="Trazado 198829" d="M404.094,238.659a8.171,8.171,0,0,0-.911-2.182,7.421,7.421,0,0,0-4.542-3.2A8.23,8.23,0,0,0,393.1,234a9.774,9.774,0,0,0-1.926,1.38c-.006-.005.028-.051.1-.134a3.817,3.817,0,0,1,.327-.349,6.606,6.606,0,0,1,1.423-1.039,8.134,8.134,0,0,1,5.67-.8,7.473,7.473,0,0,1,2.888,1.384,7.271,7.271,0,0,1,1.739,1.955,5.8,5.8,0,0,1,.675,1.629,3.371,3.371,0,0,1,.088.471.46.46,0,0,1,.011.167" transform="translate(-219.942 -130.926)" fill="#00717f"/>
        <path id="Trazado_198830" data-name="Trazado 198830" d="M433.225,317.441a15.062,15.062,0,0,0-.6-1.867,8.156,8.156,0,0,0-2.97-3.563,6.413,6.413,0,0,0-2.409-.869,21.229,21.229,0,0,0-2.12-.22l-1.441-.1a2.371,2.371,0,0,1-.527-.072,2.434,2.434,0,0,1,.531-.017l1.445.028a18.105,18.105,0,0,1,2.146.174,6.411,6.411,0,0,1,2.5.884,7.936,7.936,0,0,1,3,3.693,7.031,7.031,0,0,1,.4,1.4,2.014,2.014,0,0,1,.052.531" transform="translate(-237.925 -174.713)" fill="#00717f"/>
        <path id="Trazado_198831" data-name="Trazado 198831" d="M395.715,294.131s4.3-6.52,5.4-7.374,10.5-5.1,11.6-4.414.423,2.162.423,2.162,3.978-1.393,4.4-.844a1.967,1.967,0,0,1,0,2.242s2.2-.338,2.2.339a2.786,2.786,0,0,1-1.269,2.285c-1.015.762-7.619,5.159-8.149,6.373l-2.14-.13Z" transform="translate(-222.496 -158.709)" fill="#b78876"/>
        <path id="Trazado_198832" data-name="Trazado 198832" d="M424.012,296.97a1.553,1.553,0,0,1,.2-.411,7.647,7.647,0,0,1,.707-1.02,11.851,11.851,0,0,1,3.122-2.628,23.566,23.566,0,0,1,3.693-1.735c.487-.185.885-.326,1.161-.418a1.758,1.758,0,0,1,.438-.122,1.743,1.743,0,0,1-.405.2l-1.133.485a29.9,29.9,0,0,0-3.635,1.781,13.074,13.074,0,0,0-3.116,2.537c-.682.777-.991,1.347-1.027,1.326" transform="translate(-238.405 -163.413)" fill="#aa6550"/>
        <path id="Trazado_198833" data-name="Trazado 198833" d="M411.538,294.922a2.3,2.3,0,0,1,.209-.479c.148-.3.366-.735.662-1.26a12.03,12.03,0,0,1,1.187-1.757,5.534,5.534,0,0,1,.9-.893c.363-.245.745-.475,1.14-.709a31.442,31.442,0,0,1,4.2-2.1,12.332,12.332,0,0,1,1.352-.453,2.3,2.3,0,0,1,.516-.092c.009.039-.714.206-1.807.694a39.944,39.944,0,0,0-4.148,2.143c-.392.232-.776.462-1.129.7a5.589,5.589,0,0,0-.868.845,13.29,13.29,0,0,0-1.208,1.7l-.723,1.22a2.3,2.3,0,0,1-.287.437" transform="translate(-231.391 -161.47)" fill="#aa6550"/>
      </g>
    </g>
    <g id="Grupo_137416" data-name="Grupo 137416">
      <g id="Grupo_137415" data-name="Grupo 137415" clip-path="url(#clip-path)">
        <path id="Trazado_198834" data-name="Trazado 198834" d="M295,406.61c0,.063-66.043.114-147.493.114C66.029,406.724,0,406.673,0,406.61s66.029-.114,147.507-.114c81.45,0,147.493.051,147.493.114" transform="translate(0 -228.558)" fill="#00717f"/>
      </g>
    </g>
  </g>
</svg>
