<svg id="Grupo_137439" data-name="Grupo 137439" xmlns="http://www.w3.org/2000/svg" xmlns:xlink="http://www.w3.org/1999/xlink" width="293.89" height="187.941" viewBox="0 0 293.89 187.941">
  <defs>
    <clipPath id="clip-path">
      <rect id="Rectángulo_43879" data-name="Rectángulo 43879" width="293.89" height="187.941" fill="none"/>
    </clipPath>
    <clipPath id="clip-path-3">
      <rect id="Rectángulo_43849" data-name="Rectángulo 43849" width="293.89" height="187.699" fill="none"/>
    </clipPath>
    <clipPath id="clip-path-5">
      <rect id="Rectángulo_43859" data-name="Rectángulo 43859" width="2.79" height="2.789" fill="none"/>
    </clipPath>
    <clipPath id="clip-path-6">
      <rect id="Rectángulo_43865" data-name="Rectángulo 43865" width="15.767" height="8.009" fill="none"/>
    </clipPath>
    <clipPath id="clip-path-7">
      <rect id="Rectángulo_43870" data-name="Rectángulo 43870" width="2.85" height="2.85" fill="none"/>
    </clipPath>
    <clipPath id="clip-path-8">
      <rect id="Rectángulo_43876" data-name="Rectángulo 43876" width="1.798" height="1.798" fill="none"/>
    </clipPath>
  </defs>
  <g id="Grupo_137438" data-name="Grupo 137438" clip-path="url(#clip-path)">
    <g id="Grupo_137423" data-name="Grupo 137423" transform="translate(0 0)">
      <g id="Grupo_137422" data-name="Grupo 137422" clip-path="url(#clip-path)">
        <g id="Grupo_137421" data-name="Grupo 137421" transform="translate(0 0)" opacity="0.35">
          <g id="Grupo_137420" data-name="Grupo 137420">
            <g id="Grupo_137419" data-name="Grupo 137419" clip-path="url(#clip-path-3)">
              <path id="Trazado_198835" data-name="Trazado 198835" d="M293.6,71.063c-2.39-38.607-26.643-69.5-67.065-71.006A89.56,89.56,0,0,0,191.665,6.1C177.2,11.537,164.678,21.2,149.834,25.75c-20.7,6.339-41.791,4.2-63.1,4.712-14.528.348-29.274,1.972-42.657,7.635C-11.859,61.768-5.1,134.5,13.017,180.977q1.317,3.38,2.745,6.724H264.084c19.487-35.743,31.9-78.043,29.512-116.638" transform="translate(0 -0.002)" fill="#d7e8fd"/>
            </g>
          </g>
        </g>
      </g>
    </g>
    <rect id="Rectángulo_43851" data-name="Rectángulo 43851" width="29.942" height="39.371" transform="translate(47.253 148.327)" fill="#a6e8f0"/>
    <rect id="Rectángulo_43852" data-name="Rectángulo 43852" width="30.106" height="53.599" transform="translate(98.866 134.1)" fill="#a6e8f0"/>
    <rect id="Rectángulo_43853" data-name="Rectángulo 43853" width="31.519" height="70.93" transform="translate(149.995 116.769)" fill="#a6e8f0"/>
    <rect id="Rectángulo_43854" data-name="Rectángulo 43854" width="33.007" height="93.493" transform="translate(204.761 94.206)" fill="#a6e8f0"/>
    <g id="Grupo_137437" data-name="Grupo 137437" transform="translate(0 0)">
      <g id="Grupo_137436" data-name="Grupo 137436" clip-path="url(#clip-path)">
        <path id="Trazado_198836" data-name="Trazado 198836" d="M401.227,401.4l-.094-5.826c8.622-.143,32.155-2.371,59.5-9.772a301.256,301.256,0,0,0,57.089-21.76,262.536,262.536,0,0,0,60.011-41.435l3.958,4.277A268.4,268.4,0,0,1,520.247,369.3a307.169,307.169,0,0,1-58.27,22.18c-34.839,9.406-59.708,9.908-60.749,9.925" transform="translate(-352.481 -283.479)" fill="#a6e8f0"/>
        <path id="Trazado_198837" data-name="Trazado 198837" d="M1789.624,305.837l-18.011-18.011h18.011Z" transform="translate(-1556.741 -252.917)" fill="#a6e8f0"/>
        <path id="Trazado_198838" data-name="Trazado 198838" d="M1357.256,365.124,1350.55,361c-.055-.271-.118-.542-.2-.812a10.363,10.363,0,0,0-20.225,4.278l-4.813,5.886a.118.118,0,0,0,.126.187l6.213-1.921a10.363,10.363,0,0,0,18.753-2.908l6.773-.3a.153.153,0,0,0,.073-.284" transform="translate(-1164.551 -309.904)" fill="#fff"/>
        <path id="Trazado_198839" data-name="Trazado 198839" d="M1339.067,372.288a10.467,10.467,0,0,1-3.789-.714,10.634,10.634,0,0,1-5.017-4.051l-6.081,1.88a.3.3,0,0,1-.32-.476l4.763-5.824a10.545,10.545,0,0,1,20.591-4.274c.066.229.125.474.183.748l6.638,4.086a.335.335,0,0,1-.161.62l-6.641.294a10.571,10.571,0,0,1-10.165,7.711m-8.65-5.194.074.117a10.238,10.238,0,0,0,11.393,4.313,10.108,10.108,0,0,0,7.031-7.169l.035-.129,6.813-.3-6.693-4.119-.016-.077c-.06-.3-.123-.557-.192-.8a10.181,10.181,0,0,0-19.87,4.2l.011.079-4.728,5.782Z" transform="translate(-1163.233 -308.598)" fill="#5254cf"/>
        <path id="Trazado_198840" data-name="Trazado 198840" d="M1433.532,412.8a2.729,2.729,0,1,0-4.981,1.537,1.268,1.268,0,0,1,.219.719v1.686h4.065v-1.686a1.25,1.25,0,0,1,.214-.712,2.706,2.706,0,0,0,.482-1.544" transform="translate(-1254.868 -360.335)" fill="#fff"/>
        <path id="Trazado_198841" data-name="Trazado 198841" d="M1431.7,415.609h-4.429v-1.868a1.084,1.084,0,0,0-.187-.616,2.911,2.911,0,1,1,4.8.008,1.062,1.062,0,0,0-.182.608Zm-4.065-.364h3.7v-1.5a1.425,1.425,0,0,1,.247-.815,2.523,2.523,0,0,0,.45-1.441,2.547,2.547,0,1,0-4.649,1.434,1.447,1.447,0,0,1,.251.822Z" transform="translate(-1253.554 -359.021)" fill="#5254cf"/>
        <rect id="Rectángulo_43855" data-name="Rectángulo 43855" width="4.065" height="1.499" transform="translate(173.902 57.563)" fill="#fff"/>
        <path id="Trazado_198842" data-name="Trazado 198842" d="M1436.744,474.969h-4.429v-1.863h4.429Zm-4.065-.364h3.7V473.47h-3.7Z" transform="translate(-1258.595 -415.725)" fill="#5254cf"/>
        <path id="Trazado_198843" data-name="Trazado 198843" d="M1438.918,423.07a1.2,1.2,0,0,0-.394,1.486" transform="translate(-1263.954 -371.758)" fill="#fff"/>
        <path id="Trazado_198844" data-name="Trazado 198844" d="M1437.047,423.522a1.38,1.38,0,0,1,.463-1.707l.2.3-.1-.152.1.152a1.019,1.019,0,0,0-.326,1.266Z" transform="translate(-1262.645 -370.655)" fill="#5254cf"/>
        <line id="Línea_192" data-name="Línea 192" x1="2.335" y1="1.668" transform="translate(170.264 48.189)" fill="#fff"/>
        <rect id="Rectángulo_43856" data-name="Rectángulo 43856" width="0.364" height="2.869" transform="translate(170.159 48.337) rotate(-54.462)" fill="#5254cf"/>
        <line id="Línea_193" data-name="Línea 193" y1="1.668" x2="2.335" transform="translate(179.088 48.037)" fill="#fff"/>
        <rect id="Rectángulo_43857" data-name="Rectángulo 43857" width="2.869" height="0.364" transform="translate(178.982 49.557) rotate(-35.546)" fill="#5254cf"/>
        <line id="Línea_194" data-name="Línea 194" y1="2.868" x2="0.091" transform="translate(175.87 45.234)" fill="#fff"/>
        <rect id="Rectángulo_43858" data-name="Rectángulo 43858" width="2.869" height="0.364" transform="translate(175.688 48.096) rotate(-88.167)" fill="#5254cf"/>
        <path id="Trazado_198845" data-name="Trazado 198845" d="M779.011,467.778a8.062,8.062,0,0,0-7.655,10.626l-3.516,4.271a.085.085,0,0,0,.1.133l4.725-1.978a8.07,8.07,0,1,0,6.346-13.052" transform="translate(-674.694 -411.043)" fill="#fff"/>
        <path id="Trazado_198846" data-name="Trazado 198846" d="M777.7,482.789a8.206,8.206,0,0,1-6.4-3.055l-4.6,1.925a.267.267,0,0,1-.31-.417l3.453-4.194a8.252,8.252,0,1,1,7.858,5.741m-6.289-3.5.086.109a7.9,7.9,0,1,0-1.279-2.372l.032.1-3.333,4.048Z" transform="translate(-673.379 -409.726)" fill="#5254cf"/>
        <path id="Trazado_198847" data-name="Trazado 198847" d="M839.025,506.224l2.3,2.365,2.85-6.853" transform="translate(-737.263 -440.884)" fill="#fff"/>
        <path id="Trazado_198848" data-name="Trazado 198848" d="M840.448,508.408l-2.5-2.562.26-.254,2.112,2.168,2.744-6.6.336.14Z" transform="translate(-736.319 -440.377)" fill="#5254cf"/>
        <path id="Trazado_198849" data-name="Trazado 198849" d="M2046.77,515.224A10.956,10.956,0,1,1,2035.7,504.27c-.037,1.192-.073,2.593-.1,3.989a6.969,6.969,0,1,0,7.182,6.965,6.818,6.818,0,0,0-.351-2.172l3.809-1.192a10.791,10.791,0,0,1,.531,3.364" transform="translate(-1779.271 -443.109)" fill="#a6e8f0"/>
        <path id="Trazado_198850" data-name="Trazado 198850" d="M2124.065,511.831l-3.809,1.192a6.955,6.955,0,0,0-6.618-4.8c-.069,0-.143,0-.212,0,.028-1.4.065-2.8.1-3.989a1.019,1.019,0,0,1,.11,0,10.959,10.959,0,0,1,10.427,7.594" transform="translate(-1857.096 -443.08)" fill="#ffdda6"/>
        <path id="Trazado_198851" data-name="Trazado 198851" d="M190.34,1264.808a8.45,8.45,0,1,1-8.45-8.45,8.45,8.45,0,0,1,8.45,8.45" transform="translate(-152.404 -1103.98)" fill="#ffdda6"/>
        <path id="Trazado_198852" data-name="Trazado 198852" d="M220.531,1291.555v-1.285a5.449,5.449,0,0,1-2.3-.582l.406-1.583a4.781,4.781,0,0,0,2.246.595c.771,0,1.3-.3,1.3-.838,0-.515-.433-.84-1.434-1.178-1.448-.487-2.436-1.163-2.436-2.476a2.5,2.5,0,0,1,2.287-2.408v-1.286h1.326v1.191a4.883,4.883,0,0,1,1.962.446l-.392,1.529a4.49,4.49,0,0,0-1.948-.46c-.88,0-1.164.379-1.164.758,0,.446.474.73,1.624,1.163,1.61.568,2.26,1.312,2.26,2.531a2.593,2.593,0,0,1-2.408,2.5v1.379Z" transform="translate(-191.763 -1125.207)" fill="#fff"/>
        <path id="Trazado_198853" data-name="Trazado 198853" d="M104.464,1158.284a4.445,4.445,0,1,1-4.445-4.445,4.445,4.445,0,0,1,4.445,4.445" transform="translate(-83.982 -1013.895)" fill="#ffdda6"/>
        <path id="Trazado_198854" data-name="Trazado 198854" d="M120.348,1172.354v-.676a2.866,2.866,0,0,1-1.21-.306l.214-.833a2.517,2.517,0,0,0,1.181.313c.406,0,.683-.156.683-.441s-.228-.442-.754-.62c-.762-.256-1.281-.612-1.281-1.3a1.315,1.315,0,0,1,1.2-1.267v-.676h.7v.627a2.569,2.569,0,0,1,1.032.235l-.206.8a2.362,2.362,0,0,0-1.025-.242c-.463,0-.612.2-.612.4,0,.235.249.384.854.612.847.3,1.189.69,1.189,1.331a1.364,1.364,0,0,1-1.267,1.317v.726Z" transform="translate(-104.688 -1025.061)" fill="#fff"/>
        <path id="Trazado_198855" data-name="Trazado 198855" d="M254.468,1061.349a4.445,4.445,0,1,1-4.445-4.445,4.445,4.445,0,0,1,4.445,4.445" transform="translate(-215.793 -928.717)" fill="#ffdda6"/>
        <path id="Trazado_198856" data-name="Trazado 198856" d="M270.351,1075.419v-.676a2.866,2.866,0,0,1-1.21-.306l.213-.833a2.517,2.517,0,0,0,1.181.313c.406,0,.683-.156.683-.441s-.228-.442-.754-.62c-.762-.256-1.281-.612-1.281-1.3a1.315,1.315,0,0,1,1.2-1.267v-.676h.7v.626a2.571,2.571,0,0,1,1.032.235l-.206.8a2.362,2.362,0,0,0-1.025-.242c-.463,0-.612.2-.612.4,0,.235.249.384.854.612.847.3,1.189.69,1.189,1.331a1.364,1.364,0,0,1-1.267,1.317v.726Z" transform="translate(-236.498 -939.882)" fill="#fff"/>
        <path id="Trazado_198857" data-name="Trazado 198857" d="M2062.868,1110.007a9,9,0,1,1-9-9,9,9,0,0,1,9,9" transform="translate(-1796.861 -967.474)" fill="#ffdda6"/>
        <path id="Trazado_198858" data-name="Trazado 198858" d="M2095.011,1138.482v-1.368a5.8,5.8,0,0,1-2.449-.619l.432-1.685a5.091,5.091,0,0,0,2.391.633c.821,0,1.383-.317,1.383-.893,0-.548-.461-.894-1.526-1.254-1.542-.518-2.594-1.239-2.594-2.636a2.662,2.662,0,0,1,2.435-2.564v-1.369h1.411V1128a5.2,5.2,0,0,1,2.089.475l-.418,1.628a4.777,4.777,0,0,0-2.074-.49c-.936,0-1.239.4-1.239.807,0,.475.5.778,1.729,1.239,1.714.605,2.405,1.4,2.405,2.694a2.761,2.761,0,0,1-2.564,2.665v1.468Z" transform="translate(-1838.763 -990.072)" fill="#fff"/>
        <path id="Trazado_198859" data-name="Trazado 198859" d="M2138.081,924.716a5.5,5.5,0,1,1-5.5-5.5,5.5,5.5,0,0,1,5.5,5.5" transform="translate(-1869.089 -807.725)" fill="#ffdda6"/>
        <path id="Trazado_198860" data-name="Trazado 198860" d="M2157.747,942.137V941.3a3.55,3.55,0,0,1-1.5-.379l.264-1.031a3.116,3.116,0,0,0,1.463.387c.5,0,.846-.194.846-.546,0-.335-.282-.547-.934-.767-.943-.317-1.587-.758-1.587-1.612a1.628,1.628,0,0,1,1.49-1.569v-.838h.864v.776a3.181,3.181,0,0,1,1.278.291l-.255,1a2.924,2.924,0,0,0-1.269-.3c-.573,0-.758.247-.758.494,0,.291.309.476,1.058.758,1.049.37,1.472.855,1.472,1.648a1.689,1.689,0,0,1-1.569,1.63v.9Z" transform="translate(-1894.726 -821.55)" fill="#fff"/>
        <path id="Trazado_198861" data-name="Trazado 198861" d="M1253.3,537.773c.141.07,2.149,2.29,1.268,2.713a4.186,4.186,0,0,1-2.078.247Z" transform="translate(-1100.579 -472.549)" fill="#d28572"/>
        <path id="Trazado_198862" data-name="Trazado 198862" d="M1168.725,576.757l-2.44,7.175,6.477,3.411,1.679-9.557-5.713-1.028Z" transform="translate(-1024.831 -506.805)" fill="#ffbc96"/>
        <path id="Trazado_198863" data-name="Trazado 198863" d="M1204.4,583.317l-.854,5.1a18.914,18.914,0,0,1-3.018-5.671l1.2-.068Z" transform="translate(-1054.918 -512.007)" fill="#d28572"/>
        <path id="Trazado_198864" data-name="Trazado 198864" d="M1195.208,498.359s1.454,10.062-1.338,10.818-7.445-2.792-7.445-2.792l1.4-8.376,4.071-1.338Z" transform="translate(-1042.528 -436.433)" fill="#ffbc96"/>
        <path id="Trazado_198865" data-name="Trazado 198865" d="M1189.73,484.769s-2.617-1.047-4.362,3.432l-.872,1.512-4.3-.465.7-5.467,3.781-1.861s4.246-2.85,5.06,2.85" transform="translate(-1037.05 -422.843)" fill="#1b1b43"/>
        <path id="Trazado_198866" data-name="Trazado 198866" d="M1163.8,489.324s-2.191-1.57-5.681,1.919-1.706,10.431,2.016,10.353c3.628-.076,2.617-3.664,2.385-4.3s1.28-7.968,1.28-7.968" transform="translate(-1016.005 -429.667)" fill="#1b1b43"/>
        <path id="Trazado_198867" data-name="Trazado 198867" d="M1203.458,534.481a1.691,1.691,0,1,1-2.408-.818,1.806,1.806,0,0,1,2.408.818" transform="translate(-1054.692 -468.761)" fill="#ffbc96"/>
        <path id="Trazado_198868" data-name="Trazado 198868" d="M1210.058,543.7a1.443,1.443,0,0,0-.371-.941.964.964,0,0,0-.765-.212l-.033-.362a1.309,1.309,0,0,1,1.045.307,1.792,1.792,0,0,1,.488,1.208h-.364Z" transform="translate(-1062.268 -476.419)" fill="#1b1b43"/>
        <g id="Grupo_137426" data-name="Grupo 137426" transform="translate(149.095 66.19)" opacity="0.4">
          <g id="Grupo_137425" data-name="Grupo 137425">
            <g id="Grupo_137424" data-name="Grupo 137424" clip-path="url(#clip-path-5)">
              <path id="Trazado_198869" data-name="Trazado 198869" d="M1232.065,547.132a1.395,1.395,0,1,1-1.395-1.395,1.395,1.395,0,0,1,1.395,1.395" transform="translate(-1229.276 -545.737)" fill="#7e5ee3"/>
            </g>
          </g>
        </g>
        <path id="Trazado_198870" data-name="Trazado 198870" d="M1124.675,492.245a3.141,3.141,0,1,1-3.141-3.141,3.141,3.141,0,0,1,3.141,3.141" transform="translate(-982.747 -429.783)" fill="#1b1b43"/>
        <path id="Trazado_198871" data-name="Trazado 198871" d="M1141.186,1449.349a45.654,45.654,0,0,1-.865-5.419l-6.648.41.162,4.305a16.749,16.749,0,0,0,8.439,2.875,6.276,6.276,0,0,1-1.088-2.172" transform="translate(-996.173 -1268.802)" fill="#d28572"/>
        <path id="Trazado_198872" data-name="Trazado 198872" d="M1147.6,1489.476c-.837-.913-2.826-2.035-4.148-3.793a16.748,16.748,0,0,1-8.439-2.876l.293,7.762h1.321l.729-3.688s4.417,3.552,7.513,3.734,3.233-.592,2.732-1.138" transform="translate(-997.351 -1302.963)" fill="#1b1b43"/>
        <path id="Trazado_198873" data-name="Trazado 198873" d="M1104.817,926.414c-1.546,1.344,1.229,50,2.186,64.753l9.153-.137-1.5-62.7Z" transform="translate(-970.415 -814.053)" fill="#1b1b43"/>
        <path id="Trazado_198874" data-name="Trazado 198874" d="M1191.871,1449.349a45.611,45.611,0,0,1-.865-5.419l-6.648.41.163,4.305a16.749,16.749,0,0,0,8.439,2.875,6.274,6.274,0,0,1-1.088-2.172" transform="translate(-1040.711 -1268.802)" fill="#ffbc96"/>
        <path id="Trazado_198875" data-name="Trazado 198875" d="M1198.286,1489.476c-.837-.913-2.826-2.035-4.148-3.793a16.748,16.748,0,0,1-8.439-2.876l.293,7.762h1.32l.729-3.688s4.417,3.552,7.513,3.734,3.233-.592,2.732-1.138" transform="translate(-1041.889 -1302.963)" fill="#1b1b43"/>
        <path id="Trazado_198876" data-name="Trazado 198876" d="M1132.922,933.172l5.167,63.926,9.586.281s.41-51.5-1.776-63.387Z" transform="translate(-995.514 -819.992)" fill="#5254cf"/>
        <path id="Trazado_198877" data-name="Trazado 198877" d="M1225.57,1178.335l-.066,0-.954-.08.03-.363.953.079a.411.411,0,1,0,.041-.82l-3.074-.049.006-.364,3.074.049a.775.775,0,0,1-.011,1.549" transform="translate(-1074.229 -1034.016)" fill="#1b1b43"/>
        <path id="Trazado_198878" data-name="Trazado 198878" d="M1171.593,600.933l.637-2.846a32.786,32.786,0,0,1,5.032,2.939,3.635,3.635,0,0,1,1.414,2.629l.18,2.561-5.464-1.5Z" transform="translate(-1029.495 -525.548)" fill="#fed3d1"/>
        <path id="Trazado_198879" data-name="Trazado 198879" d="M1402.928,827.393a10.578,10.578,0,0,1-7.1-2.914l-.091-4.69,8.014.638,2.231,2.095Z" transform="translate(-1226.45 -720.359)" fill="#d28572"/>
        <path id="Trazado_198880" data-name="Trazado 198880" d="M1297.743,818.483s3.415-.774,3.734-7.331l-3.005,2.368Z" transform="translate(-1140.345 -712.771)" fill="#1b1b43"/>
        <path id="Trazado_198881" data-name="Trazado 198881" d="M1098.024,621.552l4.963,2.569a6.914,6.914,0,0,1,3.573,4.624,101.951,101.951,0,0,1,1.39,36.8,46.367,46.367,0,0,1-20.081-6.193l3.851-29.126a10.033,10.033,0,0,1,3.59-6.447Z" transform="translate(-955.926 -546.167)" fill="#7e5ee3"/>
        <path id="Trazado_198882" data-name="Trazado 198882" d="M1273.489,810.026l8.978.4a6.031,6.031,0,0,1,2.614.712,20.305,20.305,0,0,1,3.577,2.486,1.843,1.843,0,0,1-.044,2.815l-1.1.9a1.846,1.846,0,0,1-.3.2l-1.565.835a1.78,1.78,0,0,1-.766.214,5.363,5.363,0,0,1-4.2-1.748l-11.475-1.3,1.913-4.3Z" transform="translate(-1115.271 -711.781)" fill="#ffbc96"/>
        <path id="Trazado_198883" data-name="Trazado 198883" d="M1384.071,811.548l-5.414-1.783a1.566,1.566,0,0,0-.809-.047c-1.29.266-5.085,1.146-4.432,2.172.478.751,4.28-.432,4.28-.432Z" transform="translate(-1206.774 -711.482)" fill="#d28572"/>
        <path id="Trazado_198884" data-name="Trazado 198884" d="M1351.937,851.075h0a.732.732,0,0,1-.191-1.017l.826-1.209a.732.732,0,0,1,1.208.826l-.826,1.209a.732.732,0,0,1-1.017.191" transform="translate(-1187.686 -745.616)" fill="#d28572"/>
        <path id="Trazado_198885" data-name="Trazado 198885" d="M1360.528,853.156h0a.732.732,0,0,1-.191-1.017l1.1-1.613a.732.732,0,1,1,1.208.826l-1.1,1.613a.732.732,0,0,1-1.017.191" transform="translate(-1195.235 -747.089)" fill="#d28572"/>
        <path id="Trazado_198886" data-name="Trazado 198886" d="M1370.943,860.891h0a.732.732,0,0,1-.191-1.017l.826-1.209a.732.732,0,1,1,1.208.826l-.826,1.209a.732.732,0,0,1-1.017.191" transform="translate(-1204.387 -754.241)" fill="#d28572"/>
        <path id="Trazado_198887" data-name="Trazado 198887" d="M1380.57,868.83l-.045-.031a.615.615,0,0,1-.161-.854l.59-.863a.615.615,0,0,1,.854-.161l.045.031a.615.615,0,0,1,.161.854l-.59.863a.615.615,0,0,1-.854.161" transform="translate(-1212.851 -761.681)" fill="#d28572"/>
        <path id="Trazado_198888" data-name="Trazado 198888" d="M1173.984,663.964s3.188-1.821,4.007,15.755l10.656,2.049a19.556,19.556,0,0,0-3.734,7.331l-9.074-.975a5.97,5.97,0,0,1-5.315-5.478l-1.185-15.4Z" transform="translate(-1027.514 -583.388)" fill="#7e5ee3"/>
        <path id="Trazado_198889" data-name="Trazado 198889" d="M1186.244,713.994l-9.648-.985a6.038,6.038,0,0,1-5.419-5.748l-.483-11.249.364-.016.483,11.249a5.675,5.675,0,0,0,5.093,5.4l9.329.953a16.934,16.934,0,0,1,3.521-7.017l-10.463-2.012-1.856-12.5.36-.053,1.818,12.246,10.866,2.09-.243.243a16.135,16.135,0,0,0-3.685,7.243Z" transform="translate(-1028.704 -608.084)" fill="#1b1b43"/>
        <rect id="Rectángulo_43860" data-name="Rectángulo 43860" width="0.364" height="6.139" transform="matrix(0.224, -0.975, 0.975, 0.224, 143.504, 108.231)" fill="#1b1b43"/>
        <path id="Trazado_198890" data-name="Trazado 198890" d="M1413.581,841.9l-1.134-2.029-1.119-.559.109-.217,1.186.593,1.17,2.094Z" transform="translate(-1240.153 -737.322)" fill="#d28572"/>
        <rect id="Rectángulo_43861" data-name="Rectángulo 43861" width="0.243" height="2.515" transform="matrix(0.858, -0.513, 0.513, 0.858, 170.852, 103.457)" fill="#d28572"/>
        <rect id="Rectángulo_43862" data-name="Rectángulo 43862" width="0.243" height="2.515" transform="matrix(0.858, -0.513, 0.513, 0.858, 169.366, 104.275)" fill="#d28572"/>
        <path id="Trazado_198891" data-name="Trazado 198891" d="M1534.505,1441.686l-.091,6.922-7.65,5.009h14.481l.546-12.841Z" transform="translate(-1341.589 -1266.029)" fill="#1b1b43"/>
        <rect id="Rectángulo_43863" data-name="Rectángulo 43863" width="0.485" height="2.945" transform="matrix(0.585, -0.811, 0.811, 0.585, 192.683, 182.775)" fill="#fefefe"/>
        <path id="Trazado_198892" data-name="Trazado 198892" d="M1796.384,1424.256l1.639,8.88,5.191,5.965h-10.792l-2.095-12.841Z" transform="translate(-1573.186 -1251.514)" fill="#1b1b43"/>
        <rect id="Rectángulo_43864" data-name="Rectángulo 43864" width="2.722" height="0.485" transform="translate(222.847 183.494) rotate(-48.345)" fill="#fefefe"/>
        <path id="Trazado_198893" data-name="Trazado 198893" d="M1576.786,900.749s-4.463,18.032-3.1,66.392h10.382s2.732-40.436,6.557-67.758Z" transform="translate(-1382.594 -790.301)" fill="#5254cf"/>
        <path id="Trazado_198894" data-name="Trazado 198894" d="M1683.642,897.13l8.151,66.8-10.7,1.776-12.9-68.443Z" transform="translate(-1465.863 -788.321)" fill="#5254cf"/>
        <path id="Trazado_198895" data-name="Trazado 198895" d="M1668.912,1024.942l-2.889-16.532-3.433-.624.065-.358,3.683.669.022.125,2.911,16.656Z" transform="translate(-1460.941 -885.242)" fill="#1b1b43"/>
        <path id="Trazado_198896" data-name="Trazado 198896" d="M1576.353,1224.341a.656.656,0,0,1-.651-.59.658.658,0,0,1,.538-.711l2.994-.53.063.358-2.994.53a.293.293,0,0,0-.239.316.291.291,0,0,0,.32.261l1.286-.133.037.362-1.286.133a.683.683,0,0,1-.069,0" transform="translate(-1384.589 -1074.237)" fill="#1b1b43"/>
        <path id="Trazado_198897" data-name="Trazado 198897" d="M1730.374,1218.494a.655.655,0,0,1-.651-.59.659.659,0,0,1,.538-.711l2.994-.53.063.358-2.994.53a.293.293,0,0,0-.239.316.291.291,0,0,0,.32.261l1.286-.133.038.362-1.286.133a.683.683,0,0,1-.069,0" transform="translate(-1519.929 -1069.099)" fill="#1b1b43"/>
        <path id="Trazado_198898" data-name="Trazado 198898" d="M1611.37,610.958l-9.266,23.78-1,12.568,19.945,1.366-2.906-37.522Z" transform="translate(-1406.911 -536.858)" fill="#fff"/>
        <g id="Grupo_137429" data-name="Grupo 137429" transform="translate(194.566 87.557)" opacity="0.2">
          <g id="Grupo_137428" data-name="Grupo 137428">
            <g id="Grupo_137427" data-name="Grupo 137427" clip-path="url(#clip-path-6)">
              <path id="Trazado_198899" data-name="Trazado 198899" d="M1604.192,729.424a15.677,15.677,0,0,0,4.522-.352,17.933,17.933,0,0,0,4.2-1.512,18.786,18.786,0,0,0,1.917-1.156c.306-.215.635-.4.924-.641s.584-.473.883-.7a9.211,9.211,0,0,0,.854-.745l.845-.769c.542-.536,1.054-1.1,1.624-1.639-.4.662-.814,1.32-1.267,1.954l-.748.9a7.758,7.758,0,0,1-.8.86,16.089,16.089,0,0,1-3.79,2.8,14.044,14.044,0,0,1-4.517,1.394,10.317,10.317,0,0,1-4.647-.391" transform="translate(-1604.192 -721.904)" fill="#1b1b43"/>
            </g>
          </g>
        </g>
        <path id="Trazado_198900" data-name="Trazado 198900" d="M1583.987,610.958s-3.828,5.579-7.5,46.1a.29.29,0,0,1-.456.212l-6.089-4.365,5.328-34.7Z" transform="translate(-1379.528 -536.858)" fill="#1b1b43"/>
        <path id="Trazado_198901" data-name="Trazado 198901" d="M1483.035,610.958l-8.085,2.2a3.643,3.643,0,0,0-2.555,2.542l-5.32,19.177-11.2,2.049-.82,6.967,14.536-.681a3.745,3.745,0,0,0,3.5-3.039l3.955-20.732Z" transform="translate(-1278.576 -536.858)" fill="#1b1b43"/>
        <path id="Trazado_198902" data-name="Trazado 198902" d="M1711.638,612.538s-4.253,29.315-4.132,46.052l13.341-.607.026-28.141Z" transform="translate(-1500.407 -538.246)" fill="#1b1b43"/>
        <path id="Trazado_198903" data-name="Trazado 198903" d="M1678.889,838.213l-19.144-2.542a.547.547,0,0,1-.47-.614l1.893-14.259a.547.547,0,0,1,.614-.47l19.144,2.542a.547.547,0,0,1,.47.614l-1.893,14.259a.547.547,0,0,1-.614.47" transform="translate(-1458.024 -720.83)" fill="#ffdda6"/>
        <path id="Trazado_198904" data-name="Trazado 198904" d="M1740.189,884.878l-.025,0h0l-2.459-.327a.191.191,0,0,1-.165-.215l.243-1.832a.192.192,0,0,1,.216-.164l2.459.327a.192.192,0,0,1,.165.215l-.243,1.832a.192.192,0,0,1-.189.166m-2.4-.562,2.358.313.23-1.731-2.358-.313Zm-.007.05h0Zm.186-1.788h0Z" transform="translate(-1526.799 -775.321)" fill="#fff"/>
        <path id="Trazado_198905" data-name="Trazado 198905" d="M1733.175,887.315l-.587.839a3.251,3.251,0,0,1-1.618,1.22c-1.327.449-4.049,1.3-3.685,2.137.208.481,2.743-.174,2.743-.174s-2.929,3.453-1.7,4.5a3.922,3.922,0,0,0,1.59.687,6.268,6.268,0,0,0,2.347.054,2.626,2.626,0,0,0,1.577-.871,12.409,12.409,0,0,0,1.362-1.884,22.623,22.623,0,0,0,2.26-4.936Z" transform="translate(-1517.76 -779.696)" fill="#d28572"/>
        <path id="Trazado_198906" data-name="Trazado 198906" d="M1741.592,612.538l6.01,1.33a5.058,5.058,0,0,1,3.616,3.094l6.027,13.889a7.243,7.243,0,0,1-.387,6.53l-6.806,11.678-5.282-2.823,5.009-12.568Z" transform="translate(-1530.361 -538.246)" fill="#1b1b43"/>
        <path id="Trazado_198907" data-name="Trazado 198907" d="M1686.5,637.782a5.706,5.706,0,0,1-3.246-1.1l.228-.283a4.9,4.9,0,0,0,5.136.467l.174.32a4.746,4.746,0,0,1-2.292.594" transform="translate(-1479.095 -559.216)" fill="#1b1b43"/>
        <rect id="Rectángulo_43866" data-name="Rectángulo 43866" width="33.768" height="0.364" transform="matrix(0.142, -0.99, 0.99, 0.142, 190.235, 116.024)" fill="#5254cf"/>
        <path id="Trazado_198908" data-name="Trazado 198908" d="M1766.756,719.344l-.334-.143,5.677-13.287-4.255-10.117.335-.141,4.315,10.259Z" transform="translate(-1552.179 -611.283)" fill="#5254cf"/>
        <rect id="Rectángulo_43867" data-name="Rectángulo 43867" width="2.444" height="0.243" transform="matrix(0.562, -0.827, 0.827, 0.562, 210.718, 116.193)" fill="#925d4f"/>
        <rect id="Rectángulo_43868" data-name="Rectángulo 43868" width="2.444" height="0.243" transform="matrix(0.562, -0.827, 0.827, 0.562, 212.012, 116.799)" fill="#925d4f"/>
        <rect id="Rectángulo_43869" data-name="Rectángulo 43869" width="2.445" height="0.243" transform="matrix(0.562, -0.827, 0.827, 0.562, 213.912, 116.84)" fill="#925d4f"/>
        <path id="Trazado_198909" data-name="Trazado 198909" d="M1654,517.476s-2.981,2.555-2.044,3.407a4.584,4.584,0,0,0,2.215,1.022Z" transform="translate(-1451.438 -454.714)" fill="#925d4f"/>
        <path id="Trazado_198910" data-name="Trazado 198910" d="M1692.727,541.957l-.189,8.563c-3.386,3.512-6.773-.194-6.773-.194l.243-1.756.107-.781.48-3.5.126-.927,3.532-.825Z" transform="translate(-1481.305 -476.225)" fill="#d28572"/>
        <path id="Trazado_198911" data-name="Trazado 198911" d="M1692.345,555.121a15.086,15.086,0,0,1-4.58,4.7l.107-.781.48-3.5,3.629-.781Z" transform="translate(-1483.063 -487.473)" fill="#925d4f"/>
        <path id="Trazado_198912" data-name="Trazado 198912" d="M1663.663,486.724s-1.959,10.562.681,10.392,7.581-2.9,7.581-2.9l.6-5.025-2.215-3.322-3.833.085Z" transform="translate(-1461.269 -426.943)" fill="#d28572"/>
        <path id="Trazado_198913" data-name="Trazado 198913" d="M1652.725,475.262s2.236,3.865,3.354,3.737,3.13-7.283.671-10.253-8.05-1.278-8.5-1.278-2.939-.064-4.632-.1c0,0,1.374,5.079,7,3.546,0,0,.671,2.46,2.012,2.779Z" transform="translate(-1444.273 -410.349)" fill="#1b1b43"/>
        <path id="Trazado_198914" data-name="Trazado 198914" d="M1708.36,513.9a1.621,1.621,0,1,1-.871-2.357,1.8,1.8,0,0,1,.871,2.357" transform="translate(-1498.408 -449.437)" fill="#d28572"/>
        <g id="Grupo_137432" data-name="Grupo 137432" transform="translate(203.037 63.916)" opacity="0.3">
          <g id="Grupo_137431" data-name="Grupo 137431">
            <g id="Grupo_137430" data-name="Grupo 137430" clip-path="url(#clip-path-7)">
              <path id="Trazado_198915" data-name="Trazado 198915" d="M1676.875,528.412a1.425,1.425,0,1,1-1.425-1.425,1.425,1.425,0,0,1,1.425,1.425" transform="translate(-1674.026 -526.987)" fill="#be443d"/>
            </g>
          </g>
        </g>
        <path id="Trazado_198916" data-name="Trazado 198916" d="M1712.548,522.837a1.643,1.643,0,0,1,.2-1.193,1.551,1.551,0,0,1,1.1-.637l.059.359a1.206,1.206,0,0,0-.86.479,1.276,1.276,0,0,0-.145.905Z" transform="translate(-1504.807 -457.816)" fill="#1b1b43"/>
        <path id="Trazado_198917" data-name="Trazado 198917" d="M666.76,1136.416l-9.153-3.506c1.011,5.393,1.555,36.828,1.63,41.493l6.358,1.2c1.074-14.828,1.165-39.189,1.165-39.189" transform="translate(-577.848 -995.504)" fill="#ffbc96"/>
        <path id="Trazado_198918" data-name="Trazado 198918" d="M682.6,1483.115c-2.824-3.416-4.054-2.323-6.467-6.786.006-.034.013-.073.019-.108l-6.358-1.2c.006.376.009.583.009.583l-.182,8.2h1.73l1-3.688,4.144,3.688h5.661c.351,0,.665-.411.442-.682" transform="translate(-588.405 -1296.119)" fill="#7e5ee3"/>
        <path id="Trazado_198919" data-name="Trazado 198919" d="M552.331,1125.253l-8.552-4.789c.223,5.483-3.771,36.667-4.369,41.294l6.118,2.107c3.2-14.518,6.8-38.612,6.8-38.612" transform="translate(-473.987 -984.568)" fill="#ffbc96"/>
        <path id="Trazado_198920" data-name="Trazado 198920" d="M540.5,1470.794c-2.3-3.788-3.676-2.884-5.421-7.648l.034-.1L529,1460.935c-.048.373-.075.578-.075.578l-1.362,8.085,1.712.25,1.523-3.505,3.931,4.99,5.24.074c.347.051.718-.311.535-.611" transform="translate(-463.577 -1283.744)" fill="#7e5ee3"/>
        <path id="Trazado_198921" data-name="Trazado 198921" d="M560.533,908.053s-1.913,17.076.82,29.644c0,0,10.246,3.279,19.535-.546,0,0,.82-26.912-2.869-31.01Z" transform="translate(-491.976 -796.238)" fill="#1b1b43"/>
        <path id="Trazado_198922" data-name="Trazado 198922" d="M580.889,1129.641a67.012,67.012,0,0,1-9.608-.727l.059-.359c.124.021,12.528,2.021,19.675-.718l.13.34a30.129,30.129,0,0,1-10.257,1.465" transform="translate(-501.993 -991.046)" fill="#5254cf"/>
        <path id="Trazado_198923" data-name="Trazado 198923" d="M645.118,922.751c-.112-.833-1.093-8.149-1.093-8.514h.364c0,.258.652,5.2,1.09,8.466Z" transform="translate(-565.914 -803.353)" fill="#5254cf"/>
        <path id="Trazado_198924" data-name="Trazado 198924" d="M706.77,1207.742a2.1,2.1,0,0,1-1.524-.7.378.378,0,0,1-.061-.42c.1-.2.394-.4,1.82-.455.74-.028,1.441,0,1.471,0l-.017.485a10.968,10.968,0,0,0-2.769.165,1.661,1.661,0,0,0,1.079.441Z" transform="translate(-619.623 -1059.866)" fill="#d28572"/>
        <path id="Trazado_198925" data-name="Trazado 198925" d="M610.77,1215.741a2.1,2.1,0,0,1-1.524-.7.378.378,0,0,1-.061-.42c.1-.2.394-.4,1.82-.455.74-.028,1.441,0,1.471,0l-.017.485a10.974,10.974,0,0,0-2.769.165,1.662,1.662,0,0,0,1.079.441Z" transform="translate(-535.266 -1066.895)" fill="#d28572"/>
        <path id="Trazado_198926" data-name="Trazado 198926" d="M567.776,663.9l2.932,3.424a8,8,0,0,1,1.905,5.733l-.892,13.392s.273,6.922,1.184,8.014-1.73,2.095-5.464,2.732-15.3.546-15.847-1.184,2.277-2.914,1.366-7.195l1.821-19.672,2.413-4.189,6.33-.273Z" transform="translate(-484.631 -583.382)" fill="#ffdda6"/>
        <path id="Trazado_198927" data-name="Trazado 198927" d="M670.525,772.929l4.366-16.192,13.056.7-4.781,16.052Z" transform="translate(-589.2 -664.956)" fill="#5254cf"/>
        <path id="Trazado_198928" data-name="Trazado 198928" d="M612.817,819.808s6.4-1.639,8.174-1.3,2.527,1.571,2.186,1.912a1.627,1.627,0,0,1-1.093.273s-.342,3.21-1.571,3.688-10.337,2.072-10.337,2.072l-1-2.618Z" transform="translate(-535.29 -719.195)" fill="#ffbc96"/>
        <path id="Trazado_198929" data-name="Trazado 198929" d="M522.523,691.66l-2.645,6.65-8.481.066h-.027a4.946,4.946,0,0,1-4.727-6.437l4.973-15.819c.022-.077.049-.153.077-.229a3.827,3.827,0,0,1,2.5-2.284l3.366-.978-.038.251-2.831,18.415Z" transform="translate(-444.994 -591.048)" fill="#ffdda6"/>
        <path id="Trazado_198930" data-name="Trazado 198930" d="M646.344,701.874a.819.819,0,1,1,.819-.819.82.82,0,0,1-.819.819m0-1.274a.455.455,0,1,0,.455.455.455.455,0,0,0-.455-.455" transform="translate(-567.232 -615.308)" fill="#5254cf"/>
        <path id="Trazado_198931" data-name="Trazado 198931" d="M570.182,766.826l-6.66-.018v-.364l6.413.017,2.5-6.3-7.8-.364,2.222-9.406.354.084-2.121,8.979,7.872.368Z" transform="translate(-495.174 -659.381)" fill="#995e00"/>
        <path id="Trazado_198932" data-name="Trazado 198932" d="M743.182,752.07l-.323,1.831,4.007.237.259-1.788Z" transform="translate(-652.76 -660.855)" fill="#1b1b43"/>
        <path id="Trazado_198933" data-name="Trazado 198933" d="M696.063,832.3l-1.072-.507-1.543.158-.025-.241,1.61-.165,1.133.536Z" transform="translate(-609.321 -730.692)" fill="#d28572"/>
        <rect id="Rectángulo_43871" data-name="Rectángulo 43871" width="0.243" height="1.449" transform="translate(85.206 102.357) rotate(-59.858)" fill="#d28572"/>
        <rect id="Rectángulo_43872" data-name="Rectángulo 43872" width="0.243" height="1.571" transform="matrix(0.528, -0.849, 0.849, 0.528, 84.657, 103.589)" fill="#d28572"/>
        <path id="Trazado_198934" data-name="Trazado 198934" d="M773.866,805.714s-2.076-4.453-1.457-4.918c.364-.273.774.091.774.091s-.592-1.366-.137-1.594.774.273.774.273.045-1.047.41-1.047.774.637.774.637-.046-.729.455-.774,1.639,2.322,1.867,4.372c.212,1.906.137,5.237-3.962,4.827Z" transform="translate(-678.625 -701.549)" fill="#ffbc96"/>
        <rect id="Rectángulo_43873" data-name="Rectángulo 43873" width="0.242" height="2.143" transform="translate(94.445 99.38) rotate(-20.651)" fill="#d28572"/>
        <rect id="Rectángulo_43874" data-name="Rectángulo 43874" width="0.243" height="2.721" transform="translate(95.092 98.068) rotate(-21.528)" fill="#d28572"/>
        <rect id="Rectángulo_43875" data-name="Rectángulo 43875" width="0.243" height="2.717" transform="translate(96.225 97.565) rotate(-22.478)" fill="#d28572"/>
        <path id="Trazado_198935" data-name="Trazado 198935" d="M623.772,594.818l-6.913.243.97-10.376,4.3,2.667,1.191.738.3,4.12Z" transform="translate(-542.042 -513.77)" fill="#ffbc96"/>
        <path id="Trazado_198936" data-name="Trazado 198936" d="M636.974,611.527c-3.18-.6-4.912-4.372-4.912-4.372l3.426-.486,1.191.738Z" transform="translate(-555.402 -533.089)" fill="#d28572"/>
        <path id="Trazado_198937" data-name="Trazado 198937" d="M624.5,533.063s2.189,10.348-1.791,10.415a17.019,17.019,0,0,1-7.894-2.322l.1-5.572,2.421-2.322,3.914-1.26Z" transform="translate(-540.243 -467.478)" fill="#ffbc96"/>
        <path id="Trazado_198938" data-name="Trazado 198938" d="M559.635,511.2a1.6,1.6,0,0,1-.752.9c-1.009.471-2.217-.611-3.265-.228s-1.13,1.858-1.965,2.586c-.786.679-1.984.5-2.993.252l.718,1.46a5.194,5.194,0,0,0-.961,3.8,7.177,7.177,0,0,1-.534,3.847c-1.2,2.681-2.575,2.964-2.575,2.964l-3.436.9a3.835,3.835,0,0,0-2.5,2.285,7.375,7.375,0,0,1-.9-1.533,3.3,3.3,0,0,1,.1-2.882,15.457,15.457,0,0,0,1.125-1.528c.5-1.15-.233-2.639.475-3.682a3.687,3.687,0,0,1,1.732-1.092c.631-.276,1.3-.7,1.436-1.373a2.609,2.609,0,0,0-.64-1.8,2.026,2.026,0,0,1-.432-1.829c.393-.893,1.7-.834,2.455-1.455.7-.592.752-1.63.946-2.528a4.614,4.614,0,0,1,2.887-3.527c1.708-.534,3.542.272,5,1.3a1.589,1.589,0,0,0,.471.257,2.29,2.29,0,0,0,1.029-.116,2.283,2.283,0,0,1,2.576,3.032" transform="translate(-474.676 -445.12)" fill="#1b1b43"/>
        <path id="Trazado_198939" data-name="Trazado 198939" d="M620.484,569.333a1.821,1.821,0,1,1-2.621-.747,1.934,1.934,0,0,1,2.621.747" transform="translate(-542.239 -499.4)" fill="#ffbc96"/>
        <path id="Trazado_198940" data-name="Trazado 198940" d="M625,579.458a1.647,1.647,0,0,0-.452-1.037,1.12,1.12,0,0,0-.867-.244l-.03-.363a1.468,1.468,0,0,1,1.14.336,1.992,1.992,0,0,1,.572,1.294Z" transform="translate(-548.011 -507.727)" fill="#1b1b43"/>
        <g id="Grupo_137435" data-name="Grupo 137435" transform="translate(78.284 70.769)" opacity="0.4">
          <g id="Grupo_137434" data-name="Grupo 137434">
            <g id="Grupo_137433" data-name="Grupo 137433" clip-path="url(#clip-path-8)">
              <path id="Trazado_198941" data-name="Trazado 198941" d="M647.243,584.39a.9.9,0,1,1-.9-.9.9.9,0,0,1,.9.9" transform="translate(-645.445 -583.491)" fill="#7e5ee3"/>
            </g>
          </g>
        </g>
        <path id="Trazado_198942" data-name="Trazado 198942" d="M681.618,578.052a4.608,4.608,0,0,1,.634.555,3.433,3.433,0,0,1,.526.683,1.3,1.3,0,0,1,.095.215.61.61,0,0,1,.034.278.369.369,0,0,1-.07.167.373.373,0,0,1-.138.11.482.482,0,0,1-.137.041c-.037.006-.074.011-.111.014a3.789,3.789,0,0,1-.849-.02v-.131c.272-.046.548-.08.805-.134.032-.007.063-.015.093-.023a.239.239,0,0,0,.06-.023c.027-.02.021-.019.025-.044a.354.354,0,0,0-.025-.129,1.219,1.219,0,0,0-.076-.162,5.42,5.42,0,0,0-.45-.655l-.506-.649Z" transform="translate(-598.868 -507.943)" fill="#d28572"/>
        <path id="Trazado_198943" data-name="Trazado 198943" d="M668.585,575.985a.311.311,0,1,1-.311-.311.311.311,0,0,1,.311.311" transform="translate(-586.948 -505.853)" fill="#1b1b43"/>
        <path id="Trazado_198944" data-name="Trazado 198944" d="M692.272,574.547a.311.311,0,1,1-.311-.311.311.311,0,0,1,.311.311" transform="translate(-607.762 -504.59)" fill="#1b1b43"/>
        <path id="Trazado_198945" data-name="Trazado 198945" d="M661.862,567.59l-.97.157a.271.271,0,0,1-.087-.536l.97-.157a.271.271,0,1,1,.087.536" transform="translate(-580.458 -498.276)" fill="#1b1b43"/>
        <path id="Trazado_198946" data-name="Trazado 198946" d="M689.193,566.616h-.772a.271.271,0,1,1,0-.543h.772a.271.271,0,0,1,0,.543" transform="translate(-604.687 -497.417)" fill="#1b1b43"/>
        <path id="Trazado_198947" data-name="Trazado 198947" d="M666.09,597.724a2.955,2.955,0,0,0,.522.468,2.211,2.211,0,0,0,.615.3,2.089,2.089,0,0,0,.676.1,2.688,2.688,0,0,0,.348-.023c.117-.013.231-.044.352-.059l.032.089a3.069,3.069,0,0,1-.349.136,2,2,0,0,1-.372.07,1.822,1.822,0,0,1-.76-.08,2,2,0,0,1-1.145-.951Z" transform="translate(-585.231 -525.229)" fill="#1b1b43"/>
        <path id="Trazado_198948" data-name="Trazado 198948" d="M605.741,651.412l-2.232,3.1-3.944-2.717.073-.058a7.413,7.413,0,0,0,2.416-2.935Z" transform="translate(-526.846 -570.107)" fill="#ffdda6"/>
        <path id="Trazado_198949" data-name="Trazado 198949" d="M650.474,649.576l2.687,3.005,2.535-2.7-2.535-3.177Z" transform="translate(-571.58 -568.271)" fill="#ffdda6"/>
        <path id="Trazado_198950" data-name="Trazado 198950" d="M601.668,653.768l-4.247-2.922.206-.3,3.953,2.72,2.019-2.8-3.621-2.5.207-.3,3.927,2.708Z" transform="translate(-524.963 -569.116)" fill="#995e00"/>
        <path id="Trazado_198951" data-name="Trazado 198951" d="M651.371,651.95l-2.93-3.277,2.8-2.99.265.249-2.573,2.747,2.443,2.733,2.358-2.512.265.249Z" transform="translate(-569.794 -567.37)" fill="#995e00"/>
        <rect id="Rectángulo_43877" data-name="Rectángulo 43877" width="277.134" height="0.485" transform="translate(0.854 187.456)" fill="#1b1b43"/>
      </g>
    </g>
  </g>
</svg>
